<?xml version="1.0" encoding="utf-8"?><!-- Generator: Adobe Illustrator 16.0.0, SVG Export Plug-In . SVG Version: 6.00 Build 0) --><!DOCTYPE svg PUBLIC "-//W3C//DTD SVG 1.1//EN" "http://www.w3.org/Graphics/SVG/1.1/DTD/svg11.dtd" [<!ENTITY ns_flows "http://ns.adobe.com/Flows/1.0/"><!ENTITY ns_extend "http://ns.adobe.com/Extensibility/1.0/"><!ENTITY ns_ai "http://ns.adobe.com/AdobeIllustrator/10.0/"><!ENTITY ns_graphs "http://ns.adobe.com/Graphs/1.0/">]><svg version="1.1" id="Layer_1" xmlns:x="&ns_extend;" xmlns:i="&ns_ai;" xmlns:graph="&ns_graphs;" xmlns="http://www.w3.org/2000/svg" xmlns:xlink="http://www.w3.org/1999/xlink" xmlns:a="http://ns.adobe.com/AdobeSVGViewerExtensions/3.0/" x="0px" y="0px" width="370px" height="178.58px" viewBox="0 -75.39 370 178.58" enable-background="new 0 -75.39 370 178.58" xml:space="preserve"><g id="Layer_13"></g><g id="Wordmark_1_"></g><g id="Icon:_Twitter_1_"><g id="twitter_x5F_newbird_x5F_boxed_x5F_whiteonblue_xA0_Image_1_"></g></g><g id="Icon:_UChicago_mobile_1_"><g id="Shape_11_xA0_Image_1_"></g><g id="m"></g><g id="bars_1_"></g></g><g id="Icon:_Futurity_1_"><g id="Shape_10_xA0_Image_1_"></g><g id="futurity_xA0_Image_1_"></g></g><g><g><polygon fill="#FFFFFF" points="4.1,1.42 5.2,1.42 5.9,3.98 5.97,3.98 6.64,1.42 7.75,1.42 6.48,5.17 6.48,7.83 5.4,7.83 5.4,5.29 "/><path fill="#FFFFFF" d="M7.83,4.18c0-0.37,0.13-0.66,0.39-0.88c0.26-0.22,0.61-0.32,1.05-0.32c0.4,0,0.73,0.11,0.98,0.34c0.25,0.23,0.38,0.52,0.38,0.88v2.44c0,0.4-0.12,0.72-0.37,0.95c-0.25,0.23-0.6,0.35-1.03,0.35c-0.42,0-0.76-0.12-1.01-0.36C7.96,7.35,7.83,7.03,7.83,6.63V4.18z M8.82,6.72c0,0.13,0.03,0.23,0.1,0.3c0.07,0.07,0.17,0.11,0.29,0.11c0.13,0,0.23-0.04,0.31-0.11c0.08-0.07,0.12-0.17,0.12-0.3V4.14c0-0.1-0.04-0.19-0.12-0.25C9.45,3.83,9.35,3.8,9.22,3.8c-0.12,0-0.21,0.03-0.29,0.1C8.86,3.96,8.82,4.04,8.82,4.14V6.72z"/><path fill="#FFFFFF" d="M14.17,3.1v4.73H13.2V7.3c-0.17,0.2-0.35,0.34-0.55,0.44c-0.19,0.1-0.38,0.15-0.56,0.15c-0.23,0-0.39-0.07-0.5-0.21c-0.11-0.14-0.17-0.35-0.17-0.63V3.1h0.96v3.63c0,0.11,0.02,0.19,0.06,0.24c0.04,0.05,0.11,0.08,0.2,0.08c0.07,0,0.16-0.03,0.27-0.1c0.11-0.07,0.21-0.15,0.3-0.26V3.1H14.17z"/></g><g><g><path fill="#FFFFFF" d="M16.03,9.13H2.97C1.34,9.13,0,10.47,0,12.1v3.36c0,1.74,1.43,3.17,3.17,3.17h12.67c1.74,0,3.17-1.42,3.17-3.17V12.1C19,10.47,17.66,9.13,16.03,9.13z M6.25,11.26h-1v4.98H4.28v-4.98h-1v-0.85h2.97V11.26z M9.08,16.23H8.22v-0.47c-0.16,0.18-0.32,0.31-0.5,0.4c-0.17,0.09-0.34,0.14-0.5,0.14c-0.2,0-0.35-0.06-0.45-0.19s-0.15-0.32-0.15-0.58v-3.59h0.86v3.29c0,0.1,0.02,0.18,0.05,0.22c0.04,0.05,0.1,0.07,0.18,0.07c0.06,0,0.14-0.03,0.24-0.09c0.1-0.06,0.19-0.14,0.27-0.23v-3.26h0.86V16.23z M12.19,15.34c0,0.3-0.07,0.54-0.2,0.7c-0.13,0.16-0.33,0.24-0.58,0.24c-0.17,0-0.32-0.03-0.45-0.09c-0.13-0.06-0.26-0.16-0.37-0.29v0.33H9.72v-5.82h0.87v1.87c0.12-0.13,0.24-0.23,0.37-0.3c0.13-0.07,0.26-0.1,0.4-0.1c0.27,0,0.48,0.09,0.62,0.27c0.14,0.18,0.22,0.45,0.22,0.8v2.39H12.19z M15.17,14.19h-1.64V15c0,0.23,0.03,0.38,0.08,0.47c0.06,0.09,0.16,0.13,0.29,0.13c0.14,0,0.24-0.04,0.3-0.11c0.06-0.07,0.09-0.24,0.09-0.49v-0.2h0.88v0.22c0,0.44-0.11,0.77-0.32,1c-0.21,0.22-0.54,0.33-0.96,0.33c-0.38,0-0.69-0.12-0.91-0.35c-0.22-0.24-0.33-0.56-0.33-0.97V13.1c0-0.37,0.12-0.67,0.36-0.91c0.24-0.23,0.56-0.35,0.94-0.35c0.39,0,0.7,0.11,0.91,0.33c0.21,0.22,0.32,0.53,0.32,0.94v1.08H15.17z M10.95,12.57c-0.06,0-0.12,0.01-0.18,0.04s-0.12,0.07-0.18,0.13v2.68c0.07,0.07,0.14,0.12,0.2,0.15c0.07,0.03,0.14,0.05,0.21,0.05c0.1,0,0.18-0.03,0.23-0.09c0.05-0.06,0.07-0.16,0.07-0.3v-2.22c0-0.15-0.03-0.26-0.09-0.33C11.15,12.6,11.06,12.57,10.95,12.57z M13.91,12.58c-0.14,0-0.23,0.04-0.29,0.12s-0.09,0.21-0.09,0.38v0.43h0.76v-0.43c0-0.18-0.03-0.31-0.09-0.38C14.14,12.62,14.04,12.58,13.91,12.58z"/></g></g></g><path fill="#3E769A" d="M187.13,42.93c-0.92,0.41-1.91,0.68-2.94,0.81c1.06-0.63,1.87-1.64,2.25-2.84c-0.99,0.59-2.09,1.02-3.26,1.25c-0.94-1-2.27-1.62-3.74-1.62c-2.83,0-5.13,2.3-5.13,5.13c0,0.4,0.04,0.79,0.13,1.17c-4.26-0.21-8.04-2.25-10.57-5.36c-0.44,0.76-0.69,1.64-0.69,2.58c0,1.78,0.91,3.35,2.28,4.27c-0.84-0.03-1.63-0.26-2.32-0.64c0,0.02,0,0.04,0,0.06c0,2.48,1.77,4.56,4.12,5.03c-0.43,0.12-0.88,0.18-1.35,0.18c-0.33,0-0.65-0.03-0.97-0.09c0.65,2.04,2.55,3.52,4.79,3.56c-1.76,1.37-3.97,2.19-6.37,2.19c-0.41,0-0.82-0.02-1.22-0.07c2.27,1.45,4.97,2.3,7.86,2.3c9.44,0,14.59-7.82,14.59-14.59c0-0.22-0.01-0.45-0.01-0.67C185.57,44.87,186.44,43.96,187.13,42.93z"/><g><g><path fill="#3E769A" d="M180.36,0.53h-15.74c-1.45,0-2.63,1.18-2.63,2.62V18.9c0,1.45,1.18,2.63,2.63,2.63h15.74c1.45,0,2.63-1.18,2.63-2.62V3.15C182.99,1.71,181.81,0.53,180.36,0.53z M179.92,11.75h-2.93v7.83h-2.98v-7.83h-2.07V8.93h2.07c0,0,0-1.16,0-2.41c0-1.89,1.22-3.63,4.04-3.63c1.14,0,1.99,0.11,1.99,0.11l-0.07,2.64c0,0-0.86-0.01-1.8-0.01c-1.02,0-1.18,0.47-1.18,1.25c0,0.12,0,0.14,0,0.13v1.93h3.06L179.92,11.75z"/></g></g><g><g><polygon fill="#3E769A" points="167.38,80.53 168.83,80.53 169.76,83.9 169.85,83.9 170.73,80.53 172.19,80.53 170.52,85.46 170.52,88.96 169.09,88.96 169.09,85.62 "/><path fill="#3E769A" d="M172.29,84.16c0-0.48,0.17-0.87,0.51-1.15s0.8-0.43,1.38-0.43c0.52,0,0.96,0.15,1.29,0.46c0.33,0.3,0.5,0.69,0.5,1.16v3.22c0,0.53-0.16,0.95-0.49,1.25c-0.33,0.31-0.79,0.46-1.36,0.46c-0.56,0-1-0.16-1.33-0.47s-0.5-0.73-0.5-1.26V84.16z M173.6,87.51c0,0.17,0.05,0.3,0.14,0.4c0.09,0.09,0.22,0.14,0.39,0.14s0.31-0.05,0.41-0.14c0.1-0.09,0.15-0.23,0.15-0.39v-3.39c0-0.13-0.05-0.24-0.15-0.33c-0.1-0.08-0.24-0.13-0.41-0.13c-0.15,0-0.28,0.04-0.38,0.13c-0.1,0.09-0.15,0.2-0.15,0.33V87.51z"/><path fill="#3E769A" d="M180.64,82.74v6.22h-1.27v-0.69c-0.23,0.25-0.48,0.45-0.73,0.58c-0.25,0.13-0.5,0.2-0.74,0.2c-0.3,0-0.52-0.09-0.66-0.28c-0.15-0.18-0.22-0.46-0.22-0.83v-5.2h1.27v4.77c0,0.15,0.03,0.26,0.08,0.32c0.05,0.07,0.14,0.1,0.26,0.1c0.09,0,0.21-0.04,0.36-0.13c0.14-0.09,0.27-0.2,0.39-0.34v-4.72H180.64z"/></g><g><g><path fill="#3E769A" d="M180.3,95.88c-0.18,0-0.31,0.05-0.39,0.16c-0.08,0.1-0.12,0.27-0.12,0.51v0.57h1v-0.57c0-0.23-0.04-0.41-0.12-0.51C180.6,95.94,180.47,95.88,180.3,95.88z M176.41,95.86c-0.08,0-0.16,0.02-0.24,0.06c-0.08,0.03-0.16,0.09-0.23,0.17v3.52c0.09,0.09,0.18,0.16,0.27,0.2c0.09,0.04,0.18,0.06,0.27,0.06c0.14,0,0.24-0.04,0.3-0.12s0.1-0.21,0.1-0.39v-2.92c0-0.19-0.04-0.34-0.12-0.44C176.68,95.91,176.56,95.86,176.41,95.86z M183.08,90.69H165.9c-2.15,0-3.91,1.76-3.91,3.9v4.43c0,2.29,1.88,4.17,4.17,4.17h16.67c2.29,0,4.17-1.87,4.17-4.17v-4.43C186.99,92.44,185.23,90.69,183.08,90.69z M170.22,94.14h-1.32v6.55h-1.27v-6.55h-1.31v-1.11h3.91L170.22,94.14L170.22,94.14z M173.94,100.69h-1.13v-0.63c-0.21,0.23-0.43,0.41-0.65,0.53c-0.22,0.12-0.44,0.18-0.65,0.18c-0.26,0-0.46-0.08-0.59-0.25c-0.13-0.17-0.2-0.42-0.2-0.76v-4.72h1.13v4.33c0,0.13,0.02,0.23,0.07,0.29c0.05,0.06,0.13,0.09,0.23,0.09c0.08,0,0.19-0.04,0.31-0.12c0.13-0.08,0.24-0.18,0.35-0.3v-4.29h1.13V100.69z M178.04,99.52c0,0.4-0.09,0.71-0.27,0.92c-0.18,0.21-0.43,0.32-0.77,0.32c-0.22,0-0.42-0.04-0.59-0.13c-0.17-0.08-0.34-0.21-0.48-0.38v0.44h-1.14v-7.66h1.14v2.47c0.15-0.17,0.31-0.3,0.48-0.39c0.17-0.09,0.35-0.13,0.52-0.13c0.36,0,0.63,0.12,0.82,0.36c0.19,0.24,0.28,0.6,0.28,1.06L178.04,99.52L178.04,99.52z M181.96,98h-2.16v1.07c0,0.3,0.04,0.5,0.11,0.62c0.08,0.12,0.2,0.17,0.38,0.17c0.19,0,0.32-0.05,0.39-0.15c0.07-0.1,0.11-0.31,0.11-0.64v-0.26h1.16v0.29c0,0.57-0.14,1.02-0.43,1.31c-0.28,0.29-0.7,0.44-1.27,0.44c-0.51,0-0.9-0.16-1.19-0.47c-0.29-0.31-0.44-0.74-0.44-1.28v-2.54c0-0.49,0.16-0.89,0.48-1.2c0.32-0.31,0.73-0.46,1.24-0.46c0.52,0,0.92,0.14,1.19,0.43c0.28,0.29,0.42,0.7,0.42,1.23L181.96,98L181.96,98z"/></g></g></g><g><g><path fill="#FFFFFF" d="M36.62,0.53H22.38C21.07,0.53,20,1.59,20,2.9v14.25c0,1.31,1.07,2.38,2.38,2.38h14.24c1.31,0,2.38-1.06,2.38-2.38V2.9C39,1.59,37.94,0.53,36.62,0.53z M36.22,10.67h-2.65v7.09h-2.7v-7.09H29V8.12h1.87c0,0,0-1.05,0-2.18c0-1.71,1.11-3.29,3.66-3.29c1.03,0,1.8,0.1,1.8,0.1l-0.06,2.38c0,0-0.78-0.01-1.63-0.01c-0.92,0-1.07,0.42-1.07,1.13c0,0.1,0,0.13,0,0.12v1.75h2.77L36.22,10.67z"/></g></g><path fill="#FFFFFF" d="M58.5,4.63c-0.66,0.29-1.37,0.49-2.12,0.58c0.76-0.46,1.35-1.18,1.62-2.04c-0.71,0.42-1.5,0.73-2.34,0.9c-0.67-0.72-1.63-1.17-2.7-1.17c-2.04,0-3.69,1.65-3.69,3.69c0,0.29,0.03,0.57,0.09,0.84c-3.07-0.15-5.79-1.62-7.61-3.86c-0.32,0.55-0.5,1.18-0.5,1.86c0,1.28,0.65,2.41,1.64,3.07c-0.6-0.02-1.17-0.19-1.67-0.46c0,0.02,0,0.03,0,0.05c0,1.79,1.27,3.28,2.96,3.62c-0.31,0.08-0.64,0.13-0.97,0.13c-0.24,0-0.47-0.02-0.7-0.07c0.47,1.47,1.83,2.54,3.45,2.57c-1.26,0.99-2.86,1.58-4.59,1.58c-0.3,0-0.59-0.02-0.88-0.05c1.63,1.05,3.58,1.66,5.66,1.66c6.79,0,10.51-5.63,10.51-10.51c0-0.16,0-0.32-0.01-0.48C57.38,6.02,58,5.37,58.5,4.63z"/><g><polygon fill="#FFFFFF" points="61.5,11.52 64.42,11.55 67.46,6.86 70.17,6.86 72.15,2.88 66.82,2.88 "/><polygon fill="#FFFFFF" points="66.15,14.23 68.83,14.23 70.17,12.23 72.84,12.23 74.79,8.88 69.55,8.88 "/><polygon fill="#FFFFFF" points="70.83,17.54 75.52,17.54 77.5,14.86 72.84,14.86 "/></g><g id="Apple_2_"><g><path fill="#FFFFFF" d="M93.87,10.52c-0.02-2.02,1.65-3,1.73-3.04c-0.94-1.38-2.4-1.57-2.92-1.59c-1.25-0.12-2.43,0.74-3.06,0.74s-1.61-0.72-2.64-0.7c-1.36,0.02-2.61,0.79-3.31,2c-1.41,2.45-0.36,6.08,1.02,8.06c0.67,0.97,1.47,2.06,2.52,2.02c1.01-0.04,1.4-0.66,2.62-0.66c1.22,0,1.57,0.66,2.64,0.64c1.09-0.02,1.78-1,2.45-1.97c0.77-1.13,1.09-2.22,1.11-2.28C95.99,13.75,93.89,12.95,93.87,10.52z"/><path fill="#FFFFFF" d="M91.85,4.58c0.56-0.67,0.94-1.62,0.83-2.55c-0.8,0.03-1.78,0.54-2.35,1.21c-0.52,0.6-0.97,1.56-0.85,2.48C90.38,5.78,91.29,5.26,91.85,4.58z"/></g></g><path id="RSS_2_" fill="#FFFFFF" d="M102.5,10.47c1.75,0,3.39,0.68,4.63,1.92c1.24,1.24,1.92,2.9,1.92,4.66h2.69c0-5.12-4.15-9.28-9.24-9.28V10.47z M102.51,5.69c6.23,0,11.3,5.1,11.3,11.36h2.69c0-7.75-6.28-14.06-13.99-14.06V5.69z M106.23,15.17c0,1.03-0.84,1.87-1.87,1.87c-1.03,0-1.87-0.83-1.87-1.87c0-1.03,0.84-1.87,1.87-1.87C105.4,13.31,106.23,14.14,106.23,15.17z"/><g><g><path fill="#FFFFFF" d="M123.13,9.98h2.37v1.14c0.55-0.68,1.26-1.29,2.47-1.29c1.09,0,1.92,0.47,2.36,1.28c0.73-0.83,1.61-1.28,2.75-1.28c1.76,0,2.82,1.02,2.82,2.96v5.24h-2.37v-4.49c0-1.08-0.5-1.64-1.39-1.64c-0.89,0-1.44,0.56-1.44,1.64v4.49h-2.37v-4.49c0-1.08-0.5-1.64-1.39-1.64s-1.44,0.56-1.44,1.64v4.49h-2.37V9.98z"/></g><g id="Shape_19"><g><rect x="123.25" y="6.22" fill="#FFFFFF" width="1.59" height="2.48"/></g></g><g id="Shape_20"><g><rect x="126.59" y="4.58" fill="#FFFFFF" width="1.62" height="4.09"/></g></g><g id="Shape_21"><g><rect x="129.92" y="2.89" fill="#FFFFFF" width="1.62" height="5.81"/></g></g><g id="Shape_22"><g><rect x="133.26" y="2.03" fill="#FFFFFF" width="1.59" height="6.67"/></g></g></g><g id="Search"></g><g id="wordmark"><path fill="#FFFFFF" d="M367.94-70.14l0.02-0.05v-0.05c-0.05-0.9-0.08-2.06-0.08-3.27v-0.24l-0.24,0.05c-0.3,0.07-1.83,0.07-3.31,0.07h-4.57c-0.93,0-1.77-0.02-2.87-0.07h-0.05l-0.05,0.02c-0.2,0.1-0.24,0.39-0.24,0.48c-0.01,0.22,0.05,0.39,0.17,0.47l0.48,0.08c1.26,0.15,1.32,0.29,1.32,2.94v8.94c0,2.63-0.06,2.76-1.32,2.92l-0.69,0.08l-0.05,0.04c-0.14,0.14-0.16,0.37-0.14,0.54c0.03,0.19,0.12,0.33,0.24,0.39l0.04,0.02h0.05c1.16-0.05,2-0.07,3.1-0.07c1,0,1.87,0.03,3.3,0.07h0.05l0.04-0.02c0.16-0.08,0.23-0.3,0.24-0.48c0.01-0.21-0.05-0.38-0.17-0.47l-0.93-0.1c-1.27-0.11-1.34-0.27-1.34-2.92v-3.45c0-0.48,0-0.48,0.63-0.48h1.69c0.87,0,1.52,0.02,1.86,0.12c0.35,0.11,0.54,0.34,0.67,0.81l0.26,1.03l0.04,0.04c0.25,0.21,0.77,0.2,0.93-0.04l0.03-0.05v-0.06c0-0.26-0.02-0.59-0.04-0.96c-0.03-0.45-0.06-0.96-0.06-1.45c0-0.5,0.03-1.04,0.06-1.51c0.02-0.39,0.04-0.74,0.04-1v-0.06l-0.03-0.05c-0.12-0.18-0.37-0.2-0.47-0.2c-0.21,0-0.39,0.07-0.48,0.18l-0.26,1.07c-0.14,0.6-0.31,0.66-0.5,0.73c-0.26,0.09-1.03,0.14-2.05,0.14h-1.69c-0.63,0-0.63,0-0.63-0.48v-5.23c0-0.8,0-0.8,0.56-0.8h1.51c1.03,0,1.84,0,2.36,0.14c1.07,0.28,1.38,0.99,1.6,2.21l0.01,0.07l0.05,0.04c0.1,0.08,0.23,0.13,0.38,0.13C367.62-69.88,367.85-69.96,367.94-70.14L367.94-70.14z M351.27-65.31c0-4.2-2.76-8.71-8.81-8.71c-5.15,0-9.04,3.85-9.04,8.96c0,4.28,3.1,8.61,9.04,8.61C347.48-56.45,351.27-60.26,351.27-65.31L351.27-65.31z M348.4-64.54c0,5.12-3.03,6.94-5.62,6.94c-5.13,0-6.5-5.19-6.5-8.26c0-5.18,3.1-7.01,5.75-7.01C346.73-72.87,348.4-68.38,348.4-64.54L348.4-64.54z M328.08-22.18c0,10.73,7.99,20.21,21.23,20.21c11.51,0,20.69-8.77,20.69-20.81c0-10.49-6.92-20.45-20.69-20.45C337.02-43.23,328.08-34.11,328.08-22.18L328.08-22.18z M334.04-24.09c0-13.06,8.05-17.29,14.25-17.29c11.39,0,15.74,10.61,15.74,20.45c0,11.75-6.8,17.12-13.95,17.12C338.33-3.82,334.04-15.27,334.04-24.09L334.04-24.09z M320.86-72.75c0.13-0.11,0.19-0.29,0.18-0.48c-0.02-0.19-0.11-0.36-0.25-0.45l-0.05-0.03h-0.06c-1.77,0.1-2.81,0.1-4.67,0h-0.05l-0.05,0.02c-0.14,0.07-0.23,0.21-0.26,0.38c-0.03,0.2,0.03,0.41,0.16,0.54l0.05,0.05l0.51,0.06c0.48,0.06,0.78,0.18,0.87,0.24c-0.08,0.36-0.95,1.97-1.47,2.95l-0.11,0.21c-0.6,1.16-1.29,2.4-2.16,3.9c-0.65-1.18-1.29-2.48-1.91-3.75c-0.24-0.49-0.48-0.99-0.73-1.47c-0.18-0.36-0.74-1.63-0.75-1.83c0-0.05,0.11-0.15,0.88-0.26l0.39-0.06l0.04-0.05c0.13-0.13,0.19-0.38,0.14-0.59c-0.04-0.17-0.15-0.29-0.29-0.34l-0.04-0.01h-0.04c-0.61,0.05-1.5,0.07-2.64,0.07c-1.15,0-2.06-0.02-2.87-0.07h-0.06l-0.05,0.03c-0.12,0.07-0.21,0.2-0.23,0.37c-0.04,0.2,0.02,0.41,0.13,0.54l0.04,0.05l0.76,0.14c0.66,0.11,0.99,0.17,1.82,1.79l2.93,5.72c0.7,1.35,0.78,1.63,0.78,2.99v1.27c0,2.7-0.06,2.83-1.32,2.97l-0.84,0.08l-0.05,0.05c-0.14,0.14-0.16,0.38-0.13,0.54c0.03,0.18,0.12,0.32,0.23,0.38l0.04,0.02h0.05c1.34-0.05,2.21-0.07,3.25-0.07c1.01,0,1.9,0.03,3.37,0.07h0.05l0.04-0.02c0.12-0.06,0.21-0.2,0.24-0.38c0.03-0.17,0.01-0.4-0.14-0.54l-0.05-0.05l-1.01-0.08c-1.15-0.09-1.31-0.28-1.31-2.96v-1.29c0-1.86,0.05-2.04,1.14-3.93l1.57-2.71c0.14-0.24,0.28-0.48,0.41-0.71c0.98-1.71,1.68-2.94,2.74-3.12l0.75-0.13L320.86-72.75L320.86-72.75z M312.16-42.34c-1.01-0.24-4.17-0.89-7.57-0.89c-9.01,0-14.91,2.8-18.9,6.98c-3.7,3.94-5.37,9.06-5.37,14.13c0,5.25,1.91,9.96,5.49,13.54C290.4-3.93,296.9-1.96,304-1.96c3.22,0,7.51-0.71,10.67-1.55c1.13-0.3,2.21-0.54,2.92-0.54c0.24-0.18,0.24-0.54,0.06-0.71c-1.07-0.42-1.43-1.85-1.43-4.23v-3.34c0-3.04,0.06-4.71,2.56-5.01l0.96-0.12c0.41-0.36,0.36-1.25-0.06-1.49c-1.97,0.12-4,0.18-6.32,0.18c-3.52,0-6.8-0.06-8.53-0.18c-0.42,0.18-0.48,1.25,0,1.49l2.62,0.3c3.7,0.42,3.87,0.78,3.87,5.78v2.39c0,1.91-0.3,2.98-0.59,3.4c-0.66,1.01-2.86,1.79-6.56,1.79c-11.99,0-17.89-9-17.89-20.46c0-8.94,5.07-17.17,16.64-17.17c6.08,0,10.55,2.03,12.23,8.47c0.36,0.36,1.43,0.3,1.61-0.18c-0.54-3.58-0.9-6.68-0.9-8.65C315.14-41.68,313.29-42.1,312.16-42.34L312.16-42.34z M301.99-74.01l0.02-0.07l-0.03-0.06c-0.09-0.18-0.35-0.21-0.46-0.21c-0.06,0-0.15,0.01-0.23,0.04l-0.06,0.03l-0.03,0.06c-0.32,0.55-0.45,0.6-1.77,0.6h-10.27c-1.11,0-1.61-0.06-1.71-0.61l-0.01-0.06l-0.04-0.04c-0.07-0.07-0.18-0.1-0.34-0.1c-0.06,0-0.26,0.01-0.37,0.08l-0.07,0.04l-0.01,0.08c-0.17,0.99-0.54,2.57-0.94,3.67l-0.03,0.08l0.04,0.07c0.15,0.3,0.66,0.45,0.93,0.24l0.04-0.03l0.02-0.04c0.25-0.58,0.49-1.12,1.07-1.65c0.55-0.5,1.79-0.57,2.93-0.57h1.37c0.55,0,0.55,0,0.55,0.6v11.11c0,2.69-0.15,2.81-1.36,2.92l-0.9,0.07l-0.09,0.03c-0.15,0.09-0.23,0.28-0.22,0.5c0.01,0.17,0.08,0.38,0.24,0.46l0.04,0.02h0.05c1.52-0.05,2.44-0.07,3.45-0.07c0.97,0,1.77,0.02,3.25,0.07h0.05l0.04-0.02c0.21-0.1,0.24-0.39,0.24-0.48c0.01-0.22-0.05-0.39-0.17-0.47l-0.88-0.1c-1.24-0.11-1.32-0.27-1.32-2.92V-71.9c0-0.25,0-0.49,0.04-0.53s0.31-0.04,0.49-0.04h1.76c1.33,0,2.24,0.19,2.77,0.58c0.24,0.17,0.44,0.8,0.54,1.68l0.01,0.05l0.04,0.04c0.09,0.11,0.26,0.18,0.45,0.18c0.24,0,0.43-0.1,0.51-0.26l0.03-0.05l-0.01-0.05C301.55-71.01,301.72-73.01,301.99-74.01L301.99-74.01z M279.34-60.81v-8.85c0-2.71,0.08-2.88,1.34-2.99l0.67-0.05l0.04-0.03c0.12-0.08,0.19-0.26,0.17-0.47c-0.01-0.09-0.04-0.38-0.25-0.48l-0.04-0.02h-0.05c-1.17,0.04-2.05,0.07-3.07,0.07c-1.07,0-1.92-0.03-3.12-0.07h-0.05l-0.05,0.02c-0.2,0.1-0.24,0.39-0.24,0.48c-0.01,0.22,0.05,0.39,0.17,0.47l0.04,0.03l0.67,0.05c1.27,0.11,1.34,0.28,1.34,2.99v8.85c0,2.67-0.06,2.81-1.35,2.97l-0.69,0.08l-0.05,0.05c-0.14,0.14-0.16,0.37-0.13,0.54c0.03,0.18,0.11,0.32,0.23,0.38l0.04,0.02h0.05c1.27-0.05,2.1-0.07,3.12-0.07c0.99,0,1.81,0.02,3.07,0.07h0.05l0.04-0.02c0.2-0.1,0.24-0.39,0.24-0.48c0.01-0.22-0.05-0.39-0.17-0.47l-0.71-0.1C279.4-58,279.34-58.14,279.34-60.81L279.34-60.81z M275.25-4.42c-2.56-0.3-3.34-1.19-5.07-6.32l-8.17-23.97c-0.89-2.62-1.85-5.37-2.62-7.99c-0.12-0.42-0.54-0.54-0.89-0.54c-0.66,0.77-1.67,1.85-3.1,2.27c0.18,0.95-0.18,2.09-1.01,4.23l-6.08,16.1c-2.5,6.68-4.17,10.55-5.25,13.3c-0.83,2.15-2.15,2.8-3.58,2.92l-1.97,0.18c-0.36,0.3-0.24,1.25,0.12,1.49c1.61-0.06,3.76-0.18,5.72-0.18c2.8,0.06,4.65,0.06,6.2,0.18c0.54-0.24,0.54-1.19,0.12-1.49l-1.97-0.18c-1.43-0.12-1.73-0.48-1.73-1.19c0-0.66,0.42-2.27,1.31-4.95l2.09-6.26c0.42-1.25,0.78-1.43,2.27-1.43h9c1.79,0,2.03,0.18,2.45,1.49l2.62,8.11c0.48,1.43,0.78,2.51,0.78,3.16c0,0.6-0.83,0.96-2.08,1.07l-1.73,0.18c-0.42,0.3-0.36,1.25,0.12,1.49c1.73-0.06,4-0.18,6.86-0.18c2.68,0,4.77,0.06,7.21,0.18c0.3-0.24,0.42-1.19,0-1.49L275.25-4.42L275.25-4.42z M259.86-20.63h-7.33c-1.67,0-1.73-0.06-1.25-1.43l3.76-10.38c0.66-1.79,1.25-3.22,1.43-3.52h0.12c0.36,0.72,0.89,2.33,1.37,3.76l3.22,9.72C261.71-20.87,261.59-20.63,259.86-20.63L259.86-20.63z M262.29-70.31c0-0.96,0.36-2.57,2.77-2.57c2.19,0,2.86,1.43,3.2,2.67l0.04,0.07c0.08,0.1,0.21,0.15,0.38,0.15c0.19,0,0.44-0.08,0.55-0.24l0.03-0.05v-0.05c0-1.01-0.21-2.43-0.46-3.1l-0.04-0.12h-0.13c-0.17,0-0.51-0.04-0.82-0.14c-0.59-0.16-1.52-0.33-2.36-0.33c-3.14,0-5.26,1.79-5.26,4.46c0,2.27,1.74,3.75,2.77,4.43l2.36,1.54c1.71,1.11,1.95,2.25,1.95,3.32c0,1.33-0.9,2.67-2.92,2.67c-2.51,0-3.61-1.94-4.09-3.57l-0.02-0.05c-0.08-0.11-0.21-0.17-0.38-0.17s-0.4,0.06-0.53,0.24l-0.04,0.05v0.06c0.05,1.12,0.37,2.96,0.69,3.56l0.03,0.05l0.05,0.03c0.49,0.28,1.85,0.94,3.97,0.94c3.28,0,5.48-1.92,5.48-4.79c0-1.99-1.05-3.6-3.2-4.93l-1.99-1.24C263.56-67.88,262.29-68.88,262.29-70.31L262.29-70.31z M256.03-56.74c0.12-0.09,0.17-0.24,0.15-0.38c-0.02-0.14-0.11-0.24-0.22-0.29l-0.05-0.01c-0.59-0.04-1.19-0.29-1.61-0.65c-1.71-1.44-3.07-3.53-4.95-6.56c-0.13-0.21-0.15-0.31-0.15-0.35c0.83-0.34,3.16-1.56,3.16-4.3c0-2.08-1.18-3.13-2.16-3.65c-1.25-0.67-2.84-0.77-4.24-0.77c-2.28,0-4.04,0.06-5.56,0.2l-0.07,0.02c-0.14,0.07-0.24,0.23-0.25,0.43c-0.02,0.21,0.06,0.42,0.2,0.52l0.04,0.03l0.84,0.1c0.81,0.1,0.93,0.27,0.93,2.72v8.92c0,2.63-0.06,2.76-1.32,2.92l-0.7,0.08l-0.05,0.06c-0.14,0.16-0.15,0.4-0.12,0.57c0.04,0.17,0.12,0.29,0.23,0.35l0.04,0.02h0.05c1.1-0.04,2.01-0.07,3.1-0.07c1.03,0,1.89,0.03,2.95,0.07h0.05l0.04-0.02c0.18-0.09,0.23-0.33,0.24-0.43c0.03-0.22-0.03-0.41-0.15-0.51l-0.04-0.04l-0.58-0.08c-1.28-0.18-1.33-0.29-1.33-2.92v-3.13c0-0.35,0-0.35,0.98-0.35c0.95,0,1.28,0.23,1.61,0.71c0.38,0.55,0.82,1.24,1.24,1.92c0.44,0.7,0.86,1.37,1.19,1.84c1.71,2.43,2.99,3.21,5.3,3.21c0.48,0,0.9-0.05,1.15-0.13L256.03-56.74L256.03-56.74z M248.55-65.98c-0.71,0.54-1.68,0.61-2.44,0.61c-1.12,0-1.47-0.04-1.57-0.07c-0.03-0.1-0.03-0.4-0.03-0.68v-5.83c0-0.56,0-0.61,1.42-0.61c2.79,0,3.79,1.96,3.79,3.64C249.71-67.54,249.34-66.61,248.55-65.98L248.55-65.98z M235.71-60.38l0.01-0.06l-0.02-0.05c-0.11-0.24-0.37-0.35-0.59-0.35c-0.12,0-0.23,0.03-0.32,0.1l-0.06,0.06c-0.71,1.42-1.35,2.14-1.68,2.32c-0.53,0.27-1.29,0.35-3.1,0.35c-2.07,0-2.6-0.25-2.87-0.51c-0.35-0.37-0.42-1.18-0.42-2.45v-3.5c0-0.48,0-0.48,0.63-0.48h1.44c0.87,0,1.52,0.02,1.87,0.12c0.34,0.09,0.52,0.31,0.63,0.8l0.22,0.97l0.04,0.08c0.09,0.11,0.27,0.18,0.47,0.18c0.23,0,0.41-0.08,0.49-0.23l0.03-0.04v-0.05c0-0.24-0.02-0.56-0.04-0.92c-0.03-0.45-0.06-0.97-0.06-1.46c0-0.52,0.03-1.05,0.06-1.52c0.02-0.38,0.04-0.72,0.04-0.99v-0.06l-0.03-0.04c-0.08-0.14-0.27-0.23-0.5-0.23c-0.2,0-0.37,0.07-0.46,0.18l-0.24,1.1c-0.11,0.57-0.25,0.65-0.47,0.72c-0.27,0.09-1.01,0.14-2.05,0.14h-1.44c-0.63,0-0.63,0-0.63-0.51v-4.96c0-0.8,0-0.8,0.56-0.8h1.79c1.05,0,1.86,0.02,2.36,0.14c1.13,0.28,1.36,1,1.71,2.08l0.05,0.15l0.03,0.06c0.08,0.1,0.23,0.16,0.4,0.16s0.41-0.06,0.52-0.22l0.04-0.06l-0.03-0.36c-0.13-1.45-0.25-2.68-0.38-3.05l-0.06-0.16l-0.17,0.04c-0.28,0.07-1.82,0.07-3.31,0.07h-4.67c-0.96,0-1.78-0.02-2.92-0.07h-0.05l-0.04,0.02c-0.2,0.1-0.24,0.39-0.24,0.48c-0.02,0.22,0.05,0.39,0.17,0.47l0.48,0.08c1.27,0.15,1.35,0.32,1.35,2.94v8.94c0,2.69-0.15,2.81-1.37,2.92l-0.89,0.08l-0.05,0.05c-0.14,0.14-0.16,0.37-0.14,0.54c0.03,0.18,0.12,0.32,0.23,0.38l0.04,0.02h0.05c1.44-0.05,2.3-0.07,3.37-0.07h2.24c2.17,0,4.34,0.02,6.65,0.07h0.12l0.05-0.11C234.91-57.58,235.53-59.51,235.71-60.38L235.71-60.38z M218.66-72.76c0.13-0.13,0.16-0.37,0.13-0.53c-0.03-0.18-0.11-0.32-0.23-0.39l-0.05-0.03h-0.06c-0.83,0.05-1.6,0.07-2.4,0.07c-0.98,0-1.91-0.03-2.57-0.07h-0.06l-0.05,0.03c-0.14,0.08-0.23,0.24-0.25,0.44c-0.02,0.2,0.04,0.38,0.17,0.49l0.05,0.04l0.5,0.06c0.87,0.1,0.95,0.28,0.95,0.28c0,0.16-0.02,0.41-0.21,0.9c-0.43,1.08-1.61,3.93-2.31,5.56c-0.18,0.42-0.42,0.97-0.67,1.58c-0.47,1.12-1.04,2.48-1.53,3.54c-1.17-2.7-2.26-5.41-3.36-8.18c-0.73-1.78-1.14-3.08-1.22-3.4c0.04-0.08,0.25-0.19,1-0.28l0.43-0.06l0.04-0.04c0.13-0.11,0.19-0.29,0.17-0.49c-0.02-0.2-0.11-0.36-0.25-0.44l-0.05-0.03h-0.06c-1.11,0.05-1.98,0.07-3,0.07c-1.04,0-1.83-0.02-2.57-0.07h-0.06l-0.05,0.03c-0.14,0.09-0.24,0.26-0.25,0.45c-0.02,0.19,0.05,0.37,0.18,0.48l0.05,0.04l0.51,0.06c0.97,0.11,1.3,0.56,1.86,1.92l4.37,10.78c0.52,1.29,0.9,2.4,1.13,3.28l0.02,0.09l0.09,0.04c0.14,0.06,0.29,0.09,0.45,0.09c0.14,0,0.28-0.04,0.38-0.11l0.06-0.04l0.02-0.06c0.42-1.33,1.62-4.26,2.58-6.47l1.34-3.05c1.15-2.61,2.11-4.58,2.77-5.69c0.32-0.51,0.65-0.74,1.14-0.78l0.82-0.05L218.66-72.76L218.66-72.76z M202.44-38.17c-4.53,3.52-7.51,9.18-7.51,15.8c0,7.69,3.7,13.12,8.47,16.4c4.35,2.92,9.48,3.99,14.85,3.99c3.82,0,8.11-0.89,9.42-1.37c0.66-0.23,1.37-0.47,2.09-0.59c0.9-1.13,2.45-5.07,2.86-8.17c-0.24-0.42-1.13-0.54-1.55-0.24c-1.37,3.52-4.77,8.53-12.46,8.53c-9.78,0-17.71-6.92-17.71-19.44c0-12.34,7.75-18.13,16.88-18.13c8.65,0,11.33,4.65,12.22,8.71c0.42,0.36,1.31,0.3,1.61-0.12c-0.48-3.64-0.77-7.4-0.83-8.77c-0.54,0.06-0.95-0.06-1.67-0.24c-2.8-0.78-7.33-1.43-10.55-1.43C212.34-43.23,206.79-41.56,202.44-38.17L202.44-38.17z M194.82-60.81v-8.85c0-2.69,0.09-2.88,1.34-2.99l0.67-0.05l0.04-0.03c0.12-0.08,0.19-0.26,0.17-0.47c-0.01-0.09-0.04-0.38-0.25-0.48l-0.04-0.02h-0.05c-1.17,0.04-2.05,0.07-3.07,0.07c-1.07,0-1.92-0.03-3.12-0.07h-0.05l-0.04,0.02c-0.21,0.1-0.24,0.39-0.25,0.48c-0.01,0.22,0.05,0.39,0.17,0.47l0.04,0.03l0.67,0.05c1.25,0.11,1.34,0.3,1.34,2.99v8.85c0,2.67-0.06,2.81-1.35,2.97l-0.69,0.08l-0.05,0.04c-0.14,0.14-0.16,0.38-0.14,0.54c0.03,0.18,0.12,0.32,0.24,0.38l0.04,0.02h0.05c1.26-0.05,2.09-0.07,3.12-0.07c0.98,0,1.84,0.03,3.07,0.07h0.05l0.04-0.02c0.21-0.1,0.24-0.39,0.25-0.48c0.01-0.22-0.05-0.39-0.17-0.47l-0.7-0.1C194.88-58,194.82-58.14,194.82-60.81L194.82-60.81z M182.34-11.99v-21.22c0-6.32,0.12-7.34,3.64-7.63l1.49-0.12c0.36-0.24,0.24-1.31-0.12-1.49c-2.98,0.12-5.01,0.18-7.4,0.18c-2.5,0-4.53-0.06-7.51-0.18c-0.36,0.18-0.48,1.25-0.12,1.49l1.49,0.12c3.52,0.3,3.64,1.31,3.64,7.63v21.22c0,6.32-0.12,7.15-3.64,7.57l-1.49,0.18c-0.36,0.36-0.24,1.31,0.12,1.49c2.98-0.12,5.01-0.18,7.51-0.18c2.39,0,4.41,0.06,7.4,0.18c0.36-0.18,0.48-1.26,0.12-1.49l-1.49-0.18C182.46-4.83,182.34-5.67,182.34-11.99L182.34-11.99z M185.42-72.76c0.12-0.12,0.18-0.31,0.16-0.51c-0.02-0.18-0.11-0.33-0.24-0.41l-0.05-0.03h-0.06c-0.81,0.05-1.46,0.07-2.55,0.07c-0.88,0-1.7-0.02-2.92-0.07h-0.04l-0.04,0.01c-0.14,0.05-0.25,0.19-0.28,0.37c-0.04,0.22,0.03,0.45,0.17,0.57l0.04,0.04l0.48,0.06c0.85,0.11,1.29,0.23,1.4,0.41c0.3,0.47,0.47,2.31,0.47,5.04v5.32c0,0.24,0,0.52-0.01,0.71c-0.86-0.89-1.76-1.9-2.88-3.15l-3.46-3.88c-2.46-2.76-3.87-4.57-4.18-5.38l-0.05-0.14l-0.15,0.02c-0.3,0.04-0.71,0.07-1.12,0.07c-0.44,0-1.76,0-2.79-0.07h-0.05l-0.05,0.02c-0.13,0.07-0.22,0.2-0.25,0.38c-0.03,0.21,0.03,0.42,0.15,0.55l0.05,0.05l0.49,0.06c0.66,0.08,1.16,0.27,1.42,0.54c0.47,0.51,0.5,0.97,0.5,1.66v7.41c0,1.2,0,4.01-0.31,4.81c-0.06,0.13-0.27,0.3-0.94,0.39l-0.74,0.08l-0.05,0.05c-0.11,0.11-0.17,0.29-0.15,0.47c0.02,0.19,0.1,0.35,0.23,0.44l0.06,0.04h0.07c0.87-0.05,1.53-0.07,2.58-0.07c0.84,0,1.68,0.02,2.9,0.07h0.06l0.05-0.04c0.12-0.08,0.19-0.21,0.22-0.37c0.03-0.18-0.02-0.37-0.13-0.52l-0.05-0.07l-0.86-0.08c-0.59-0.05-1.01-0.19-1.12-0.38c-0.27-0.47-0.42-2.31-0.42-5.05v-5.42c0-0.44,0.01-0.92,0.05-1.26c0.4,0.44,1.05,1.22,1.64,1.92c0.41,0.48,0.78,0.92,1.02,1.2l5.77,6.56c1.92,2.18,2.83,3.26,3.17,3.74l0.06,0.08h0.1c0.33,0,0.57-0.15,0.65-0.4l0.01-0.04v-0.04c-0.03-0.29-0.07-1.27-0.07-4.32v-6.28c0-1.27-0.01-3.92,0.35-4.7c0.03-0.06,0.33-0.28,1.25-0.42l0.41-0.06L185.42-72.76L185.42-72.76z M163.14-72.79c0.11-0.13,0.16-0.34,0.13-0.52c-0.03-0.15-0.11-0.28-0.23-0.36l-0.05-0.03h-0.06c-0.86,0.05-1.53,0.07-2.6,0.07c-0.95,0-1.88-0.02-2.82-0.07h-0.06l-0.05,0.04c-0.11,0.08-0.19,0.22-0.22,0.39c-0.03,0.19,0.02,0.37,0.13,0.49l0.05,0.06l0.7,0.05c0.57,0.05,0.96,0.2,1.09,0.43c0.29,0.51,0.45,2.3,0.45,5.05v2.86c0,2.93-0.83,6.42-4.78,6.42c-3.31,0-4.85-2.05-4.85-6.44v-5.38c0-2.64,0.09-2.83,1.32-2.94l0.65-0.05l0.04-0.03c0.12-0.08,0.19-0.25,0.17-0.46c-0.01-0.17-0.08-0.39-0.24-0.47l-0.04-0.02h-0.05c-1.18,0.05-2.01,0.07-3.05,0.07c-1.02,0-1.9-0.03-3.07-0.07h-0.05l-0.04,0.02c-0.16,0.08-0.23,0.29-0.25,0.46c-0.01,0.21,0.05,0.38,0.17,0.46l0.04,0.03l0.67,0.05c1.23,0.11,1.32,0.3,1.32,2.94v5.86c0,3,0.62,4.86,2,6.01c1.1,0.94,2.7,1.41,4.77,1.41c1.96,0,3.83-0.72,4.88-1.88c1.2-1.29,1.79-3.27,1.79-6.07v-2.79c0-1.26,0-4.21,0.33-4.99c0.12-0.25,0.54-0.44,1.08-0.49l0.68-0.05L163.14-72.79L163.14-72.79z M134.58-40.97c0.36-0.24,0.24-1.31-0.12-1.49c-2.56,0.12-4.59,0.18-6.92,0.18c-2.56,0-4.59-0.12-7.51-0.18c-0.36,0.18-0.48,1.25-0.12,1.49l1.55,0.12c3.1,0.24,3.52,1.25,3.52,7.51v21.47c0,6.26-0.12,6.86-3.46,7.45l-1.01,0.18c-0.36,0.36-0.24,1.31,0.12,1.49c2.33-0.06,4.35-0.18,6.92-0.18c2.33,0,4.35,0.06,7.57,0.18c0.36-0.18,0.48-1.26,0.12-1.49l-1.73-0.18c-3.34-0.36-3.64-1.19-3.64-7.45v-8.41c0-1.79,0.12-1.91,2.98-1.91h17.05c2.86,0,2.98,0.12,2.98,1.91v8.41c0,6.26,0,6.86-3.64,7.45l-1.13,0.18c-0.36,0.36-0.24,1.31,0.12,1.49c2.62-0.12,4.77-0.18,7.22-0.18c2.33,0,4.35,0.06,7.21,0.18c0.36-0.18,0.48-1.26,0.12-1.49l-1.43-0.18c-3.46-0.42-3.58-1.19-3.58-7.45v-21.47c0-6.26,0.12-7.16,3.58-7.51l1.25-0.12c0.36-0.24,0.24-1.31-0.12-1.49c-2.68,0.12-4.71,0.18-7.04,0.18c-2.44,0-4.47-0.06-7.22-0.18c-0.36,0.18-0.48,1.25-0.12,1.49l1.13,0.12c3.52,0.36,3.64,1.25,3.64,7.51v6.86c0,1.85-0.12,1.91-2.98,1.91h-17.05c-2.86,0-2.98-0.06-2.98-1.91v-6.86c0-6.26,0.12-7.16,3.58-7.51L134.58-40.97L134.58-40.97z M132.18-60.38l0.01-0.06l-0.03-0.05c-0.11-0.24-0.37-0.35-0.58-0.35c-0.12,0-0.23,0.03-0.32,0.1l-0.06,0.07c-0.71,1.42-1.35,2.14-1.68,2.32c-0.53,0.27-1.29,0.35-3.1,0.35c-2.07,0-2.6-0.25-2.87-0.51c-0.35-0.37-0.42-1.18-0.42-2.45v-3.5c0-0.48,0-0.48,0.63-0.48h1.44c0.87,0,1.52,0.02,1.87,0.12c0.35,0.09,0.52,0.31,0.63,0.8l0.22,0.97l0.04,0.08c0.09,0.11,0.27,0.18,0.47,0.18c0.23,0,0.41-0.08,0.49-0.23l0.03-0.04v-0.05c0-0.24-0.02-0.56-0.04-0.92c-0.03-0.45-0.06-0.97-0.06-1.46c0-0.52,0.03-1.05,0.06-1.52c0.02-0.38,0.04-0.72,0.04-0.99v-0.07l-0.02-0.04c-0.08-0.15-0.27-0.23-0.5-0.23c-0.2,0-0.37,0.07-0.46,0.18l-0.24,1.1c-0.11,0.57-0.25,0.65-0.47,0.72c-0.26,0.09-1.01,0.14-2.05,0.14h-1.44c-0.63,0-0.63,0-0.63-0.51v-4.96c0-0.8,0-0.8,0.55-0.8h1.79c1.06,0,1.86,0.02,2.36,0.14c1.13,0.28,1.36,1,1.71,2.08l0.05,0.15l0.03,0.06c0.09,0.1,0.23,0.16,0.4,0.16c0.17,0,0.41-0.06,0.52-0.22l0.04-0.06l-0.03-0.37c-0.13-1.45-0.25-2.67-0.38-3.05l-0.06-0.16l-0.17,0.04c-0.28,0.07-1.82,0.07-3.31,0.07h-4.67c-0.96,0-1.78-0.02-2.92-0.07H119l-0.04,0.02c-0.2,0.1-0.24,0.39-0.24,0.48c-0.02,0.22,0.05,0.39,0.17,0.47l0.48,0.08c1.27,0.15,1.35,0.32,1.35,2.94v8.94c0,2.69-0.16,2.81-1.37,2.92l-0.89,0.08l-0.05,0.05c-0.14,0.14-0.16,0.37-0.14,0.54c0.03,0.18,0.12,0.32,0.23,0.38l0.04,0.02h0.05c1.44-0.05,2.3-0.07,3.37-0.07h2.24c2.17,0,4.34,0.02,6.66,0.07h0.12l0.05-0.11C131.38-57.58,132-59.5,132.18-60.38L132.18-60.38z M111.41-60.76v-8.95c0-2.65,0.07-2.81,1.32-2.94l0.52-0.05l0.09-0.03c0.12-0.08,0.19-0.25,0.17-0.47c-0.01-0.09-0.04-0.38-0.24-0.48l-0.04-0.02h-0.05c-1.2,0.05-2.02,0.07-2.92,0.07c-1.08,0-1.94-0.03-3-0.07h-0.05l-0.04,0.02c-0.21,0.1-0.24,0.39-0.25,0.48c-0.02,0.22,0.05,0.39,0.17,0.47l0.56,0.08c1.27,0.13,1.34,0.3,1.34,2.94v2.85c0,0.61,0,0.61-1.05,0.61h-7.11c-1.05,0-1.05,0-1.05-0.61v-2.85c0-2.65,0.07-2.81,1.32-2.94l0.47-0.05l0.09-0.03c0.12-0.08,0.19-0.26,0.17-0.47c-0.01-0.09-0.04-0.38-0.25-0.48l-0.04-0.02h-0.05c-1.13,0.05-1.96,0.07-2.87,0.07c-0.65,0-1.21-0.02-1.83-0.04c-0.4-0.01-0.82-0.03-1.29-0.04h-0.05l-0.04,0.02c-0.21,0.1-0.24,0.39-0.25,0.48c-0.01,0.22,0.05,0.39,0.17,0.48l0.04,0.03l0.7,0.05c1.09,0.08,1.29,0.31,1.29,2.94v8.94c0,2.59-0.05,2.7-1.28,2.92l-0.48,0.09l-0.04,0.04c-0.14,0.14-0.16,0.37-0.14,0.54c0.03,0.18,0.12,0.32,0.24,0.38l0.04,0.02h0.05c0.34-0.01,0.67-0.02,0.99-0.03c0.59-0.02,1.19-0.04,1.88-0.04c0.93,0,1.73,0.02,3.15,0.07h0.05l0.04-0.02c0.16-0.08,0.23-0.3,0.24-0.48c0.01-0.21-0.05-0.38-0.17-0.47l-0.81-0.1c-1.19-0.13-1.34-0.25-1.34-2.92v-3.5c0-0.6,0-0.6,1.05-0.6h7.11c1.05,0,1.05,0,1.05,0.6v3.5c0,2.64-0.03,2.7-1.35,2.92l-0.53,0.08l-0.04,0.04c-0.14,0.14-0.16,0.38-0.14,0.54c0.03,0.18,0.12,0.32,0.23,0.38l0.04,0.02h0.05c1.19-0.05,2.06-0.07,3-0.07c0.98,0,1.84,0.03,3,0.07h0.05l0.04-0.02c0.21-0.1,0.24-0.39,0.25-0.48c0.01-0.22-0.05-0.39-0.17-0.47l-0.68-0.1C111.47-58,111.41-58.14,111.41-60.76L111.41-60.76z M90.98-74.01L91-74.08l-0.03-0.06c-0.1-0.19-0.37-0.2-0.46-0.2c-0.06,0-0.15,0.01-0.23,0.04l-0.06,0.03l-0.03,0.06c-0.32,0.55-0.45,0.6-1.77,0.6H78.14c-1.11,0-1.61-0.06-1.72-0.61l-0.01-0.06l-0.04-0.04c-0.07-0.07-0.18-0.1-0.34-0.1c-0.06,0-0.26,0.01-0.37,0.08l-0.07,0.04l-0.01,0.08c-0.17,0.99-0.54,2.56-0.94,3.67l-0.03,0.06l0.04,0.07c0.15,0.3,0.66,0.45,0.93,0.24l0.04-0.03l0.02-0.04c0.25-0.57,0.49-1.12,1.07-1.65c0.55-0.5,1.79-0.57,2.93-0.57h1.37c0.56,0,0.56,0,0.56,0.6v11.11c0,2.69-0.15,2.81-1.37,2.92l-0.89,0.07l-0.09,0.03c-0.15,0.09-0.23,0.28-0.22,0.5c0.01,0.17,0.07,0.38,0.24,0.46l0.04,0.02h0.05c1.52-0.05,2.44-0.07,3.45-0.07c0.97,0,1.77,0.02,3.25,0.07h0.05l0.04-0.02c0.16-0.08,0.23-0.3,0.24-0.48c0.01-0.21-0.05-0.38-0.17-0.47l-0.88-0.1c-1.24-0.11-1.32-0.27-1.32-2.92V-71.9c0-0.25,0-0.49,0.04-0.54c0.04-0.04,0.31-0.04,0.49-0.04h1.76c1.33,0,2.24,0.19,2.77,0.58c0.24,0.17,0.44,0.8,0.55,1.68l0.01,0.06l0.04,0.04c0.09,0.11,0.26,0.18,0.45,0.18c0.24,0,0.43-0.1,0.51-0.26l0.02-0.05l-0.01-0.05C90.54-71.02,90.71-73.02,90.98-74.01L90.98-74.01z M74.06-22.36c0,7.69,3.7,13.12,8.47,16.4c4.35,2.92,9.48,3.99,14.85,3.99c3.82,0,8.11-0.89,9.42-1.37c0.65-0.23,1.37-0.47,2.09-0.59c0.9-1.13,2.45-5.07,2.86-8.17c-0.24-0.42-1.13-0.54-1.55-0.24c-1.37,3.52-4.77,8.53-12.46,8.53c-9.78,0-17.71-6.92-17.71-19.44C80.02-35.6,87.77-41.39,96.9-41.39c8.65,0,11.33,4.65,12.23,8.71c0.42,0.36,1.31,0.3,1.61-0.12c-0.48-3.64-0.77-7.4-0.83-8.77c-0.54,0.06-0.95-0.06-1.67-0.24c-2.8-0.78-7.33-1.43-10.55-1.43c-6.2,0-11.75,1.67-16.1,5.07C77.04-34.65,74.06-28.98,74.06-22.36L74.06-22.36z M58.55-32.42v-41.54c-33.37-3.22-58.55,0-58.55,0s0,41.53,0,41.54C2.66-4.26,29.03-0.96,29.28-1C33.99-1.85,56.1-6.29,58.55-32.42L58.55-32.42z M57.09-32.65C54.76-7.57,33.76-3.3,29.29-2.48C29.05-2.44,4.01-5.61,1.48-32.64c0-0.01,0-39.88,0-39.88s23.92-3.09,55.6,0L57.09-32.65L57.09-32.65z M48.59-17.89c0.94-1.34,1.47-2.78,1.79-4.33c-0.54,0.71-1.35,1.33-2.15,1.65C47.67-18.79,47.93-16.94,48.59-17.89L48.59-17.89z M49.48-21.91c0.67-0.56,1.05-1.52,1.91-1.81c-0.65-0.6-1.29,0.59-1.62,0.18c0.6-0.94,0.98-1.67,1.04-2.84c0.03-0.64,0.77-1.23,0.95-1.58c-0.71,0.1-2.61,1.22-2.99,1.87c-1.28,1.69-1.21,3.27-6.55,5.62c-0.27,0,0.99-0.91,1.34-1.97c0.17-0.49,0.87-2.78,0.39-3.88c-1.1,1.12-0.88,1.48-1.19,2.31c-0.8,2.19-1.23,2.39-3.22,3.74c-0.26,0.18-1.79,2.54-3.77,2.65c0.2-0.05,0.08-0.54,0.75-0.98c2.22-1.45,1.37-4.59,4.27-5.11c-1.44-0.51-2.43,0.89-2.7,0.75c1.17-1.62,0.14-2.98,0.31-4.3c-0.39,0.21-0.78,0.68-0.81,1.07c-0.22,2.35-1.31,2.76-1.43,3.77c0.23,1.68-1.12,2.98-2.1,4.16c-0.19-0.98,0.06-1.85,1.29-2.65c0.68-0.45-0.06-1.78-0.06-1.78c-0.28,1.46-1.1,1.91-1.61,1.98c-0.45,0.06,1.57-2.05,1.34-3.98c-0.1-0.86-0.35-0.48-0.49-1.44c-1.74,1.93-0.47,3.13-2.25,5.36c-0.84,1.05-1.16,2.91-1.27,2.96c0.02-2.77,0.11-1.96,1.34-4.21c1.01-1.85-0.06-3.57-0.19-4.68c-2.21,1.52-2.03,4.46-2.09,3.83c-0.06-0.62-0.33-1.73-0.03-2.72c0.49-1.66-0.55-4.18-0.55-4.18c-3.1,4.86-0.5,10.54-0.69,10.47c-1.34-2.11-2.32-2.19-2.62-3.8c-0.16-0.88-1.76-5.69-4.69-5.77c1.48,1.27,1.12,1.45,1.22,3.54c-0.94,5.22,6.36,5.76,5.87,8.47c-1-1.6-2.53-2.28-4.83-3.53c-1.02-0.81-2.17-1.17-2.23-2.43c0.12-0.92,0.17-0.73,0.02-1.92c-0.11-0.85-0.95-0.34-1.57-2.12c-1.32,1.19-0.84,2.54-0.73,3.31c0.03,0.22,0.18,1.03-0.02,1.5c-0.47-0.32-0.8-0.99-1.32-1.66c-0.95-1.21-0.94-2.68-1.41-3.7c-0.22-0.47-0.53-1.12-0.72-1.13l-0.03,0.02c-0.23,1.9-0.12,3.55,0.74,4.98c0,0-0.24,0.41-0.43,0.51c-0.82-0.22-1.98-0.91-2.45-2.24c-1.02,0.86-0.3,1.96-0.34,1.94c-2.29-1.17,0.03-5.71-3.23-5.58c0.8,0.87,0.3,2,0.23,3.04c-0.02,1.7,2.14,3.03,2.14,3.03c-2.41-0.81-2.91,0.32-2.88,0.32c0,0,3.55,1.54,9.16,2.12c0.72,0.08,1.75,0.92,1.58,0.92c-0.72-0.05-2.15-0.98-4.2,0.84c1.21,0.03,2.04,2,4.01,0.87c5.08-1.44,6.96,1.08,7.78,1.73c-0.18,0.32-3.9-2.34-6.86-0.58c-1.57,0.94-4.09,0.09-6.07-1.39c0.8,2.04,4.2,4.34,5.32,4.34c1.38,0,3.14-1.8,5.14-1.7c3.2,0.16,3.65,3.02,3.29,2.8c0,0-2.52-4.17-5.76,0.28c1.51-0.69,3.54-0.52,5.31,0.32c0.24,0.11-0.43,0.86-0.91,1.4c-0.31,0.35-1.66,2.35-3.12,0.38c-0.22-0.29-0.91-2.12-5.48-1.73c1.72,0.78,3.63,2.82,4.57,3.75c2.39,2.37,6.01-2.88,6.15-2.29c0,1.18,0.6,1.75,0.92,2.39c0.8,1.61-1.02,1.34-2.01,0.92c0,0,1.89,2.94,3.47,1.3c1.75-1.81-2.29-3.18-1.01-4.62c0.72-0.81,3.26,1.82,4.41,1.82c3.11,0.35,2.94-2.6,4.58-2.52c-1.54-1.56-3.18-0.71-3.52-0.31c-1.03,1.21-2.23,0.4-3.06-0.25c-0.46-0.6-1.22-0.69-1.89-0.51c-0.32,0.03,0.65-1.14,1.92-0.89c2.86,0.55,5.72-0.47,6.42-0.87c1.15-0.64,1.79-1.74,3.08-2.96c-0.4,0.08-2.78,1.4-3.54,1.78c-2.29,1.15-3.72-0.34-3.98-0.34c-0.44,0.01-0.33-0.33,0.36-0.55c2.35-0.52,3.97-2.59,6.21-3.41C44.26-20.6,47.4-19.85,49.48-21.91L49.48-21.91z M44.82-25.01c-0.07,0.49-0.07,0.87-0.23,1.42c-0.01,0.05,0.55,0.28,0.8,0.5c0.36-0.34,0.68-0.51,1.06-0.98c-0.08-0.05-1.59-1.36-1.59-1.3C44.86-25.19,44.86-25.22,44.82-25.01L44.82-25.01z M45.05-22.77c0,0-0.58-0.44-0.61-0.35c-0.1,0.25-0.22,0.54-0.39,0.88C43.9-21.94,44.36-22.16,45.05-22.77L45.05-22.77z M51.87-28.69c-0.14-5.38-3.44-11.36-2.54-10.25c2.25,2.78,2.97,8.81,4.51,13.99c0,0,0.99,0.5,0.78-6.08c-0.05-1.34-0.59-3.11-1.25-4.35c-1.31-2.44-3.95-6.56-3.88-6.6c0.64-0.52,2.19,3.04,3.54,4.43c0.88,0.91,3.31,1.79,3.48,1.68c-1.95-3.79-6.68-7.35-6.19-7.79c3.48,3.26,4.58,3.42,4.72,3.25l-3.13-3.04c-0.88-1.19-2.06-2.1-1.89-2.06c1.4,0.31-0.73-1.16-2.38-1.61c-0.3-0.08-0.77-0.11-0.79-0.25c-0.03-0.25,0.39-0.15,0.73-0.25c0.23-0.07,0.45-0.24,0.46-0.56c-0.63,0.14-1.27-0.01-1.81-0.25c-1.11-0.52-3.09-1.11-4.01-0.75c-0.54,0.21-0.64,0.18-1.21,0.62c-0.25-0.11-0.95-0.55-1.94,0.64c-0.3,0.37-0.67,0.8-0.69,1.12c-0.04,0.8,0.02,0.04,0.21,0.8c0.08,0.32-0.28,0.9-1.74,1.39c-0.56,0.19-0.42,0.75-0.42,0.75c0.28-0.13,0.72-0.45,1.4-0.13c1.33,0.62,1.59-0.36,2.42-1.07c0,0-0.23,0.89,0,0.93c1.04,0.21,0.69,0.99,0.56,1.11c-1.31,1.17-0.76,1.6-1.23,2.32c-0.44,0.68-1.12,0.94-2.13,0.9c-1.39-0.04,1.82-2.15-1.25-3.03c0.48,0.81,0.68,1.46-0.4,2.08c-0.68,0.4-0.33,2.4-2.07,1.47c0,0-0.14,1.48-0.34,1.55c2.36,2.07,1.04,3.2,1.16,6.16c0.74,1.88-0.07,2.78-0.26,2.88c0.12,1.28,0.24,1.97,1.03,3.01c0.58,0.75-0.05,1.91,0.54,2.71c0.54-1.92,1.12-1.12,1.28-3.79c0.22-0.45,1.11-1.24,1.62-1.29c-0.01,1.61,0.59,3.07,0.46,3.75c0,0,1.36-0.25,1.78-0.1c0.33,0.11,0.59,0.55,0.6,0.82c-0.46,0.29-0.46,0.18-1.16,0.69c-1.22,0.89-1.78,2.7-1.78,2.7s2.87-2.29,3.07-2.7c0.16-0.33,0.32-0.83,0.47-1.35c0.02-0.06-1.48-0.93-1.89-1.72c-1.28-2.49,1.98,1.47,2.06,1.13c0.19-0.86,0.79-1.67,0.79-1.67c-0.21-0.24-0.72-0.4-1.5-1.77c-1.79-3.15,2.07,1.34,2.07,1.34c1.02-0.58,1.03,0.2,1.16,1.03c0.01,0.08,1.74,1.35,1.82,1.43c0.49-0.45,0.84-1.07,1.04-1.49c0.03-0.06-3.11-2.84-3.65-3.76c-4.33-7.42,3.5,3.29,3.87,3c0.21-0.58,0.28-1.38,0.26-2.46c0-0.03-1.47-1.04-2.42-2.6c-3.64-6,2.39,1.79,2.38,1.73c-0.07-1.29-1.12-6.86-0.4-5.19c0.37,0.86,1.54,4.42,1.33,8.05C49.56-27.85,51.24-28.52,51.87-28.69L51.87-28.69z M54.24-64.44c0.03,0.22,0.05,0.37,0.07,0.47C54.29-64.07,54.27-64.22,54.24-64.44c0,0-0.1-2.01-2.25-2.01c-0.7,0-1.55,0.85-3.73-0.09v3.4c0.88,0.26,3.3-1.12,4.27-1.54C53.22-64.98,54.19-64.78,54.24-64.44L54.24-64.44z M48.2-59.51v3.4c0,0,1.9-0.01,4.01-1.37c0.63-0.41,1.57-0.24,2.03,0.13l0,0c0,0-0.28-2.23-2.17-1.95C48.6-58.8,48.2-59.51,48.2-59.51L48.2-59.51z M35.22-54.11c1.81,0,8.92,1.95,12.34,1.72v-17.88c0,0-5.04,0.71-9.41-0.9c-3.56-1.32-8.46,0.98-8.46,0.98c0,0.61,0,17.53,0,17.53S31.49-54.11,35.22-54.11L35.22-54.11z M31.37-59.99c0.17,0.02,0.68,0.03,0.87,0.03c-0.02,0.38-0.02,3.03,0,3.31c0.02,0.27,0.26,0.36,0.5,0.25c0.12-0.05,0.23,0.04,0.07,0.16c-0.26,0.19-0.58,0.65-0.72,0.83c-0.3-0.2-0.63-0.46-0.6-0.71C31.51-56.55,31.38-59.64,31.37-59.99L31.37-59.99z M32.3-63.87c0.52-0.28,1.69-0.46,2.09-0.34c0.2,0.06,0.41,0,0.41-0.09c0-0.14,0.19-0.1,0.19,0s0,1.38-0.02,1.5c0,0.12-0.18,0.11-0.18,0c0-0.18,0-0.24-0.16-0.49c-0.47-0.7-1.75-0.76-2.39,0.08c-0.22,0.28-0.3,0.78-0.06,0.86c0.24,0.08,1.16,0.01,1.45-0.05c0.3-0.05,1.03-0.18,1.12-0.24c0.09-0.05,0.2-0.12,0.2,0.03c0,0.15,0,0.63-0.01,0.78c0,0.15-0.12,0.08-0.19,0.02c-0.09-0.05-0.78-0.12-1.08-0.14c-0.5-0.04-1.26-0.2-1.5-0.12c-0.25,0.07-0.05,0.46,0.16,0.75c0.63,0.85,1.81,0.88,2.28,0.18c0.17-0.25,0.17-0.3,0.17-0.48c0-0.11,0.19-0.13,0.19,0c0,0.12-0.01,1.17-0.01,1.28s-0.2,0.13-0.2,0c0.01-0.22-0.13-0.21-0.39-0.13c-0.68,0.18-1.59,0.24-2.14-0.06c-0.57-0.33-1.07-0.44-1.09-1.7C31.13-62.99,31.84-63.6,32.3-63.87L32.3-63.87z M36.05-69.31c-0.31,0.09-0.53,0.4-0.6,0.71c-0.06,0.32-1.11,3.35-1.23,3.55c-0.25-0.95-1.3-3.2-1.63-3.68c-0.29-0.42-0.56-0.34-0.83-0.35c-0.26,0-0.16-0.24,0.05-0.22c0.29,0.04,1.94,0.18,2.41,0.25c0.17,0.03,0.17,0.19-0.05,0.25c-0.11,0.03-0.38,0.16-0.38,0.29c0,0.18,0.6,1.5,0.76,1.75c0.14-0.34,0.71-1.78,0.59-2.1c-0.12-0.32-0.17-0.37-0.4-0.39c-0.24-0.03-0.24-0.17,0.05-0.21c0.28-0.05,1.07-0.11,1.3-0.08C36.33-69.53,36.36-69.4,36.05-69.31L36.05-69.31z M37.83-69.27L37.52-69h-0.26L37-69.25l-0.01-0.5l0.42-0.35l0.42,0.41V-69.27L37.83-69.27z M38.54-65.77l-0.55,0.72h-0.51c-0.25-0.26-0.43-0.45-0.47-0.66l-0.03-1.72l-0.65-0.37c-0.12,0.16-0.36,0.16-0.26,0.03l0.88-0.78l0.19-0.02l0.56,0.56l-0.01,1.78C37.98-65.91,38.14-65.84,38.54-65.77L38.54-65.77z M41.66-67.81c-0.13,0-1.47,0.16-1.47,0.16c-0.07,0.03,0.07,1.69,0.12,1.82c0.04,0.14,0.17,0.34,0.32,0.21c0.14-0.13,0.3,0.09,0.13,0.22c-0.09,0.07-0.39,0.66-0.52,0.75c-0.21,0.13-0.52-0.3-0.62-0.57c-0.16-0.45-0.27-1.58-0.27-2.33c0.05,0.01-0.62-0.27-0.32-0.38c0.59-0.25,1.15-1.03,1.22-1.23c0.07-0.2,0.26-0.12,0.16,0.08c-0.18,0.4-0.16,0.69-0.08,0.94c0.03,0.06,1.16,0.04,1.33,0.04C41.76-68.1,41.75-67.81,41.66-67.81L41.66-67.81z M40.12-62.11c-0.11,0.58,0.39,1.05,0.77,1.25c0.31,0.16,0.83,0.07,0.97,0.05c0.13-0.02,0.09-0.06,0.19-0.15c0.1-0.09,0.21-0.01,0.13,0.08c-0.09,0.09-0.86,0.83-1.07,0.97c-0.2,0.05-0.63,0.04-0.89-0.29c-0.46-0.57-0.79-0.78-0.65-1.83c0.1-0.71,1.28-1.33,1.56-1.48c0.11,0.1,0.65,0.67,0.88,0.86c-0.09,0.12-0.39,0.25-0.68,0.25s-0.49-0.24-0.68-0.46C40.51-62.71,40.21-62.54,40.12-62.11L40.12-62.11z M44.85-64.93l-0.71,0.78c-0.21-0.15-0.33-0.31-0.39-0.57c-0.55,0.11-0.92,0.43-1.17,0.63c-0.23-0.2-0.57-0.75-0.57-1.12c-0.01-0.38,0.29-0.93,0.49-1.12c0.02,0.01,0.04,0.02,0.06,0.03c-0.12-0.07-0.23-0.14-0.32-0.21c-0.08-0.07-0.1-0.25,0-0.4c0.14-0.19,0.59-0.75,1.02-0.81c0.23-0.03,0.62,0.03,1.16,0.51c-0.07,0.08-0.07,1.65-0.07,1.81C44.53-65.18,44.85-64.93,44.85-64.93L44.85-64.93z M46.32-61.39c-0.23-0.01-0.47-0.05-0.6-0.09c-0.2-0.05-0.12-0.29,0.05-0.29s0.42,0.05,0.55,0.09C46.43-61.62,46.48-61.37,46.32-61.39L46.32-61.39z M46.31-60.84c-0.24-0.02-0.47-0.05-0.6-0.09c-0.2-0.06-0.12-0.29,0.05-0.29c0.16,0,0.42,0.05,0.54,0.1C46.41-61.07,46.46-60.82,46.31-60.84L46.31-60.84z M42.58-57.54c0.24-0.13,0.8-0.65,0.99-0.78c0.32,0.25,0.54,0.5,0.7,0.68c0.21-0.11,0.55-0.36,0.71-0.49c0.28,0.2,0.6,0.46,0.72,0.6c0.15-0.14,0.34-0.03,0.16,0.14c-0.16,0.15-0.54,0.48-0.68,0.59c-0.21-0.11-0.57-0.52-0.68-0.61c-0.06,0.05-0.18,0.11-0.28,0.17c0,0.22,0,2.08-0.01,2.31c-0.3,0.02-0.55,0.04-0.76-0.01c-0.02-0.29,0.01-1.9,0-2.16C43.43-57.42,42.92-57.53,42.58-57.54L42.58-57.54z M42.46-61.11c0.03-0.93,0.64-1.71,1.64-2.06c0.78,0.26,1.11,1.05,1.14,1.59c0.02,0.43-0.27,1.01-0.46,1.36c-0.31,0.2-0.62,0.5-0.91,0.78C42.9-59.45,42.44-60.57,42.46-61.11L42.46-61.11z M38.78-58.07c0.29-0.32,0.59-0.52,0.77-0.7c0.3,0.22,0.4,0.36,0.56,0.61c-0.01,0.41-0.09,1.26-0.06,1.56c0.02,0.29,1.17,0.49,1.23,0.06c0.05-0.43,0.01-0.98,0-1.23c-0.02-0.2-0.48-0.29-0.71-0.26c0.31-0.33,0.58-0.57,0.77-0.75c0.28,0.21,0.55,0.51,0.72,0.76c-0.01,0.43-0.08,1.45-0.02,1.72c0.08,0.28,0.05,0.3,0.26,0.44c-0.22,0.2-0.37,0.29-0.52,0.45c-0.22-0.06-0.59-0.39-0.56-0.68c-0.27,0.18-1.05,0.51-1.33,0.58c-0.28-0.29-0.5-0.37-0.52-0.73c-0.02-0.37,0.08-1.31-0.04-1.54C39.21-58,39.01-58.05,38.78-58.07L38.78-58.07z M38.12-60.68c-0.28-0.16-0.67-0.53-0.88-0.84c-0.38,0.48-0.47,0.9-1.16,1.08c0.4-0.34,0.77-1.08,0.74-1.78c-0.03-0.64-0.38-0.95-0.68-1.07c-0.26,0.12-0.49,0.3-0.63,0.36c-0.15,0.06-0.18-0.17-0.08-0.22c0.34-0.16,1.07-0.73,1.18-0.84c0.31,0.06,0.7,0.33,0.76,0.58c0.24-0.14,0.66-0.6,0.78-0.71c0.14,0.25,0.57,0.56,1.04,0.73c-0.43,0.74-1.39,0.29-1.52,0.11c-0.15,0.26-0.19,0.41-0.04,0.74c0.2,0.44,0.98,0.85,1.39,0.96C38.88-61.44,38.32-60.81,38.12-60.68L38.12-60.68z M37.01-58.45c0.04,0.01-0.61-0.25-0.33-0.39c0.5-0.25,0.98-0.76,1.06-0.97c0.08-0.2,0.26-0.11,0.16,0.09s-0.16,0.7-0.11,0.85c0.02,0.07,0.4,0.1,0.57,0.1c0.1,0,0.09,0.3-0.01,0.3c-0.12-0.01-0.59,0.01-0.59,0.01c-0.07,0.03-0.02,1.66,0.02,1.8c0.05,0.13,0.44,0.23,0.58,0.09c0.14-0.13,0.29,0.01,0.12,0.13c-0.09,0.08-0.38,0.54-0.62,0.63c-0.24,0.09-0.6-0.06-0.76-0.3C36.85-56.48,37-57.7,37.01-58.45L37.01-58.45z M35.51-55.81c-0.24-0.18-0.45-0.23-0.52-0.52c-0.62,0.24-0.86,0.6-1.23,0.86c-0.22-0.2-0.4-0.57-0.41-0.95c-0.01-0.37,0.36-0.87,0.56-1.06c-0.03-0.02-0.04-0.03-0.07-0.05c-0.08-0.07-0.2-0.61-0.09-0.75c0.14-0.2,0.69-0.96,1.13-0.99c0.3-0.03,0.53,0.34,0.79,0.62c-0.06,0.07-0.03,1.4-0.04,1.56c0.28,0.3,0.39,0.37,0.56,0.25c0.17-0.11,0.23,0,0.12,0.11C36.18-56.62,35.65-55.97,35.51-55.81L35.51-55.81z M34.96-57.43c0-0.28,0-0.56-0.02-0.69c0.02-0.21-0.42-0.51-0.53-0.51c-0.13,0-0.23,0.05-0.38,0.29c-0.08,0.13-0.06,0.63,0.01,0.68C34.39-57.35,34.63-57.39,34.96-57.43L34.96-57.43z M34.21-57.25c-0.33,0.63-0.06,0.76,0.13,0.92c0.23-0.12,0.44-0.22,0.61-0.34c0-0.11,0.01-0.33,0.01-0.57C34.58-57.2,34.46-57.12,34.21-57.25L34.21-57.25z M43.16-61.02c0.15,0.4,0.82,0.92,1.01,1c0.28-0.34,0.43-0.95,0.37-1.47c-0.05-0.4-0.56-0.84-1.01-1C42.95-62.15,42.95-61.55,43.16-61.02L43.16-61.02z M43.14-64.72c0.23-0.11,0.39-0.16,0.58-0.17c-0.01-0.09-0.02-0.18-0.02-0.3c0-0.09,0.01-0.33,0.01-0.6c-0.31-0.1-0.71-0.27-1.05-0.46c0.05,0.03,0.1,0.06,0.15,0.09C42.44-65.48,42.94-64.88,43.14-64.72L43.14-64.72z M42.41-66.61c0.25,0.21,0.95,0.54,1.3,0.66c0-0.3,0-0.59-0.03-0.73c0.02-0.2-0.68-0.58-0.79-0.58c-0.13-0.01-0.31,0.2-0.47,0.44C42.34-66.7,42.35-66.66,42.41-66.61L42.41-66.61z M29.05-50.41c-0.56,0.06-1.25,0.4-1.42,0.99c-0.34,0.34-0.33-0.57-1.02-0.17c-0.3,0.4,0.48,1.29,0.29,1.35c-0.76,0.23-0.67-1.14-1.1-1.17c-0.62,0.22-2.19,1.66-0.65,2.79c-0.05-0.77,1.41-1.6,1.89,0.09c1.46-0.11,1.95,0.77,2.13,1.27c2.15,0.38,1.53,1.81,1.47,1.81c-0.21-0.31-1.13-1.73-2.64-0.75c-0.35,0.23-0.96,0.45-1.26,0.15c0.03,0.48,0.63,0.91,1.04,0.79c1.34-0.37,1.68,0.88,0.65,1.23c0.22,0.34,0.64,0.32,1.03,0.08c0.58-0.35,0.65-0.67,0.86-0.88c0.37,1.75-1.85,1.92-2.56,2.03c0.11,0.37,0.35,0.45,0.79,0.59c-2.34,0.08-2.8,2.27-2.66,3.54c0.53,0.04,1.34-1.11,1.27-0.45c-1.66,1.76-2.22,4.11-1.34,5.61c0.42-0.17,0.54-0.63,0.69-1c0.06-0.04,0.91,0.34-0.45,1.97c-0.1,0.42-0.57,1.7,0.48,2.01c0.4-0.47,0.34-0.88,0.43-1.37c0.3-0.12,0.51,0.87,0.39,1.16c-1.37,0.57-1.2,4.76,0.39,7.01c-0.73-1.64-0.64-3.74,0-5.41c0.49-1.3,1.56-4.21,1.59-4.18c0.61,0.75,1.38,3.96,1.38,5.29c0.86-0.74,1.02-1.56,1.72-2.11c0.33,1.17,0.47,1.94,0.73,2.97c0.34-1.01,1.24-2.14-0.05-5.4c0.26-0.24,0.75,1.13,0.9,1.06c0.12-0.05,0.29-0.73-0.15-2.01c-0.9-0.84-1.1-2.08-0.96-2.17c0.12-0.07,0.52,1.28,1,1.35c0.1-1.05,0.35-2.13,0.27-2.95c-0.02-0.21-0.37-1.3-1.37-2.2c-0.58-0.52-0.8-1.61-0.75-1.83c0.56,0.51,0.44,0.89,0.91,1.1c0.2-0.44,0.06-2.08-0.51-2.8c-0.33-0.54-0.17-0.47,0.22-0.14c0.51,0.61,0.27,0.56,0.71,0.82c0.97-2.29,0.09-2.74,0.16-2.9c0.06-0.15,0.75,1.07,1.34,0.6c-0.96-0.51-0.93-1.28-1.04-2.1c-0.08-0.66-0.51-0.9-0.34-1.06c0.95,0.72,1.22-0.08,1.25-0.24c-0.18,0.1-1.03,0.22-1.14-1.1c-0.04-0.52-0.84-0.75-0.84-0.75c0.49-0.09,2.07-0.18,1.69-1.74c-0.19,0.37-0.66,0.95-1.64,0.72c0,0,0.63-0.17,0.51-0.85C31.85-48.9,30.63-50.63,29.05-50.41L29.05-50.41z M31.85-48.34c-1,0.19-1.75,1.29-2.89,0.82c-0.15-0.1-0.46-0.18-0.42-0.41c0.2,0.12,0.52,0.19,0.75,0.23c0,0-0.61-0.51-0.07-1.13c-0.69,0.43-0.93,0.31-0.93,0.09c0-0.1,0.9-0.76,1.75-0.44c0.61,0.23,1.14,0.7,1.81,0.8V-48.34L31.85-48.34z M30.23-48.33c0,0.23-0.3,0.56-0.3,0.56l1.09-0.55c-0.22-0.14-0.83-0.49-1.09-0.56C29.93-48.88,30.23-48.64,30.23-48.33L30.23-48.33z M23.82-54.11c2.73,0.18,5.05,1.44,5.05,1.44v-17.58c0,0-4.01-2.81-10.52-0.29c-1.91,0.74-6.58,0.12-6.58,0.12v17.97C15.85-52.18,21.18-54.28,23.82-54.11L23.82-54.11z M21.87-63.57c0.52,0.17,1.3,0.04,1.55,0.74c0.26,0.73-0.22,1.68-0.82,1.72c-0.51,0.04-0.97-0.13-1.26-0.1c-0.13,0.01-0.23,0.05-0.25,0.2s-0.22,0.22-0.26,0.02c-0.04-0.2-0.1-1.03-0.1-1.27s0.23-0.27,0.27,0c0.04,0.26,0.12,0.45,0.32,0.67c0.16,0.18,1.16,0.42,1.53,0.13c0.3-0.24,0.23-0.76-0.08-0.96c-0.31-0.21-1.55-0.49-1.76-0.85c-0.36-0.61,0.29-1.11,0.57-1.28c0.44-0.25,0.96-0.17,1.14-0.16c0.17,0,0.4,0.06,0.42-0.13c0.01-0.19,0.15-0.17,0.17,0.03c0.06,0.54,0.11,0.22,0.09,0.79c0,0.26-0.09,0.27-0.21,0.07c-0.07-0.13-0.84-0.77-1.46-0.38C21.19-64,21.39-63.7,21.87-63.57L21.87-63.57z M23.37-59.97c-0.23,0.21-0.41,0.42-0.6,0.64c-0.17-0.11-0.43-0.34-0.63-0.51c0.33-0.15,0.51-0.35,0.62-0.57C22.89-60.12,23.15-60.01,23.37-59.97L23.37-59.97z M20.03-58.61c0.28-0.2,0.75-1.08,0.81-1.27c0.06-0.2,0.18-0.13,0.15,0.08c-0.02,0.31-0.17,1-0.11,1.14c0.02,0.07,0.47,0.07,0.61,0.07c0.1,0,0.1,0.28,0.01,0.28c-0.12,0-0.61,0.07-0.61,0.07c-0.07,0.03-0.03,1.05,0.06,1.16c0.2,0.19,0.35,0.32,0.62,0.04c0.13-0.14,0.27-0.01,0.11,0.13c-0.08,0.08-0.45,0.53-0.54,0.75c-0.09,0.22-0.57,0.05-0.73-0.18c-0.25-0.37-0.14-1.12-0.16-1.85C20.31-58.18,19.8-58.43,20.03-58.61L20.03-58.61z M19.66-60.73c-0.18,0.16-0.57-0.09-0.72-0.33c-0.23-0.38-0.16-1.28-0.12-2.01c0.03,0-0.13-0.18-0.28-0.21c-0.19-0.05-0.23-0.12,0.07-0.24c0.37-0.14,0.93-1.02,1.01-1.22c0.07-0.19,0.18-0.01,0.07,0.18c-0.23,0.43-0.13,0.94-0.1,1.09c0.02,0.07,0.71-0.03,0.86-0.03c0.1,0.01,0.08,0.29,0,0.29c-0.12,0-1.02,0.11-1.02,0.11c-0.06,0.03,0.07,1.45,0.16,1.56c0.01,0.02,0.3,0.26,0.4,0.16c0.14-0.13,0.27,0.01,0.11,0.14C20.02-61.18,19.87-60.9,19.66-60.73L19.66-60.73z M16.43-58.56c0.33-0.26,0.51-0.46,0.74-0.67c0.2,0.31,0.29,0.61,0.46,0.74c0.24-0.2,0.63-0.45,0.81-0.65c0.17,0.09,0.48,0.27,0.5,0.89c0.01,0.62,0.1,1.59,0.1,1.8c0,0.11,0.03,0.08,0.21,0.04c0.17-0.05,0.24,0.04,0.11,0.15c-0.13,0.11-0.74,0.53-0.9,0.71c-0.22-0.4-0.25-0.69-0.17-1.08c0.07-0.33,0.01-1.21,0.01-1.41s-0.3-0.27-0.43-0.38c-0.18,0.13-0.2,0.16-0.36,0.31c0,0.27-0.03,2.12,0.01,2.37c-0.42,0.02-0.37-0.01-0.62-0.01c-0.02-0.36-0.01-1.79-0.03-2.1C16.84-58.16,16.58-58.38,16.43-58.56L16.43-58.56z M13.64-57.55c0.18-1.21,1.35-1.7,1.7-1.94c0.06,0.35,0.47,0.96,0.73,1.21c-0.4,0.33-1.31,1.09-1.66,1.35c0.19,0.35,0.92,0.6,1.16,0.34c0.18-0.18,0.4-0.12,0.2,0.12c-0.26,0.3-0.53,0.74-0.67,1.01C14.58-55.7,13.48-56.39,13.64-57.55L13.64-57.55z M13.33-63.14c0.29-0.43,0.98-0.85,1.44-1.02c0.15,0.17,0.32,0.44,0.54,0.73c-0.22,0.17-0.44,0.39-0.57,0.55c-0.1-0.11-0.66-0.95-1.05-0.37c-0.21,0.31-0.44,1.22,0.29,1.79c0.35,0.27,0.73,0.36,1.21,0.28c-0.25,0.32-0.31,0.42-0.45,0.69c-0.7,0.13-0.99-0.1-1.33-0.39C12.68-61.47,12.91-62.49,13.33-63.14L13.33-63.14z M16.5-64.74c-0.12-0.18-0.15-0.34-0.4-0.27c-0.63,0.18-1.33,0.37-1.83,0.08c-0.54-0.33-1-0.43-1.01-1.65c-0.01-0.74,0.65-1.33,1.07-1.58c0.48-0.28,1.32-0.1,1.7,0.01c0.18,0.06,0.32,0.04,0.33-0.2c0-0.13,0.21-0.1,0.2,0c0,0.11-0.01,1.61-0.01,1.73s-0.25,0.13-0.24,0.02c0-0.17-0.06-0.5-0.12-0.76c-0.08-0.4-1.12-1.12-1.87-0.15c-0.02,0.05-0.32,0.56-0.28,0.96c0.03,0.3,0.07,0.72,0.27,0.99c0.59,0.83,1.42,0.55,1.86-0.12c0.16-0.25,0.13-0.55,0.14-0.72c0-0.11,0.24-0.12,0.24,0c0,0.12-0.01,1.12-0.01,1.22c0,0.15,0.11,0.26,0.17,0.33C16.87-64.65,16.7-64.47,16.5-64.74L16.5-64.74z M17.04-63.87c0.27-0.03,0.51,0.53,0.75,0.8c-0.06,0.07-0.06,1.73-0.06,1.88c0.06,0.1,0.25,0.21,0.33,0.13c0.13-0.13,0.22,0,0.11,0.11c-0.11,0.1-0.65,0.57-0.78,0.72c-0.19-0.14-0.26-0.35-0.28-0.64c-0.33,0.08-0.64,0.26-0.84,0.56c-0.37-0.17-0.66-0.49-0.67-0.85c-0.01-0.37,0.25-0.59,0.52-0.84c-0.05-0.04-0.09-0.07-0.14-0.12c-0.08-0.07-0.18-0.67-0.11-0.83C16.04-63.35,16.63-63.83,17.04-63.87L17.04-63.87z M20.04-67.92c-0.15,0.16-0.51,0.38-0.66,0.49c-0.18-0.11-0.41-0.44-0.52-0.53c-0.05,0.05-0.16,0.11-0.26,0.16c0,0.22,0.01,2.18-0.01,2.4c-0.28,0.01-0.51,0.03-0.71-0.01c-0.02-0.29,0.02-1.85,0.01-2.1c-0.02-0.31-0.3-0.33-0.66-0.44c0.21-0.25,0.59-0.53,0.76-0.66c0.31,0.24,0.5,0.24,0.66,0.42c0.2-0.11,0.56-0.33,0.71-0.45c0.15,0.17,0.42,0.45,0.53,0.58C20.03-68.19,20.2-68.08,20.04-67.92L20.04-67.92z M22.89-66.01c-0.18,0.09-0.54,0.46-0.82,0.46c-0.86-0.04-1.95-0.66-1.79-1.82c0.17-1.2,1.12-1.67,1.52-1.68c0.47,0.03,0.57,0.44,0.84,0.68c-0.4,0.33-1.05,0.97-1.43,1.36c0.1,0.2,0.54,0.96,1.49,0.73C23.13-66.38,23.27-66.19,22.89-66.01L22.89-66.01z M26.31-68.11c-0.09,0.11-0.45,0.4-0.85,0.72c0.06,0.01,0.12,0.02,0.19,0.06c0.65,0.38,0.88,0.93,0.23,1.44c-0.35,0.28-0.93,0.6-1.55,0.62c-0.41,0.01-1.14-0.33-1.27-0.48c0.33-0.31,0.69-0.65,0.95-0.88c-0.41-0.31-0.79-0.73-0.48-1.21c0.23-0.36,0.95-0.94,1.59-0.91C25.76-68.72,26.04-68.29,26.31-68.11L26.31-68.11z M26.71-64.8l0.39,0.4v0.42l-0.29,0.26h-0.24l-0.24-0.25l-0.01-0.48L26.71-64.8L26.71-64.8z M27.44-66.75c-0.9,0.03-0.67-0.38-0.52-0.37C27.69-67.08,27.58-66.76,27.44-66.75L27.44-66.75z M27.43-66.21c-0.9-0.09-0.67-0.38-0.51-0.37C27.76-66.53,27.57-66.2,27.43-66.21L27.43-66.21z M27.83-60.89l-0.33,0.36l-0.42,0.36c-0.24-0.25-0.41-0.31-0.45-0.51l-0.01-1.63l-0.39-0.24c-0.23,0.2-0.41,0.12-0.2-0.07l0.75-0.69l0.17-0.02l0.33,0.48l-0.01,1.73C27.46-60.93,27.46-60.96,27.83-60.89L27.83-60.89z M24.47-56.67c0-0.39,0.2-0.7,0.47-0.97c-0.02-0.02-0.03-0.03-0.05-0.04c-0.08-0.06-0.21-0.75-0.11-0.89c0.13-0.19,0.73-0.77,1.14-0.81c0.28-0.03,0.69,0.57,0.93,0.84c-0.07,0.08,0.08,1.74,0.08,1.89c0.08,0.14,0.37,0.23,0.46,0.1c0.11-0.14,0.22,0.01,0.11,0.12c-0.11,0.1-0.52,0.44-0.65,0.59c-0.19-0.15-0.5-0.31-0.7-0.55c-0.41,0.08-0.84,0.38-1.17,0.62C24.61-55.93,24.49-56.3,24.47-56.67L24.47-56.67z M23.86-61.6c-0.25-0.7,0.21-1.35,0.43-1.54c0.18-0.15,0.59-0.5,0.86-0.67c0.26,0.16,0.46,0.27,0.59,0.33c-0.05,0.13-0.1,0.38-0.38,0.4c-0.42,0.01-0.74-0.1-0.97,0.14c-0.22,0.24-0.05,0.92,0.23,1.19c0.21,0.2,0.78,0.46,0.89,0.22c0.14-0.31,0.34-0.15,0.14,0.12c-0.13,0.17-0.38,0.55-0.51,0.79C24.71-60.65,24.11-60.88,23.86-61.6L23.86-61.6z M24.03-56.75l-0.33,0.36l-0.31,0.32c-0.24-0.25-0.42-0.29-0.46-0.49l-0.01-1.58l-0.49-0.26c-0.23,0.19-0.41,0.11-0.21-0.06l0.75-0.7l0.18-0.03l0.48,0.7l0.01,1.5C23.83-56.82,23.66-56.82,24.03-56.75L24.03-56.75z M25.2-57.45c-0.53,0.44,0.07,0.85,0.23,0.99c0.18-0.09,0.41-0.13,0.59-0.19c-0.02-0.07-0.06-0.14-0.06-0.22s0.01-0.25,0.03-0.45C25.64-57.28,25.48-57.26,25.2-57.45L25.2-57.45z M26-57.5c0.02-0.26,0.03-0.53,0-0.67c0.03-0.2-0.58-0.57-0.68-0.57c-0.13,0-0.13,0.07-0.27,0.3c-0.07,0.12-0.01,0.5,0.05,0.56C25.44-57.59,25.7-57.49,26-57.5L26-57.5z M24.97-67.36c0.18-0.14,0.34-0.27,0.4-0.32c-0.26-0.24-0.7-0.48-0.9-0.51c-0.2-0.02-0.59,0.15-0.44,0.36c0.15,0.2,0.31,0.44,0.63,0.49C24.76-67.33,24.86-67.35,24.97-67.36L24.97-67.36z M24.68-66.77c-0.29,0.23-0.55,0.44-0.69,0.56c0.1,0.2,0.78,0.69,1.16,0.52c0.37-0.17,0.55-0.54,0.21-0.74C25.11-66.58,24.89-66.68,24.68-66.77L24.68-66.77z M21.14-67.23c0.17-0.13,0.59-0.61,0.86-0.87c-0.15-0.09-0.43-0.28-0.54-0.55C20.99-68.27,20.9-68,21.14-67.23L21.14-67.23z M17.08-61.11c0-0.08,0-0.16,0-0.25c0-0.1,0-0.35,0-0.62c-0.31,0.19-0.43,0.34-0.75,0.15c-0.52,0.42,0.27,0.68,0.44,0.83C16.89-61.07,16.99-61.09,17.08-61.11L17.08-61.11z M17.08-62.19c-0.01-0.21-0.01-0.41-0.03-0.52c0.03-0.2-0.34-0.65-0.45-0.65c-0.12,0-0.37,0.22-0.51,0.45c-0.07,0.13-0.09,0.47,0.07,0.66C16.47-61.9,16.62-61.89,17.08-62.19L17.08-62.19z M14.77-58.81c-1,0.61-0.82,1.29-0.49,1.7c0.18-0.13,0.82-0.56,1.09-0.83C15.21-58.03,14.87-58.54,14.77-58.81L14.77-58.81z M8.72-56.43h2.22v-2.18H8.72V-56.43L8.72-56.43z M8.72-64.03h2.22v-2.18H8.72V-64.03L8.72-64.03z M6.11-59.61c-2.6,0-2.6,3.82,0,3.82C8.63-55.8,8.61-59.61,6.11-59.61L6.11-59.61z M6.11-67.24c-2.49,0-2.55,3.82,0,3.82C8.61-63.42,8.61-67.24,6.11-67.24L6.11-67.24z M28.5-44.93c-0.15-0.33-0.4-0.65-0.76-0.81c-1.49-0.71-4.34,0.82-4.31-1.41c0,0-1.02,0.76-0.55,1.55C23.94-43.79,26.9-46.03,28.5-44.93L28.5-44.93z M15.14-26.78c-0.83,0.83-1.12,0.85-1.07,1.21c0.19,0.51,0.55,0.86,0.94,1.3c0.49,0.4,0.67,0.76,0.31-0.41C15.1-25.46,15.15-26.02,15.14-26.78L15.14-26.78z M9.39-42.52l0.04,0.04c-0.01,1.71-4.82,4.17-6.89,5.28c3.19,1.1,6.21-1.86,5.85-1.14c-0.43,0.84-4.33,4.2-6.02,6c1.32,0.37,2.54-0.7,3.5-1.52c1.05-0.89,2.8-3.13,2.53-2.02c-2.84,3.5-5.07,10.75-3.7,11.22c0.79-1.64,4.04-10.03,4.25-9.99c0.22,0.04-0.26,2.21-0.33,3.65c-0.16,3.16-0.18,4.66,0.5,7.77c0.35-0.48,0.69-0.47,1.25-0.43c0.07-0.3,0.05-0.22-0.3-0.69c-0.9-1.2,0.14-2.83-0.3-3.83c-0.36-0.83-0.57-0.17-0.73-1.03c0.25-0.23,0.93-0.3,1.21-0.34c0.29-3.25,1.38-4.9,0.98-2.85c-0.21,1.04-0.52,2.76-0.37,2.81s0.16,0.05,0.29,0.12c0.06,0.03,5.45-8.84,2.46-2.69c-0.39,0.81-1.99,2.98-1.99,2.98c0.42,0.43,0.82,0.93,0.87,1.24c0.01,0.08,7.23-9.49,2.31-1.78c-0.3,0.47-1.78,2.05-2.15,2.51c-0.05,0.06,0.14,1.79,0.14,1.79c0.75-0.52,1.82-1.57,2.32-2.23c-0.07-0.98,0.16-0.85,0.22-1.81c0.23-0.15,0.53,0.26,0.89,0.59c0.17,0.15,4.95-8.17,1.95-1.93c-0.48,1-1.55,2.19-1.6,2.29c0.2,0.21,0.5,0.9,0.85,1.7c0.01,0.03,6.39-9.2,2.52-2.22c-0.31,0.55-2.23,2.86-2.2,2.92c0.47,1.15,0.88,2.28,0.88,2.28c-0.12-0.9-0.3-2.68,1.57-4.14c0.24,1.6,0.67,1.67,1.23,2.16c0.24,0.22,0.7,1.13,0.75,0.35c0.16-2.28-0.58-2.22-1.13-3.19c-0.13-0.23-0.11-0.75,0-0.72c4.59,0.14,4.44,4.44,5.21,4.44c-0.35-1.1-0.44-2.18-0.03-3.06c-1.23-0.87-0.92-2.37-0.69-3.01c-1.38-1.43-0.59-4.47,0.07-5.12c-0.89-1.29,0.21-2.18-0.03-2.97c-0.38-2.81-2.88-1.97-3.44-4.65c-0.39,0.48-1.11,2.1-0.78,2.63c0.39,0.62,1.23,0.67,1.28,1.12c0.02,0.19,0.08,0.73-0.06,0.84c-0.47,0.09-0.8-0.35-1.28-0.54c-0.97-0.38-3.33,1.23-3.47-0.2c-0.09-0.9,0.31-0.25,0.26-1.08c-0.04-0.86-0.47-0.25-0.48-1.36c0-0.81,0.97-1.06,1.04-1.39c0.17-0.8,1.63,1.18,2.48-0.92c-0.5,0.07-1.5-0.28-1.41-0.77c0.25-1.32,0.28-4.5-2.7-3.81c-1.07,0.25-4.04,1.81-4.46,0.11c-1.07,1.9,1.05,1.57,1.69,1.53c-0.25,0.18-0.57,0.46-1.36,0.29c-1.68,1.1-7.8,5-9.57,5.97C5.68-40.21,9.33-42.52,9.39-42.52L9.39-42.52z M11.13-21.29c-0.58-0.24-1.2-0.4-1.74-0.77c0.38,1.27,0.65,2.37,1.35,3.7C11.15-17.59,11.85-19.43,11.13-21.29L11.13-21.29z"/></g><g><g><polygon fill="#A09F9F" points="13.86,44.53 0,44.53 6.93,56.53 "/><path fill="#C7C7C6" d="M27.71,44.53H13.86l-6.93,12h27.71L27.71,44.53z"/><polygon fill="#A09F9F" points="41.57,44.53 27.71,44.53 34.64,56.53 "/><polygon fill="#A09F9F" points="27.71,20.53 13.86,20.53 20.78,32.53 "/><polygon fill="#C7C7C6" points="27.71,20.53 20.78,32.53 27.71,44.53 27.71,44.53 41.57,44.53 "/><path fill="#C7C7C6" d="M13.86,44.53l6.93-12l-6.93-12L0,44.53H13.86z"/></g><g><polygon fill="#E5E5E3" points="55.85,44.53 41.99,44.53 48.92,56.53 "/><path fill="#FFFFFF" d="M69.7,44.53H55.85l-6.93,12h27.71L69.7,44.53z"/><polygon fill="#E5E5E3" points="83.56,44.53 69.7,44.53 76.63,56.53 "/><polygon fill="#E5E5E3" points="69.7,20.53 55.85,20.53 62.77,32.53 "/><polygon fill="#FFFFFF" points="69.7,20.53 62.77,32.53 69.7,44.53 69.7,44.53 83.56,44.53 "/><path fill="#FFFFFF" d="M55.85,44.53l6.93-12l-6.93-12l-13.86,24H55.85z"/></g></g><g><g><path fill="#C7C6C5" d="M17.04,67.38c0,0.04,0,0.12,0,0.15c-0.08,4.38-3.62,7.96-8,8.04c-0.04,0-0.04,0-0.04,0c-0.04,0-0.08,0-0.15,0H0V69.8h8.85c0.04,0,0.08,0,0.08,0c1.15-0.04,2.08-0.85,2.31-1.96H5.27v-5.69h6v-3.62h5.77v3.12H18h0.96v-3.12h5.77v3.62h6v5.69h-5.96c0.23,1.11,1.15,1.92,2.31,1.96c0,0,0.04,0,0.08,0H36v5.77h-8.85c-0.08,0-0.12,0-0.15,0c0,0,0,0-0.04,0c-4.38-0.08-7.92-3.65-8-8.04c0-0.04,0-0.12,0-0.15H18H17.04z M18.96,85.68c0-0.04,0-0.11,0-0.15c0.08-4.38,3.62-7.96,8-8.04c0.04,0,0.04,0,0.04,0c0.04,0,0.08,0,0.15,0H36v5.77h-8.85c-0.04,0-0.08,0-0.08,0c-1.15,0.04-2.08,0.85-2.31,1.96h5.96v5.69h-6v3.62h-5.77v-3.12H18h-0.96v3.12h-5.77v-3.62h-6v-5.69h5.96C11,84.1,10.08,83.3,8.92,83.26c0,0-0.04,0-0.08,0H0v-5.77h8.85c0.08,0,0.12,0,0.15,0c0,0,0,0,0.04,0c4.38,0.08,7.92,3.65,8,8.04c0,0.04,0,0.11,0,0.15H18H18.96z"/></g><g><path fill="#FFFFFF" d="M59.03,67.38c0,0.04,0,0.12,0,0.15c-0.08,4.38-3.62,7.96-8,8.04c-0.04,0-0.04,0-0.04,0c-0.04,0-0.08,0-0.15,0h-8.85V69.8h8.85c0.04,0,0.08,0,0.08,0c1.15-0.04,2.08-0.85,2.31-1.96h-5.97v-5.69h6v-3.62h5.77v3.12h0.96h0.96v-3.12h5.77v3.62h6v5.69h-5.96c0.23,1.11,1.15,1.92,2.31,1.96c0,0,0.04,0,0.08,0h8.84v5.77h-8.85c-0.08,0-0.12,0-0.15,0c0,0,0,0-0.04,0c-4.38-0.08-7.92-3.65-8-8.04c0-0.04,0-0.12,0-0.15h-0.96H59.03z M60.95,85.68c0-0.04,0-0.11,0-0.15c0.08-4.38,3.62-7.96,8-8.04c0.04,0,0.04,0,0.04,0c0.04,0,0.08,0,0.15,0h8.85v5.77h-8.85c-0.04,0-0.08,0-0.08,0c-1.15,0.04-2.08,0.85-2.31,1.96h5.96v5.69h-6v3.62h-5.77v-3.12h-0.95h-0.96v3.12h-5.77v-3.62h-6v-5.69h5.96c-0.23-1.12-1.15-1.92-2.31-1.96c0,0-0.04,0-0.08,0h-8.84v-5.77h8.85c0.08,0,0.12,0,0.15,0c0,0,0,0,0.04,0c4.38,0.08,7.92,3.65,8,8.04c0,0.04,0,0.11,0,0.15h0.96H60.95z"/></g></g><g><path fill="#C7C5C5" d="M103.05,21.7c-1.03-0.22-2-0.58-3.27-0.57c-0.23,0.02-0.47,0.04-0.7,0.06c-0.54,0.14-1.23,0.41-1.58,0.84c-0.2-0.05-0.29-0.22-0.45-0.31c-0.43-0.23-0.85-0.38-1.38-0.49c-1.3-0.27-2.75,0.26-4.01,0.49c-0.84,0.15-1.29-0.43-1.77-0.45c-0.18,0.39-0.01,0.59-0.08,0.99c-0.12,0.7,0.04,1.43-0.06,2.32c-0.04,0.38,0.07,0.85,0,1.27c-0.15,0.91-0.16,2.46,0,3.5c0.04,0.26-0.06,0.75-0.04,1.01c0.52,0.3,1.46,0.03,2.06-0.1c1.5-0.3,2.94-0.87,4.3-0.74c0.01,0.01,0.01,0.03,0.02,0.04c-0.14,0.14-0.29,0.27-0.43,0.41c-0.1,0.23,0.62,0.55,0.76,0.62c0.91,0.46,2.32,0.14,2.82-0.6c0-0.02,0-0.04,0-0.06c-0.17-0.11-0.4-0.42-0.54-0.45c0.09-0.25,1.33-0.38,1.87-0.27c1.07,0.22,2.32,0.63,3.35,0.7c0.23,0.02,0.79,0.04,0.93-0.14c0.14-0.1-0.03-1.53,0.06-2.02c0.06-0.35,0.07-1.27,0-1.67c0.02-0.54,0.04-1.08,0.06-1.62c0-0.62-0.22-1.08-0.12-1.58c0.08-0.4-0.05-1.46,0.25-1.62c0-0.01,0-0.01,0-0.02C104.41,21.25,103.82,21.87,103.05,21.7z M96.99,28.85c0,0.01,0,0.03,0,0.04c-0.42-0.21-0.81-0.53-1.29-0.62c-1.8-0.36-2.76,0.74-4.5,0.78c0-0.37,0-0.74,0-1.11c-0.13-0.86-0.06-2-0.12-2.84c-0.04-0.62-0.09-1.9,0.02-2.24c-0.02-0.05,0-0.06,0.02-0.12c0.32,0.06,0.65,0.13,0.97,0.19c0.93-0.08,1.63-0.31,2.28-0.47c0.34-0.04,0.67-0.08,1.01-0.12c0.69,0.05,1.33,0.37,1.6,0.9c0.16,0.32,0.03,0.74,0.08,1.11c0.1,0.77,0.09,2.14-0.02,2.88C96.96,27.86,97.21,28.3,96.99,28.85z M103.3,24.08c-0.1,0.76-0.02,1.99-0.15,2.92c-0.07,0.46,0.19,1.21,0.04,1.58c-0.15,0.2-1.56-0.26-1.81-0.33c-0.86-0.23-1.93-0.27-2.73,0.04c-0.27,0.1-0.46,0.33-0.68,0.47c-0.06,0.06-0.12,0.12-0.18,0.18c-0.06-0.26-0.07-1.15,0.04-1.38c-0.07-0.1,0.02-1.25,0.02-1.25c-0.15-0.48-0.06-1.04,0-1.42c0.07-0.45-0.1-1.45,0.1-1.77c0.29-0.46,0.84-0.38,1.34-0.58c0.42,0.03,0.83,0.05,1.25,0.08c1.03,0.26,1.67,0.48,2.69,0.1c0.08,0.01,0.06,0,0.1,0.04C103.38,22.85,103.34,23.81,103.3,24.08z"/><path fill="#C7C5C5" d="M110.08,34.09c-0.03-0.19-0.05-0.39-0.08-0.58c0.04-0.24-0.08-0.44-0.12-0.64c-0.16-0.94-0.8-2.35-1.77-2.71c-0.29-0.03-0.57-0.05-0.86-0.08c-0.36,0.21-0.8,0.15-1.17,0.37c-0.96,0.58-2.43,1.74-3.31,0.27c-0.03,0-0.05,0-0.08,0c-0.01,0-0.01,0-0.02,0c-0.21,0.4,0.38,1.21,0.29,1.71c-0.08,0.49,0.15,0.97,0.02,1.54c0.02,0.08,0.04,0.17,0.06,0.25c-0.19,0.8-0.42,1.59-0.84,2.22c-0.65,0.97-2.07,1.41-2.9,0.27c-0.03-0.11-0.07-0.22-0.1-0.33c-0.13-0.24-0.23-0.6-0.2-0.82c1.58-0.23,1.61-0.65,2.36-1.83c0-0.03,0-0.07,0-0.1c-0.05-0.02-0.09-0.04-0.14-0.06c-0.61,0.45-0.91,0.83-1.83,0.54c-0.01-0.02-0.03-0.04-0.04-0.06c0.36-0.15,0.75-0.11,1.05-0.29c0.87-0.53,1.21-1.6,0.99-2.59c-0.01-0.01-0.03-0.03-0.04-0.04c-0.02-0.01-0.04-0.01-0.06-0.02c-0.14,0.16-0.08,0.4-0.19,0.56c-0.39,0.55-0.72,1.03-1.5,1.11c-0.58,0.06-1.15-0.83-1.58-1.11c0,0-0.68-0.41-1.05-0.33c-0.16,0.03-0.33,0.05-0.49,0.08c-0.14,0.08-0.27,0.16-0.41,0.23c-0.23-0.07-0.45-0.14-0.68-0.21c-0.61,0.01-1.82,0.46-1.95,1.03c0.04,0.05,0.08,0.1,0.12,0.16c0.76,0.11,0.9-0.13,1.19,0.7c0.03,0.16,0.07,0.32,0.1,0.49c-0.13,0.31-0.76,0.19-1.11,0.17c-0.01,0.05-0.03,0.09-0.04,0.14c0.4,0.56,1.57,0.38,2.02,0.9c0.67,0.76,0.35,1.99-0.31,2.61c-0.27,0.25-0.68,0.34-1.01,0.43c-0.16,0.03-0.32,0.05-0.49,0.08c-1.6-0.34-2.14-2.13-2.55-3.45c-0.33-1.07,0.43-2.79,1.05-3.08c0-0.04,0-0.08,0-0.12c-0.09,0-0.04,0.03-0.1-0.04c-0.31,0.08-1.01,0.83-1.46,0.68c-0.38-0.12-0.64-0.44-0.93-0.68c-1.09-0.9-2.3-1.64-3.62-0.6c-0.7,0.58-1.18,2.74-1.3,3.69c0.01,0.46,0.03,0.92,0.04,1.38c-0.04,0.23,0.01,0.59,0.08,0.86c0,0.21,0,0.43,0,0.64c0.04,0.36,0.09,0.73,0.14,1.09c0.06,0.17,0.12,0.34,0.17,0.51c0.26,1.13,0.64,2.41,1.01,3.41c0.12,0.33,0.4,0.63,0.58,0.95c0.32,0.56,0.62,1.15,0.99,1.71c0.3,0.46,0.77,0.87,1.09,1.34c0.61,0.92,1.5,1.76,2.38,2.41c0.19,0.14,0.34,0.35,0.58,0.45c-0.07,0.08-0.51,0-0.6-0.04c-0.57-0.27-1.14-0.33-1.66-0.68c-0.21-0.12-0.43-0.25-0.64-0.37c-1.2-0.9-3.03-3.34-2.76-5.18c-0.02-0.03-0.04-0.05-0.06-0.08c-0.03,0.01-0.06,0.01-0.1,0.02c-0.14,0.22-0.23,0.52-0.37,0.8c-0.02,0.12-0.04,0.23-0.06,0.35c-1.3,2.6,0.71,5.42,2.9,6.5c0.45,0.22,0.96,0.25,1.38,0.33c0.41,0.08,0.62-0.07,0.88-0.02c0.44,0.09,0.91-0.04,1.27-0.02c1.04,0.07,1.9-0.09,2.77,0.53c0.17-0.13,0.85,0.61,0.91,0.82c0.03,0.01,0.07,0.01,0.1,0.02c0.03-0.02,0.05-0.04,0.08-0.06c0.06-0.38-0.4-0.89-0.62-1.19c-0.36-0.48-0.7-1.01-1.15-1.4c-0.57-0.5-1.23-0.87-1.77-1.38c-0.37-0.35-0.76-0.77-1.21-1.11c-0.07-0.04-0.14-0.08-0.21-0.12c-1.83-1.96-3.53-4.44-4.05-7.12c-0.3-1.54-0.22-3.24,0.1-4.44c0.13-0.49,0.24-1.17,0.58-1.32c-0.09,0.46-0.26,1.02-0.33,1.56c0,0.43,0,0.86,0,1.29c-0.04,0.32,0.05,0.49,0.1,0.66c-0.07,0.21,0.23,1.3,0.23,1.3c0.15,1.03,1.23,2.6,1.89,3.47c0.55,0.72,0.93,1.43,1.54,2.04c2.3,2.34,4.98,4.62,5.37,8.35c0.01,0.01,0.01,0.03,0.02,0.04c0.07,0.01,0.13,0.03,0.2,0.04c0.17-0.29,0.12-0.46,0.25-0.8c0.13-0.31,0.33-0.72,0.49-1.03c0.27-0.53,0.78-1.51,1.15-1.93c-0.06-0.05,0.29-0.57,0.31-0.6c-0.01-0.02-0.01-0.04-0.02-0.06c0.01-0.01,0.03-0.03,0.04-0.04c0.01-0.03,0.01-0.05,0.02-0.08c0.15-0.33,0.3-0.66,0.45-0.99c-0.02-0.02,0.07-0.32,0.08-0.33c0.3-0.39,0.37-0.89,0.51-1.48c0.26-1.09,0.18-2.27,0.02-3.53c-0.05-0.4-0.1-1.58,0.04-1.69c0.01-0.05-0.02-0.01,0.02-0.06c0.19,0.27,0.22,0.55,0.35,0.91c0.49,1.33,0.76,2.84,0.25,4.4c0.02,0,0.04,0,0.06,0c-0.03,0.04-0.05,0.08-0.08,0.12c0.03,0,0.05,0,0.08,0c0.05-0.1,0.05-0.09,0.1-0.15c-0.04-0.04,0.01-0.03-0.04-0.06c0.04-0.04,0-0.03,0.06-0.02c0.7-1.5,1.73-3.2,1.62-5.2c0.31,0.2,0.87,1.76,0.72,2.24c-0.03,0.19-0.06,0.39-0.1,0.58c0,0.15,0,0.3,0,0.45c-0.21,0.41-0.38,0.97-0.6,1.4c-0.68,1.28-1.73,2.12-2.55,3.25c-0.91,1.26-1.78,2.49-2.32,4.09c-0.15,0.43-0.06,0.74-0.21,1.21c-0.27,0.83-0.27,1.83-0.29,2.63c-0.01,0-0.01,0-0.02,0c-0.09-0.11-0.08-0.3-0.14-0.43c-0.4-0.97-0.17-2.09-0.9-2.84c-0.41-0.42-0.78-0.73-1.34-1.01c-0.34-0.03-0.67-0.05-1.01-0.08c-0.2-0.03-0.51-0.04-0.6-0.02c-0.41,0.08-1.31,0.38-1.71,0.31c-0.32-0.05-0.67-0.13-0.92-0.27c-0.18-0.1-0.26-0.3-0.53-0.33c-0.01,0.01-0.03,0.03-0.04,0.04c0.06,0.07,0.09,0.55,0.21,0.76c0.36,0.64,0.91,1.29,1.6,1.6c1.4,0.63,3.85-0.13,4.75,1.3c0.24,0.38,0.24,0.74,0.33,1.17c0.04,0.02,0.08,0.04,0.12,0.06c0.08,0.01,0.07,0.02,0.12-0.06c0.06,0.03,0.11,0.63,0.14,0.78c0.07,0.03,0.13,0.04,0.27,0.04c0.19-0.33,0.04-1.44,0.35-1.69c0.02,0.07,0.07,0.13,0.16,0.17c0.05-0.03,0.1-0.05,0.16-0.08c0.07-0.35,0.16-0.53,0.31-0.8c1.21-2.1,2.93-0.58,4.65-1.19c0.41-0.15,0.9-0.42,1.15-0.78c0.19-0.26,0.31-0.57,0.62-0.7c0.03-0.05,0.04-0.07,0.04-0.16c-0.02-0.01-0.04-0.03-0.06-0.04c-0.16-0.07-0.28,0.11-0.41,0.14c-0.1,0.02-0.53-0.05-0.62-0.08c-1.85-0.51-3.47-0.99-4.81,0.74c-0.37,0.48-0.58,1.38-0.88,1.73c0.11,0.08-0.11,0.59-0.18,0.64c0,0.01,0,0.03,0,0.04c-0.21-0.23,0.39-1.05,0.29-1.27c0.17-1.51,1.3-3.14,2.12-4.28c0.27-0.29,0.54-0.58,0.82-0.88c1.06-1.24,2.31-2.66,3.12-4.19c0.66-1.27,1.12-2.64,1.48-3.93c0.08-0.49,0.17-0.99,0.25-1.48c0.32-0.95,0.35-1.97,0.31-2.86c-0.03-0.74,0-1.6-0.18-1.99c0.03-0.01,0.05-0.01,0.08-0.02c-0.01,0.05,0.61,1.59,0.68,1.81c0.49,1.51,0.72,3.54,0.29,4.93c-0.41,1.31-1.08,2.56-1.81,3.7c-0.39,0.61-1.04,1.19-1.52,1.77c-1.19,1.44-2.82,2.55-3.6,4.3c0.01,0.01,0.01,0.03,0.02,0.04c0.45,0.24,0.91-0.27,1.19-0.47c0.32-0.2,0.65-0.39,0.97-0.58c0.23-0.21,0.47-0.43,0.7-0.64c0.19-0.13,0.39-0.26,0.58-0.39c0.19-0.2,0.38-0.4,0.57-0.61c2.5-1.88,3.77-5.08,4.89-8.16c0-0.1,0-0.2,0-0.29c0.1-0.31,0.19-0.62,0.29-0.93c0.21-0.72,0.19-1.4,0.43-2.12c-0.04-0.09,0.06-1.11,0.08-1.15C110.07,35.31,110.09,34.16,110.08,34.09z M96.72,49.62c-0.01,0.01-0.03,0.01-0.04,0.02c-0.1-0.21-0.21-0.43-0.31-0.64c-0.47-0.69-0.84-1.49-1.34-2.2c-1.2-1.7-2.75-3.09-3.91-4.89c-0.38-0.58-0.96-1.33-0.99-2.16c0.01,0,0.01,0,0.02,0c0.25,0.29,0.41,0.78,0.63,1.09c0.46,0.64,1.89,2.16,2.59,2.4c0.03-0.03,0.07-0.07,0.1-0.1c-0.02-0.11-0.65-1.03-0.76-1.23c-0.06-0.2-0.12-0.4-0.17-0.6c-0.26-0.59-0.31-1.09-0.43-1.7c0.03,0,0.05,0,0.08,0c0.46,0.81,0.7,1.75,1.3,2.45C95.2,44.09,96.78,46.49,96.72,49.62z M96.68,32.94c-0.03-0.03-0.3-0.07-0.39-0.1c-0.02-0.09-0.06-0.13-0.02-0.23c0.06-0.16,0.17-0.18,0.31-0.25c0.16,0.01,0.33,0.14,0.41,0.27C96.92,32.78,96.83,32.87,96.68,32.94z M97.85,48.73c-0.01,0-0.01,0-0.02,0c-0.31-1.55-1.14-3.32-0.92-5.02c0.09-0.68,0.17-1.17,0.41-1.81c0.17-0.45,0.49-1,0.64-1.5c0.03,0.02,0.05,0.04,0.08,0.06c-0.04,0.25,0.06,0.6,0.1,0.76c0.19,0.71,0.19,1.2,0.43,1.91c0.02,0.17,0.04,0.35,0.06,0.53C99.13,45.2,99.14,47.61,97.85,48.73z"/><path fill="#C7C5C5" d="M108.46,43.39c0.04,0.01,0.08,0.01,0.12,0.02c0.03,0.02,0.05,0.04,0.08,0.06c-0.17,0.7-0.1,1.55-0.27,2.06c-0.04,0.12,0.06,0.45,0.04,0.59c-0.04,0.24-0.24,1.94-0.2,2.02c-0.09,0.26-0.18,0.52-0.27,0.78c-0.02,0.13-0.04,0.26-0.06,0.39c-0.22,0.43-0.47,0.79-0.74,1.17c-0.22,0.3-0.5,0.66-0.84,0.84c-0.54,0.28-1.84,0.3-2.51,0.08c-0.25-0.14-0.51-0.27-0.76-0.41c-0.57-0.21-1.52-0.19-1.93,0.12c-0.06-0.04-0.07-0.05-0.1-0.14c0.33-0.22,0.55-0.45,0.93-0.64c0.8-0.4,1.6-0.54,2.32-0.97c0.92-0.55,1.94-1.35,2.55-2.22C107.65,45.96,107.7,44.54,108.46,43.39z"/></g><g><path fill="#FFFFFF" d="M145.04,21.7c-1.03-0.22-2-0.58-3.27-0.57c-0.23,0.02-0.47,0.04-0.7,0.06c-0.54,0.14-1.23,0.41-1.58,0.84c-0.2-0.05-0.29-0.22-0.45-0.31c-0.43-0.23-0.85-0.38-1.38-0.49c-1.3-0.27-2.75,0.26-4.01,0.49c-0.84,0.15-1.29-0.43-1.77-0.45c-0.18,0.39-0.01,0.59-0.08,0.99c-0.12,0.7,0.04,1.43-0.06,2.32c-0.04,0.38,0.07,0.85,0,1.27c-0.15,0.91-0.16,2.46,0,3.5c0.04,0.26-0.06,0.75-0.04,1.01c0.52,0.3,1.46,0.03,2.06-0.1c1.5-0.3,2.94-0.87,4.3-0.74c0.01,0.01,0.01,0.03,0.02,0.04c-0.14,0.14-0.29,0.27-0.43,0.41c-0.1,0.23,0.62,0.55,0.76,0.62c0.91,0.46,2.32,0.14,2.82-0.6c0-0.02,0-0.04,0-0.06c-0.17-0.11-0.4-0.42-0.54-0.45c0.09-0.25,1.33-0.38,1.87-0.27c1.07,0.22,2.32,0.63,3.35,0.7c0.23,0.02,0.79,0.04,0.93-0.14c0.14-0.1-0.03-1.53,0.06-2.02c0.06-0.35,0.07-1.27,0-1.67c0.02-0.54,0.04-1.08,0.06-1.62c0-0.62-0.22-1.08-0.12-1.58c0.08-0.4-0.05-1.46,0.25-1.62c0-0.01,0-0.01,0-0.02C146.41,21.25,145.81,21.87,145.04,21.7z M138.99,28.85c0,0.01,0,0.03,0,0.04c-0.42-0.21-0.81-0.53-1.29-0.62c-1.8-0.36-2.76,0.74-4.5,0.78c0-0.37,0-0.74,0-1.11c-0.13-0.86-0.06-2-0.12-2.84c-0.04-0.62-0.09-1.9,0.02-2.24c-0.02-0.05,0-0.06,0.02-0.12c0.32,0.06,0.65,0.13,0.97,0.19c0.93-0.08,1.63-0.31,2.28-0.47c0.34-0.04,0.67-0.08,1.01-0.12c0.69,0.05,1.33,0.37,1.6,0.9c0.16,0.32,0.03,0.74,0.08,1.11c0.1,0.77,0.09,2.14-0.02,2.88C138.95,27.86,139.21,28.3,138.99,28.85z M145.29,24.08c-0.1,0.76-0.02,1.99-0.15,2.92c-0.07,0.46,0.19,1.21,0.04,1.58c-0.15,0.2-1.56-0.26-1.81-0.33c-0.86-0.23-1.93-0.27-2.73,0.04c-0.27,0.1-0.46,0.33-0.68,0.47c-0.06,0.06-0.12,0.12-0.18,0.18c-0.06-0.26-0.07-1.15,0.04-1.38c-0.07-0.1,0.02-1.25,0.02-1.25c-0.15-0.48-0.06-1.04,0-1.42c0.07-0.45-0.1-1.45,0.1-1.77c0.29-0.46,0.84-0.38,1.34-0.58c0.42,0.03,0.83,0.05,1.25,0.08c1.03,0.26,1.67,0.48,2.69,0.1c0.08,0.01,0.06,0,0.1,0.04C145.38,22.85,145.33,23.81,145.29,24.08z"/><path fill="#FFFFFF" d="M152.07,34.09c-0.03-0.19-0.05-0.39-0.08-0.58c0.04-0.24-0.08-0.44-0.12-0.64c-0.16-0.94-0.8-2.35-1.77-2.71c-0.29-0.03-0.57-0.05-0.86-0.08c-0.36,0.21-0.8,0.15-1.17,0.37c-0.96,0.58-2.43,1.74-3.31,0.27c-0.03,0-0.05,0-0.08,0c-0.01,0-0.01,0-0.02,0c-0.21,0.4,0.38,1.21,0.29,1.71c-0.08,0.49,0.15,0.97,0.02,1.54c0.02,0.08,0.04,0.17,0.06,0.25c-0.19,0.8-0.42,1.59-0.84,2.22c-0.65,0.97-2.07,1.41-2.9,0.27c-0.03-0.11-0.07-0.22-0.1-0.33c-0.13-0.24-0.23-0.6-0.2-0.82c1.58-0.23,1.61-0.65,2.36-1.83c0-0.03,0-0.07,0-0.1c-0.05-0.02-0.09-0.04-0.14-0.06c-0.61,0.45-0.91,0.83-1.83,0.54c-0.01-0.02-0.03-0.04-0.04-0.06c0.36-0.15,0.75-0.11,1.05-0.29c0.87-0.53,1.21-1.6,0.99-2.59c-0.01-0.01-0.03-0.03-0.04-0.04c-0.02-0.01-0.04-0.01-0.06-0.02c-0.14,0.16-0.08,0.4-0.19,0.56c-0.39,0.55-0.72,1.03-1.5,1.11c-0.58,0.06-1.15-0.83-1.58-1.11c0,0-0.68-0.41-1.05-0.33c-0.16,0.03-0.33,0.05-0.49,0.08c-0.14,0.08-0.27,0.16-0.41,0.23c-0.23-0.07-0.45-0.14-0.68-0.21c-0.61,0.01-1.82,0.46-1.95,1.03c0.04,0.05,0.08,0.1,0.12,0.16c0.76,0.11,0.9-0.13,1.19,0.7c0.03,0.16,0.07,0.32,0.1,0.49c-0.13,0.31-0.76,0.19-1.11,0.17c-0.01,0.05-0.03,0.09-0.04,0.14c0.4,0.56,1.57,0.38,2.02,0.9c0.67,0.76,0.35,1.99-0.31,2.61c-0.27,0.25-0.68,0.34-1.01,0.43c-0.16,0.03-0.32,0.05-0.49,0.08c-1.6-0.34-2.14-2.13-2.55-3.45c-0.33-1.07,0.43-2.79,1.05-3.08c0-0.04,0-0.08,0-0.12c-0.09,0-0.04,0.03-0.1-0.04c-0.31,0.08-1.01,0.83-1.46,0.68c-0.38-0.12-0.64-0.44-0.93-0.68c-1.09-0.9-2.3-1.64-3.62-0.6c-0.72,0.56-1.21,2.73-1.32,3.68c0.01,0.46,0.03,0.92,0.04,1.38c-0.04,0.22,0.02,0.59,0.08,0.86c0,0.21,0,0.43,0,0.64c0.04,0.36,0.09,0.73,0.14,1.09c0.06,0.17,0.12,0.34,0.17,0.51c0.26,1.13,0.64,2.41,1.01,3.41c0.12,0.33,0.4,0.63,0.58,0.95c0.32,0.56,0.62,1.15,0.99,1.71c0.3,0.46,0.77,0.87,1.09,1.34c0.61,0.92,1.5,1.76,2.38,2.41c0.19,0.14,0.34,0.35,0.58,0.45c-0.07,0.08-0.51,0-0.6-0.04c-0.57-0.27-1.14-0.33-1.66-0.68c-0.21-0.12-0.43-0.25-0.64-0.37c-1.2-0.9-3.03-3.34-2.76-5.18c-0.02-0.03-0.04-0.05-0.06-0.08c-0.03,0.01-0.06,0.01-0.1,0.02c-0.14,0.22-0.23,0.52-0.37,0.8c-0.02,0.12-0.04,0.23-0.06,0.35c-1.3,2.6,0.71,5.42,2.9,6.5c0.45,0.22,0.96,0.25,1.38,0.33c0.41,0.08,0.62-0.07,0.88-0.02c0.44,0.09,0.91-0.04,1.27-0.02c1.04,0.07,1.9-0.09,2.77,0.53c0.17-0.13,0.85,0.61,0.91,0.82c0.03,0.01,0.07,0.01,0.1,0.02c0.03-0.02,0.05-0.04,0.08-0.06c0.06-0.38-0.4-0.89-0.62-1.19c-0.36-0.48-0.7-1.01-1.15-1.4c-0.57-0.5-1.23-0.87-1.77-1.38c-0.37-0.35-0.76-0.77-1.21-1.11c-0.07-0.04-0.14-0.08-0.21-0.12c-1.83-1.96-3.53-4.44-4.05-7.12c-0.3-1.54-0.22-3.24,0.1-4.44c0.13-0.49,0.24-1.17,0.58-1.32c-0.09,0.46-0.26,1.02-0.33,1.56c0,0.43,0,0.86,0,1.29c-0.04,0.32,0.05,0.49,0.1,0.66c-0.07,0.21,0.23,1.3,0.23,1.3c0.15,1.03,1.23,2.6,1.89,3.47c0.55,0.72,0.93,1.43,1.54,2.04c2.3,2.34,4.98,4.62,5.37,8.35c0.01,0.01,0.01,0.03,0.02,0.04c0.07,0.01,0.13,0.03,0.2,0.04c0.17-0.29,0.12-0.46,0.25-0.8c0.13-0.31,0.33-0.72,0.49-1.03c0.27-0.53,0.78-1.51,1.15-1.93c-0.06-0.05,0.29-0.57,0.31-0.6c-0.01-0.02-0.01-0.04-0.02-0.06c0.01-0.01,0.03-0.03,0.04-0.04c0.01-0.03,0.01-0.05,0.02-0.08c0.15-0.33,0.3-0.66,0.45-0.99c-0.02-0.02,0.07-0.32,0.08-0.33c0.3-0.39,0.37-0.89,0.51-1.48c0.26-1.09,0.18-2.27,0.02-3.53c-0.05-0.4-0.1-1.58,0.04-1.69c0.01-0.05-0.02-0.01,0.02-0.06c0.19,0.27,0.22,0.55,0.35,0.91c0.49,1.33,0.76,2.84,0.25,4.4c0.02,0,0.04,0,0.06,0c-0.03,0.04-0.05,0.08-0.08,0.12c0.03,0,0.05,0,0.08,0c0.05-0.1,0.05-0.09,0.1-0.15c-0.04-0.04,0.01-0.03-0.04-0.06c0.04-0.04,0-0.03,0.06-0.02c0.7-1.5,1.73-3.2,1.62-5.2c0.31,0.2,0.87,1.76,0.72,2.24c-0.03,0.19-0.06,0.39-0.1,0.58c0,0.15,0,0.3,0,0.45c-0.21,0.41-0.38,0.97-0.6,1.4c-0.68,1.28-1.73,2.12-2.55,3.25c-0.91,1.26-1.78,2.49-2.32,4.09c-0.15,0.43-0.06,0.74-0.21,1.21c-0.27,0.83-0.27,1.83-0.29,2.63c-0.01,0-0.01,0-0.02,0c-0.09-0.11-0.08-0.3-0.14-0.43c-0.4-0.97-0.17-2.09-0.9-2.84c-0.41-0.42-0.78-0.73-1.34-1.01c-0.34-0.03-0.67-0.05-1.01-0.08c-0.2-0.03-0.51-0.04-0.6-0.02c-0.41,0.08-1.31,0.38-1.71,0.31c-0.32-0.05-0.67-0.13-0.92-0.27c-0.18-0.1-0.26-0.3-0.53-0.33c-0.01,0.01-0.03,0.03-0.04,0.04c0.06,0.07,0.09,0.55,0.21,0.76c0.36,0.64,0.91,1.29,1.6,1.6c1.4,0.63,3.85-0.13,4.75,1.3c0.24,0.38,0.24,0.74,0.33,1.17c0.04,0.02,0.08,0.04,0.12,0.06c0.08,0.01,0.07,0.02,0.12-0.06c0.06,0.03,0.11,0.63,0.14,0.78c0.07,0.03,0.13,0.04,0.27,0.04c0.19-0.33,0.04-1.44,0.35-1.69c0.02,0.07,0.07,0.13,0.16,0.17c0.05-0.03,0.1-0.05,0.16-0.08c0.07-0.35,0.16-0.53,0.31-0.8c1.21-2.1,2.93-0.58,4.65-1.19c0.41-0.15,0.9-0.42,1.15-0.78c0.19-0.26,0.31-0.57,0.62-0.7c0.03-0.05,0.04-0.07,0.04-0.16c-0.02-0.01-0.04-0.03-0.06-0.04c-0.16-0.07-0.28,0.11-0.41,0.14c-0.1,0.02-0.53-0.05-0.62-0.08c-1.85-0.51-3.47-0.99-4.81,0.74c-0.37,0.48-0.58,1.38-0.88,1.73c0.11,0.08-0.11,0.59-0.18,0.64c0,0.01,0,0.03,0,0.04c-0.21-0.23,0.39-1.05,0.29-1.27c0.17-1.51,1.3-3.14,2.12-4.28c0.27-0.29,0.54-0.58,0.82-0.88c1.06-1.24,2.31-2.66,3.12-4.19c0.66-1.27,1.12-2.64,1.48-3.93c0.08-0.49,0.17-0.99,0.25-1.48c0.32-0.95,0.35-1.97,0.31-2.86c-0.03-0.74,0-1.6-0.18-1.99c0.03-0.01,0.05-0.01,0.08-0.02c-0.01,0.05,0.61,1.59,0.68,1.81c0.49,1.51,0.72,3.54,0.29,4.93c-0.41,1.31-1.08,2.56-1.81,3.7c-0.39,0.61-1.04,1.19-1.52,1.77c-1.19,1.44-2.82,2.55-3.6,4.3c0.01,0.01,0.01,0.03,0.02,0.04c0.45,0.24,0.91-0.27,1.19-0.47c0.32-0.2,0.65-0.39,0.97-0.58c0.23-0.21,0.47-0.43,0.7-0.64c0.19-0.13,0.39-0.26,0.58-0.39c0.19-0.2,0.38-0.4,0.57-0.61c2.5-1.88,3.77-5.08,4.89-8.16c0-0.1,0-0.2,0-0.29c0.1-0.31,0.19-0.62,0.29-0.93c0.21-0.72,0.19-1.4,0.43-2.12c-0.04-0.09,0.06-1.11,0.08-1.15C152.06,35.31,152.08,34.16,152.07,34.09z M138.71,49.62c-0.01,0.01-0.03,0.01-0.04,0.02c-0.1-0.21-0.21-0.43-0.31-0.64c-0.47-0.69-0.84-1.49-1.34-2.2c-1.2-1.7-2.75-3.09-3.91-4.89c-0.38-0.58-0.96-1.33-0.99-2.16c0.01,0,0.01,0,0.02,0c0.26,0.28,0.42,0.78,0.64,1.09c0.46,0.64,1.89,2.16,2.59,2.4c0.03-0.03,0.07-0.07,0.1-0.1c-0.02-0.11-0.65-1.03-0.76-1.23c-0.06-0.2-0.12-0.4-0.17-0.6c-0.26-0.59-0.31-1.09-0.43-1.7c0.03,0,0.05,0,0.08,0c0.46,0.81,0.7,1.75,1.3,2.45C137.2,44.09,138.77,46.49,138.71,49.62z M138.67,32.94c-0.03-0.03-0.3-0.07-0.39-0.1c-0.02-0.09-0.06-0.13-0.02-0.23c0.06-0.16,0.17-0.18,0.31-0.25c0.16,0.01,0.33,0.14,0.41,0.27C138.91,32.78,138.83,32.87,138.67,32.94z M139.84,48.73c-0.01,0-0.01,0-0.02,0c-0.31-1.55-1.14-3.32-0.92-5.02c0.09-0.68,0.17-1.17,0.41-1.81c0.17-0.45,0.49-1,0.64-1.5c0.03,0.02,0.05,0.04,0.08,0.06c-0.04,0.25,0.06,0.6,0.1,0.76c0.19,0.71,0.19,1.2,0.43,1.91c0.02,0.17,0.04,0.35,0.06,0.53C141.12,45.2,141.13,47.61,139.84,48.73z"/><path fill="#FFFFFF" d="M150.45,43.39c0.04,0.01,0.08,0.01,0.12,0.02c0.03,0.02,0.05,0.04,0.08,0.06c-0.17,0.7-0.1,1.55-0.27,2.06c-0.04,0.12,0.06,0.45,0.04,0.59c-0.04,0.24-0.24,1.94-0.2,2.02c-0.09,0.26-0.18,0.52-0.27,0.78c-0.02,0.13-0.04,0.26-0.06,0.39c-0.22,0.43-0.47,0.79-0.74,1.17c-0.22,0.3-0.5,0.66-0.84,0.84c-0.54,0.28-1.84,0.3-2.51,0.08c-0.25-0.14-0.51-0.27-0.76-0.41c-0.57-0.21-1.52-0.19-1.93,0.12c-0.06-0.04-0.07-0.05-0.1-0.14c0.33-0.22,0.55-0.45,0.93-0.64c0.8-0.4,1.6-0.54,2.32-0.97c0.92-0.55,1.94-1.35,2.55-2.22C149.64,45.96,149.7,44.54,150.45,43.39z"/></g><g><path fill="#C7C5C4" d="M101.16,84.3l-0.8-0.46c3.5-6.07,5.55-10.73,6.79-14.05c-3.5-0.59-8.58-1.13-15.62-1.14v-0.92c7,0,12.07-0.56,15.56-1.15c-0.79-2.11-1.92-4.77-3.53-8c-0.59-0.03-1.2-0.05-1.84-0.05C88.1,58.52,85,65.93,85,76.52c0,10.59,3.1,18,16.72,18c10.74,0,14.91-4.55,16.22-11.63c-3.17-5.33-5.9-9.03-7.98-11.55C107.7,74.08,104.68,78.2,101.16,84.3 M109.88,68.14L109.88,68.14h0.02v-0.01l-0.01-0.01L109.88,68.14L109.88,68.14z M117.11,67.08c-0.64-1.77-1.56-3.31-2.84-4.58c-0.66,1.49-1.2,2.82-1.63,3.98C113.92,66.69,115.4,66.9,117.11,67.08 M117.7,69.03c-1.93,0.19-3.59,0.42-4.99,0.66c1.07,2.86,2.76,6.75,5.46,11.67c0.19-1.52,0.27-3.14,0.27-4.84C118.44,73.79,118.23,71.27,117.7,69.03 M112.7,61.2c-1.88-1.28-4.31-2.14-7.47-2.49c1.75,2.6,3.31,4.64,4.61,6.21C110.69,63.89,111.65,62.66,112.7,61.2"/></g><g><path fill="#FFFFFF" d="M143.15,84.3l-0.8-0.46c3.5-6.07,5.55-10.73,6.79-14.05c-3.5-0.59-8.58-1.13-15.62-1.14v-0.92c7,0,12.07-0.56,15.56-1.15c-0.79-2.11-1.92-4.77-3.53-8c-0.59-0.03-1.2-0.05-1.84-0.05c-13.61,0-16.72,7.41-16.72,18c0,10.59,3.11,18,16.72,18c10.74,0,14.91-4.55,16.22-11.63c-3.17-5.33-5.9-9.03-7.98-11.55C149.69,74.08,146.67,78.2,143.15,84.3 M151.88,68.14L151.88,68.14h0.02v-0.01l-0.01-0.01L151.88,68.14L151.88,68.14L151.88,68.14z M159.11,67.08c-0.64-1.77-1.56-3.31-2.84-4.58c-0.66,1.49-1.2,2.82-1.63,3.98C155.91,66.69,157.4,66.9,159.11,67.08 M159.69,69.03c-1.93,0.19-3.59,0.42-4.99,0.66c1.07,2.86,2.76,6.75,5.46,11.67c0.19-1.52,0.27-3.14,0.27-4.84C160.43,73.79,160.22,71.27,159.69,69.03 M154.69,61.2c-1.88-1.28-4.31-2.14-7.47-2.49c1.75,2.6,3.31,4.64,4.61,6.21C152.68,63.89,153.64,62.66,154.69,61.2"/></g></svg>