<?xml version="1.0" encoding="utf-8"?>
<!-- Generator: Adobe Illustrator 18.1.1, SVG Export Plug-In . SVG Version: 6.00 Build 0)  -->
<svg version="1.1" id="Layer_1" xmlns="http://www.w3.org/2000/svg" xmlns:xlink="http://www.w3.org/1999/xlink" x="0px" y="0px"
	 viewBox="0 268.7 612 254.5" enable-background="new 0 268.7 612 254.5" xml:space="preserve">
<g>
	<g>
		<g>
			<path fill="#FFFFFF" d="M96.8,271.1c-55.1-5.3-96.8,0-96.8,0v68.7c4.4,46.5,48,52.1,48.4,52c7.8-1.4,44.4-8.7,48.4-52V271.1z
				 M48.5,389.4c-0.4,0.1-41.9-5.2-46-49.9v-66c0,0,39.6-5.1,92,0v66C90.6,380.9,55.9,388,48.5,389.4z"/>
		</g>
	</g>
	<path fill="#FFFFFF" d="M10.1,288.6c4.1,0,4.1-6.3,0-6.3S5.9,288.6,10.1,288.6z M24.4,296.2c-1.6,1-1.4,2.1-0.8,2.8
		c0.3-0.2,1.4-1,1.8-1.4C25.2,297.5,24.6,296.6,24.4,296.2z M86.9,286.5c1.1-0.5,2.8-0.2,2.8,0.4c0.1,0.3,0.1,0.6,0.1,0.8
		c0-0.2-0.1-0.4-0.1-0.8c0,0-0.2-3.3-3.7-3.3c-1.1,0-2.6,1.4-6.2-0.2v5.7C81.3,289.5,85.3,287.2,86.9,286.5z M36.4,280.8
		c-0.2-0.2-0.7-0.5-0.9-0.9c-0.8,0.6-1,1.1-0.6,2.3C35.3,282,35.9,281.2,36.4,280.8z M14.4,287.5h3.6v-3.6h-3.6V287.5z M10.1,294.8
		c-4.3,0-4.3,6.3,0,6.3C14.2,301.1,14.2,294.8,10.1,294.8z M14.4,300.1h3.6v-3.6h-3.6V300.1z M56.6,298.8c-0.6,1.1-0.1,1.3,0.2,1.5
		c0.4-0.2,0.7-0.4,1-0.6c0-0.2,0-0.6,0-1C57.2,298.9,57,298.9,56.6,298.8z M72.3,283.2c0-0.3-1.1-1-1.3-1c-0.2,0-0.5,0.3-0.8,0.7
		c-0.2,0.2-0.2,0.2,0,0.3c0.4,0.3,1.5,0.9,2.1,1.1C72.3,283.9,72.3,283.4,72.3,283.2z M72.3,284.6c-0.5-0.2-1.1-0.4-1.7-0.7
		c0.1,0.1,0.2,0.1,0.2,0.2c-0.6,1.1,0.2,2.1,0.6,2.3c0.4-0.2,0.6-0.2,1-0.2c0-0.2,0-0.3,0-0.5C72.3,285.5,72.3,285.1,72.3,284.6z
		 M72,290.1c-1,0.6-1,1.5-0.6,2.4c0.2,0.6,1.4,1.5,1.7,1.7c0.5-0.6,0.7-1.5,0.6-2.4C73.6,291.1,72.7,290.4,72,290.1z M56.9,296.4
		c-0.2,0-0.4,0.1-0.6,0.5c-0.2,0.2-0.1,1.1,0,1.1c0.6,0.5,1,0.5,1.5,0.4c0-0.5,0-0.9-0.1-1.1C57.8,297,57.1,296.4,56.9,296.4z
		 M63.1,275.7c-5.9-2.2-14,1.6-14,1.6c0,1,0,29,0,29s3-2.4,9.1-2.4c3,0,14.7,3.2,20.4,2.8v-29.5C78.7,277.2,70.3,278.4,63.1,275.7z
		 M64.6,281c1-0.4,1.9-1.7,2-2c0.1-0.3,0.4-0.2,0.2,0.2c-0.3,0.6-0.3,1.1-0.2,1.5c0.1,0.1,1.9,0.1,2.2,0.1c0.2,0,0.2,0.5,0,0.5
		c-0.2,0-2.4,0.2-2.4,0.2c-0.1,0.1,0.1,2.8,0.2,3c0.1,0.2,0.2,0.6,0.6,0.3c0.2-0.2,0.5,0.2,0.2,0.4c-0.2,0.2-0.6,1.1-0.9,1.2
		c-0.3,0.2-0.9-0.5-1.1-1c-0.2-0.7-0.4-2.6-0.4-3.9C65.2,281.7,64.1,281.3,64.6,281z M67.7,292.8c0.5,0.2,1.4,0.1,1.6,0.1
		c0.2,0,0.2-0.1,0.3-0.2c0.2-0.2,0.3,0,0.2,0.2c-0.2,0.2-1.5,1.4-1.8,1.6c-0.3,0.1-1.1,0.1-1.5-0.5c-0.7-1-1.3-1.3-1.1-3
		c0.2-1.2,2.1-2.2,2.6-2.4c0.2,0.2,1.1,1.1,1.5,1.5c-0.2,0.2-0.6,0.4-1.1,0.4c-0.5,0-0.8-0.4-1.1-0.7c-0.2,0.2-0.7,0.5-0.9,1.2
		C66.2,291.7,67,292.5,67.7,292.8z M62.3,290c0.3,0.7,1.6,1.4,2.3,1.6c-0.2,0.2-1.1,1.3-1.5,1.5c-0.5-0.2-1.1-0.9-1.5-1.4
		c-0.6,0.8-0.8,1.5-1.9,1.8c0.6-0.6,1.3-1.8,1.2-2.9c-0.1-1.1-0.6-1.5-1.1-1.8c-0.4,0.2-0.8,0.5-1.1,0.6c-0.2,0.1-0.3-0.2-0.2-0.3
		c0.6-0.2,1.8-1.2,1.9-1.4c0.5,0.1,1.1,0.6,1.2,1c0.4-0.2,1.1-1,1.3-1.1c0.2,0.4,1,0.9,1.7,1.2c-0.7,1.2-2.3,0.5-2.5,0.2
		C62,289.2,62,289.5,62.3,290z M61.8,277.5l0.7,0.6v0.7l-0.5,0.4h-0.4l-0.4-0.4v-0.8L61.8,277.5z M61.4,280l1,1v2.9
		c0.5,0.6,0.7,0.6,1.4,0.7l-0.9,1.2H62c-0.4-0.4-0.7-0.7-0.8-1.1l-0.1-2.8l-1.1-0.6c-0.2,0.2-0.6,0.2-0.4,0.1l1.5-1.3L61.4,280z
		 M52.6,278.8c0.5,0.1,3.2,0.3,4,0.4c0.2,0.1,0.3,0.3-0.1,0.4c-0.2,0.1-0.6,0.2-0.6,0.5c0,0.3,1,2.5,1.3,2.9c0.2-0.6,1.1-2.9,1-3.5
		c-0.2-0.5-0.2-0.6-0.6-0.6c-0.4-0.1-0.4-0.2,0.1-0.3c0.5-0.1,1.8-0.2,2.2-0.2s0.4,0.2-0.1,0.4c-0.5,0.2-0.9,0.6-1,1.2
		c-0.1,0.6-1.9,5.5-2,5.8c-0.4-1.5-2.1-5.3-2.7-6.1c-0.5-0.7-1-0.6-1.4-0.6C52.1,279.2,52.3,278.8,52.6,278.8z M54.2,300.4
		c-0.4,0.3-1,1.1-1.2,1.4c-0.5-0.3-1.1-0.7-1-1.1c0.1-0.7-0.2-5.8-0.2-6.4c0.2,0,1.1,0.1,1.5,0.1c0,0.6,0,5,0,5.5s0.4,0.6,0.8,0.4
		C54.3,300.1,54.5,300.2,54.2,300.4z M53.3,293.4c-1-0.6-1.8-0.7-1.8-2.8c0-1.3,1.1-2.3,1.9-2.7c0.9-0.5,2.8-0.8,3.5-0.6
		c0.3,0.1,0.6,0,0.6-0.2c0-0.2,0.3-0.2,0.3,0c0,0.2,0,2.3,0,2.5s-0.3,0.2-0.3,0c0-0.3,0-0.4-0.2-0.8c-0.8-1.1-2.9-1.3-4,0.2
		c-0.3,0.5-0.5,1.3-0.1,1.5s1.9,0,2.4-0.1s1.7-0.3,1.9-0.4c0.2-0.1,0.3-0.2,0.3,0c0,0.2,0,1.1,0,1.3s-0.2,0.2-0.3,0
		c-0.2-0.1-1.3-0.2-1.8-0.2c-0.8-0.1-2.1-0.3-2.5-0.2c-0.4,0.2-0.1,0.7,0.2,1.2c1.1,1.4,3,1.5,3.8,0.3c0.3-0.4,0.3-0.5,0.3-0.8
		c0-0.2,0.3-0.2,0.3,0c0,0.2,0,1.9,0,2.1s-0.3,0.2-0.3,0c0-0.4-0.2-0.3-0.6-0.2C55.7,293.8,54.2,293.8,53.3,293.4z M60.1,299.6
		c-0.2,0.2-1.1,1.3-1.3,1.5c-0.4-0.3-0.7-0.4-0.9-0.9c-1.1,0.4-1.4,1-2,1.5c-0.3-0.3-0.6-1-0.6-1.5c0-0.6,0.6-1.5,0.9-1.8
		c-0.1,0-0.1-0.1-0.1-0.1c-0.2-0.1-0.3-1.1-0.2-1.2c0.2-0.3,1.1-1.6,1.9-1.6c0.5-0.1,0.9,0.6,1.3,1.1c-0.1,0.2-0.1,2.3-0.1,2.6
		c0.5,0.5,0.6,0.6,0.9,0.4C60.1,299.3,60.2,299.4,60.1,299.6z M63.6,300.1c-0.2,0.2-0.6,0.9-1.1,1.1c-0.4,0.2-1-0.1-1.3-0.5
		c-0.4-0.6-0.2-2.7-0.2-3.9c0.1,0-1.1-0.4-0.6-0.6c0.8-0.4,1.6-1.2,1.8-1.6c0.2-0.3,0.4-0.2,0.2,0.2c-0.2,0.3-0.2,1.1-0.2,1.4
		c0,0.1,0.6,0.2,1,0.2c0.2,0,0.2,0.5,0,0.5c-0.2,0-1,0-1,0c-0.1,0.1,0,2.8,0,3c0.1,0.2,0.7,0.4,1,0.2
		C63.7,299.7,64,299.9,63.6,300.1z M69.1,301.8c-0.3-0.1-1-0.6-1-1.1c-0.4,0.3-1.7,0.8-2.2,1c-0.5-0.5-0.8-0.6-0.9-1.2
		c0-0.6,0.2-2.2-0.1-2.6c-0.2-0.4-0.5-0.5-0.9-0.5c0.5-0.5,1-0.9,1.3-1.1c0.5,0.4,0.6,0.6,1,1.1c0,0.6-0.2,2.1-0.1,2.6
		c0,0.5,1.9,0.8,2,0.1c0.1-0.7,0-1.6,0-2c0-0.3-0.8-0.5-1.2-0.4c0.5-0.6,1-1,1.3-1.2c0.5,0.3,0.9,0.8,1.2,1.3c0,0.7-0.2,2.4,0,2.8
		c0.2,0.5,0.1,0.5,0.4,0.7C69.6,301.4,69.4,301.5,69.1,301.8z M75.7,291.2c0.2,0,0.7,0.1,0.9,0.2c0.2,0.1,0.2,0.5,0,0.5
		c-0.4,0-0.8-0.1-1-0.2C75.3,291.7,75.4,291.2,75.7,291.2z M75.7,292.2c0.2,0,0.7,0.1,0.9,0.2c0.2,0.1,0.2,0.5,0,0.5
		c-0.4,0-0.8-0.1-1-0.2C75.3,292.5,75.4,292.2,75.7,292.2z M75.6,298.3c0.2-0.2,0.6-0.1,0.2,0.2c-0.2,0.2-0.9,0.8-1.1,1
		c-0.3-0.2-1-0.9-1.1-1c-0.1,0.1-0.3,0.2-0.5,0.2c0,0.4,0,3.4,0,3.8c-0.5,0-0.9,0.1-1.3,0c0-0.5,0-3.2,0-3.6c0-0.5-0.9-0.7-1.5-0.7
		c0.4-0.2,1.3-1.1,1.6-1.3c0.6,0.4,0.9,0.8,1.1,1.1c0.3-0.2,0.9-0.6,1.2-0.8C74.9,297.6,75.4,298,75.6,298.3z M74.1,293.8
		c-0.5,0.3-1.1,0.8-1.5,1.3c-1.5,0-2.3-1.9-2.3-2.8c0.1-1.5,1.1-2.8,2.7-3.4c1.3,0.4,1.9,1.8,1.9,2.6
		C74.9,292.3,74.4,293.3,74.1,293.8z M73,287.4c-0.3-0.2-0.6-0.5-0.6-1c-0.9,0.2-1.5,0.7-1.9,1.1c-0.4-0.3-1-1.2-1-1.9
		s0.5-1.5,0.8-1.9c0,0,0.1,0,0.1,0.1c-0.2-0.1-0.4-0.2-0.5-0.3c-0.2-0.1-0.2-0.4,0-0.6c0.2-0.3,1-1.2,1.7-1.4
		c0.4-0.1,1.1,0.1,1.9,0.8c-0.1,0.2-0.1,2.8-0.1,3c0.3,0.4,0.8,0.8,0.8,0.8L73,287.4z M28.3,290.6c0-0.3,0-0.6-0.1-0.9
		c0.1-0.3-0.6-1.1-0.7-1.1c-0.2,0-0.6,0.4-0.8,0.7c-0.1,0.2-0.2,0.8,0.1,1.1C27.3,291.1,27.5,291.1,28.3,290.6z M86.1,295.4
		c-5.7,0.8-6.4-0.3-6.4-0.3v5.7c0,0,3.2,0,6.6-2.3c1.1-0.6,2.6-0.4,3.4,0.2l0,0C89.7,298.6,89.3,294.9,86.1,295.4z M43,298.6
		c-0.6,0.1-0.8,0.1-1.3-0.2c-0.9,0.7,0.1,1.4,0.4,1.6c0.3-0.2,0.6-0.2,1-0.3c0-0.1-0.1-0.2-0.1-0.4C43,299.3,43,298.9,43,298.6z
		 M41.9,296.3c-0.2,0-0.2,0.1-0.5,0.5c-0.1,0.2,0,0.8,0.1,0.9c0.6,0.5,1,0.6,1.5,0.6c0-0.4,0.1-0.9,0-1.1
		C43.1,296.9,42.1,296.3,41.9,296.3z M28.3,290.9c-0.5,0.3-0.7,0.6-1.2,0.2c-0.9,0.7,0.5,1.1,0.7,1.4c0.2-0.1,0.4-0.2,0.5-0.2
		c0-0.2,0-0.2,0-0.4S28.3,291.3,28.3,290.9z M40.8,282c0.2,0,0.3,0,0.5,0c0.3-0.2,0.6-0.5,0.6-0.6c-0.4-0.4-1.1-0.8-1.5-0.8
		c-0.3,0-1,0.2-0.7,0.6S40.2,281.9,40.8,282z M40.8,283c-0.5,0.4-0.9,0.7-1.1,0.9c0.2,0.3,1.3,1.1,1.9,0.9c0.6-0.3,0.9-0.9,0.3-1.2
		C41.5,283.3,41.2,283.2,40.8,283z M30.4,276.8c-3.2,1.2-10.8,0.2-10.8,0.2v29.7c6.8,0.5,15.5-3,19.9-2.8c4.5,0.3,8.3,2.3,8.3,2.3
		v-29C47.8,277.2,41.1,272.6,30.4,276.8z M33.5,282c0.2-2,1.9-2.8,2.5-2.8c0.8,0.1,1,0.7,1.4,1.1c-0.6,0.6-1.7,1.6-2.3,2.3
		c0.2,0.3,0.9,1.6,2.4,1.2c0.7-0.2,1,0.2,0.3,0.5c-0.3,0.2-0.9,0.7-1.4,0.7C35.1,284.9,33.3,284,33.5,282z M36.2,288.3
		c0.9,0.2,2.2,0.1,2.6,1.2c0.4,1.2-0.3,2.8-1.4,2.8c-0.8,0.1-1.6-0.2-2.1-0.2c-0.2,0-0.4,0.1-0.4,0.3s-0.4,0.4-0.4,0
		c-0.1-0.3-0.2-1.7-0.2-2.1s0.4-0.4,0.4,0c0.1,0.4,0.2,0.7,0.6,1.1c0.2,0.3,1.9,0.7,2.5,0.2c0.5-0.4,0.4-1.3-0.2-1.6
		c-0.5-0.3-2.6-0.8-2.9-1.4c-0.6-1,0.5-1.9,1-2.1c0.7-0.4,1.6-0.2,1.9-0.2c0.3,0,0.6,0.1,0.7-0.2c0-0.3,0.2-0.2,0.3,0
		c0.1,0.9,0.2,0.3,0.2,1.3c0,0.4-0.2,0.4-0.3,0.1c-0.1-0.2-1.4-1.3-2.4-0.6C35.1,287.6,35.4,288.1,36.2,288.3z M38.7,294.2
		c-0.4,0.3-0.6,0.7-1,1.1c-0.3-0.2-0.7-0.6-1.1-0.8c0.6-0.2,0.8-0.6,1.1-1C37.9,294,38.3,294.2,38.7,294.2z M29.8,280
		c0.5,0.4,0.8,0.4,1.1,0.7c0.3-0.2,0.9-0.6,1.2-0.7c0.2,0.3,0.7,0.7,0.9,1c0.2-0.2,0.5,0,0.2,0.2c-0.2,0.2-0.9,0.6-1.1,0.8
		c-0.3-0.2-0.6-0.7-0.9-0.9c-0.1,0.1-0.2,0.2-0.4,0.2c0,0.3,0,3.6,0,4c-0.5,0-0.8,0.1-1.1,0c0-0.5,0-3.1,0-3.5
		c0-0.5-0.5-0.6-1.1-0.7C28.8,280.6,29.5,280.2,29.8,280z M23.7,280.6c0.8-0.5,2.2-0.2,2.8,0c0.3,0.1,0.6,0.1,0.6-0.3
		c0-0.2,0.3-0.2,0.3,0s0,2.7,0,2.8c0,0.2-0.4,0.2-0.4,0c0-0.2-0.1-0.8-0.2-1.3c-0.2-0.6-1.9-1.9-3.1-0.2c0,0.1-0.6,0.9-0.5,1.6
		c0.1,0.5,0.1,1.2,0.5,1.6c1,1.4,2.3,0.9,3.1-0.2c0.2-0.4,0.2-0.9,0.2-1.2c0-0.2,0.4-0.2,0.4,0c0,0.2,0,1.9,0,2
		c0,0.2,0.2,0.4,0.2,0.6c0.2,0.4,0,0.6-0.4,0.2c-0.2-0.3-0.2-0.6-0.6-0.4c-1.1,0.3-2.2,0.6-3,0.2c-0.9-0.6-1.6-0.7-1.7-2.8
		C21.9,282.1,23,281.1,23.7,280.6z M22.1,289c0.5-0.7,1.6-1.4,2.3-1.7c0.2,0.3,0.6,0.7,0.9,1.2c-0.3,0.3-0.7,0.6-1,0.9
		c-0.2-0.2-1.1-1.5-1.8-0.6c-0.3,0.5-0.7,2,0.5,3c0.6,0.4,1.2,0.6,2,0.5c-0.4,0.6-0.5,0.6-0.7,1.1c-1.1,0.2-1.6-0.2-2.2-0.6
		C21,291.7,21.4,290,22.1,289z M25.7,299.8c0.3-0.3,0.6-0.2,0.3,0.2c-0.4,0.5-0.9,1.2-1.1,1.7c-0.9-0.4-2.7-1.5-2.4-3.4
		c0.3-2,2.3-2.8,2.8-3.2c0.1,0.6,0.8,1.6,1.2,2c-0.6,0.6-2.2,1.8-2.8,2.3C24.1,299.8,25.3,300.2,25.7,299.8z M26.9,293.7
		c-0.6-0.2-1.1-0.8-1.1-1.4c0-0.6,0.4-1,0.9-1.4c-0.1-0.1-0.2-0.1-0.2-0.2c-0.2-0.1-0.3-1.1-0.2-1.4c0.3-0.6,1.3-1.5,1.9-1.5
		c0.5-0.1,0.8,0.9,1.2,1.3c-0.1,0.2-0.1,2.8-0.1,3.2c0.1,0.2,0.4,0.3,0.6,0.2c0.2-0.2,0.3,0,0.2,0.2s-1.1,1-1.3,1.2
		c-0.3-0.2-0.4-0.6-0.5-1.1C27.8,292.9,27.2,293.2,26.9,293.7z M32.1,300.4c-0.2,0.2-1.2,0.9-1.5,1.2c-0.3-0.6-0.4-1.1-0.2-1.8
		c0.1-0.6,0-2,0-2.3s-0.5-0.4-0.7-0.6c-0.3,0.2-0.3,0.2-0.6,0.5c0,0.4-0.1,3.5,0,3.9c-0.7,0-0.6,0-1.1,0c0-0.6,0-3-0.1-3.5
		c0-0.5-0.5-0.9-0.7-1.1c0.6-0.4,0.8-0.7,1.2-1.1c0.3,0.5,0.5,1,0.8,1.2c0.4-0.3,1.1-0.7,1.4-1.1c0.3,0.2,0.8,0.4,0.8,1.5
		c0,1.1,0.2,2.6,0.2,3c0,0.2,0.1,0.2,0.3,0.1C32.1,300.1,32.2,300.2,32.1,300.4z M32.5,292.9c-0.3,0.2-1-0.2-1.2-0.6
		c-0.4-0.6-0.2-2.1-0.2-3.3c0.1,0-0.2-0.3-0.5-0.3c-0.3-0.1-0.4-0.2,0.1-0.4c0.6-0.2,1.5-1.7,1.7-2c0.1-0.3,0.3,0,0.2,0.3
		c-0.3,0.7-0.2,1.5-0.2,1.9c0,0.1,1.2-0.1,1.5-0.1c0.2,0,0.2,0.5,0,0.5c-0.2,0-1.7,0.2-1.7,0.2c-0.1,0.1,0.1,2.4,0.2,2.6
		c0,0,0.5,0.4,0.6,0.2c0.2-0.2,0.4,0,0.2,0.2C33.1,292.2,32.9,292.7,32.5,292.9z M35.9,299.3c-0.2,0.2-0.7,0.9-0.9,1.2
		s-1,0.1-1.2-0.3c-0.4-0.6-0.2-1.9-0.2-3.1c0.1,0-0.8-0.4-0.4-0.6c0.5-0.3,1.2-1.8,1.4-2.1c0.1-0.3,0.3-0.2,0.2,0.2
		c-0.1,0.5-0.2,1.6-0.2,1.9c0.1,0.1,0.7,0.1,1.1,0.1c0.2,0,0.2,0.5,0,0.5c-0.2,0-1,0.1-1,0.1c-0.1,0.1-0.1,1.7,0.1,1.9
		c0.3,0.3,0.6,0.6,1.1,0.1C35.9,298.9,36.2,299.1,35.9,299.3z M39.2,300.2l-0.5,0.5c-0.4-0.4-0.6-0.5-0.7-0.8v-2.6l-0.8-0.4
		c-0.4,0.3-0.6,0.2-0.3-0.1l1.2-1.1l0.3-0.1l0.8,1.1v2.5c0.3,0.3,0,0.3,0.6,0.4L39.2,300.2z M39.5,291.6c-0.4-1.1,0.3-2.3,0.7-2.5
		c0.3-0.2,1-0.8,1.5-1.1c0.4,0.2,0.7,0.5,1,0.6c-0.1,0.2-0.2,0.6-0.6,0.6c-0.7,0-1.2-0.2-1.6,0.2c-0.4,0.4-0.1,1.5,0.4,1.9
		c0.3,0.3,1.3,0.7,1.5,0.4c0.2-0.5,0.6-0.2,0.2,0.2c-0.2,0.3-0.6,0.9-0.8,1.3C40.9,293.1,39.9,292.8,39.5,291.6z M45.5,300.1
		c-0.2,0.2-0.9,0.7-1.1,1.1c-0.3-0.2-0.8-0.5-1.1-0.9c-0.6,0.2-1.4,0.6-1.9,1.1c-0.6-0.2-0.8-0.9-0.8-1.5c0-0.6,0.3-1.1,0.8-1.6
		c0,0-0.1,0-0.1-0.1c-0.2-0.1-0.3-1.2-0.2-1.5c0.2-0.3,1.2-1.3,1.9-1.4c0.5-0.1,1.1,1,1.5,1.4c-0.2,0.1,0,2.8,0,3.1
		c0.2,0.2,0.6,0.4,0.7,0.2C45.5,299.7,45.7,299.9,45.5,300.1z M45.5,293.4l-0.7,0.6c-0.4-0.4-0.6-0.5-0.7-0.8v-2.7l-0.6-0.4
		c-0.4,0.3-0.6,0.2-0.3-0.1l1.2-1.1h0.3l0.6,0.8v2.8c0.3,0.3,0.3,0.2,1,0.4L45.5,293.4z M44.5,282.4c1.3,0.1,1.1,0.6,0.9,0.6
		C43.9,283.1,44.3,282.4,44.5,282.4z M44.5,283.3c1.4,0.1,1.1,0.6,0.9,0.6C43.9,283.8,44.3,283.3,44.5,283.3z M44.2,286.2l0.6,0.6
		v0.6l-0.5,0.4H44l-0.4-0.4v-0.8L44.2,286.2z M41.5,279.8c1.1,0.1,1.5,0.8,1.9,1.1c-0.2,0.2-0.7,0.6-1.4,1.2c0.1,0,0.2,0,0.3,0.1
		c1.1,0.6,1.5,1.5,0.4,2.3c-0.6,0.5-1.5,1-2.6,1.1c-0.6,0-1.9-0.6-2.1-0.8c0.6-0.5,1.1-1.1,1.5-1.5c-0.6-0.5-1.3-1.2-0.8-2
		C39.3,280.6,40.5,279.7,41.5,279.8z"/>
	<path fill="#FFFFFF" d="M47.1,319.1c-0.2-0.6-0.6-1.1-1.2-1.4c-2.4-1.1-7.2,1.4-7.1-2.3c0,0-1.7,1.2-0.9,2.6
		C39.6,321,44.5,317.3,47.1,319.1z M17.2,354.3c0.1-0.5,0.1-0.4-0.5-1.1c-1.5-1.9,0.2-4.7-0.5-6.3c-0.6-1.4-1-0.2-1.2-1.7
		c0.4-0.4,1.5-0.5,2-0.6c0.5-5.3,2.3-8.1,1.6-4.7c-0.3,1.7-0.9,4.5-0.6,4.6c0.2,0.1,0.2,0.1,0.5,0.2c0.1,0.1,9-14.7,4-4.5
		c-0.6,1.4-3.3,4.9-3.3,4.9c0.7,0.7,1.4,1.5,1.5,2c0,0.2,12-15.7,3.8-2.9c-0.5,0.8-2.9,3.4-3.6,4.1c-0.1,0.1,0.2,3,0.2,3
		c1.2-0.9,3-2.6,3.8-3.7c-0.1-1.6,0.2-1.4,0.3-3c0.4-0.2,0.9,0.4,1.5,1c0.2,0.2,8.2-13.5,3.2-3.2c-0.8,1.6-2.6,3.6-2.7,3.8
		c0.3,0.3,0.8,1.5,1.4,2.8c0,0.1,10.6-15.2,4.1-3.6c-0.5,0.9-3.6,4.7-3.6,4.9c0.8,1.9,1.5,3.8,1.5,3.8c-0.2-1.5-0.5-4.5,2.6-6.9
		c0.4,2.7,1.1,2.8,2,3.6c0.4,0.3,1.1,1.9,1.2,0.6c0.2-3.8-1-3.6-1.9-5.3c-0.2-0.4-0.2-1.2,0-1.2c7.6,0.2,7.4,7.4,8.6,7.4
		c-0.6-1.8-0.7-3.6-0.1-5c-1.8-1.6-1.2-4-0.9-5.1c-2.3-2.3-1-7.4,0.1-8.5c-1.5-2.1,0.3-3.6-0.1-4.9c-0.6-4.6-4.8-3.2-5.7-7.7
		c-0.6,0.8-1.9,3.5-1.3,4.4c0.6,1.1,2,1.1,2.1,1.9c0,0.3,0.2,1.2-0.1,1.4c-0.8,0.2-1.3-0.6-2.1-0.9c-1.6-0.6-5.5,2-5.7-0.3
		c-0.2-1.5,0.5-0.4,0.4-1.8c-0.1-1.5-0.8-0.4-0.8-2.3c0-1.4,1.6-1.8,1.7-2.3c0.3-1.3,2.7,1.9,4.1-1.5c-0.8,0.1-2.5-0.5-2.3-1.3
		c0.4-2.2,0.5-7.4-4.5-6.3c-1.8,0.4-6.7,3-7.4,0.2c-1.8,3.2,1.7,2.6,2.8,2.5c-0.4,0.3-1,0.7-2.3,0.5c-2.8,1.9-12.9,8.3-15.9,9.9
		c4,1.9,10-1.9,10-1.9l0.1,0.1c0,2.8-8,6.9-11.4,8.7c5.3,1.8,10.3-3.1,9.6-1.9c-0.5,1.4-7,7-9.8,10c2.2,0.6,4.2-1.1,5.7-2.5
		c1.7-1.5,4.6-5.2,4.2-3.3c-4.7,5.7-8.3,17.8-6.1,18.5c1.3-2.8,6.7-16.6,7-16.5c0.3,0.1-0.4,3.6-0.6,6.1c-0.2,5.3-0.3,7.7,0.8,12.9
		C15.7,354.2,16.3,354.2,17.2,354.3z M41.6,316.3c-0.1-1.3,2.3-2.7,3.2,0.2c2.4-0.2,3.2,1.3,3.5,2.1c3.6,0.6,2.5,3,2.4,3
		c-0.3-0.5-1.9-2.8-4.4-1.2c-0.6,0.4-1.6,0.7-2.1,0.2c0.1,0.8,1.1,1.5,1.7,1.3c2.2-0.6,2.8,1.5,1.1,2c0.4,0.6,1.1,0.6,1.7,0.2
		c1-0.6,1.1-1.1,1.4-1.5c0.6,2.9-3.1,3.2-4.2,3.3c0.2,0.6,0.6,0.7,1.3,1c-3.9,0.2-4.6,3.7-4.4,5.8c0.9,0.1,2.2-1.9,2.1-0.7
		c-2.8,2.9-3.6,6.8-2.2,9.3c0.6-0.2,0.9-1.1,1.1-1.6c0.1-0.1,1.5,0.6-0.7,3.2c-0.2,0.7-1,2.8,0.8,3.3c0.6-0.8,0.6-1.5,0.7-2.3
		c0.5-0.2,0.8,1.5,0.6,1.9c-2.3,1-1.9,7.9,0.6,11.6c-1.2-2.7-1.1-6.2,0-9c0.8-2.1,2.6-7,2.7-6.9c1,1.2,2.3,6.6,2.3,8.7
		c1.4-1.2,1.7-2.6,2.8-3.5c0.6,1.9,0.8,3.2,1.2,4.9c0.6-1.7,2-3.6-0.1-8.9c0.4-0.4,1.2,1.9,1.5,1.8c0.2-0.1,0.5-1.2-0.2-3.3
		c-1.5-1.4-1.9-3.4-1.6-3.6c0.2-0.2,0.9,2.1,1.6,2.3c0.2-1.8,0.6-3.6,0.5-4.9c0-0.3-0.6-2.2-2.3-3.6c-1-0.9-1.3-2.7-1.2-3
		c0.9,0.8,0.7,1.5,1.5,1.8c0.3-0.7,0.1-3.5-0.8-4.6c-0.6-0.9-0.3-0.8,0.3-0.2c0.9,1,0.4,1,1.2,1.4c1.6-3.8,0.2-4.5,0.2-4.8
		c0.1-0.2,1.2,1.8,2.2,1c-1.6-0.8-1.5-2.1-1.7-3.5c-0.2-1.1-0.8-1.5-0.6-1.8c1.6,1.2,2-0.2,2-0.4c-0.3,0.2-1.7,0.3-1.9-1.9
		c-0.1-0.9-1.4-1.2-1.4-1.2c0.8-0.2,3.4-0.3,2.8-2.9c-0.3,0.6-1.1,1.5-2.7,1.2c0,0,1.1-0.2,0.8-1.4c-2.5,1.4-4.5-1.5-7.1-1.1
		c-0.9,0.1-2,0.6-2.3,1.6c-0.6,0.6-0.6-1-1.7-0.3c-0.5,0.6,0.8,2.1,0.5,2.2c-1.3,0.4-1.1-1.9-1.8-1.9
		C41.7,312.1,39.1,314.5,41.6,316.3z M49.7,312.1c1.1,0.4,1.9,1.1,3,1.3v0.1c-1.6,0.3-2.9,2.1-4.8,1.4c-0.2-0.2-0.7-0.3-0.6-0.6
		c0.3,0.2,0.9,0.3,1.2,0.4c0,0-1-0.8-0.1-1.9c-1.1,0.7-1.5,0.5-1.5,0.2C46.8,312.6,48.3,311.6,49.7,312.1z M25,349.1
		c-1.4,1.4-1.9,1.4-1.8,2c0.3,0.8,0.9,1.5,1.5,2.2c0.8,0.6,1.1,1.3,0.5-0.6C25,351.3,25.1,350.4,25,349.1z M51.3,313.5
		c-0.3-0.2-1.4-0.8-1.8-0.9c0,0,0.5,0.4,0.5,0.9c0,0.4-0.5,0.9-0.5,0.9L51.3,313.5z M73.5,355.2c-0.2,0.4-0.3,0.9-0.6,1.5
		c-0.2,0.5,0.5,0.2,1.6-0.9C74.6,355.8,73.6,355,73.5,355.2z M15.5,357c0.6,2.1,1.1,3.9,2.3,6.2c0.6,1.3,1.8-1.8,0.6-4.9
		C17.5,357.8,16.4,357.5,15.5,357z M87.8,331.4c1.5,1.5,5.5,3,5.7,2.8c-3.2-6.2-11.1-12.1-10.2-12.9c5.7,5.4,7.6,5.7,7.9,5.3l-5.2-5
		c-1.5-1.9-3.4-3.5-3.2-3.4c2.3,0.5-1.2-1.9-4-2.7c-0.5-0.2-1.3-0.2-1.3-0.4c-0.1-0.4,0.6-0.2,1.2-0.4c0.4-0.1,0.7-0.4,0.7-1
		c-1.1,0.2-2.1,0-3-0.4c-1.9-0.9-5.1-1.9-6.6-1.2c-0.9,0.3-1.1,0.3-2,1.1c-0.4-0.2-1.5-0.9-3.2,1.1c-0.5,0.6-1.1,1.3-1.1,1.9
		c-0.1,1.3,0,0.1,0.3,1.3c0.2,0.6-0.5,1.5-2.9,2.3c-1,0.3-0.7,1.2-0.7,1.2c0.5-0.2,1.2-0.7,2.3-0.2c2.2,1.1,2.7-0.6,4-1.8
		c0,0-0.4,1.5,0,1.5c1.7,0.3,1.1,1.6,0.9,1.9c-2.2,1.9-1.2,2.7-2,3.8c-0.7,1.1-1.9,1.5-3.5,1.5c-2.3-0.1,3-3.6-2.1-5
		c0.8,1.3,1.1,2.4-0.6,3.4c-1.1,0.6-0.6,4-3.4,2.4c0,0-0.2,2.4-0.6,2.6c3.9,3.4,1.7,5.3,1.9,10.2c1.2,3.1-0.1,4.6-0.4,4.8
		c0.2,2.1,0.4,3.2,1.7,5c1,1.2-0.1,3.2,0.9,4.5c0.9-3.2,1.9-1.9,2.1-6.2c0.3-0.7,1.9-2,2.7-2.1c0,2.7,1,5.1,0.7,6.2
		c0,0,2.3-0.4,2.9-0.2c0.6,0.2,1,0.9,1,1.4c-0.7,0.5-0.7,0.3-1.9,1.1c-2,1.5-2.9,4.5-2.9,4.5s4.8-3.8,5.1-4.5
		c0.2-0.6,0.6-1.4,0.8-2.3c0-0.1-2.4-1.5-3.2-2.8c-2.1-4.1,3.3,2.4,3.4,1.9c0.3-1.5,1.3-2.8,1.3-2.8c-0.3-0.4-1.2-0.6-2.5-2.9
		c-2.9-5.2,3.4,2.2,3.4,2.2c1.7-1,1.7,0.3,1.9,1.7c0,0.2,2.8,2.3,3,2.3c0.8-0.7,1.4-1.8,1.7-2.4c0.1-0.1-5.2-4.7-6.1-6.2
		c-7.1-12.3,5.8,5.4,6.4,4.9c0.3-1,0.5-2.3,0.4-4c0-0.1-2.4-1.7-4-4.3c-6-10,4,3,4,2.8c-0.1-2.1-1.9-11.3-0.6-8.6
		c0.6,1.5,2.6,7.3,2.2,13.3c0.6-1.1,3.5-2.2,4.5-2.5c-0.2-8.9-5.7-18.8-4.2-16.9c3.7,4.6,4.9,14.6,7.4,23.2c0,0,1.6,0.8,1.3-10
		c-0.1-2.2-1-5.1-2-7.2c-2.2-4-6.6-10.8-6.4-10.9C82.9,323.1,85.5,329.1,87.8,331.4z M76.8,353.7c-0.2-0.1-2.6-2.3-2.7-2.2
		c0,0.3,0,0.2-0.1,0.6c-0.1,0.8-0.1,1.5-0.4,2.3c0,0.1,0.9,0.5,1.3,0.8C75.7,354.7,76.3,354.4,76.8,353.7z M85.6,347.2
		c-1.2,0.2-4.3,2-4.9,3.1c-2.1,2.8-2,5.4-10.8,9.3c-0.4,0,1.6-1.5,2.2-3.2c0.2-0.8,1.5-4.6,0.6-6.4c-1.9,1.9-1.5,2.4-1.9,3.8
		c-1.3,3.6-2,4-5.3,6.2c-0.4,0.3-3,4.2-6.2,4.4c0.3-0.1,0.2-0.9,1.2-1.6c3.6-2.4,2.3-7.6,7-8.4c-2.3-0.8-4,1.5-4.5,1.2
		c1.9-2.7,0.2-4.9,0.5-7.1c-0.6,0.3-1.3,1.1-1.4,1.8c-0.3,3.9-2.2,4.5-2.3,6.2c0.4,2.8-1.9,4.9-3.5,6.9c-0.3-1.6,0.1-3.1,2.1-4.4
		c1.1-0.7-0.1-2.9-0.1-2.9c-0.5,2.4-1.8,3.2-2.7,3.3c-0.7,0.1,2.6-3.4,2.2-6.6c-0.2-1.5-0.6-0.8-0.8-2.3c-2.9,3.2-0.8,5.2-3.7,8.8
		c-1.4,1.8-1.9,4.9-2.1,4.9c0-4.5,0.2-3.2,2.2-7c1.7-3.1-0.1-5.9-0.3-7.8c-3.6,2.5-3.3,7.4-3.5,6.3c-0.1-1.1-0.6-2.8-0.1-4.5
		c0.8-2.8-0.9-6.9-0.9-6.9c-5.1,8-0.8,17.4-1.1,17.3c-2.2-3.5-3.9-3.6-4.3-6.3c-0.2-1.5-2.9-9.4-7.8-9.6c2.4,2.1,1.9,2.4,2,5.8
		c-1.5,8.7,10.5,9.6,9.7,14c-1.6-2.7-4.2-3.8-8-5.8c-1.7-1.4-3.6-1.9-3.7-4c0.2-1.5,0.3-1.2,0-3.2c-0.2-1.4-1.5-0.6-2.6-3.5
		c-2.2,1.9-1.4,4.2-1.2,5.5c0.1,0.3,0.3,1.7,0,2.5c-0.8-0.6-1.3-1.6-2.2-2.8c-1.5-2-1.5-4.5-2.3-6.2c-0.3-0.8-0.9-1.9-1.2-1.9h-0.1
		c-0.4,3.2-0.2,5.9,1.2,8.3c0,0-0.4,0.6-0.7,0.8c-1.4-0.3-3.2-1.5-4-3.7c-1.7,1.4-0.5,3.2-0.6,3.2c-3.8-1.9,0.1-9.5-5.3-9.2
		c1.3,1.5,0.5,3.3,0.4,5c0,2.8,3.6,5,3.6,5c-4-1.4-4.8,0.5-4.8,0.5s5.9,2.6,15.1,3.5c1.2,0.2,2.9,1.5,2.6,1.5
		c-1.2-0.1-3.6-1.6-7,1.4c2,0.1,3.4,3.3,6.6,1.5c8.4-2.3,11.5,1.8,12.9,2.8c-0.3,0.5-6.5-3.9-11.3-1c-2.6,1.5-6.8,0.2-10-2.3
		c1.3,3.4,7,7.2,8.8,7.2c2.3,0,5.2-3,8.5-2.8c5.3,0.2,6.1,5,5.4,4.6c0,0-4.1-6.9-9.6,0.5c2.5-1.1,5.8-0.9,8.7,0.6
		c0.4,0.2-0.7,1.5-1.5,2.3c-0.5,0.6-2.8,3.9-5.2,0.6c-0.3-0.5-1.5-3.5-9.1-2.8c2.8,1.3,6,4.7,7.5,6.2c4,3.9,10-4.8,10.2-3.8
		c0,1.9,1,2.9,1.5,4c1.3,2.7-1.7,2.2-3.3,1.5c0,0,3.2,4.9,5.7,2.2c2.9-3-3.8-5.3-1.7-7.7c1.2-1.4,5.4,3,7.3,3
		c5.1,0.6,4.9-4.3,7.6-4.1c-2.5-2.6-5.3-1.2-5.8-0.5c-1.7,2-3.7,0.6-5.1-0.4c-0.7-1-2-1.1-3.2-0.8c-0.6,0.1,1.1-1.9,3.2-1.5
		c4.7,0.9,9.5-0.8,10.6-1.5c1.9-1.1,3-2.9,5.1-4.9c-0.6,0.2-4.6,2.3-5.8,2.9c-3.8,1.9-6.2-0.6-6.6-0.6c-0.7,0-0.6-0.6,0.6-0.9
		c3.9-0.9,6.6-4.3,10.3-5.7c4-1.9,9.3-0.6,12.7-4c1.1-1,1.8-2.5,3.2-3c-1.1-1-2.1,1-2.7,0.3c1-1.5,1.6-2.8,1.7-4.7
		C84.1,348.7,85.3,347.8,85.6,347.2z M79.8,359.4c-1,3-0.5,6,0.6,4.5c1.5-2.2,2.4-4.6,3-7.2C82.4,357.9,81.1,358.8,79.8,359.4z"/>
</g>
<g>
	<g>
		<path fill="#FFFFFF" d="M130.7,421.3c0-4.8-0.2-5.9-3.2-6.2l-2.1-0.2c-0.5-0.4-0.5-1.4,0.1-1.6c3.5-0.3,7.9-0.5,13.8-0.5
			c4,0,7.9,0.3,10.8,1.8c2.8,1.4,4.9,4,4.9,8.1c0,4.6-2.7,7-6.6,8.8c0,0.6,0.5,0.8,1.2,1c3.5,0.6,8.7,3.9,8.7,10.8
			c0,7.4-5.5,12.5-17.2,12.5c-1.9,0-5-0.2-7.8-0.2c-2.8,0-5,0.2-7.4,0.2c-0.4-0.2-0.5-1.2-0.2-1.6l1.1-0.2c3.4-0.5,3.6-1.3,3.6-8.1
			v-24.6H130.7z M136,429.8c0,1.8,0.1,1.9,3.3,1.8c6.6-0.2,10.1-2.2,10.1-8.3c0-6.3-4.7-8.7-9.6-8.7c-1.5,0-2.3,0.2-3,0.4
			c-0.6,0.2-0.9,0.5-0.9,1.7L136,429.8L136,429.8z M136,444.7c0,2.3,0.2,5.6,1.4,7c1.2,1.5,3.2,1.8,5.1,1.8c5.7,0,10.1-2.6,10.1-9.1
			c0-5.1-2.6-11-12.8-11c-3.5,0-3.7,0.4-3.7,1.7L136,444.7L136,444.7z"/>
		<path fill="#FFFFFF" d="M175.9,422.6c0-6.8-0.2-7.9-4-8.3l-1.6-0.2c-0.4-0.2-0.2-1.5,0.2-1.6c3.2,0.2,5.4,0.2,8.1,0.2
			c2.6,0,4.8-0.1,8-0.2c0.4,0.2,0.5,1.4,0.2,1.6l-1.6,0.2c-3.8,0.3-4,1.5-4,8.3v23c0,6.8,0.2,7.8,4,8.2l1.6,0.2
			c0.4,0.2,0.2,1.4-0.2,1.6c-3.2-0.2-5.4-0.2-8-0.2c-2.7,0-4.9,0.1-8.1,0.2c-0.4-0.2-0.5-1.2-0.2-1.6l1.6-0.2c3.8-0.5,4-1.4,4-8.2
			V422.6z"/>
		<path fill="#FFFFFF" d="M196.6,434.5c0-12.9,9.6-22.7,23-22.7c14.9,0,22.3,10.8,22.3,22.1c0,13-10,22.5-22.3,22.5
			C205.2,456.4,196.6,446.2,196.6,434.5z M235.4,435.9c0-10.6-4.7-22.1-17-22.1c-6.7,0-15.4,4.6-15.4,18.7c0,9.6,4.6,21.9,17.3,21.9
			C228.1,454.4,235.4,448.6,235.4,435.9z"/>
		<path fill="#FFFFFF" d="M256.9,422.5c0-6.8-0.2-7.8-4.2-8.1l-1.6-0.2c-0.4-0.2-0.2-1.5,0.2-1.6c3.6,0.2,5.8,0.2,8.3,0.2
			s4.7-0.1,7.9-0.2c0.4,0.2,0.5,1.4,0.2,1.6l-1.5,0.2c-3.8,0.3-4,1.4-4,8.1v22.4c0,4,0.2,5.7,1.4,7c0.7,0.7,1.9,1.5,7,1.5
			c5.5,0,6.8-0.2,7.9-0.8c1.3-0.8,3-3.1,4.3-6.4c0.4-0.3,1.6-0.1,1.6,0.4c0,0.7-1.8,7.3-2.7,9c-3.3-0.2-9.4-0.2-16-0.2h-5.9
			c-2.7,0-4.8,0.1-8.3,0.2c-0.4-0.2-0.5-1.2-0.2-1.6l1.9-0.2c3.7-0.4,3.9-1.3,3.9-8.1v-23.2H256.9z"/>
		<path fill="#FFFFFF" d="M291.4,434.5c0-12.9,9.6-22.7,23-22.7c14.9,0,22.3,10.8,22.3,22.1c0,13-10,22.5-22.3,22.5
			C300.1,456.4,291.4,446.2,291.4,434.5z M330.3,435.9c0-10.6-4.7-22.1-17-22.1c-6.7,0-15.4,4.6-15.4,18.7c0,9.6,4.6,21.9,17.3,21.9
			C323,454.4,330.3,448.6,330.3,435.9z"/>
		<path fill="#FFFFFF" d="M385.3,448.8c0,2.6,0.4,4.1,1.5,4.5c0.2,0.2,0.2,0.6-0.1,0.8c-0.8,0-1.9,0.2-3.2,0.6
			c-3.4,0.9-8.1,1.7-11.6,1.7c-7.7,0-14.7-2.1-19.7-7.1c-3.9-3.9-5.9-9-5.9-14.7c0-5.5,1.8-11,5.8-15.3c4.3-4.5,10.7-7.5,20.4-7.5
			c3.6,0,7.1,0.7,8.2,1c1.2,0.2,3.2,0.7,4,0.6c0,2.1,0.4,5.5,1,9.4c-0.2,0.5-1.4,0.6-1.7,0.2c-1.8-7-6.6-9.1-13.2-9.1
			c-12.5,0-18,8.9-18,18.5c0,12.4,6.4,22.1,19.3,22.1c4,0,6.4-0.8,7.1-1.9c0.3-0.5,0.6-1.6,0.6-3.6v-2.6c0-5.4-0.2-5.8-4.2-6.2
			l-2.8-0.3c-0.5-0.2-0.5-1.5,0-1.6c1.9,0.2,5.4,0.2,9.2,0.2c2.5,0,4.7-0.1,6.8-0.2c0.5,0.2,0.5,1.2,0.1,1.6l-1.1,0.2
			c-2.7,0.3-2.8,2.1-2.8,5.4L385.3,448.8L385.3,448.8z"/>
		<path fill="#FFFFFF" d="M406.7,422.6c0-6.8-0.2-7.9-4-8.3l-1.6-0.2c-0.4-0.2-0.2-1.5,0.2-1.6c3.2,0.2,5.4,0.2,8.1,0.2
			c2.6,0,4.8-0.1,8-0.2c0.4,0.2,0.5,1.4,0.2,1.6l-1.6,0.2c-3.8,0.3-4,1.5-4,8.3v23c0,6.8,0.2,7.8,4,8.2l1.6,0.2
			c0.4,0.2,0.2,1.4-0.2,1.6c-3.2-0.2-5.4-0.2-8-0.2c-2.7,0-4.9,0.1-8.1,0.2c-0.4-0.2-0.5-1.2-0.2-1.6l1.6-0.2c3.8-0.5,4-1.4,4-8.2
			V422.6L406.7,422.6z"/>
		<path fill="#FFFFFF" d="M435.8,417.3c4.7-3.6,10.7-5.5,17.4-5.5c3.5,0,8.3,0.7,11.4,1.5c0.8,0.2,1.2,0.3,1.8,0.2
			c0.1,1.5,0.4,5.5,0.9,9.5c-0.3,0.5-1.3,0.5-1.8,0.2c-1-4.4-3.9-9.4-13.2-9.4c-9.9,0-18.2,6.2-18.2,19.6c0,13.5,8.6,21,19.2,21
			c8.3,0,12-5.4,13.4-9.2c0.5-0.3,1.4-0.2,1.7,0.2c-0.5,3.3-2.1,7.6-3.1,8.8c-0.8,0.2-1.5,0.4-2.3,0.6c-1.5,0.5-6.1,1.5-10.2,1.5
			c-5.8,0-11.3-1.1-16-4.3c-5.2-3.6-9.1-9.4-9.1-17.7C427.7,427.2,430.9,421.1,435.8,417.3z"/>
		<path fill="#FFFFFF" d="M502.9,440.4c-0.5-1.4-0.7-1.6-2.7-1.6h-9.7c-1.6,0-2,0.2-2.4,1.5l-2.3,6.8c-1,2.9-1.5,4.6-1.5,5.3
			c0,0.8,0.3,1.1,1.9,1.3l2.1,0.2c0.5,0.3,0.5,1.4-0.2,1.6c-1.7-0.2-3.6-0.2-6.7-0.2c-2.1,0-4.5,0.2-6.2,0.2
			c-0.4-0.2-0.5-1.3-0.2-1.6l2.1-0.2c1.5-0.2,3-0.8,3.9-3.2c1.1-3,3-7.1,5.7-14.4l6.6-17.4c0.9-2.3,1.3-3.6,1.1-4.6
			c1.5-0.5,2.7-1.6,3.3-2.4c0.4,0,0.8,0.2,1,0.6c0.8,2.8,1.9,5.8,2.8,8.7l8.8,25.9c1.9,5.6,2.7,6.5,5.5,6.8l1.7,0.2
			c0.5,0.3,0.3,1.4,0,1.6c-2.7-0.2-4.9-0.2-7.8-0.2c-3.1,0-5.5,0.2-7.4,0.2c-0.5-0.2-0.6-1.3-0.2-1.6l1.9-0.2
			c1.4-0.2,2.3-0.5,2.3-1.1c0-0.7-0.3-1.9-0.8-3.4L502.9,440.4z M490.2,434.7c-0.5,1.5-0.5,1.5,1.4,1.5h7.9c1.9,0,2-0.2,1.4-2
			l-3.5-10.5c-0.5-1.5-1.1-3.3-1.5-4h-0.2c-0.2,0.3-0.8,1.9-1.5,3.8L490.2,434.7z"/>
		<path fill="#FFFFFF" d="M533.2,422.5c0-6.8-0.2-7.8-4.2-8.1l-1.6-0.2c-0.4-0.2-0.2-1.5,0.2-1.6c3.6,0.2,5.8,0.2,8.3,0.2
			s4.7-0.1,7.9-0.2c0.4,0.2,0.5,1.4,0.2,1.6l-1.5,0.2c-3.8,0.3-4,1.4-4,8.1v22.4c0,4,0.2,5.7,1.4,7c0.7,0.7,1.9,1.5,7,1.5
			c5.5,0,6.8-0.2,7.9-0.8c1.3-0.8,3-3.1,4.3-6.4c0.4-0.3,1.6-0.1,1.6,0.4c0,0.7-1.8,7.3-2.7,9c-3.3-0.2-9.4-0.2-16-0.2h-6
			c-2.7,0-4.8,0.1-8.3,0.2c-0.4-0.2-0.5-1.2-0.2-1.6l1.9-0.2c3.7-0.4,3.9-1.3,3.9-8.1L533.2,422.5L533.2,422.5z"/>
	</g>
	<g>
		<path fill="#FFFFFF" d="M137,523.3c-5.4,0-8.8-1.7-10-2.3c-0.8-1.5-1.6-6-1.8-9c0.3-0.5,1.3-0.6,1.5-0.2c1,3.3,3.6,9.6,11.1,9.6
			c5.4,0,8.1-3.6,8.1-7.4c0-2.8-0.6-6-5.3-9l-6.2-4c-3.2-2.1-7-5.8-7-11.1c0-6.2,4.8-11.1,13.1-11.1c2,0,4.3,0.3,6,0.8
			c0.8,0.2,1.8,0.4,2.3,0.4c0.6,1.5,1.1,5.2,1.1,7.9c-0.2,0.4-1.3,0.6-1.6,0.2c-0.8-3.1-2.6-7.3-8.7-7.3c-6.3,0-7.7,4.2-7.7,7.1
			c0,3.7,3.1,6.4,5.5,7.9l5.2,3.2c4,2.5,8.1,6.2,8.1,12.4C150.7,518.4,145.4,523.3,137,523.3z"/>
		<path fill="#FFFFFF" d="M168.7,484.1c4.7-3.6,10.7-5.5,17.4-5.5c3.5,0,8.4,0.7,11.4,1.5c0.8,0.2,1.2,0.3,1.8,0.2
			c0.1,1.5,0.4,5.6,0.9,9.5c-0.3,0.5-1.3,0.5-1.8,0.2c-1-4.4-3.9-9.4-13.2-9.4c-9.9,0-18.2,6.2-18.2,19.6c0,13.5,8.6,21,19.1,21
			c8.3,0,12-5.4,13.4-9.2c0.5-0.3,1.5-0.2,1.7,0.2c-0.5,3.3-2.1,7.6-3.1,8.8c-0.8,0.2-1.5,0.4-2.3,0.6c-1.5,0.5-6.1,1.5-10.2,1.5
			c-5.8,0-11.3-1.1-16-4.3c-5.2-3.6-9.1-9.4-9.1-17.7C160.6,494,163.8,487.9,168.7,484.1z"/>
		<path fill="#FFFFFF" d="M217.8,489.4c0-6.8-0.2-7.9-4-8.3l-1.6-0.2c-0.4-0.2-0.2-1.5,0.2-1.6c3.2,0.2,5.4,0.2,8.1,0.2
			c2.6,0,4.8-0.1,8-0.2c0.4,0.2,0.5,1.4,0.2,1.6l-1.6,0.2c-3.8,0.3-4,1.5-4,8.3v23c0,6.8,0.2,7.8,4,8.2l1.6,0.2
			c0.4,0.2,0.2,1.4-0.2,1.6c-3.2-0.2-5.4-0.2-8-0.2c-2.7,0-4.9,0.1-8.1,0.2c-0.4-0.2-0.5-1.2-0.2-1.6l1.6-0.2c3.8-0.5,4-1.4,4-8.2
			V489.4z"/>
		<path fill="#FFFFFF" d="M246.3,489.3c0-6.7-0.2-7.7-4-8.1l-1.1-0.2c-0.4-0.2-0.2-1.5,0.2-1.6c2.8,0.2,4.9,0.2,7.6,0.2h12.1
			c4.1,0,7.9,0,8.7-0.2c0.4,1.1,0.8,5.7,1.1,8.6c-0.2,0.4-1.3,0.5-1.6,0.2c-1-3-1.5-5.3-4.9-6.2c-1.4-0.3-3.4-0.4-6.2-0.4h-4.6
			c-1.9,0-1.9,0.2-1.9,2.6v12.9c0,1.8,0.2,1.8,2.1,1.8h3.7c2.7,0,4.7-0.2,5.5-0.4c0.8-0.2,1.2-0.6,1.5-2.3l0.5-2.7
			c0.3-0.4,1.5-0.4,1.7,0.1c0,1.5-0.2,4-0.2,6.5c0,2.3,0.2,4.8,0.2,6.2c-0.2,0.5-1.4,0.5-1.7,0.1l-0.6-2.5c-0.2-1.1-0.7-2.1-2-2.4
			c-0.9-0.2-2.4-0.3-4.9-0.3h-3.7c-1.9,0-2.1,0.1-2.1,1.8v9.1c0,3.4,0.2,5.6,1.2,6.7c0.8,0.8,2.1,1.5,7.8,1.5c4.9,0,6.8-0.2,8.3-1
			c1.1-0.6,2.9-2.9,4.6-6.2c0.5-0.3,1.4-0.2,1.6,0.5c-0.5,2.3-2,7.2-2.9,9c-5.8-0.2-11.6-0.2-17.2-0.2H249c-2.8,0-4.9,0.1-8.7,0.2
			c-0.4-0.2-0.5-1.2-0.2-1.6l2.1-0.2c3.6-0.3,4-1.3,4-8.1L246.3,489.3L246.3,489.3z"/>
		<path fill="#FFFFFF" d="M324.9,511.2c0,1.9,0,9.6,0.2,11.3c-0.2,0.4-0.5,0.7-1.2,0.7c-0.8-1.1-2.7-3.3-8.3-9.7l-15-17
			c-1.8-2-6.2-7.3-7.4-8.7H293c-0.2,0.8-0.3,2.3-0.3,4.2v14.1c0,3,0.2,11.4,1.1,13.4c0.5,0.7,1.7,1.1,3.3,1.2l2,0.2
			c0.4,0.5,0.3,1.3-0.2,1.6c-2.9-0.2-5.2-0.2-7.5-0.2c-2.7,0-4.5,0.1-6.7,0.2c-0.5-0.3-0.5-1.2-0.2-1.6l1.8-0.2
			c1.5-0.2,2.5-0.6,2.8-1.3c0.9-2.3,0.8-10.2,0.8-13.3v-18.6c0-1.8-0.1-3.2-1.5-4.6c-0.9-0.9-2.4-1.4-4-1.5l-1.1-0.2
			c-0.4-0.4-0.4-1.4,0.2-1.6c2.7,0.2,6.2,0.2,7.3,0.2c1.1,0,2.1-0.1,3-0.2c1.3,3.3,9,11.8,11,14.2l6.2,7c4.4,5,7.6,8.6,10.6,11.7
			h0.2c0.2-0.3,0.2-1.4,0.2-2.7V496c0-3-0.1-11.4-1.3-13.4c-0.4-0.6-1.4-1-4-1.3l-1.1-0.2c-0.5-0.4-0.4-1.5,0.2-1.6
			c3,0.2,5.2,0.2,7.6,0.2c2.8,0,4.5-0.1,6.6-0.2c0.5,0.3,0.5,1.2,0.2,1.6l-0.9,0.2c-2,0.3-3.3,0.8-3.6,1.4c-1.1,2.3-1,10.3-1,13.3
			L324.9,511.2L324.9,511.2z"/>
		<path fill="#FFFFFF" d="M345.2,484.1c4.7-3.6,10.7-5.5,17.4-5.5c3.5,0,8.4,0.7,11.4,1.5c0.8,0.2,1.2,0.3,1.8,0.2
			c0.1,1.5,0.4,5.6,0.9,9.5c-0.3,0.5-1.3,0.5-1.8,0.2c-1-4.4-3.9-9.4-13.2-9.4c-9.9,0-18.2,6.2-18.2,19.6c0,13.5,8.6,21,19.2,21
			c8.3,0,12-5.4,13.4-9.2c0.5-0.3,1.5-0.2,1.7,0.2c-0.5,3.3-2.1,7.6-3.1,8.8c-0.8,0.2-1.5,0.4-2.3,0.6c-1.5,0.5-6.1,1.5-10.2,1.5
			c-5.8,0-11.3-1.1-16-4.3c-5.2-3.6-9.1-9.4-9.1-17.7C337.1,494,340.3,487.9,345.2,484.1z"/>
		<path fill="#FFFFFF" d="M392.4,489.3c0-6.7-0.2-7.7-4-8.1l-1.1-0.2c-0.4-0.2-0.2-1.5,0.2-1.6c2.8,0.2,4.9,0.2,7.6,0.2h12.1
			c4.1,0,7.9,0,8.7-0.2c0.4,1.1,0.8,5.7,1.1,8.6c-0.2,0.4-1.3,0.5-1.6,0.2c-1-3-1.5-5.3-4.9-6.2c-1.4-0.3-3.4-0.4-6.2-0.4h-4.6
			c-1.9,0-1.9,0.2-1.9,2.6v12.9c0,1.8,0.2,1.8,2.1,1.8h3.7c2.7,0,4.7-0.2,5.5-0.4c0.8-0.2,1.2-0.6,1.5-2.3l0.5-2.7
			c0.3-0.4,1.4-0.4,1.7,0.1c0,1.5-0.2,4-0.2,6.5c0,2.3,0.2,4.8,0.2,6.2c-0.2,0.5-1.4,0.5-1.7,0.1l-0.6-2.5c-0.2-1.1-0.7-2.1-2-2.4
			c-0.9-0.2-2.4-0.3-4.9-0.3h-3.7c-1.9,0-2.1,0.1-2.1,1.8v9.1c0,3.4,0.2,5.6,1.2,6.7c0.8,0.8,2.1,1.5,7.8,1.5c4.9,0,6.8-0.2,8.3-1
			c1.1-0.6,2.9-2.9,4.6-6.2c0.5-0.3,1.4-0.2,1.6,0.5c-0.5,2.3-2,7.2-2.9,9c-5.8-0.2-11.6-0.2-17.2-0.2h-5.8c-2.8,0-4.9,0.1-8.7,0.2
			c-0.4-0.2-0.5-1.2-0.2-1.6l2.1-0.2c3.6-0.3,4-1.3,4-8.1L392.4,489.3L392.4,489.3z"/>
		<path fill="#FFFFFF" d="M442.5,523.3c-5.4,0-8.8-1.7-10-2.3c-0.8-1.5-1.6-6-1.8-9c0.3-0.5,1.3-0.6,1.5-0.2c1,3.3,3.6,9.6,11.1,9.6
			c5.4,0,8.1-3.6,8.1-7.4c0-2.8-0.6-6-5.3-9l-6.2-4c-3.2-2.1-7-5.8-7-11.1c0-6.2,4.8-11.1,13.1-11.1c2,0,4.3,0.3,6,0.8
			c0.8,0.2,1.8,0.4,2.3,0.4c0.6,1.5,1.1,5.2,1.1,7.9c-0.2,0.4-1.3,0.6-1.6,0.2c-0.8-3.1-2.6-7.3-8.7-7.3c-6.3,0-7.7,4.2-7.7,7.1
			c0,3.7,3.1,6.4,5.5,7.9l5.2,3.2c4,2.5,8.1,6.2,8.1,12.4C456.2,518.4,450.9,523.3,442.5,523.3z"/>
	</g>
</g>
<g>
	<path fill="#FFFFFF" d="M608.6,277.4L608.6,277.4v-0.2c-0.1-1.5-0.2-3.4-0.2-5.4v-0.3l-0.4,0.1c-0.5,0.1-3,0.1-5.5,0.1H595
		c-1.5,0-2.9,0-4.8-0.1h-0.1h-0.1c-0.3,0.2-0.4,0.6-0.4,0.8c0,0.3,0.1,0.6,0.3,0.8l0.8,0.2c2.1,0.2,2.2,0.5,2.2,4.9V293
		c0,4.4-0.1,4.5-2.2,4.9l-1.1,0.2l-0.1,0.1c-0.2,0.2-0.2,0.6-0.2,0.9c0.1,0.3,0.2,0.6,0.4,0.6h0.1h0.1c1.9-0.1,3.3-0.2,5.1-0.2
		c1.6,0,3.1,0.1,5.4,0.2h0.1h0.1c0.2-0.2,0.4-0.5,0.4-0.8s-0.1-0.6-0.3-0.8l-1.5-0.2c-2.1-0.2-2.2-0.5-2.2-4.9v-5.7
		c0-0.8,0-0.8,1.1-0.8h2.8c1.5,0,2.5,0,3.1,0.2c0.6,0.2,0.9,0.6,1.1,1.4l0.4,1.7l0.1,0.1c0.4,0.3,1.3,0.3,1.5-0.1l0.1-0.1v-0.1
		c0-0.4,0-1-0.1-1.6c-0.1-0.7-0.1-1.6-0.1-2.4c0-0.8,0.1-1.7,0.1-2.5c0-0.6,0.1-1.2,0.1-1.7v-0.1l-0.1-0.1c-0.2-0.3-0.6-0.3-0.8-0.3
		c-0.3,0-0.6,0.1-0.8,0.3l-0.4,1.8c-0.2,1-0.5,1.1-0.8,1.2c-0.4,0.2-1.7,0.2-3.4,0.2H598c-1.1,0-1.1,0-1.1-0.8v-8.7
		c0-1.3,0-1.3,0.9-1.3h2.5c1.7,0,3.1,0,3.9,0.2c1.8,0.5,2.3,1.6,2.7,3.6v0.1l0.2,0.1c0.2,0.2,0.4,0.2,0.6,0.2
		C608,277.8,608.4,277.7,608.6,277.4L608.6,277.4z"/>
	<path fill="#FFFFFF" d="M581,285.4c0-7-4.5-14.4-14.6-14.4c-8.5,0-15,6.4-15,14.8c0,7,5.1,14.2,15,14.2
		C574.8,300.1,581,293.8,581,285.4L581,285.4z M576.3,286.7c0,8.5-5,11.5-9.3,11.5c-8.5,0-10.8-8.6-10.8-13.7
		c0-8.6,5.1-11.6,9.5-11.6C573.5,272.9,576.3,280.3,576.3,286.7L576.3,286.7z"/>
	<path fill="#FFFFFF" d="M542.6,356.7c0,17.7,13.2,33.4,35.1,33.4c19,0,34.2-14.5,34.2-34.4c0-17.3-11.4-33.8-34.2-33.8
		C557.4,321.9,542.6,337,542.6,356.7L542.6,356.7z M552.5,353.6c0-21.6,13.3-28.6,23.6-28.6c18.9,0,26.1,17.6,26.1,33.8
		c0,19.4-11.3,28.3-23.1,28.3C559.6,387.1,552.5,368.2,552.5,353.6L552.5,353.6z"/>
	<path fill="#FFFFFF" d="M530.7,273.1c0.2-0.2,0.3-0.5,0.3-0.8c0-0.3-0.2-0.6-0.4-0.7l-0.1-0.1h-0.1c-2.9,0.2-4.6,0.2-7.8,0h-0.1
		h-0.1c-0.2,0.1-0.4,0.3-0.4,0.6c-0.1,0.3,0.1,0.6,0.2,0.9l0.1,0.1l0.8,0.1c0.8,0.1,1.3,0.3,1.5,0.4c-0.2,0.6-1.5,3.2-2.4,4.9
		l-0.2,0.3c-1,1.9-2.1,4-3.6,6.5c-1.1-1.9-2.1-4.1-3.2-6.2c-0.4-0.8-0.8-1.6-1.2-2.4c-0.3-0.6-1.2-2.7-1.2-3c0-0.1,0.2-0.2,1.5-0.4
		l0.6-0.1l0.1-0.1c0.2-0.2,0.3-0.6,0.2-1c-0.1-0.2-0.2-0.5-0.5-0.6h-0.1h-0.1c-1,0.1-2.5,0.1-4.4,0.1c-1.9,0-3.4,0-4.8-0.1h-0.1
		l-0.1,0.1c-0.2,0.1-0.3,0.3-0.4,0.6c-0.1,0.3,0,0.6,0.2,0.9l0.1,0.1l1.3,0.2c1.1,0.2,1.6,0.2,3,3l4.9,9.5c1.1,2.3,1.3,2.7,1.3,4.9
		v2.1c0,4.5-0.1,4.7-2.2,4.9l-1.4,0.2l-0.1,0.1c-0.2,0.2-0.2,0.6-0.2,0.9c0.1,0.3,0.2,0.6,0.4,0.6h0.1h0.1c2.2-0.1,3.6-0.2,5.3-0.2
		c1.7,0,3.2,0.1,5.6,0.2h0.1h0.1c0.2-0.1,0.3-0.3,0.4-0.6c0.1-0.2,0-0.6-0.2-0.9l-0.1-0.1l-1.7-0.2c-1.9-0.2-2.2-0.5-2.2-4.9v-2.1
		c0-3.1,0.1-3.4,1.9-6.5l2.6-4.5c0.2-0.4,0.5-0.8,0.6-1.2c1.6-2.8,2.8-4.9,4.5-5.2L530.7,273.1L530.7,273.1L530.7,273.1z"/>
	<path fill="#FFFFFF" d="M516.3,323.4c-1.7-0.4-6.9-1.5-12.5-1.5c-14.9,0-24.7,4.6-31.2,11.6c-6.2,6.5-8.9,15-8.9,23.4
		c0,8.7,3.2,16.4,9.1,22.4c7.6,7.7,18.4,10.9,30.1,10.9c5.3,0,12.5-1.2,17.6-2.6c1.9-0.5,3.6-0.9,4.9-0.9c0.4-0.3,0.4-0.9,0.1-1.2
		c-1.8-0.7-2.3-3.1-2.3-7V373c0-5,0.1-7.8,4.2-8.3l1.6-0.2c0.7-0.6,0.6-2.1-0.1-2.4c-3.2,0.2-6.6,0.3-10.4,0.3
		c-5.8,0-11.3-0.1-14.1-0.3c-0.7,0.3-0.8,2.1,0,2.4l4.4,0.5c6.2,0.7,6.4,1.3,6.4,9.6v4c0,3.2-0.5,4.9-1,5.6c-1.1,1.7-4.7,3-10.8,3
		c-19.8,0-29.6-14.9-29.6-33.8c0-14.8,8.4-28.4,27.5-28.4c10,0,17.5,3.3,20.2,14c0.6,0.6,2.3,0.5,2.7-0.3c-0.9-5.9-1.5-11-1.5-14.3
		C521.3,324.5,518.2,323.8,516.3,323.4L516.3,323.4z"/>
	<path fill="#FFFFFF" d="M499.5,271L499.5,271v-0.2c-0.2-0.3-0.6-0.3-0.7-0.3c-0.1,0-0.2,0-0.4,0.1l-0.1,0.1l-0.1,0.1
		c-0.6,0.9-0.7,1-2.9,1h-17c-1.9,0-2.7-0.1-2.8-1.1v-0.1l-0.1-0.1c-0.1-0.1-0.3-0.2-0.6-0.2c-0.1,0-0.4,0-0.6,0.2l-0.1,0.1v0.2
		c-0.3,1.6-0.9,4.2-1.5,6.1l-0.1,0.2l0.1,0.1c0.2,0.5,1.1,0.7,1.5,0.4l0.1-0.1v-0.1c0.4-1,0.8-1.9,1.8-2.8c0.9-0.8,3-1,4.9-1h2.3
		c0.9,0,0.9,0,0.9,1v18.4c0,4.5-0.2,4.6-2.3,4.9l-1.5,0.2H480c-0.2,0.2-0.4,0.5-0.4,0.8c0,0.2,0.2,0.6,0.4,0.7h0.1h0.1
		c2.5-0.1,4-0.2,5.7-0.2s2.9,0,5.3,0.2h0.1h0.1c0.3-0.2,0.4-0.6,0.4-0.8c0-0.3-0.1-0.6-0.3-0.8l-1.5-0.2c-2-0.2-2.2-0.5-2.2-4.9
		v-18.3c0-0.4,0-0.8,0.1-0.9s0.5-0.1,0.8-0.1h2.9c2.2,0,3.7,0.3,4.6,1c0.4,0.3,0.7,1.3,0.9,2.8v0.1l0.1,0.1c0.2,0.2,0.4,0.3,0.7,0.3
		c0.4,0,0.7-0.2,0.9-0.4v-0.1v-0.1C498.8,275.9,499.1,272.7,499.5,271L499.5,271z"/>
	<path fill="#FFFFFF" d="M462.1,292.9v-14.7c0-4.5,0.2-4.8,2.2-4.9l1.1-0.1l0.1-0.1c0.2-0.2,0.3-0.4,0.3-0.8c0-0.2-0.1-0.6-0.4-0.8
		h-0.1h-0.1c-1.9,0.1-3.4,0.1-5.1,0.1c-1.8,0-3.2-0.1-5.2-0.1h-0.1h-0.1c-0.3,0.2-0.4,0.6-0.4,0.8c0,0.3,0.1,0.6,0.3,0.8l0.1,0.1
		l1.1,0.1c2.1,0.2,2.2,0.5,2.2,4.9v14.7c0,4.5-0.1,4.6-2.3,4.9l-1.1,0.2l-0.1,0.1c-0.2,0.2-0.2,0.6-0.2,0.9c0.1,0.3,0.2,0.6,0.4,0.6
		h0.1h0.1c2.1-0.1,3.5-0.2,5.2-0.2c1.6,0,3,0.1,5.1,0.2h0.1h0.1c0.3-0.2,0.4-0.6,0.4-0.8c0-0.3-0.1-0.6-0.3-0.8l-1.1-0.2
		C462.2,297.5,462.1,297.2,462.1,292.9L462.1,292.9z"/>
	<path fill="#FFFFFF" d="M455.3,386.1c-4.2-0.5-5.5-1.9-8.4-10.4L433.3,336c-1.5-4.4-3.1-8.9-4.4-13.2c-0.2-0.7-0.9-0.9-1.5-0.9
		c-1.1,1.3-2.8,3.1-5.1,3.7c0.3,1.5-0.3,3.5-1.7,7l-10,26.6c-4.1,11-6.9,17.5-8.7,22c-1.4,3.6-3.6,4.6-5.9,4.9l-3.2,0.3
		c-0.6,0.5-0.4,2.1,0.2,2.4c2.7-0.1,6.2-0.3,9.5-0.3c4.6,0.1,7.7,0.1,10.3,0.3c0.9-0.4,0.9-1.9,0.2-2.4l-3.2-0.3
		c-2.3-0.2-2.8-0.8-2.8-1.9c0-1.1,0.7-3.7,2.2-8.2l3.5-10.4c0.7-2.1,1.3-2.3,3.7-2.3h14.9c3,0,3.3,0.3,4,2.4l4.4,13.4
		c0.8,2.3,1.3,4.1,1.3,5.3c0,1-1.4,1.6-3.5,1.8l-2.8,0.3c-0.7,0.5-0.6,2.1,0.2,2.4c2.8-0.1,6.6-0.3,11.3-0.3c4.5,0,7.9,0.1,11.9,0.3
		c0.5-0.4,0.7-1.9,0-2.4L455.3,386.1L455.3,386.1z M429.9,359.3h-12.1c-2.8,0-2.8-0.1-2.1-2.3l6.2-17.2c1.1-3,2.1-5.3,2.3-5.8h0.2
		c0.6,1.2,1.5,3.9,2.3,6.2l5.3,16.1C432.9,358.9,432.7,359.3,429.9,359.3L429.9,359.3z"/>
	<path fill="#FFFFFF" d="M433.8,277.2c0-1.6,0.6-4.2,4.6-4.2c3.6,0,4.7,2.3,5.3,4.4l0.1,0.1c0.2,0.2,0.3,0.2,0.6,0.2
		c0.3,0,0.7-0.2,0.9-0.4l0.1-0.1v-0.1c0-1.7-0.3-4-0.7-5.1l-0.1-0.2h-0.2c-0.3,0-0.8-0.1-1.4-0.2c-1-0.2-2.5-0.6-3.9-0.6
		c-5.2,0-8.7,3-8.7,7.4c0,3.7,2.8,6.2,4.6,7.4l3.9,2.6c2.8,1.9,3.2,3.7,3.2,5.5c0,2.2-1.5,4.4-4.9,4.4c-4.1,0-6-3.2-6.8-5.9v-0.1
		c-0.2-0.2-0.3-0.3-0.6-0.3c-0.2,0-0.6,0.1-0.9,0.4l-0.1,0.1v0.1c0.1,1.9,0.6,4.9,1.1,5.9l0.1,0.1l0.1,0.1c0.8,0.5,3.1,1.5,6.6,1.5
		c5.4,0,9.1-3.2,9.1-7.9c0-3.3-1.7-6-5.3-8.2l-3.3-2C435.9,281.1,433.8,279.5,433.8,277.2L433.8,277.2z"/>
	<path fill="#FFFFFF" d="M423.5,299.6c0.2-0.2,0.3-0.4,0.2-0.6c0-0.2-0.2-0.4-0.4-0.5h-0.1c-1-0.1-1.9-0.5-2.7-1.1
		c-2.8-2.3-5.1-5.8-8.2-10.8c-0.2-0.3-0.2-0.5-0.2-0.6c1.4-0.6,5.3-2.6,5.3-7.1c0-3.5-1.9-5.2-3.6-6.1c-2-1.1-4.7-1.3-7-1.3
		c-3.7,0-6.7,0.1-9.2,0.3h-0.1c-0.2,0.1-0.4,0.4-0.4,0.7c0,0.3,0.1,0.7,0.3,0.9l0.1,0.1l1.4,0.2c1.4,0.2,1.5,0.5,1.5,4.5v14.7
		c0,4.4-0.1,4.5-2.2,4.9l-1.1,0.2l-0.1,0.1c-0.2,0.2-0.2,0.6-0.2,1c0.1,0.2,0.2,0.5,0.4,0.6h0.1h0.1c1.9-0.1,3.3-0.2,5.1-0.2
		c1.7,0,3.2,0.1,4.9,0.2h0.1h0.1c0.3-0.2,0.4-0.6,0.4-0.7c0.1-0.3-0.1-0.6-0.2-0.8l-0.1-0.1l-1-0.2c-2.1-0.3-2.2-0.5-2.2-4.9v-5.2
		c0-0.6,0-0.6,1.6-0.6c1.5,0,2.1,0.4,2.7,1.2c0.6,0.9,1.4,2,2,3.2c0.7,1.1,1.5,2.3,1.9,3.1c2.8,4,4.9,5.3,8.7,5.3
		C422.3,299.9,423,299.8,423.5,299.6L423.5,299.6L423.5,299.6z M411.2,284.3c-1.1,0.9-2.8,1-4,1c-1.9,0-2.4-0.1-2.6-0.2
		c-0.1-0.2-0.1-0.6-0.1-1.1v-9.6c0-0.9,0-1,2.3-1c4.6,0,6.2,3.2,6.2,6C413,281.7,412.5,283.2,411.2,284.3L411.2,284.3z"/>
	<path fill="#FFFFFF" d="M389.9,293.6L389.9,293.6l-0.1-0.2c-0.2-0.4-0.6-0.6-1-0.6c-0.2,0-0.4,0.1-0.6,0.2l-0.1,0.1
		c-1.2,2.3-2.3,3.6-2.8,3.8c-0.9,0.4-2.1,0.6-5.1,0.6c-3.4,0-4.3-0.4-4.8-0.8c-0.6-0.6-0.7-1.9-0.7-4v-5.8c0-0.8,0-0.8,1.1-0.8h2.3
		c1.5,0,2.5,0,3.1,0.2c0.6,0.2,0.9,0.5,1.1,1.3l0.4,1.6l0.1,0.2c0.2,0.2,0.4,0.3,0.8,0.3c0.4,0,0.6-0.2,0.8-0.4l0.1-0.1V289
		c0-0.4,0-1-0.1-1.5c-0.1-0.7-0.1-1.6-0.1-2.4c0-0.9,0.1-1.7,0.1-2.5c0-0.6,0.1-1.2,0.1-1.6l0,0l-0.1-0.1c-0.2-0.2-0.4-0.4-0.8-0.4
		c-0.3,0-0.6,0.1-0.8,0.3l-0.4,1.9c-0.2,1-0.4,1.1-0.8,1.2c-0.4,0.2-1.7,0.2-3.4,0.2h-2.3c-1.1,0-1.1,0-1.1-0.8v-8.3
		c0-1.3,0-1.3,0.9-1.3h3c1.8,0,3.1,0,3.9,0.2c1.9,0.5,2.3,1.6,2.8,3.5l0.1,0.2l0.1,0.1c0.2,0.2,0.4,0.2,0.6,0.2
		c0.2,0,0.6-0.1,0.9-0.4l0.1-0.1l-0.1-0.6c-0.2-2.4-0.4-4.5-0.6-5l-0.1-0.2l-0.2,0.1c-0.5,0.1-3,0.1-5.5,0.1h-7.7
		c-1.6,0-2.9,0-4.9-0.1H368h-0.1c-0.3,0.2-0.4,0.6-0.4,0.8c0,0.3,0.1,0.6,0.3,0.8l0.8,0.2c2.1,0.2,2.3,0.5,2.3,4.9v14.8
		c0,4.5-0.2,4.6-2.3,4.9l-1.5,0.2l-0.1,0.1c-0.2,0.2-0.2,0.6-0.2,0.9c0.1,0.3,0.2,0.6,0.4,0.6h0.1h0.1c2.3-0.1,3.8-0.2,5.6-0.2h3.7
		c3.6,0,7.2,0,11,0.2h0.2l0.1-0.2C388.6,298.2,389.6,295.1,389.9,293.6L389.9,293.6z"/>
	<path fill="#FFFFFF" d="M361.7,273.1c0.2-0.2,0.2-0.6,0.2-0.9c0-0.3-0.2-0.6-0.4-0.6l-0.1-0.1h-0.1c-1.4,0.1-2.7,0.1-4,0.1
		c-1.6,0-3.2-0.1-4.3-0.1H353l-0.1,0.1c-0.2,0.2-0.4,0.4-0.4,0.7c0,0.3,0.1,0.6,0.2,0.8l0.1,0.1l0.8,0.1c1.5,0.2,1.5,0.5,1.5,0.5
		c0,0.2,0,0.6-0.3,1.5c-0.7,1.8-2.7,6.5-3.8,9.2c-0.3,0.7-0.7,1.6-1.1,2.6c-0.8,1.9-1.7,4.1-2.5,5.8c-1.9-4.5-3.7-9-5.6-13.5
		c-1.2-2.9-1.9-5.1-2-5.7c0.1-0.2,0.4-0.3,1.6-0.5l0.7-0.1l0.1-0.1c0.2-0.2,0.3-0.5,0.3-0.8s-0.2-0.6-0.4-0.7l-0.1-0.1H342
		c-1.9,0.1-3.2,0.1-4.9,0.1s-3,0-4.3-0.1h-0.1l-0.1,0.1c-0.2,0.2-0.4,0.4-0.4,0.7s0.1,0.6,0.3,0.8l0.1,0.1l0.8,0.1
		c1.6,0.2,2.1,0.9,3.1,3.2l7.2,17.8c0.9,2.1,1.5,4,1.9,5.4v0.2l0.2,0.1c0.2,0.1,0.5,0.2,0.7,0.2c0.2,0,0.5-0.1,0.6-0.2l0.1-0.1v-0.1
		c0.7-2.2,2.7-7,4.3-10.7l2.2-5c1.9-4.3,3.5-7.6,4.6-9.4c0.5-0.8,1.1-1.2,1.9-1.3l1.4-0.1L361.7,273.1L361.7,273.1z"/>
	<path fill="#FFFFFF" d="M334.8,330.3c-7.5,5.8-12.5,15.2-12.5,26.1c0,12.7,6.2,21.7,14,27.1c7.2,4.9,15.7,6.6,24.5,6.6
		c6.3,0,13.4-1.5,15.5-2.3c1.1-0.4,2.3-0.8,3.5-1c1.5-1.9,4-8.4,4.7-13.5c-0.4-0.7-1.9-0.9-2.6-0.4c-2.3,5.8-7.9,14.1-20.6,14.1
		c-16.2,0-29.3-11.4-29.3-32.1c0-20.4,12.8-30,27.9-30c14.3,0,18.8,7.7,20.2,14.4c0.7,0.6,2.2,0.5,2.7-0.2c-0.8-6-1.3-12.2-1.4-14.5
		c-0.9,0.1-1.5-0.1-2.8-0.4c-4.6-1.3-12.1-2.3-17.5-2.3C351.3,321.9,342,324.7,334.8,330.3L334.8,330.3z"/>
	<path fill="#FFFFFF" d="M322.3,292.9v-14.7c0-4.5,0.2-4.8,2.2-4.9l1.1-0.1l0.1-0.1c0.2-0.2,0.3-0.4,0.3-0.8c0-0.2-0.1-0.6-0.4-0.8
		h-0.1h-0.1c-1.9,0.1-3.4,0.1-5.1,0.1c-1.8,0-3.2-0.1-5.2-0.1h-0.1H315c-0.3,0.2-0.4,0.6-0.4,0.8c0,0.3,0.1,0.6,0.3,0.8l0.1,0.1
		l1.1,0.1c2.1,0.2,2.2,0.5,2.2,4.9v14.7c0,4.5-0.1,4.6-2.3,4.9l-1.1,0.1l-0.1,0.1c-0.2,0.2-0.2,0.6-0.2,0.9c0.1,0.3,0.2,0.6,0.4,0.6
		h0.1h0.1c2.1-0.1,3.5-0.2,5.2-0.2c1.6,0,3.1,0.1,5.1,0.2h0.1h0.1c0.3-0.2,0.4-0.6,0.4-0.8c0-0.3-0.1-0.6-0.3-0.8l-1.1-0.2
		C322.4,297.5,322.3,297.2,322.3,292.9L322.3,292.9z"/>
	<path fill="#FFFFFF" d="M301.6,373.6v-35.1c0-10.4,0.2-12.1,6-12.6l2.4-0.2c0.6-0.4,0.4-2.2-0.2-2.4c-4.9,0.2-8.3,0.3-12.2,0.3
		c-4.1,0-7.5-0.1-12.5-0.3c-0.6,0.3-0.8,2.1-0.2,2.4l2.4,0.2c5.8,0.5,6,2.2,6,12.6v35.1c0,10.4-0.2,11.8-6,12.5l-2.4,0.3
		c-0.6,0.6-0.4,2.2,0.2,2.4c4.9-0.2,8.3-0.3,12.5-0.3c4,0,7.3,0.1,12.2,0.3c0.6-0.3,0.8-2.1,0.2-2.4l-2.4-0.3
		C301.8,385.5,301.6,384.1,301.6,373.6L301.6,373.6z"/>
	<path fill="#FFFFFF" d="M306.7,273.1c0.2-0.2,0.3-0.5,0.2-0.8c0-0.3-0.2-0.6-0.4-0.6l-0.1-0.1h-0.1c-1.4,0.1-2.4,0.1-4.2,0.1
		c-1.5,0-2.8,0-4.9-0.1h-0.1h-0.1c-0.2,0.1-0.4,0.3-0.5,0.6c-0.1,0.4,0.1,0.7,0.2,1l0.1,0.1l0.8,0.1c1.4,0.2,2.1,0.4,2.3,0.6
		c0.5,0.8,0.8,3.8,0.8,8.3v8.8c0,0.4,0,0.9,0,1.1c-1.5-1.5-2.9-3.2-4.8-5.2l-5.7-6.4c-4-4.5-6.4-7.5-6.9-8.9l-0.1-0.2h-0.2
		c-0.5,0.1-1.1,0.1-1.9,0.1c-0.7,0-2.9,0-4.6-0.1h-0.1h-0.1c-0.2,0.1-0.4,0.3-0.4,0.6c-0.1,0.3,0.1,0.7,0.2,0.9l0.1,0.1l0.8,0.1
		c1.1,0.2,1.9,0.5,2.3,0.9c0.7,0.8,0.8,1.6,0.8,2.8v12.2c0,2,0,6.6-0.5,7.9c-0.1,0.2-0.4,0.5-1.5,0.6l-1.2,0.2l-0.1,0.1
		c-0.2,0.2-0.2,0.5-0.2,0.8c0,0.3,0.2,0.6,0.4,0.7l0.1,0.1h0.1c1.5-0.1,2.5-0.2,4.3-0.2c1.4,0,2.8,0,4.8,0.2h0.1l0.1-0.1
		c0.2-0.2,0.3-0.3,0.3-0.6c0.1-0.3,0-0.6-0.2-0.9l-0.1-0.1l-1.5-0.2c-1-0.1-1.7-0.3-1.9-0.6c-0.4-0.8-0.7-3.8-0.7-8.3v-8.9
		c0-0.7,0-1.5,0.1-2.1c0.6,0.7,1.8,2,2.8,3.2c0.6,0.8,1.3,1.5,1.7,2l9.6,10.8c3.2,3.6,4.7,5.4,5.3,6.2l0.1,0.2h0.2
		c0.6,0,1-0.2,1.1-0.6v-0.1v-0.1c-0.1-0.5-0.2-2.1-0.2-7.1v-10.4c0-2.1,0-6.5,0.6-7.8c0.1-0.1,0.6-0.5,2.1-0.7L306.7,273.1
		L306.7,273.1L306.7,273.1z"/>
	<path fill="#FFFFFF" d="M269.9,273c0.2-0.2,0.2-0.6,0.2-0.9c-0.1-0.2-0.2-0.5-0.4-0.6l-0.1-0.1h-0.1c-1.5,0.1-2.5,0.1-4.3,0.1
		c-1.5,0-3.1,0-4.7-0.1h-0.1l-0.1,0.1c-0.2,0.2-0.3,0.3-0.3,0.6c-0.1,0.3,0,0.6,0.2,0.8l0.1,0.1l1.1,0.1c1,0.1,1.6,0.3,1.8,0.7
		c0.5,0.8,0.7,3.8,0.7,8.3v4.7c0,4.9-1.4,10.6-7.9,10.6c-5.5,0-8-3.4-8-10.7V278c0-4.4,0.2-4.7,2.2-4.9l1.1-0.1l0.1-0.1
		c0.2-0.2,0.3-0.4,0.3-0.7s-0.2-0.6-0.4-0.8h-0.1h-0.1c-1.9,0.1-3.3,0.1-5,0.1c-1.7,0-3.2-0.1-5.1-0.1H241h-0.1
		c-0.2,0.2-0.4,0.5-0.4,0.7c0,0.3,0.1,0.6,0.3,0.7l0.1,0.1l1.1,0.1c2,0.2,2.2,0.5,2.2,4.9v9.7c0,4.9,1.1,8,3.3,10
		c1.8,1.5,4.5,2.3,7.9,2.3c3.2,0,6.3-1.2,8.1-3.1c2-2.1,3-5.4,3-10v-4.6c0-2.1,0-7,0.6-8.3c0.2-0.4,0.9-0.7,1.8-0.8L269.9,273
		L269.9,273L269.9,273z"/>
	<path fill="#FFFFFF" d="M222.6,325.7c0.6-0.4,0.4-2.2-0.2-2.4c-4.2,0.2-7.6,0.3-11.4,0.3c-4.2,0-7.6-0.2-12.5-0.3
		c-0.6,0.3-0.8,2.1-0.2,2.4l2.6,0.2c5.1,0.4,5.8,2.1,5.8,12.5v35.5c0,10.4-0.2,11.3-5.7,12.3l-1.7,0.3c-0.6,0.6-0.4,2.2,0.2,2.4
		c3.9-0.1,7.2-0.3,11.4-0.3c3.9,0,7.2,0.1,12.5,0.3c0.6-0.3,0.8-2.1,0.2-2.4l-2.8-0.3c-5.5-0.6-6-1.9-6-12.3v-13.9
		c0-3,0.2-3.2,4.9-3.2H248c4.7,0,4.9,0.2,4.9,3.2v13.9c0,10.4,0,11.3-6,12.3l-1.9,0.3c-0.6,0.6-0.4,2.2,0.2,2.4
		c4.4-0.2,7.9-0.3,11.9-0.3c3.9,0,7.2,0.1,11.9,0.3c0.6-0.3,0.8-2.1,0.2-2.4l-2.3-0.3c-5.7-0.7-5.9-1.9-5.9-12.3v-35.5
		c0-10.4,0.2-11.8,5.9-12.5l2.1-0.2c0.6-0.4,0.4-2.2-0.2-2.4c-4.5,0.2-7.8,0.3-11.7,0.3c-4,0-7.4-0.1-11.9-0.3
		c-0.6,0.3-0.8,2.1-0.2,2.4l1.9,0.2c5.8,0.6,6,2.1,6,12.5v11.3c0,3.1-0.2,3.2-4.9,3.2h-28.2c-4.7,0-4.9-0.1-4.9-3.2v-11.3
		c0-10.4,0.2-11.8,5.9-12.5L222.6,325.7L222.6,325.7z"/>
	<path fill="#FFFFFF" d="M218.7,293.6L218.7,293.6l-0.1-0.2c-0.2-0.4-0.6-0.6-1-0.6c-0.2,0-0.4,0.1-0.6,0.2l-0.1,0.1
		c-1.2,2.3-2.3,3.6-2.8,3.8c-0.9,0.4-2.1,0.6-5.1,0.6c-3.4,0-4.3-0.4-4.8-0.8c-0.6-0.6-0.7-1.9-0.7-4v-5.8c0-0.8,0-0.8,1.1-0.8h2.3
		c1.5,0,2.5,0,3.1,0.2c0.6,0.2,0.9,0.5,1.1,1.3l0.4,1.6l0.1,0.2c0.2,0.2,0.4,0.3,0.8,0.3c0.4,0,0.6-0.2,0.8-0.4l0.1-0.1V289
		c0-0.4,0-1-0.1-1.5c-0.1-0.7-0.1-1.6-0.1-2.4c0-0.9,0.1-1.7,0.1-2.5c0-0.6,0.1-1.2,0.1-1.6l0,0l-0.1-0.1c-0.2-0.2-0.4-0.4-0.8-0.4
		c-0.3,0-0.6,0.1-0.7,0.3l-0.4,1.8c-0.2,1-0.4,1.1-0.8,1.2c-0.4,0.2-1.7,0.2-3.4,0.2h-2.3c-1.1,0-1.1,0-1.1-0.8v-8.3
		c0-1.3,0-1.3,0.9-1.3h3c1.8,0,3.1,0,3.9,0.2c1.9,0.5,2.3,1.6,2.8,3.5l0.1,0.2l0.1,0.1c0.2,0.2,0.4,0.2,0.6,0.2
		c0.3,0,0.6-0.1,0.9-0.4l0.1-0.1l-0.1-0.6c-0.2-2.4-0.4-4.5-0.6-5l-0.1-0.2l-0.2,0.1c-0.5,0.1-3,0.1-5.5,0.1h-7.7
		c-1.6,0-2.9,0-4.9-0.1h-0.1h-0.1c-0.3,0.2-0.4,0.6-0.4,0.8c0,0.3,0.1,0.6,0.3,0.8l0.8,0.2c2.1,0.2,2.3,0.5,2.3,4.9V293
		c0,4.5-0.2,4.6-2.3,4.9l-1.5,0.2l-0.1,0.1c-0.2,0.2-0.2,0.6-0.2,0.9c0.1,0.3,0.2,0.6,0.4,0.6h0.1h0.1c2.3-0.1,3.8-0.2,5.6-0.2h3.7
		c3.6,0,7.2,0,11,0.2h0.2l0.1-0.2C217.3,298.2,218.3,295.1,218.7,293.6L218.7,293.6z"/>
	<path fill="#FFFFFF" d="M184.2,292.9v-14.8c0-4.4,0.2-4.6,2.2-4.9l0.9-0.1l0.2-0.1c0.2-0.2,0.3-0.4,0.3-0.8c0-0.2-0.1-0.6-0.4-0.8
		h-0.1h-0.1c-2,0.1-3.3,0.1-4.9,0.1c-1.8,0-3.2-0.1-4.9-0.1h-0.1h-0.1c-0.3,0.2-0.4,0.6-0.4,0.8c0,0.3,0.1,0.6,0.3,0.8l0.9,0.2
		c2.1,0.2,2.2,0.5,2.2,4.9v4.7c0,1,0,1-1.7,1h-11.8c-1.7,0-1.7,0-1.7-1v-4.7c0-4.4,0.2-4.6,2.2-4.9l0.8-0.1l0.2-0.1
		c0.2-0.2,0.3-0.4,0.3-0.8c0-0.2-0.1-0.6-0.4-0.8h-0.1H168c-1.9,0.1-3.2,0.1-4.8,0.1c-1.1,0-2,0-3-0.1c-0.6,0-1.4-0.1-2.1-0.1H158
		h-0.1c-0.3,0.2-0.4,0.6-0.4,0.8c0,0.3,0.1,0.6,0.3,0.8l0.1,0.1l1.1,0.1c1.8,0.2,2.1,0.5,2.1,4.9v14.8c0,4.3-0.1,4.5-2.1,4.9
		l-0.8,0.2l-0.1,0.1c-0.2,0.2-0.2,0.6-0.2,0.9c0.1,0.3,0.2,0.6,0.4,0.6h0.1h0.1c0.6,0,1.1,0,1.6-0.1c1,0,1.9-0.1,3.1-0.1
		c1.5,0,2.8,0,5.2,0.2h0.1h0.1c0.2-0.2,0.4-0.5,0.4-0.8s-0.1-0.6-0.3-0.8l-1.3-0.2c-1.9-0.2-2.2-0.4-2.2-4.9V287c0-1,0-1,1.7-1h11.7
		c1.7,0,1.7,0,1.7,1v5.8c0,4.4-0.1,4.5-2.3,4.9l-0.9,0.2L177,298c-0.2,0.2-0.2,0.6-0.2,0.9c0.1,0.3,0.2,0.6,0.4,0.6h0.1h0.1
		c1.9-0.1,3.4-0.2,4.9-0.2c1.6,0,3.1,0.1,4.9,0.2h0.1h0.1c0.3-0.2,0.4-0.6,0.4-0.8c0-0.3-0.1-0.6-0.3-0.8l-1.1-0.2
		C184.4,297.5,184.2,297.3,184.2,292.9L184.2,292.9z"/>
	<path fill="#FFFFFF" d="M150.5,271L150.5,271l-0.1-0.2c-0.2-0.3-0.6-0.3-0.7-0.3c-0.1,0-0.2,0-0.4,0.1h-0.1l-0.1,0.1
		c-0.6,0.9-0.7,1-2.9,1h-17c-1.9,0-2.7-0.1-2.8-1.1v-0.1l-0.1-0.1c-0.1-0.1-0.3-0.2-0.6-0.2c-0.1,0-0.4,0-0.6,0.2l-0.1,0.1v0.2
		c-0.3,1.6-0.9,4.2-1.5,6.1l-0.1,0.2l0.1,0.1c0.2,0.5,1.1,0.7,1.5,0.4l0.1-0.1v-0.1c0.4-1,0.8-1.9,1.8-2.8c0.9-0.8,3-1,4.9-1h2.3
		c0.9,0,0.9,0,0.9,1v18.4c0,4.5-0.2,4.6-2.3,4.9l-1.5,0.2L131,298c-0.2,0.2-0.4,0.5-0.4,0.8c0,0.2,0.2,0.6,0.4,0.7h0.1h0.1
		c2.5-0.1,4-0.2,5.7-0.2s2.9,0,5.3,0.2h0.1h0.1c0.2-0.2,0.4-0.5,0.4-0.8c0-0.3-0.1-0.6-0.3-0.8l-1.5-0.2c-2-0.2-2.2-0.5-2.2-4.9
		v-18.4c0-0.4,0-0.8,0.1-0.9s0.5-0.1,0.8-0.1h2.9c2.2,0,3.7,0.3,4.6,1c0.4,0.3,0.7,1.3,0.9,2.8v0.1l0.1,0.1c0.2,0.2,0.4,0.3,0.7,0.3
		c0.4,0,0.7-0.2,0.8-0.4v-0.1v-0.1C149.8,275.9,150.1,272.6,150.5,271L150.5,271z"/>
	<path fill="#FFFFFF" d="M122.5,356.4c0,12.7,6.2,21.7,14,27.1c7.2,4.9,15.7,6.6,24.5,6.6c6.3,0,13.4-1.5,15.5-2.3
		c1.1-0.4,2.3-0.8,3.5-1c1.5-1.9,4-8.4,4.7-13.5c-0.4-0.7-1.9-0.9-2.6-0.4c-2.3,5.8-7.9,14.1-20.6,14.1c-16.2,0-29.3-11.4-29.3-32.1
		c0-20.4,12.8-30,27.9-30c14.3,0,18.8,7.7,20.2,14.4c0.7,0.6,2.2,0.5,2.7-0.2c-0.8-6-1.3-12.2-1.4-14.5c-0.9,0.1-1.5-0.1-2.8-0.4
		c-4.6-1.3-12.1-2.3-17.5-2.3c-10.3,0-19.4,2.8-26.6,8.4C127.4,336.1,122.5,345.5,122.5,356.4L122.5,356.4z"/>
</g>
</svg>
