<?xml version="1.0" encoding="utf-8"?>
<!-- Generator: Adobe Illustrator 18.1.0, SVG Export Plug-In . SVG Version: 6.00 Build 0)  -->
<svg version="1.1" id="Layer_1" xmlns="http://www.w3.org/2000/svg" xmlns:xlink="http://www.w3.org/1999/xlink" x="0px" y="0px"
	 viewBox="0 0 1082.9 101" enable-background="new 0 0 1082.9 101" xml:space="preserve">
<g>
	<g>
		<g>
			<path fill="#FFFFFF" d="M79.5,1.9C34.2-2.4,0,1.9,0,1.9s0,56.4,0,56.4C3.6,96.6,39.4,101,39.7,101c6.4-1.2,36.4-7.2,39.7-42.7
				L79.5,1.9z M39.8,99C39.4,99,5.4,94.7,2,58C2,58,2,3.9,2,3.9s32.5-4.2,75.5,0l0,54.1C74.3,92.1,45.8,97.9,39.8,99z"/>
		</g>
	</g>
	<path fill="#FFFFFF" d="M8.3,16.2c3.4,0,3.4-5.2,0-5.2C4.9,11.1,4.8,16.2,8.3,16.2z M20.1,22.5c-1.4,0.8-1.1,1.7-0.7,2.3
		c0.2-0.2,1.1-0.8,1.5-1.1C20.7,23.6,20.2,22.9,20.1,22.5z M71.3,14.5c0.9-0.4,2.3-0.1,2.3,0.3c0,0.3,0.1,0.5,0.1,0.6
		c0-0.1,0-0.3-0.1-0.6c0,0-0.1-2.7-3.1-2.7c-1,0-2.1,1.2-5.1-0.1v4.6C66.7,17,70,15.1,71.3,14.5z M29.9,9.9
		c-0.2-0.1-0.6-0.4-0.7-0.7c-0.6,0.5-0.8,0.9-0.4,1.9C28.9,10.9,29.5,10.3,29.9,9.9z M11.8,15.4h3v-3h-3V15.4z M8.3,21.4
		c-3.5,0-3.5,5.2,0,5.2C11.7,26.6,11.7,21.4,8.3,21.4z M11.8,25.7h3v-3h-3V25.7z M46.4,24.6c-0.5,0.9-0.1,1,0.2,1.2
		c0.3-0.2,0.6-0.3,0.8-0.5c0-0.2,0-0.4,0-0.8C46.9,24.7,46.8,24.8,46.4,24.6z M59.3,11.8c0-0.3-0.9-0.8-1.1-0.8
		c-0.2,0-0.4,0.3-0.6,0.6c-0.1,0.2-0.1,0.2,0,0.3c0.3,0.3,1.3,0.7,1.8,0.9C59.3,12.4,59.3,12,59.3,11.8z M59.3,13
		c-0.4-0.1-1-0.4-1.4-0.6c0.1,0,0.1,0.1,0.2,0.1c-0.5,0.9,0.2,1.7,0.4,1.9c0.3-0.2,0.5-0.2,0.8-0.2c0-0.1,0-0.2,0-0.4
		C59.3,13.7,59.3,13.4,59.3,13z M59.1,17.5c-0.8,0.5-0.8,1.3-0.5,2c0.2,0.5,1.1,1.2,1.4,1.4c0.4-0.5,0.6-1.3,0.5-2
		C60.4,18.3,59.7,17.7,59.1,17.5z M46.7,22.7c-0.2,0-0.3,0.1-0.5,0.4c-0.1,0.2-0.1,0.9,0,0.9c0.5,0.4,0.8,0.4,1.3,0.3
		c0-0.4,0-0.8,0-0.9C47.5,23.2,46.9,22.8,46.7,22.7z M51.8,5.7C47,3.9,40.3,7.1,40.3,7.1c0,0.8,0,23.8,0,23.8s2.4-2,7.5-2
		c2.5,0,12.1,2.6,16.8,2.3V6.9C64.6,6.9,57.7,7.9,51.8,5.7z M53,10.1c0.8-0.3,1.6-1.4,1.7-1.7c0.1-0.3,0.4-0.2,0.2,0.1
		c-0.3,0.6-0.2,1-0.1,1.3c0,0.1,1.6,0.1,1.8,0.1c0.1,0,0.1,0.4,0,0.4c-0.2,0-2,0.2-2,0.2c-0.1,0,0.1,2.3,0.2,2.5
		c0.1,0.2,0.2,0.5,0.4,0.3c0.2-0.2,0.4,0.1,0.2,0.3c-0.1,0.1-0.5,0.9-0.7,1c-0.3,0.2-0.7-0.4-0.8-0.8c-0.2-0.6-0.4-2.1-0.4-3.2
		C53.5,10.7,52.6,10.3,53,10.1z M55.5,19.7c0.4,0.2,1.1,0.1,1.3,0.1c0.2,0,0.1-0.1,0.3-0.2c0.1-0.1,0.3,0,0.2,0.1
		c-0.1,0.1-1.2,1.1-1.5,1.3c-0.3,0.1-0.9,0-1.2-0.4c-0.6-0.8-1.1-1.1-0.9-2.5c0.1-1,1.7-1.8,2.1-2c0.1,0.1,0.9,0.9,1.2,1.2
		c-0.1,0.2-0.5,0.3-0.9,0.3c-0.4,0-0.7-0.3-0.9-0.6c-0.2,0.2-0.6,0.4-0.7,1C54.3,18.8,55,19.5,55.5,19.7z M51.1,17.4
		c0.3,0.6,1.3,1.2,1.9,1.3c-0.2,0.2-0.9,1-1.2,1.2c-0.4-0.2-0.9-0.7-1.2-1.1C50,19.5,49.9,20,49,20.3c0.5-0.5,1-1.5,1-2.4
		c0-0.9-0.5-1.3-0.9-1.4c-0.4,0.2-0.7,0.4-0.9,0.5C48,17,48,16.7,48.1,16.6c0.5-0.2,1.5-1,1.6-1.1c0.4,0.1,0.9,0.4,1,0.8
		c0.3-0.2,0.9-0.8,1.1-1c0.2,0.3,0.8,0.8,1.4,1c-0.6,1-1.9,0.4-2.1,0.2C50.9,16.8,50.9,17,51.1,17.4z M50.8,7.2l0.6,0.6v0.6
		l-0.4,0.4h-0.3l-0.3-0.3l0-0.7L50.8,7.2z M50.4,9.3l0.8,0.8l0,2.4c0.4,0.4,0.6,0.5,1.1,0.6l-0.7,1h-0.7c-0.3-0.3-0.6-0.6-0.6-0.9
		l0-2.3l-0.9-0.5c-0.2,0.2-0.5,0.2-0.4,0l1.2-1.1L50.4,9.3z M43.2,8.3c0.4,0,2.6,0.2,3.3,0.3c0.2,0,0.2,0.3-0.1,0.3
		c-0.2,0-0.5,0.2-0.5,0.4c0,0.2,0.8,2,1,2.4c0.2-0.5,1-2.4,0.8-2.8c-0.2-0.4-0.2-0.5-0.5-0.5c-0.3,0-0.3-0.2,0.1-0.3
		C47.6,8,48.7,7.9,49,7.9c0.3,0,0.4,0.2-0.1,0.3c-0.4,0.1-0.7,0.5-0.8,1c-0.1,0.4-1.5,4.5-1.7,4.8c-0.3-1.3-1.8-4.3-2.2-5
		c-0.4-0.6-0.8-0.5-1.1-0.5C42.8,8.6,42.9,8.2,43.2,8.3z M44.5,26c-0.4,0.3-0.8,0.9-1,1.1c-0.4-0.3-0.9-0.6-0.8-1
		c0.1-0.6-0.1-4.8-0.1-5.2c0.2,0,0.9,0,1.2,0c0,0.5,0,4.1,0,4.5c0,0.4,0.4,0.5,0.7,0.3C44.6,25.7,44.7,25.8,44.5,26z M43.8,20.2
		c-0.8-0.4-1.5-0.6-1.5-2.3c0-1,1-1.9,1.6-2.2c0.7-0.4,2.3-0.6,2.8-0.5c0.3,0.1,0.6,0,0.6-0.1c0-0.2,0.3-0.1,0.3,0c0,0.1,0,1.9,0,2
		c0,0.2-0.3,0.2-0.3,0c0-0.2,0-0.3-0.2-0.7c-0.6-1-2.4-1-3.2,0.1c-0.3,0.4-0.4,1.1-0.1,1.2c0.3,0.1,1.6,0,2-0.1
		c0.4-0.1,1.4-0.2,1.5-0.3c0.1-0.1,0.3-0.2,0.3,0c0,0.2,0,0.9,0,1.1c0,0.2-0.2,0.1-0.3,0c-0.1-0.1-1.1-0.2-1.5-0.2
		c-0.7-0.1-1.7-0.3-2-0.2c-0.3,0.1-0.1,0.6,0.2,1c0.9,1.2,2.5,1.2,3.1,0.2c0.2-0.3,0.2-0.4,0.2-0.7c0-0.2,0.3-0.2,0.3,0
		c0,0.2,0,1.6,0,1.7c0,0.1-0.3,0.2-0.3,0c0-0.3-0.2-0.3-0.5-0.2C45.7,20.5,44.5,20.6,43.8,20.2z M49.3,25.3c-0.2,0.2-0.9,1-1.1,1.3
		c-0.3-0.2-0.6-0.3-0.7-0.7c-0.8,0.3-1.2,0.8-1.7,1.2c-0.3-0.3-0.5-0.8-0.6-1.3c0-0.5,0.5-1.2,0.8-1.4c0,0-0.1,0-0.1-0.1
		c-0.1-0.1-0.3-0.8-0.1-1c0.2-0.3,0.9-1.3,1.5-1.3c0.4,0,0.7,0.5,1.1,0.8c-0.1,0.1,0,1.9-0.1,2.1c0.4,0.4,0.5,0.5,0.8,0.3
		C49.3,25,49.4,25.2,49.3,25.3z M52.3,25.7c-0.1,0.1-0.5,0.7-0.8,0.9c-0.3,0.1-0.8-0.1-1-0.4C50,25.7,50.2,24,50.3,23
		c0.1,0-0.8-0.3-0.5-0.5c0.7-0.3,1.3-1,1.4-1.3c0.1-0.3,0.4-0.1,0.2,0.1c-0.1,0.3-0.2,0.9-0.1,1.2c0,0.1,0.5,0.1,0.8,0.1
		c0.1,0,0.1,0.4,0,0.4c-0.2,0-0.8,0-0.8,0c-0.1,0,0,2.3,0,2.4c0.1,0.2,0.6,0.3,0.8,0.1C52.3,25.4,52.5,25.6,52.3,25.7z M56.7,27.1
		c-0.3-0.1-0.8-0.5-0.8-0.9c-0.4,0.2-1.4,0.7-1.8,0.8c-0.4-0.4-0.7-0.5-0.7-1c0-0.5,0.1-1.8,0-2.1c-0.2-0.3-0.4-0.4-0.7-0.4
		c0.4-0.4,0.8-0.7,1-0.9c0.4,0.3,0.5,0.5,0.8,0.8c0,0.6-0.1,1.7-0.1,2.1c0,0.4,1.6,0.7,1.7,0.1c0.1-0.6,0-1.3,0-1.7
		c0-0.3-0.6-0.4-1-0.3c0.4-0.4,0.8-0.8,1.1-1c0.4,0.3,0.7,0.7,1,1c0,0.6-0.1,2,0,2.3c0.1,0.4,0.1,0.4,0.4,0.6
		C57.1,26.8,56.9,26.9,56.7,27.1z M62.1,18.5c0.2,0,0.6,0.1,0.7,0.1c0.2,0.1,0.2,0.4,0,0.4c-0.3,0-0.6-0.1-0.8-0.1
		C61.8,18.8,61.9,18.5,62.1,18.5z M62.1,19.2c0.2,0,0.6,0.1,0.7,0.1c0.2,0.1,0.2,0.4,0,0.4c-0.3,0-0.6-0.1-0.8-0.1
		C61.8,19.6,61.9,19.2,62.1,19.2z M62.1,24.3c0.2-0.2,0.5,0,0.2,0.2c-0.2,0.2-0.7,0.7-0.9,0.8c-0.3-0.2-0.8-0.7-0.9-0.8
		c-0.1,0.1-0.2,0.1-0.4,0.2c0,0.3,0,2.8,0,3.1c-0.4,0-0.7,0.1-1,0c0-0.4,0-2.6,0-2.9c0-0.4-0.7-0.6-1.2-0.6c0.3-0.2,1.1-0.9,1.3-1.1
		c0.4,0.3,0.7,0.7,0.9,0.9c0.3-0.2,0.7-0.5,1-0.7C61.5,23.7,61.9,24.1,62.1,24.3z M60.8,20.6c-0.4,0.3-0.8,0.7-1.2,1.1
		c-1.3,0-1.9-1.5-1.9-2.3c0-1.3,0.9-2.3,2.2-2.8c1.1,0.4,1.5,1.4,1.5,2.2C61.4,19.3,61,20.1,60.8,20.6z M59.9,15.3
		c-0.3-0.2-0.5-0.4-0.5-0.8c-0.7,0.1-1.2,0.6-1.6,0.9c-0.3-0.3-0.8-1-0.8-1.5c0-0.5,0.4-1.3,0.7-1.5c0,0,0.1,0,0.1,0
		c-0.2-0.1-0.3-0.2-0.4-0.3c-0.1-0.1-0.1-0.3,0-0.5c0.2-0.3,0.8-1,1.4-1.1c0.3,0,0.8,0,1.6,0.7c-0.1,0.1-0.1,2.2-0.1,2.5
		c0.3,0.3,0.7,0.7,0.7,0.7L59.9,15.3z M23.2,17.9c0-0.3,0-0.6,0-0.7c0-0.3-0.5-0.9-0.6-0.9c-0.2,0-0.5,0.3-0.7,0.6
		c-0.1,0.2-0.1,0.6,0.1,0.9C22.4,18.3,22.6,18.3,23.2,17.9z M70.7,21.8c-4.7,0.7-5.3-0.3-5.3-0.3v4.6c0,0,2.6,0,5.4-1.9
		c0.9-0.6,2.1-0.3,2.8,0.2h0C73.6,24.5,73.3,21.5,70.7,21.8z M35.3,24.5c-0.5,0-0.7,0.1-1.1-0.2c-0.7,0.6,0.1,1.2,0.3,1.3
		c0.2-0.1,0.6-0.2,0.8-0.3c0-0.1-0.1-0.2-0.1-0.3C35.2,25,35.3,24.8,35.3,24.5z M34.4,22.6c-0.2,0-0.2,0.1-0.4,0.4
		c-0.1,0.2,0,0.7,0.1,0.8c0.5,0.4,0.8,0.5,1.2,0.5c0-0.4,0-0.7,0-0.9C35.4,23.1,34.5,22.6,34.4,22.6z M23.2,18.2
		c-0.4,0.3-0.6,0.5-1,0.2c-0.7,0.6,0.4,0.9,0.6,1.1c0.2-0.1,0.3-0.1,0.4-0.1c0-0.1,0-0.2,0-0.3C23.2,18.9,23.2,18.6,23.2,18.2z
		 M33.5,10.9c0.1,0,0.3,0,0.4,0c0.2-0.2,0.5-0.4,0.5-0.4c-0.4-0.3-1-0.7-1.2-0.7c-0.3,0-0.8,0.2-0.6,0.5
		C32.8,10.5,33,10.9,33.5,10.9z M33.5,11.7c-0.4,0.3-0.8,0.6-0.9,0.8c0.1,0.3,1.1,0.9,1.6,0.7c0.5-0.2,0.7-0.7,0.3-1
		C34.1,12,33.8,11.8,33.5,11.7z M24.9,6.6c-2.6,1-8.9,0.2-8.9,0.2v24.4c5.6,0.4,12.8-2.5,16.4-2.2c3.7,0.2,6.9,2,6.9,2V7
		C39.2,7,33.7,3.2,24.9,6.6z M27.5,10.9c0.2-1.6,1.5-2.3,2.1-2.3c0.6,0,0.8,0.6,1.1,0.9c-0.5,0.4-1.4,1.3-1.9,1.8
		c0.1,0.3,0.7,1.3,2,1c0.6-0.1,0.8,0.1,0.3,0.4c-0.2,0.1-0.7,0.6-1.1,0.6C28.8,13.3,27.3,12.5,27.5,10.9z M29.7,16
		c0.7,0.2,1.8,0.1,2.1,1c0.4,1-0.3,2.3-1.1,2.3c-0.7,0.1-1.3-0.2-1.7-0.1c-0.2,0-0.3,0.1-0.3,0.3c0,0.2-0.3,0.3-0.4,0
		c-0.1-0.3-0.1-1.4-0.1-1.7c0-0.3,0.3-0.4,0.4,0c0.1,0.4,0.2,0.6,0.4,0.9c0.2,0.2,1.6,0.6,2.1,0.2c0.4-0.3,0.3-1-0.1-1.3
		c-0.4-0.3-2.1-0.7-2.4-1.2c-0.5-0.8,0.4-1.5,0.8-1.7c0.6-0.3,1.3-0.2,1.5-0.2c0.2,0,0.5,0.1,0.6-0.2c0-0.3,0.2-0.2,0.2,0
		c0.1,0.7,0.1,0.3,0.1,1.1c0,0.4-0.1,0.4-0.3,0.1c-0.1-0.2-1.1-1-2-0.5C28.8,15.5,29,15.9,29.7,16z M31.7,20.9
		c-0.3,0.3-0.6,0.6-0.8,0.9c-0.2-0.2-0.6-0.5-0.9-0.7c0.4-0.2,0.7-0.5,0.8-0.8C31.1,20.7,31.4,20.9,31.7,20.9z M24.4,9.2
		c0.4,0.3,0.7,0.3,0.9,0.6c0.3-0.2,0.8-0.4,1-0.6c0.2,0.2,0.6,0.6,0.7,0.8c0.2-0.2,0.4,0,0.2,0.2c-0.2,0.2-0.7,0.5-0.9,0.7
		c-0.2-0.1-0.6-0.6-0.7-0.7c-0.1,0.1-0.2,0.1-0.4,0.2c0,0.3,0,3,0,3.3c-0.4,0-0.7,0-1,0c0-0.4,0-2.5,0-2.9c0-0.4-0.4-0.5-0.9-0.6
		C23.7,9.8,24.2,9.4,24.4,9.2z M19.5,9.8c0.7-0.4,1.8-0.1,2.3,0c0.2,0.1,0.4,0.1,0.5-0.3c0-0.2,0.3-0.1,0.3,0c0,0.1,0,2.2,0,2.4
		c0,0.2-0.3,0.2-0.3,0c0-0.2-0.1-0.7-0.2-1c-0.1-0.5-1.5-1.5-2.5-0.2c0,0.1-0.4,0.8-0.4,1.3c0,0.4,0.1,1,0.4,1.3
		c0.8,1.1,1.9,0.7,2.5-0.2c0.2-0.3,0.2-0.7,0.2-1c0-0.1,0.3-0.2,0.3,0c0,0.2,0,1.5,0,1.7c0,0.2,0.2,0.4,0.2,0.4
		c0.2,0.3,0,0.5-0.3,0.2c-0.2-0.2-0.2-0.5-0.5-0.4c-0.9,0.2-1.8,0.5-2.5,0.1c-0.7-0.4-1.4-0.6-1.4-2.2C18,10.9,18.9,10.1,19.5,9.8z
		 M18.1,16.6c0.4-0.6,1.3-1.2,2-1.4c0.2,0.2,0.4,0.6,0.7,1c-0.3,0.2-0.6,0.5-0.8,0.7c-0.1-0.2-0.9-1.3-1.4-0.5
		c-0.3,0.4-0.6,1.7,0.4,2.4c0.5,0.4,1,0.5,1.6,0.4c-0.3,0.4-0.4,0.6-0.6,0.9c-1,0.2-1.3-0.1-1.8-0.5C17.2,18.9,17.5,17.5,18.1,16.6z
		 M21.1,25.5c0.2-0.2,0.5-0.2,0.3,0.2c-0.4,0.4-0.7,1-0.9,1.4c-0.7-0.3-2.2-1.2-2-2.8c0.2-1.6,1.8-2.3,2.3-2.6
		c0.1,0.5,0.6,1.3,1,1.6c-0.5,0.4-1.8,1.5-2.3,1.8C19.8,25.5,20.8,25.9,21.1,25.5z M22.1,20.5c-0.5-0.2-0.9-0.7-0.9-1.2
		c0-0.5,0.3-0.8,0.7-1.1c-0.1-0.1-0.1-0.1-0.2-0.2c-0.1-0.1-0.2-0.9-0.1-1.1c0.2-0.6,1-1.2,1.6-1.3c0.4,0,0.7,0.7,1,1.1
		c-0.1,0.1-0.1,2.4-0.1,2.6c0.1,0.1,0.3,0.3,0.4,0.2c0.2-0.2,0.3,0,0.1,0.1c-0.1,0.1-0.9,0.8-1.1,1c-0.3-0.2-0.3-0.5-0.4-0.9
		C22.8,19.8,22.3,20.1,22.1,20.5z M26.3,26c-0.2,0.1-1,0.7-1.2,1c-0.3-0.5-0.3-0.9-0.2-1.5c0.1-0.4,0-1.6,0-1.9
		c0-0.3-0.4-0.4-0.6-0.5c-0.2,0.2-0.3,0.2-0.5,0.4c0,0.4,0,2.9,0,3.2c-0.6,0-0.5,0-0.8,0c0-0.5,0-2.4,0-2.8c0-0.4-0.4-0.7-0.6-1
		c0.5-0.4,0.7-0.6,1-0.9c0.3,0.4,0.4,0.8,0.6,1c0.3-0.3,0.9-0.6,1.1-0.9c0.2,0.1,0.6,0.4,0.7,1.2c0,0.8,0.1,2.2,0.1,2.4
		c0,0.2,0,0.1,0.3,0.1C26.4,25.7,26.5,25.8,26.3,26z M26.7,19.9c-0.2,0.2-0.8-0.1-1-0.5c-0.3-0.5-0.2-1.7-0.2-2.7
		c0,0-0.2-0.2-0.4-0.3c-0.3-0.1-0.3-0.2,0.1-0.3c0.5-0.2,1.3-1.4,1.4-1.7c0.1-0.3,0.2,0,0.1,0.2c-0.3,0.6-0.2,1.3-0.1,1.5
		c0,0.1,1,0,1.2,0c0.1,0,0.1,0.4,0,0.4c-0.2,0-1.4,0.1-1.4,0.1c-0.1,0,0.1,2,0.2,2.1c0,0,0.4,0.4,0.5,0.2c0.2-0.2,0.4,0,0.1,0.2
		C27.2,19.3,27,19.7,26.7,19.9z M29.5,25.1c-0.1,0.1-0.6,0.7-0.7,1c-0.1,0.3-0.8,0.1-1-0.2c-0.3-0.5-0.2-1.5-0.2-2.5
		c0.1,0-0.6-0.3-0.3-0.6c0.4-0.3,1-1.5,1.1-1.7c0.1-0.3,0.2-0.2,0.2,0.1c0,0.4-0.2,1.4-0.2,1.5c0,0.1,0.6,0.1,0.8,0.1
		c0.1,0,0.1,0.4,0,0.4c-0.2,0-0.8,0.1-0.8,0.1c-0.1,0,0,1.4,0.1,1.6c0.3,0.3,0.5,0.4,0.8,0C29.5,24.7,29.7,24.9,29.5,25.1z
		 M32.2,25.8l-0.4,0.4c-0.3-0.3-0.6-0.4-0.6-0.7l0-2.1l-0.7-0.3c-0.3,0.3-0.6,0.1-0.3-0.1l1-0.9l0.2,0l0.6,1l0,2
		c0.3,0.2,0,0.2,0.5,0.3L32.2,25.8z M32.4,18.7c-0.3-0.9,0.3-1.8,0.6-2.1c0.2-0.2,0.8-0.7,1.2-0.9c0.4,0.2,0.6,0.4,0.8,0.5
		c-0.1,0.2-0.1,0.5-0.5,0.5c-0.6,0-1-0.1-1.3,0.2c-0.3,0.3-0.1,1.3,0.3,1.6c0.3,0.3,1.1,0.6,1.2,0.3c0.2-0.4,0.5-0.2,0.2,0.2
		c-0.2,0.2-0.5,0.7-0.7,1.1C33.5,20,32.7,19.7,32.4,18.7z M37.4,25.7c-0.2,0.1-0.7,0.6-0.9,0.8c-0.3-0.2-0.7-0.4-0.9-0.7
		c-0.6,0.1-1.1,0.5-1.6,0.8c-0.5-0.2-0.7-0.7-0.7-1.2c0-0.5,0.3-0.9,0.6-1.3c0,0,0,0-0.1-0.1c-0.1-0.1-0.3-1-0.1-1.2
		c0.2-0.3,1-1,1.5-1.1c0.4,0,0.9,0.8,1.3,1.1c-0.1,0.1,0.1,2.4,0.1,2.6c0.1,0.2,0.5,0.3,0.6,0.1C37.4,25.4,37.5,25.6,37.4,25.7z
		 M37.3,20.2l-0.6,0.5c-0.3-0.3-0.6-0.4-0.6-0.7l0-2.2l-0.5-0.3c-0.3,0.3-0.6,0.2-0.3-0.1l1-0.9l0.2,0L37,17l0,2.3
		c0.3,0.2,0.3,0.2,0.8,0.3L37.3,20.2z M36.6,11.2c1,0.1,0.9,0.5,0.7,0.5C36,11.8,36.4,11.2,36.6,11.2z M36.5,12
		c1.1,0.1,0.9,0.5,0.7,0.5C36,12.3,36.3,11.9,36.5,12z M36.3,14.4l0.5,0.5v0.6l-0.4,0.4h-0.3l-0.3-0.3l0-0.7L36.3,14.4z M34.1,9
		c0.9,0,1.3,0.6,1.6,0.9c-0.1,0.2-0.6,0.5-1.2,1c0.1,0,0.2,0,0.3,0.1c0.9,0.5,1.2,1.3,0.3,1.9c-0.5,0.4-1.3,0.8-2.1,0.8
		c-0.6,0-1.5-0.5-1.7-0.7c0.5-0.4,0.9-0.9,1.3-1.2c-0.6-0.4-1.1-1-0.6-1.6C32.3,9.8,33.2,9,34.1,9z"/>
	<path fill="#FFFFFF" d="M38.7,41.4c-0.2-0.4-0.5-0.9-1-1.1c-2-1-5.9,1.1-5.9-1.9c0,0-1.4,1-0.8,2.1C32.5,42.9,36.5,39.9,38.7,41.4z
		 M14.1,70.2c0.1-0.4,0.1-0.3-0.4-0.9c-1.2-1.6,0.2-3.8-0.4-5.2c-0.5-1.1-0.8-0.2-1-1.4c0.3-0.3,1.3-0.4,1.6-0.5
		c0.4-4.4,1.9-6.6,1.3-3.9c-0.3,1.4-0.7,3.7-0.5,3.8c0.2,0.1,0.2,0.1,0.4,0.2c0.1,0,7.4-12,3.3-3.7c-0.5,1.1-2.7,4-2.7,4
		c0.6,0.6,1.1,1.3,1.2,1.7c0,0.1,9.8-12.9,3.1-2.4c-0.4,0.6-2.4,2.8-2.9,3.4c-0.1,0.1,0.2,2.4,0.2,2.4c1-0.7,2.5-2.1,3.2-3
		c-0.1-1.3,0.2-1.2,0.3-2.5c0.3-0.2,0.7,0.4,1.2,0.8c0.2,0.2,6.7-11.1,2.7-2.6c-0.7,1.4-2.1,3-2.2,3.1c0.3,0.3,0.7,1.2,1.1,2.3
		c0,0,8.7-12.5,3.4-3c-0.4,0.7-3,3.9-3,4c0.6,1.6,1.2,3.1,1.2,3.1c-0.2-1.2-0.4-3.6,2.1-5.6c0.3,2.2,0.9,2.3,1.7,2.9
		c0.3,0.3,1,1.5,1,0.5c0.2-3.1-0.8-3-1.5-4.3c-0.2-0.3-0.1-1,0-1c6.2,0.2,6,6,7.1,6c-0.5-1.5-0.6-3,0-4.2c-1.7-1.2-1.3-3.2-0.9-4.1
		c-1.9-1.9-0.8-6.1,0.1-6.9c-1.2-1.8,0.3-3,0-4c-0.5-3.8-3.9-2.7-4.7-6.3c-0.5,0.6-1.5,2.8-1.1,3.6c0.5,0.8,1.7,0.9,1.7,1.5
		c0,0.3,0.1,1-0.1,1.1c-0.6,0.1-1.1-0.5-1.7-0.7c-1.3-0.5-4.5,1.7-4.7-0.3c-0.1-1.2,0.4-0.3,0.4-1.5c-0.1-1.2-0.6-0.3-0.6-1.8
		c0-1.1,1.3-1.4,1.4-1.9c0.2-1.1,2.2,1.6,3.4-1.3c-0.7,0.1-2-0.4-1.9-1c0.3-1.8,0.4-6.1-3.7-5.2c-1.5,0.3-5.5,2.5-6.1,0.1
		c-1.5,2.6,1.4,2.1,2.3,2.1c-0.3,0.2-0.8,0.6-1.9,0.4c-2.3,1.5-10.6,6.8-13,8.1c3.2,1.5,8.2-1.6,8.3-1.6l0.1,0.1
		c0,2.3-6.5,5.7-9.4,7.2c4.3,1.5,8.4-2.5,7.9-1.5c-0.6,1.1-5.9,5.7-8.2,8.1C5,58.9,6.7,57.5,8,56.4c1.4-1.2,3.8-4.2,3.4-2.7
		c-3.8,4.7-6.9,14.6-5,15.2c1.1-2.2,5.5-13.6,5.8-13.6c0.3,0.1-0.3,3-0.4,5c-0.2,4.3-0.2,6.3,0.7,10.5
		C12.9,70.1,13.3,70.2,14.1,70.2z M34.2,39c-0.1-1,1.9-2.2,2.6,0.1c2-0.2,2.6,1,2.9,1.7c2.9,0.5,2.1,2.4,2,2.4
		c-0.3-0.4-1.5-2.3-3.6-1c-0.5,0.3-1.3,0.6-1.7,0.2c0,0.6,0.9,1.2,1.4,1.1c1.8-0.5,2.3,1.2,0.9,1.7c0.3,0.5,0.9,0.4,1.4,0.1
		c0.8-0.5,0.9-0.9,1.2-1.2c0.5,2.4-2.5,2.6-3.5,2.8c0.1,0.5,0.5,0.6,1.1,0.8c-3.2,0.1-3.8,3.1-3.6,4.8c0.7,0.1,1.8-1.5,1.7-0.6
		c-2.2,2.4-3,5.6-1.8,7.6c0.6-0.2,0.7-0.9,0.9-1.4c0.1-0.1,1.2,0.5-0.6,2.7c-0.1,0.6-0.8,2.3,0.6,2.7c0.5-0.6,0.5-1.2,0.6-1.9
		c0.4-0.2,0.7,1.2,0.5,1.6c-1.9,0.8-1.6,6.5,0.5,9.5c-1-2.2-0.9-5.1,0-7.4c0.7-1.8,2.1-5.7,2.2-5.7c0.8,1,1.9,5.4,1.9,7.2
		c1.2-1,1.4-2.1,2.3-2.9c0.5,1.6,0.6,2.6,1,4c0.5-1.4,1.7-2.9-0.1-7.3c0.4-0.3,1,1.5,1.2,1.4c0.2-0.1,0.4-1-0.2-2.7
		c-1.2-1.1-1.5-2.8-1.3-2.9c0.2-0.1,0.7,1.7,1.4,1.8c0.1-1.4,0.5-2.9,0.4-4c0-0.3-0.5-1.8-1.9-3c-0.8-0.7-1.1-2.2-1-2.5
		c0.8,0.7,0.6,1.2,1.2,1.5c0.3-0.6,0.1-2.8-0.7-3.8c-0.4-0.7-0.2-0.6,0.3-0.2c0.7,0.8,0.4,0.8,1,1.1c1.3-3.1,0.1-3.7,0.2-3.9
		c0.1-0.2,1,1.5,1.8,0.8c-1.3-0.7-1.3-1.7-1.4-2.9c-0.1-0.9-0.7-1.2-0.5-1.4c1.3,1,1.7-0.1,1.7-0.3c-0.2,0.1-1.4,0.3-1.5-1.5
		c-0.1-0.7-1.1-1-1.1-1c0.7-0.1,2.8-0.2,2.3-2.4c-0.3,0.5-0.9,1.3-2.2,1c0,0,0.9-0.2,0.7-1.2c-2.1,1.2-3.7-1.2-5.9-0.9
		c-0.8,0.1-1.7,0.5-1.9,1.3c-0.5,0.5-0.4-0.8-1.4-0.2c-0.4,0.5,0.6,1.8,0.4,1.8c-1,0.3-0.9-1.5-1.5-1.6C34.2,35.6,32.1,37.5,34.2,39
		z M40.8,35.6c0.8,0.3,1.5,0.9,2.5,1.1v0.1c-1.4,0.3-2.4,1.7-3.9,1.1c-0.2-0.1-0.6-0.2-0.6-0.6c0.3,0.2,0.7,0.3,1,0.3
		c0,0-0.8-0.7-0.1-1.5c-0.9,0.6-1.3,0.4-1.3,0.1C38.4,36,39.6,35.1,40.8,35.6z M20.6,66c-1.1,1.1-1.5,1.2-1.5,1.6
		c0.3,0.7,0.8,1.2,1.3,1.8c0.7,0.5,0.9,1,0.4-0.6C20.5,67.8,20.6,67,20.6,66z M42.1,36.8c-0.3-0.2-1.1-0.7-1.5-0.8
		c0,0,0.4,0.3,0.4,0.7c0,0.3-0.4,0.8-0.4,0.8L42.1,36.8z M60.3,71c-0.1,0.3-0.3,0.7-0.5,1.2c-0.2,0.4,0.4,0.1,1.4-0.7
		C61.2,71.4,60.4,70.8,60.3,71z M12.8,72.4c0.5,1.7,0.9,3.2,1.8,5c0.5,1,1.5-1.5,0.5-4C14.3,73.1,13.5,72.9,12.8,72.4z M72,51.4
		c1.2,1.2,4.5,2.4,4.7,2.3c-2.7-5.1-9.1-10-8.4-10.6c4.7,4.4,6.2,4.6,6.4,4.4l-4.3-4.1c-1.2-1.6-2.8-2.9-2.6-2.8
		c1.9,0.4-1-1.6-3.2-2.2c-0.4-0.1-1-0.1-1.1-0.3c0-0.3,0.5-0.2,1-0.3c0.3-0.1,0.6-0.3,0.6-0.8c-0.9,0.2-1.7,0-2.5-0.3
		c-1.5-0.7-4.2-1.5-5.4-1c-0.7,0.3-0.9,0.2-1.6,0.8c-0.3-0.1-1.3-0.8-2.6,0.9c-0.4,0.5-0.9,1.1-0.9,1.5c-0.1,1.1,0,0.1,0.3,1.1
		c0.1,0.4-0.4,1.2-2.4,1.9c-0.8,0.3-0.6,1-0.6,1c0.4-0.2,1-0.6,1.9-0.2c1.8,0.8,2.2-0.5,3.3-1.4c0,0-0.3,1.2,0,1.3
		c1.4,0.3,0.9,1.3,0.8,1.5c-1.8,1.6-1,2.2-1.7,3.2c-0.6,0.9-1.5,1.3-2.9,1.2c-1.9-0.1,2.5-2.9-1.7-4.1c0.7,1.1,0.9,2-0.5,2.8
		c-0.9,0.5-0.5,3.3-2.8,2c0,0-0.2,2-0.5,2.1c3.2,2.8,1.4,4.3,1.6,8.4c1,2.6-0.1,3.8-0.4,3.9c0.2,1.7,0.3,2.7,1.4,4.1
		c0.8,1-0.1,2.6,0.7,3.7c0.7-2.6,1.5-1.5,1.7-5.1c0.3-0.6,1.5-1.7,2.2-1.8c0,2.2,0.8,4.2,0.6,5.1c0,0,1.8-0.3,2.4-0.1
		c0.5,0.2,0.8,0.8,0.8,1.1c-0.6,0.4-0.6,0.2-1.6,0.9c-1.7,1.2-2.4,3.7-2.4,3.7c0,0,3.9-3.1,4.2-3.7c0.2-0.4,0.4-1.1,0.6-1.8
		c0-0.1-2-1.3-2.6-2.3c-1.7-3.4,2.7,2,2.8,1.5c0.3-1.2,1.1-2.3,1.1-2.3c-0.3-0.3-1-0.5-2-2.4c-2.4-4.3,2.8,1.8,2.8,1.8
		c1.4-0.8,1.4,0.3,1.6,1.4c0,0.1,2.4,1.8,2.5,1.9c0.7-0.6,1.1-1.5,1.4-2c0-0.1-4.2-3.9-5-5.1c-5.9-10.1,4.8,4.5,5.3,4.1
		c0.3-0.8,0.4-1.9,0.3-3.3c0,0-2-1.4-3.3-3.5c-4.9-8.2,3.2,2.4,3.2,2.4c-0.1-1.7-1.5-9.3-0.5-7c0.5,1.2,2.1,6,1.8,10.9
		c0.5-0.9,2.8-1.8,3.7-2C70.2,56.1,65.7,48,67,49.5c3.1,3.8,4,12,6.1,19c0,0,1.3,0.7,1.1-8.3c-0.1-1.8-0.8-4.2-1.7-5.9
		c-1.8-3.3-5.4-8.9-5.3-9C68.1,44.7,70.2,49.5,72,51.4z M63.1,69.7c-0.1-0.1-2.2-1.9-2.2-1.8c0,0.2,0,0.2-0.1,0.5
		c-0.1,0.7-0.1,1.2-0.3,1.9c0,0.1,0.7,0.4,1.1,0.7C62.1,70.5,62.6,70.3,63.1,69.7z M70.3,64.4c-1,0.1-3.5,1.7-4.1,2.5
		c-1.7,2.3-1.6,4.4-8.9,7.6c-0.4,0,1.3-1.2,1.8-2.7c0.2-0.7,1.2-3.8,0.5-5.3c-1.5,1.5-1.2,2-1.6,3.1c-1.1,3-1.7,3.2-4.4,5.1
		c-0.4,0.2-2.4,3.4-5.1,3.6c0.3-0.1,0.1-0.7,1-1.3c3-2,1.9-6.2,5.8-6.9c-2-0.7-3.3,1.2-3.7,1c1.6-2.2,0.2-4.1,0.4-5.8
		c-0.5,0.3-1.1,0.9-1.1,1.5c-0.3,3.2-1.8,3.7-1.9,5.1c0.3,2.3-1.5,4-2.9,5.6C46,76.2,46.3,75,48,73.9c0.9-0.6-0.1-2.4-0.1-2.4
		c-0.4,2-1.5,2.6-2.2,2.7c-0.6,0.1,2.1-2.8,1.8-5.4c-0.1-1.2-0.5-0.6-0.7-2c-2.4,2.6-0.6,4.2-3.1,7.3c-1.1,1.4-1.6,4-1.7,4
		c0-3.8,0.1-2.7,1.8-5.7c1.4-2.5-0.1-4.8-0.3-6.4c-3,2.1-2.8,6.1-2.8,5.2c-0.1-0.8-0.4-2.3,0-3.7c0.7-2.2-0.7-5.7-0.7-5.7
		c-4.2,6.6-0.7,14.3-0.9,14.2c-1.8-2.9-3.2-3-3.6-5.2c-0.2-1.2-2.4-7.7-6.4-7.8c2,1.7,1.5,2,1.7,4.8c-1.3,7.1,8.6,7.8,8,11.5
		c-1.4-2.2-3.4-3.1-6.6-4.8c-1.4-1.1-2.9-1.6-3-3.3c0.2-1.2,0.2-1,0-2.6c-0.2-1.2-1.3-0.5-2.1-2.9c-1.8,1.6-1.1,3.5-1,4.5
		c0,0.3,0.2,1.4,0,2c-0.6-0.4-1.1-1.3-1.8-2.2c-1.3-1.6-1.3-3.6-1.9-5c-0.3-0.6-0.7-1.5-1-1.5l0,0c-0.3,2.6-0.2,4.8,1,6.8
		c0,0-0.3,0.6-0.6,0.7c-1.1-0.3-2.7-1.2-3.3-3c-1.4,1.2-0.4,2.7-0.5,2.6c-3.1-1.6,0-7.8-4.4-7.6c1.1,1.2,0.4,2.7,0.3,4.1
		c0,2.3,2.9,4.1,2.9,4.1c-3.3-1.1-3.9,0.4-3.9,0.4c0,0,4.8,2.1,12.4,2.9c1,0.1,2.4,1.3,2.1,1.3c-1-0.1-2.9-1.3-5.7,1.1
		c1.6,0,2.8,2.7,5.4,1.2c6.9-2,9.4,1.5,10.6,2.4c-0.2,0.4-5.3-3.2-9.3-0.8c-2.1,1.3-5.6,0.1-8.2-1.9c1.1,2.8,5.7,5.9,7.2,5.9
		c1.9,0,4.3-2.4,7-2.3c4.3,0.2,5,4.1,4.5,3.8c0,0-3.4-5.7-7.8,0.4c2.1-0.9,4.8-0.7,7.2,0.4c0.3,0.2-0.6,1.2-1.2,1.9
		c-0.4,0.5-2.3,3.2-4.2,0.5c-0.3-0.4-1.2-2.9-7.4-2.4c2.3,1.1,4.9,3.8,6.2,5.1c3.2,3.2,8.2-3.9,8.3-3.1c0,1.6,0.8,2.4,1.3,3.2
		c1.1,2.2-1.4,1.8-2.7,1.3c0,0,2.6,4,4.7,1.8c2.4-2.5-3.1-4.3-1.4-6.3c1-1.1,4.4,2.5,6,2.5c4.2,0.5,4-3.5,6.2-3.4
		c-2.1-2.1-4.3-1-4.8-0.4c-1.4,1.6-3,0.5-4.2-0.3c-0.6-0.8-1.7-0.9-2.6-0.7c-0.4,0,0.9-1.5,2.6-1.2c3.9,0.8,7.8-0.6,8.7-1.2
		c1.6-0.9,2.4-2.4,4.2-4c-0.5,0.1-3.8,1.9-4.8,2.4c-3.1,1.6-5-0.5-5.4-0.5c-0.6,0-0.4-0.5,0.5-0.8c3.2-0.7,5.4-3.5,8.4-4.6
		c3.4-1.5,7.6-0.5,10.4-3.3c0.9-0.8,1.4-2.1,2.6-2.5c-0.9-0.8-1.7,0.8-2.2,0.2c0.8-1.3,1.3-2.3,1.4-3.9C69,65.7,70,64.9,70.3,64.4z
		 M65.5,74.4c-0.8,2.4-0.4,4.9,0.5,3.6c1.3-1.8,2-3.8,2.4-5.9C67.7,73.1,66.6,74,65.5,74.4z"/>
</g>
<g>
	<path fill="#FFFFFF" d="M114.2,10.5c0.5-1.2,1-2.3,2.2-3.4c1.1-1,3.7-1.2,6-1.2h2.8c1.2,0,1.2,0,1.2,1.3v22.8c0,5.5-0.3,5.8-2.8,6
		l-1.8,0.2l-0.2,0.1c-0.3,0.2-0.5,0.6-0.4,1c0,0.3,0.1,0.7,0.5,0.9l0.1,0l0.1,0c3.4-0.1,5.1-0.2,7.1-0.2c2,0,3.7,0,6.7,0.2l0.1,0
		l0.1,0c0.3-0.2,0.5-0.6,0.5-1c0-0.4-0.1-0.8-0.3-0.9L134,36c-2.6-0.3-2.7-0.6-2.7-6V7.1c0-0.6,0-1,0.1-1.1c0.1-0.1,0.6-0.1,1-0.1
		h3.6c2.7,0,4.6,0.4,5.7,1.2c0.5,0.4,0.9,1.7,1.1,3.5l0,0.1l0.1,0.1c0.2,0.2,0.5,0.3,0.9,0.3c0.5,0,0.9-0.2,1-0.5l0-0.1l0-0.1
		c-0.1-1.5,0.2-5.6,0.8-7.6l0-0.1l-0.1-0.1c-0.2-0.4-0.7-0.4-0.9-0.4c-0.1,0-0.3,0-0.5,0.1l-0.1,0l-0.1,0.1
		c-0.7,1.2-0.9,1.3-3.7,1.3h-20.7l-0.4,0c-2.3,0-3.4-0.1-3.6-1.3l0-0.1l-0.1-0.1c-0.1-0.1-0.4-0.2-0.7-0.2c-0.1,0-0.5,0-0.7,0.2
		l-0.1,0.1l0,0.1c-0.4,2-1.1,5.2-1.9,7.5l0,0.1l0.1,0.1c0.3,0.6,1.3,0.9,1.8,0.5L114.2,10.5L114.2,10.5z"/>
	<path fill="#FFFFFF" d="M161.2,37.9c2,0,3.7,0.1,6.5,0.2l0.1,0l0.1,0c0.3-0.2,0.5-0.6,0.5-1c0-0.4-0.1-0.8-0.3-0.9l-1.6-0.2
		c-2.5-0.3-2.8-0.5-2.8-6v-7.2c0-1.3,0-1.3,2.2-1.3h14.6c2.2,0,2.2,0,2.2,1.3v7.2l0,0.5c-0.1,4.8-0.1,5.1-2.8,5.5l-1.1,0.2l-0.1,0.1
		c-0.3,0.3-0.3,0.7-0.3,1.1c0.1,0.4,0.2,0.6,0.5,0.8l0.1,0l0.1,0c2.4-0.1,4.2-0.2,6.2-0.2c2.1,0,3.9,0.1,6.2,0.2l0.1,0l0.1,0
		c0.3-0.2,0.5-0.6,0.5-1c0-0.4-0.1-0.8-0.3-0.9l-1.4-0.2c-2.6-0.3-2.8-0.6-2.8-6V11.6c0-5.5,0.2-5.8,2.7-6.1l1.1-0.1l0.2-0.1
		c0.2-0.2,0.4-0.5,0.3-0.9c0-0.4-0.2-0.8-0.5-1l-0.1,0l-0.1,0c-2.5,0.1-4.2,0.2-6,0.2c-2.2,0-4-0.1-6.2-0.2l-0.1,0l-0.1,0
		c-0.3,0.2-0.5,0.6-0.5,1c0,0.4,0.1,0.8,0.3,0.9l1.1,0.2c2.6,0.3,2.8,0.6,2.8,6.1v5.9c0,1.3,0,1.3-2.2,1.3h-14.6
		c-2.2,0-2.2,0-2.2-1.3v-5.9c0-5.5,0.2-5.8,2.7-6.1l1-0.1l0.2-0.1c0.2-0.2,0.4-0.5,0.3-0.9c0-0.4-0.2-0.8-0.5-1l-0.1,0l-0.1,0
		c-2.3,0.1-4,0.2-5.9,0.2c-1.3,0-2.5,0-3.7-0.1c-0.8,0-1.7-0.1-2.7-0.1l-0.1,0l-0.1,0c-0.3,0.2-0.5,0.6-0.5,1c0,0.4,0.1,0.8,0.3,0.9
		l0.1,0.1l1.4,0.1c2.3,0.2,2.7,0.6,2.7,6.1v18.4c0,5.3-0.1,5.6-2.7,6l-1,0.2l-0.1,0.1c-0.3,0.3-0.3,0.7-0.3,1.1
		c0.1,0.4,0.2,0.6,0.5,0.8l0.1,0l0.1,0c0.7,0,1.3,0,2-0.1C158.5,38,159.7,37.9,161.2,37.9z"/>
	<path fill="#FFFFFF" d="M229.8,30.6l0-0.1c-0.2-0.5-0.7-0.7-1.2-0.7c-0.2,0-0.5,0.1-0.6,0.2l-0.1,0.1c-1.5,2.9-2.8,4.4-3.5,4.8
		c-1.1,0.6-2.6,0.7-6.4,0.7c-4.3,0-5.4-0.5-5.9-1.1c-0.7-0.8-0.9-2.4-0.9-5.1v-7.2c0-1,0-1,1.3-1h3c1.8,0,3.1,0,3.8,0.2
		c0.8,0.2,1.1,0.8,1.3,1.7l0.5,2l0.1,0.1c0.2,0.2,0.5,0.3,0.9,0.3c0.5,0,0.8-0.2,1-0.5l0-0.1v-0.1c0-0.5,0-1.2-0.1-1.9
		c-0.1-0.9-0.1-2-0.1-3c0-1.1,0.1-2.2,0.1-3.1c0-0.8,0.1-1.5,0.1-2V15l0-0.1c-0.2-0.3-0.5-0.5-1-0.5c-0.4,0-0.7,0.1-0.9,0.3
		l-0.5,2.2c-0.2,1.2-0.5,1.4-1,1.5c-0.5,0.2-2.1,0.3-4.2,0.3h-3c-1.3,0-1.3,0-1.3-1.1V7.6c0-1.7,0-1.7,1.2-1.7h3.7
		c2.2,0,3.8,0,4.9,0.3c2.4,0.6,2.8,2.1,3.5,4.3l0.1,0.3l0.1,0.1c0.2,0.2,0.5,0.3,0.8,0.3c0.3,0,0.8-0.1,1-0.4l0.1-0.1l-0.1-0.8
		c-0.3-2.9-0.5-5.4-0.8-6.2l-0.1-0.3l-0.3,0.1c-0.6,0.1-3.7,0.1-6.8,0.1h-9.6c-2,0-3.6,0-6-0.2l-0.1,0l-0.1,0
		c-0.3,0.2-0.5,0.6-0.5,1c0,0.4,0.1,0.8,0.3,0.9l1,0.2c2.6,0.3,2.8,0.7,2.8,6.1v18.4c0,5.5-0.3,5.8-2.8,6l-1.8,0.2l-0.1,0.1
		c-0.3,0.3-0.3,0.7-0.3,1.1c0.1,0.4,0.2,0.6,0.5,0.8l0.1,0l0.1,0c2.8-0.1,4.7-0.2,6.9-0.2h4.6c4.5,0,9.1,0.1,13.7,0.2l0.2,0l0.1-0.2
		c0.7-1.4,2-5.4,2.3-7.2L229.8,30.6z"/>
	<path fill="#FFFFFF" d="M285.2,34.9c2.5-2.6,3.7-6.7,3.7-12.4v-6.3c0-2.9,0-8.2,0.7-9.8c0.2-0.5,1.1-0.9,2.3-1l1.4-0.1l0.1-0.1
		c0.2-0.3,0.3-0.7,0.3-1c0-0.3-0.2-0.6-0.4-0.7L293,3.4l-0.1,0c-1.8,0.1-3.2,0.2-5.3,0.2c-2,0-3.8,0-5.8-0.2l-0.1,0l-0.1,0.1
		c-0.2,0.2-0.4,0.4-0.4,0.8c-0.1,0.4,0,0.7,0.3,1l0.1,0.1l1.4,0.1c1.2,0.1,2,0.4,2.3,0.9c0.6,1.1,0.9,4.7,0.9,10.4v5.9
		c0,6-1.7,13.2-9.8,13.2c-6.8,0-10-4.2-10-13.3v-11c0-5.5,0.2-5.9,2.7-6.1l1.2-0.1l0.2-0.1c0.2-0.2,0.4-0.5,0.3-0.9
		c0-0.3-0.2-0.8-0.5-0.9l-0.1,0l-0.1,0c-2.4,0.1-4.1,0.2-6.3,0.2c-2.1,0-3.9-0.1-6.3-0.2l-0.1,0l-0.1,0c-0.3,0.2-0.5,0.6-0.5,0.9
		c0,0.4,0.1,0.7,0.3,0.9l0.1,0.1l1.4,0.1c2.6,0.2,2.7,0.6,2.7,6.1v12c0,6.2,1.3,9.9,4.1,12.3c2.2,1.9,5.5,2.9,9.8,2.9
		C279.2,38.8,283,37.3,285.2,34.9z"/>
	<path fill="#FFFFFF" d="M313.8,38.1L313.8,38.1c0.3-0.2,0.5-0.5,0.5-0.8c0.1-0.4,0-0.7-0.3-1l-0.1-0.1l-1.7-0.2
		c-1.2-0.1-2.1-0.4-2.3-0.8c-0.6-1.2-0.9-6.4-0.9-10.4V13.7c0-0.9,0-2,0.1-2.7c0.8,0.9,2.2,2.5,3.4,4c0.8,1,1.6,1.9,2.1,2.5
		l11.8,13.5c3.9,4.5,5.8,6.7,6.5,7.7l0.1,0.1h0.2c0.6,0,1.1-0.3,1.3-0.8l0-0.1l0-0.1c-0.1-0.6-0.2-2.6-0.2-8.9l0-12.9
		c0-2.6,0-8.1,0.7-9.7c0.1-0.1,0.7-0.6,2.6-0.9l0.8-0.1l0.1-0.1c0.2-0.2,0.4-0.6,0.3-1c0-0.4-0.2-0.6-0.5-0.8l-0.1-0.1l-0.1,0
		c-1.7,0.1-3,0.2-5.2,0.2c-1.8,0-3.5,0-6-0.2l-0.1,0l-0.1,0c-0.3,0.1-0.5,0.4-0.5,0.7c-0.1,0.4,0.1,0.9,0.3,1.1l0.1,0.1l1,0.1
		c1.8,0.2,2.7,0.5,2.9,0.9c0.4,0.6,1,2.7,1,10.4v10.9c0,0.5,0,1.2,0,1.6c-2.3-2.3-4.7-5-8.1-8.9l-4.9-5.6l-0.7-0.8
		c-2.1-2.4-7-8-7.9-10.3l-0.1-0.3l-0.3,0c-0.6,0.1-1.4,0.1-2.3,0.1c-0.9,0-3.6,0-5.7-0.2l-0.1,0l-0.1,0c-0.3,0.1-0.4,0.4-0.5,0.7
		c-0.1,0.4,0.1,0.8,0.3,1.1l0.1,0.1l1,0.1c1.4,0.2,2.4,0.6,2.9,1.1c1,1.1,1,2,1,3.4v15.2c0,2.5,0,8.2-0.6,9.9
		c-0.2,0.4-0.9,0.7-2,0.8l-1.5,0.2l-0.1,0.1c-0.2,0.2-0.3,0.6-0.3,0.9c0,0.4,0.2,0.7,0.4,0.9l0.1,0.1l0.1,0c1.7-0.1,3.1-0.2,5.3-0.2
		c1.8,0,3.5,0,6,0.2L313.8,38.1z"/>
	<path fill="#FFFFFF" d="M361.8,38.1L361.8,38.1l0.2,0c0.3-0.2,0.5-0.6,0.5-1c0-0.4-0.1-0.8-0.3-0.9l-1.4-0.2
		c-2.6-0.3-2.8-0.7-2.8-6.1V11.7c0-5.6,0.2-6,2.8-6.2l1.4-0.1l0.1-0.1c0.2-0.2,0.4-0.5,0.3-0.9c0-0.4-0.2-0.8-0.5-1l-0.1,0l-0.1,0
		c-2.4,0.1-4.2,0.2-6.3,0.2c-2.2,0-3.9-0.1-6.4-0.2l-0.1,0l-0.1,0c-0.3,0.2-0.5,0.6-0.5,1c0,0.4,0.1,0.8,0.3,0.9l0.1,0.1l1.4,0.1
		c2.6,0.2,2.8,0.6,2.8,6.2v18.2c0,5.5-0.2,5.8-2.8,6.1l-1.4,0.2l-0.1,0.1c-0.3,0.3-0.3,0.7-0.3,1.1c0.1,0.4,0.2,0.6,0.5,0.8l0.1,0
		l0.1,0c2.5-0.1,4.2-0.2,6.4-0.2C357.5,37.9,359.3,38,361.8,38.1z"/>
	<path fill="#FFFFFF" d="M406.4,3.5L406.4,3.5l-0.2,0c-1.7,0.1-3.3,0.2-4.9,0.2c-2,0-3.9-0.1-5.3-0.2l-0.1,0l-0.1,0.1
		c-0.3,0.2-0.5,0.5-0.5,0.9c0,0.4,0.1,0.8,0.3,1l0.1,0.1l1,0.1c1.9,0.2,2,0.6,2,0.6c0,0.3,0,0.9-0.4,1.9c-0.9,2.2-3.2,8-4.7,11.4
		c-0.7,1.8-2.9,7-4.6,10.6c-2.4-5.6-4.7-11.2-6.9-16.9c-1.5-3.7-2.4-6.4-2.5-7c0.1-0.2,0.8-0.5,2.1-0.6l0.9-0.1l0.1-0.1
		c0.2-0.2,0.4-0.6,0.3-1c0-0.4-0.2-0.7-0.5-0.9l-0.1-0.1l-0.1,0c-2.3,0.1-4.1,0.2-6.2,0.2c-2.1,0-3.8,0-5.3-0.2l-0.1,0l-0.1,0.1
		c-0.3,0.2-0.5,0.5-0.5,0.9c0,0.4,0.1,0.7,0.4,0.9l0.1,0.1l1,0.1c2,0.2,2.7,1.1,3.8,4l9,22.1c0.9,2.2,1.8,4.6,2.3,6.7l0,0.2l0.2,0.1
		c0.3,0.1,0.6,0.2,0.9,0.2c0.3,0,0.6-0.1,0.8-0.2l0.1-0.1l0-0.1c0.9-2.8,3.3-8.8,5.3-13.3l2.8-6.3c2.4-5.5,4.3-9.4,5.7-11.7
		c0.7-1.1,1.4-1.5,2.4-1.6l1.7-0.1l0.1-0.1c0.3-0.3,0.3-0.7,0.3-1.1C406.8,3.9,406.7,3.6,406.4,3.5z"/>
	<path fill="#FFFFFF" d="M425.1,37.9c4.5,0,9.1,0.1,13.7,0.2l0.2,0l0.1-0.2c0.7-1.4,2-5.4,2.3-7.2l0-0.1l0-0.1
		c-0.2-0.5-0.7-0.7-1.2-0.7c-0.2,0-0.5,0.1-0.6,0.2l-0.1,0.1c-1.5,2.9-2.8,4.4-3.5,4.8c-1.1,0.6-2.6,0.7-6.4,0.7
		c-4.3,0-5.4-0.5-5.9-1.1c-0.7-0.8-0.9-2.4-0.9-5.1v-7.2c0-1,0-1,1.3-1h3c1.8,0,3.1,0,3.8,0.2c0.8,0.2,1.1,0.8,1.3,1.7l0.5,2
		l0.1,0.1c0.2,0.2,0.5,0.3,0.9,0.3c0.5,0,0.8-0.2,1-0.5l0-0.1v-0.1c0-0.5,0-1.2-0.1-1.9c-0.1-0.9-0.1-2-0.1-3c0-1.1,0.1-2.2,0.1-3.1
		c0-0.8,0.1-1.5,0.1-2V15l0-0.1c-0.2-0.3-0.5-0.5-1-0.5c-0.4,0-0.7,0.1-0.9,0.3l-0.5,2.2c-0.2,1.2-0.5,1.4-1,1.5
		c-0.5,0.2-2.1,0.3-4.2,0.3h-3c-1.3,0-1.3,0-1.3-1.1V7.6c0-1.7,0-1.7,1.2-1.7h3.7c2.2,0,3.8,0,4.9,0.3c2.4,0.6,2.8,2.1,3.5,4.3
		l0.1,0.3l0.1,0.1c0.2,0.2,0.5,0.3,0.8,0.3c0.3,0,0.8-0.1,1-0.4l0.1-0.1L438,9.9c-0.3-2.9-0.5-5.4-0.8-6.2l-0.1-0.3l-0.3,0.1
		c-0.6,0.1-3.7,0.1-6.8,0.1h-9.6c-2,0-3.6,0-6-0.2l-0.1,0l-0.1,0c-0.3,0.2-0.5,0.6-0.5,1c0,0.4,0.1,0.8,0.3,0.9l1,0.2
		c2.6,0.3,2.8,0.7,2.8,6.1v18.4c0,5.5-0.3,5.8-2.8,6l-1.8,0.2l-0.1,0.1c-0.3,0.3-0.3,0.7-0.3,1.1c0.1,0.4,0.2,0.6,0.5,0.8l0.1,0
		l0.1,0c2.8-0.1,4.7-0.2,6.9-0.2H425.1z"/>
	<path fill="#FFFFFF" d="M482.9,38.2l0.1-0.1c0.2-0.2,0.3-0.5,0.3-0.7c0-0.3-0.2-0.5-0.4-0.6l-0.1,0c-1.2-0.1-2.5-0.6-3.3-1.3
		c-3.5-3-6.3-7.3-10.2-13.5c-0.3-0.5-0.3-0.7-0.3-0.8c1.7-0.7,6.5-3.2,6.5-8.8c0-4.3-2.4-6.4-4.4-7.4c-2.5-1.4-5.8-1.6-8.7-1.6
		c-4.7,0-8.3,0.1-11.4,0.4l-0.1,0c-0.3,0.1-0.5,0.5-0.5,0.8c0,0.4,0.1,0.8,0.4,1l1.8,0.3c1.8,0.2,1.9,0.7,1.9,5.6v18.3
		c0,5.4-0.1,5.7-2.8,6l-1.4,0.2l-0.1,0.1c-0.3,0.3-0.3,0.8-0.2,1.1c0.1,0.3,0.2,0.6,0.5,0.7l0.1,0l0.1,0c2.6-0.1,4.4-0.2,6.4-0.2
		c1.9,0,3.6,0,6.1,0.2l0.1,0l0.1,0c0.4-0.2,0.4-0.6,0.5-0.8c0.1-0.4-0.1-0.8-0.3-1l-0.1-0.1L462,36c-2.6-0.4-2.8-0.6-2.8-6v-6.4
		c0-0.8,0-0.8,2-0.8c2,0,2.6,0.5,3.3,1.5c0.8,1.1,1.7,2.6,2.6,4c0.9,1.4,1.8,2.8,2.4,3.7c3.5,5,6.1,6.6,10.8,6.6
		C481.5,38.5,482.3,38.4,482.9,38.2z M459.3,7c0-1.2,0-1.3,3-1.3c5.8,0,7.8,4,7.8,7.5c0,2.8-0.8,4.8-2.4,6c-1.5,1.1-3.5,1.3-5,1.3
		c-2.4,0-3.1-0.1-3.3-0.2c-0.1-0.2-0.1-0.8-0.1-1.4V7z"/>
	<path fill="#FFFFFF" d="M490.9,36.7L490.9,36.7l0.1,0.1c1.2,0.7,4,1.9,8.1,1.9c6.7,0,11.2-3.9,11.2-9.8c0-4.1-2.1-7.4-6.5-10.1
		l-4.1-2.5c-2.8-1.8-4.2-3.8-4.2-6c0-2,0.7-5.3,5.7-5.3c4.5,0,5.9,2.9,6.6,5.5l0.1,0.1c0.2,0.2,0.4,0.3,0.7,0.3
		c0.4,0,0.9-0.1,1.1-0.5l0.1-0.1v-0.1c0-2-0.4-5-0.9-6.3l-0.1-0.2h-0.2c-0.4,0-1.1-0.1-1.7-0.3c-1.4-0.4-3.2-0.7-4.8-0.7
		c-6.4,0-10.8,3.7-10.8,9.1c0,4.4,3.1,7.4,5.7,9.1l4.8,3.2c3.5,2.3,4,4.6,4,6.8c0,2.7-1.9,5.5-6,5.5c-5.2,0-7.4-4-8.4-7.3l0-0.1
		c-0.1-0.2-0.4-0.3-0.7-0.3c-0.4,0-0.8,0.1-1.1,0.5l-0.1,0.1l0,0.1C489.6,31.7,490.2,35.5,490.9,36.7z"/>
	<path fill="#FFFFFF" d="M534.3,38.1L534.3,38.1l0.2,0c0.3-0.2,0.5-0.6,0.5-1c0-0.4-0.1-0.8-0.3-0.9l-1.4-0.2
		c-2.6-0.3-2.8-0.7-2.8-6.1V11.7c0-5.6,0.2-6,2.8-6.2l1.4-0.1l0.1-0.1c0.2-0.2,0.4-0.5,0.3-0.9c0-0.4-0.2-0.8-0.5-1l-0.1,0l-0.1,0
		c-2.5,0.1-4.2,0.2-6.3,0.2c-2.2,0-3.9-0.1-6.4-0.2l-0.1,0l-0.1,0c-0.3,0.2-0.5,0.6-0.5,1c0,0.4,0.1,0.8,0.3,0.9l0.1,0.1l1.4,0.1
		c2.6,0.2,2.8,0.6,2.8,6.2v18.2c0,5.5-0.2,5.8-2.8,6.1l-1.4,0.2l-0.1,0.1c-0.3,0.3-0.3,0.7-0.3,1.1c0.1,0.4,0.2,0.6,0.5,0.8l0.1,0
		l0.1,0c2.5-0.1,4.2-0.2,6.4-0.2C530.1,37.9,531.8,38,534.3,38.1z"/>
	<path fill="#FFFFFF" d="M566.7,38.1L566.7,38.1l0.2,0c0.3-0.2,0.5-0.6,0.5-1c0-0.4-0.1-0.8-0.3-0.9l-1.8-0.2
		c-2.6-0.3-2.7-0.6-2.7-6V7.1c0-0.6,0-1,0.1-1.1c0.1-0.1,0.6-0.1,1-0.1h3.6c2.7,0,4.6,0.4,5.7,1.2c0.5,0.4,0.9,1.7,1.1,3.5l0,0.1
		l0.1,0.1c0.2,0.2,0.5,0.3,0.9,0.3c0.5,0,0.9-0.2,1-0.5l0-0.1l0-0.1c-0.1-1.5,0.2-5.6,0.8-7.6l0-0.1l-0.1-0.1
		c-0.2-0.4-0.7-0.4-0.9-0.4c-0.1,0-0.3,0-0.5,0.1l-0.1,0l-0.1,0.1c-0.7,1.2-0.9,1.3-3.7,1.3H551l-0.4,0c-2.3,0-3.4-0.1-3.6-1.3
		l0-0.1l-0.1-0.1c-0.1-0.1-0.4-0.2-0.7-0.2c-0.1,0-0.5,0-0.7,0.2l-0.1,0.1l0,0.1c-0.4,2-1.1,5.2-1.9,7.5l-0.1,0.1l0.1,0.1
		c0.3,0.6,1.3,0.9,1.8,0.5l0.1-0.1l0-0.1c0.5-1.2,1-2.3,2.2-3.4c1.1-1,3.7-1.2,6-1.2h2.8c1.2,0,1.2,0,1.2,1.3v22.8
		c0,5.5-0.3,5.8-2.8,6l-1.8,0.2l-0.2,0.1c-0.3,0.2-0.5,0.6-0.4,1c0,0.3,0.1,0.7,0.5,0.9l0.1,0l0.1,0c3.4-0.1,5.1-0.2,7.1-0.2
		C562,37.9,563.7,38,566.7,38.1z"/>
	<path fill="#FFFFFF" d="M606.4,38.1L606.4,38.1c0.3-0.2,0.5-0.4,0.5-0.8c0.1-0.3,0-0.8-0.3-1.1l-0.1-0.1l-2.1-0.2
		c-2.4-0.2-2.7-0.6-2.7-6.1v-2.7c0-3.8,0.1-4.3,2.3-8.1l3.2-5.6c0.3-0.5,0.6-1,0.9-1.5c2-3.5,3.4-6,5.6-6.3l1.5-0.3l0.1-0.1
		c0.3-0.2,0.4-0.6,0.4-0.9c0-0.4-0.2-0.7-0.5-0.9l-0.1-0.1l-0.1,0c-3.6,0.2-5.8,0.2-9.6,0l-0.1,0l-0.1,0c-0.3,0.1-0.5,0.4-0.5,0.8
		c-0.1,0.4,0.1,0.8,0.3,1.1l0.1,0.1l1,0.1c1.1,0.1,1.8,0.4,1.8,0.5c0,0.5-1.9,4-3,6.1l-0.2,0.4c-1.5,3-3.2,6-4.5,8.1
		c-1.4-2.5-2.7-5.2-4-7.8c-0.5-1-1-2-1.5-3c-0.4-0.7-1.5-3.4-1.5-3.8c0-0.2,0.6-0.4,1.8-0.6l0.8-0.1l0.1-0.1
		c0.3-0.3,0.4-0.8,0.3-1.2c-0.1-0.3-0.3-0.6-0.6-0.7l-0.1,0l-0.1,0c-1.3,0.1-3.1,0.2-5.4,0.2c-2.4,0-4.2,0-5.9-0.2l-0.1,0l-0.1,0.1
		c-0.2,0.1-0.4,0.4-0.5,0.7c-0.1,0.4,0,0.8,0.3,1.1l0.1,0.1l1.6,0.3c1.4,0.2,2,0.3,3.8,3.7l6,11.7c1.4,2.8,1.6,3.4,1.6,6.2v2.6
		c0,5.5-0.2,5.9-2.7,6.1l-1.7,0.2l-0.1,0.1c-0.3,0.3-0.3,0.7-0.3,1.1c0.1,0.4,0.2,0.6,0.5,0.8l0.1,0l0.1,0c2.6-0.1,4.5-0.2,6.7-0.2
		C601.4,37.9,603,38,606.4,38.1L606.4,38.1z"/>
	<path fill="#FFFFFF" d="M659.5,2.8C649,2.8,641,10.7,641,21.1c0,8.8,6.4,17.6,18.5,17.6c10.3,0,18-7.8,18-18.1
		C677.6,12,671.9,2.8,659.5,2.8z M660.2,36.5c-10.6,0-13.4-10.7-13.4-17c0-10.7,6.4-14.4,11.8-14.4c9.7,0,13.1,9.2,13.1,17.1
		C671.8,32.7,665.5,36.5,660.2,36.5z"/>
	<path fill="#FFFFFF" d="M711.5,3.8V3.3L711,3.4c-0.6,0.1-3.8,0.1-6.8,0.1h-9.4c-1.9,0-3.6,0-5.9-0.2l-0.1,0l-0.1,0
		c-0.3,0.2-0.5,0.6-0.5,1c0,0.4,0.1,0.8,0.3,0.9l1,0.2c2.6,0.3,2.8,0.7,2.8,6.1v18.4c0,5.4-0.1,5.7-2.8,6l-1.4,0.2l-0.1,0.1
		c-0.3,0.3-0.3,0.7-0.3,1.1c0.1,0.4,0.2,0.6,0.5,0.8l0.1,0l0.1,0c2.3-0.1,4-0.2,6.4-0.2c2,0,3.6,0,6.8,0.2l0.1,0l0.1,0
		c0.3-0.2,0.5-0.6,0.5-1c0-0.4-0.1-0.8-0.3-0.9L700,36c-2.6-0.2-2.8-0.6-2.8-6v-7.1c0-1,0-1,1.3-1h3.5c1.8,0,3.1,0,3.8,0.2
		c0.8,0.2,1.2,0.8,1.4,1.7l0.5,2.1l0.1,0.1c0.2,0.2,0.6,0.3,0.9,0.3c0.4,0,0.7-0.1,0.9-0.4l0.1-0.1v-0.1c0-0.5,0-1.2-0.1-2
		c-0.1-0.9-0.1-2-0.1-3c0-1,0.1-2.1,0.1-3.1c0-0.8,0.1-1.5,0.1-2.1v-0.1l-0.1-0.1c-0.2-0.3-0.7-0.4-0.9-0.4c-0.4,0-0.8,0.1-1,0.4
		l-0.5,2.2c-0.3,1.3-0.6,1.4-1,1.5c-0.5,0.2-2.1,0.3-4.2,0.3h-3.5c-1.3,0-1.3,0-1.3-1V7.6c0-1.7,0-1.7,1.2-1.7h3.1
		c2.1,0,3.8,0.1,4.9,0.3c2.2,0.6,2.9,2.1,3.3,4.6l0,0.1l0.1,0.1c0.2,0.2,0.5,0.3,0.7,0.3c0.4,0,0.8-0.2,1-0.5l0-0.1l0-0.1
		C711.5,8.6,711.5,6.3,711.5,3.8z"/>
	<path fill="#FFFFFF" d="M145.9,86c-0.3,0-0.5,0.1-0.7,0.2l-0.1,0.1l0,0.1c-1,2.6-3.7,7.1-10.3,7.1c-8.8,0-14.8-6.5-14.8-16.3
		c0-11.2,7.3-15.2,14.1-15.2c5.7,0,9.1,2.4,10.1,7.2l0,0.1l0.1,0.1c0.5,0.4,1.5,0.3,1.9-0.2l0.1-0.1l0-0.1c-0.4-3-0.7-6.2-0.7-7.5
		l0-0.4l-0.4,0c-0.4,0-0.7,0-1.2-0.2l-0.1,0c-2.5-0.7-6.5-1.2-9.1-1.2c-5.5,0-10.3,1.5-14,4.4c-4.2,3.2-6.6,8.3-6.6,13.8
		c0,6,2.6,11,7.4,14.3c3.5,2.3,7.7,3.5,12.9,3.5c3.3,0,7-0.8,8.2-1.2c0.5-0.2,1.1-0.4,1.7-0.5l0.1,0l0.1-0.1
		c0.9-1.1,2.2-4.5,2.5-7.2l0-0.1l-0.1-0.1C146.7,86.2,146.2,86,145.9,86z"/>
	<path fill="#FFFFFF" d="M193.4,93.2L192,93c-2.6-0.3-2.8-0.6-2.8-6V68.6c0-5.5,0.2-5.8,2.7-6.1l1.1-0.1l0.2-0.1
		c0.2-0.2,0.4-0.5,0.3-0.9c0-0.4-0.2-0.8-0.5-1l-0.1,0l-0.1,0c-2.5,0.1-4.2,0.2-6,0.2c-2.2,0-4-0.1-6.2-0.2l-0.1,0l-0.1,0
		c-0.3,0.2-0.5,0.6-0.5,1c0,0.4,0.1,0.8,0.3,0.9l1.1,0.2c2.6,0.3,2.8,0.6,2.8,6.1v5.9c0,1.3,0,1.3-2.2,1.3h-14.6
		c-2.2,0-2.2,0-2.2-1.3v-5.9c0-5.5,0.2-5.8,2.7-6.1l1-0.1l0.2-0.1c0.2-0.2,0.4-0.5,0.3-0.9c0-0.4-0.2-0.8-0.5-1l-0.1,0l-0.1,0
		c-2.3,0.1-4,0.2-5.9,0.2c-1.3,0-2.5,0-3.7-0.1c-0.8,0-1.7-0.1-2.7-0.1l-0.1,0l-0.1,0c-0.3,0.2-0.5,0.6-0.5,1c0,0.4,0.1,0.8,0.3,0.9
		l0.1,0.1l1.4,0.1c2.3,0.2,2.7,0.6,2.7,6.1v18.4c0,5.3-0.1,5.6-2.7,6l-1,0.2l-0.1,0.1c-0.3,0.3-0.3,0.7-0.3,1.1
		c0.1,0.4,0.2,0.6,0.5,0.8l0.1,0l0.1,0c0.7,0,1.3,0,2-0.1c1.2,0,2.5-0.1,3.9-0.1c2,0,3.7,0.1,6.5,0.2l0.1,0l0.1,0
		c0.3-0.2,0.5-0.6,0.5-1c0-0.4-0.1-0.8-0.3-0.9l-1.6-0.2c-2.5-0.3-2.8-0.5-2.8-6v-7.2c0-1.3,0-1.3,2.2-1.3h14.6c2.2,0,2.2,0,2.2,1.3
		v7.2l0,0.5c-0.1,4.8-0.1,5.1-2.8,5.5l-1.1,0.2l-0.1,0.1c-0.3,0.3-0.3,0.7-0.3,1.1c0.1,0.4,0.2,0.6,0.5,0.8l0.1,0l0.1,0
		c2.4-0.1,4.2-0.2,6.2-0.2c2.1,0,3.9,0.1,6.2,0.2l0.1,0l0.1,0c0.3-0.2,0.5-0.6,0.5-1C193.7,93.7,193.6,93.3,193.4,93.2z"/>
	<path fill="#FFFFFF" d="M215.9,62.5l1.4-0.1l0.1-0.1c0.2-0.2,0.4-0.5,0.3-0.9c0-0.4-0.2-0.8-0.5-1l-0.1,0l-0.1,0
		c-2.4,0.1-4.2,0.2-6.3,0.2c-2.2,0-3.9-0.1-6.4-0.2l-0.1,0l-0.1,0c-0.3,0.2-0.5,0.6-0.5,1c0,0.4,0.1,0.8,0.3,0.9l0.1,0.1l1.4,0.1
		c2.6,0.2,2.8,0.6,2.8,6.2v18.2c0,5.5-0.2,5.8-2.8,6.1l-1.4,0.2l-0.1,0.1c-0.3,0.3-0.3,0.7-0.3,1.1c0.1,0.4,0.2,0.6,0.5,0.8l0.1,0
		l0.1,0c2.5-0.1,4.2-0.2,6.4-0.2c2.1,0,3.9,0.1,6.3,0.2l0.1,0l0.1,0c0.3-0.2,0.5-0.6,0.5-1c0-0.4-0.1-0.8-0.3-0.9l-1.4-0.2
		c-2.6-0.3-2.8-0.7-2.8-6.1V68.7C213.1,63.1,213.3,62.7,215.9,62.5z"/>
	<path fill="#FFFFFF" d="M258.6,86c-0.3,0-0.5,0.1-0.7,0.2l-0.1,0.1l0,0.1c-1,2.6-3.7,7.1-10.3,7.1c-8.8,0-14.8-6.5-14.8-16.3
		c0-11.2,7.3-15.2,14.1-15.2c5.7,0,9.1,2.4,10.1,7.2l0,0.1l0.1,0.1c0.5,0.4,1.5,0.3,1.9-0.2l0.1-0.1l0-0.1c-0.4-3-0.7-6.2-0.7-7.5
		l0-0.4l-0.4,0c-0.4,0-0.7,0-1.2-0.2l-0.1,0c-2.5-0.7-6.5-1.2-9.1-1.2c-5.5,0-10.3,1.5-14,4.4c-4.2,3.2-6.6,8.3-6.6,13.8
		c0,6,2.6,11,7.4,14.3c3.5,2.3,7.7,3.5,12.9,3.5c3.3,0,7-0.8,8.2-1.2c0.5-0.2,1.1-0.4,1.7-0.5l0.1,0l0.1-0.1
		c0.8-1.1,2.2-4.5,2.5-7.2l0-0.1l-0.1-0.1C259.5,86.2,259,86,258.6,86z"/>
	<path fill="#FFFFFF" d="M300.7,93.1l-1.5-0.2c-1.9-0.2-2.5-0.7-4-5.2l-7.3-21.3c-0.7-2-1.4-4-2-6c-0.1-0.4-0.5-0.7-1.1-0.7h-0.2
		l-0.1,0.1c-0.6,0.7-1.4,1.5-2.5,1.8l-0.3,0.1l0.1,0.3c0.1,0.7-0.2,1.6-0.9,3.4l-5.2,13.8c-1.5,3.9-2.6,6.8-3.5,8.9
		c-0.4,1-0.7,1.8-1,2.5c-0.7,1.9-1.9,2.2-2.8,2.3l-1.8,0.2l-0.1,0.1c-0.2,0.2-0.3,0.5-0.3,0.9c0,0.3,0.1,0.8,0.4,0.9l0.1,0.1l1.2,0
		c1.2-0.1,2.5-0.1,3.8-0.1l1.7,0c1.5,0,2.6,0,3.6,0.1l0.1,0l0.1,0c0.3-0.1,0.5-0.5,0.6-0.8c0-0.4-0.1-0.8-0.4-1l-0.1-0.1l-1.8-0.2
		c-1.2-0.1-1.2-0.3-1.2-0.7c0-0.4,0.2-1.4,1.1-4.1l1.8-5.4c0.3-0.9,0.4-1,1.6-1h7.7c1.4,0,1.5,0.1,1.8,1l2.2,6.9
		c0.3,0.9,0.6,2,0.6,2.6c0,0.2-0.5,0.5-1.5,0.6l-1.6,0.2l-0.1,0.1c-0.3,0.2-0.4,0.6-0.4,1c0,0.4,0.2,0.7,0.5,0.9l0.1,0l1.1,0
		c1.3-0.1,2.9-0.1,4.8-0.1c2.2,0,3.9,0,6.2,0.2l0.1,0l0.1-0.1c0.3-0.2,0.4-0.7,0.4-1C301.1,93.7,301,93.4,300.7,93.1L300.7,93.1z
		 M287,79c0,0-0.2,0.1-1,0.1h-6.3c-0.3,0-0.9,0-0.9,0c0-0.1,0.1-0.5,0.2-0.7l3.2-8.9c0.4-1,0.7-1.9,0.9-2.4c0.3,0.7,0.6,1.7,0.9,2.6
		l2.8,8.3C287,78.6,287.1,78.9,287,79z"/>
	<path fill="#FFFFFF" d="M342,80.6L342,80.6l-0.2,0c-1.7,0.1-3.4,0.2-5.4,0.2c-3.2,0-5.9-0.1-7.3-0.2l-0.1,0l-0.1,0
		c-0.4,0.2-0.5,0.6-0.5,0.9c0,0.5,0.2,0.8,0.5,1l2.4,0.3c2.9,0.3,3,0.5,3,4.6v2c0,2-0.4,2.6-0.5,2.7c-0.4,0.7-2,1.4-5.3,1.4
		c-9.2,0-14.9-6.6-14.9-17.1c0-6.9,3.6-14.3,13.9-14.3c5.7,0,8.9,2.2,10.1,7l0,0.1l0.1,0.1c0.2,0.2,0.5,0.3,0.9,0.3
		c0.4,0,0.9-0.2,1.1-0.6l0-0.1l0-0.1c-0.5-3.4-0.8-5.8-0.8-7.3v-0.4l-0.4,0.1c-0.5,0.1-1.9-0.2-2.8-0.4l-0.2-0.1
		c-0.8-0.2-3.5-0.8-6.6-0.8c-7.1,0-12.5,2-16.4,6.1c-3,3.2-4.7,7.6-4.7,12.3c0,4.6,1.7,8.7,4.8,11.8c3.7,3.8,9.2,5.8,15.8,5.8
		c3.1,0,6.9-0.7,9.2-1.3c0.7-0.2,1.8-0.4,2.4-0.4h0.1l0.1-0.1c0.2-0.1,0.3-0.3,0.3-0.6c0-0.2-0.1-0.4-0.2-0.6l-0.1-0.1
		c-0.7-0.3-1-1.3-1-3.3v-2.9c0-2.6,0.1-3.7,1.9-3.9l0.9-0.1l0.1-0.1c0.3-0.2,0.4-0.6,0.4-1C342.4,81,342.3,80.7,342,80.6z"/>
	<path fill="#FFFFFF" d="M371.1,59.8c-10.5,0-18.5,7.9-18.5,18.4c0,8.8,6.4,17.6,18.5,17.6c10.3,0,18-7.8,18-18.1
		C389.1,69,383.5,59.8,371.1,59.8z M371.7,93.5c-10.6,0-13.4-10.7-13.4-17c0-10.7,6.4-14.4,11.8-14.4c9.7,0,13.1,9.2,13.1,17.1
		C383.3,89.7,377.1,93.5,371.7,93.5z"/>
	<g>
		<path fill="#FFFFFF" d="M434.6,76c-0.4-0.1-0.5-0.1-0.6-0.2c2.6-1.2,5.1-3.1,5.1-7.2c0-3-1.4-5.4-4.1-6.7c-2.5-1.3-6-1.5-8.7-1.5
			c-4.4,0-8,0.1-11,0.4l-0.1,0c-0.3,0.1-0.5,0.5-0.5,0.8c0,0.4,0.1,0.8,0.4,1l0.1,0.1l1.7,0.2c1.9,0.2,2.2,0.7,2.2,4.6v19.4
			c0,5.4-0.1,5.7-2.5,6l-1,0.2l-0.1,0.1c-0.3,0.3-0.3,0.7-0.3,1.1c0.1,0.4,0.2,0.6,0.5,0.8l0.1,0l0.1,0c0.6,0,1.2,0,1.8-0.1
			c1.3,0,2.5-0.1,4.1-0.1c1.2,0,2.5,0,3.6,0.1c1,0,1.9,0.1,2.5,0.1c8.8,0,13.9-3.7,13.9-10.2C441.7,78.9,437,76.5,434.6,76z
			 M428.7,92.8c-1.9,0-3-0.4-3.8-1.3c-0.9-1-1-3.5-1-5.3v-7.5c0-0.7,0-1,2.6-1c8.5,0,9.8,5.2,9.8,8.4
			C436.3,91.9,431.5,92.8,428.7,92.8z M426.2,75.4c-0.4,0-0.8,0-1.1,0c-1.2,0-1.2,0-1.2-1.1V64c0-0.9,0.2-0.9,0.5-1
			c0.4-0.2,1.2-0.3,2.2-0.3c1.7,0,7.2,0.5,7.2,6.5C433.9,73.5,431.7,75.2,426.2,75.4z"/>
		<path fill="#FFFFFF" d="M464.2,62.5l1.4-0.1l0.1-0.1c0.2-0.2,0.4-0.5,0.3-0.9c0-0.4-0.2-0.8-0.5-1l-0.1,0l-0.1,0
			c-2.4,0.1-4.2,0.2-6.3,0.2c-2.2,0-3.9-0.1-6.4-0.2l-0.1,0l-0.1,0c-0.3,0.2-0.5,0.6-0.5,1c0,0.4,0.1,0.8,0.3,0.9l0.1,0.1l1.4,0.1
			c2.6,0.2,2.8,0.6,2.8,6.2v18.2c0,5.5-0.2,5.8-2.8,6.1l-1.4,0.2l-0.1,0.1c-0.3,0.3-0.3,0.7-0.3,1.1c0.1,0.4,0.2,0.6,0.5,0.8l0.1,0
			l0.1,0c2.5-0.1,4.2-0.2,6.4-0.2c2.1,0,3.9,0.1,6.3,0.2l0.1,0l0.1,0c0.3-0.2,0.5-0.6,0.5-1c0-0.4-0.1-0.8-0.3-0.9l-1.4-0.2
			c-2.6-0.3-2.8-0.7-2.8-6.1V68.7C461.4,63.1,461.6,62.7,464.2,62.5z"/>
		<path fill="#FFFFFF" d="M494.7,59.8c-10.5,0-18.5,7.9-18.5,18.4c0,8.8,6.4,17.6,18.5,17.6c10.3,0,18-7.8,18-18.1
			C512.8,69,507.1,59.8,494.7,59.8z M495.4,93.5c-10.6,0-13.4-10.7-13.4-17c0-10.7,6.4-14.4,11.8-14.4c9.7,0,13.1,9.2,13.1,17.1
			C507,89.7,500.7,93.5,495.4,93.5z"/>
		<path fill="#FFFFFF" d="M548.8,86.8c-0.2,0-0.5,0-0.7,0.2l-0.1,0.1c-1.1,2.8-2.4,4.4-3.2,4.9c-0.8,0.4-1.8,0.6-6.1,0.6
			c-3.7,0-4.8-0.5-5.3-1.1c-0.8-0.9-1-2.1-1-5.3V68.6c0-5.5,0.2-5.9,2.8-6.1l1.3-0.1l0.1-0.1c0.2-0.2,0.4-0.5,0.3-0.9
			c0-0.4-0.2-0.8-0.5-1l-0.1,0l-0.1,0c-2.4,0.1-4.2,0.2-6.3,0.2c-2,0-3.7,0-6.6-0.2l-0.1,0l-0.1,0c-0.3,0.2-0.5,0.6-0.5,1
			c0,0.4,0.1,0.8,0.3,0.9l0.1,0.1l1.4,0.1c2.9,0.2,3,0.7,3,6.1v18.4c0,5.4-0.2,5.8-2.7,6l-1.7,0.2l-0.1,0.1
			c-0.3,0.3-0.3,0.7-0.3,1.1c0.1,0.4,0.2,0.6,0.5,0.8l0.1,0l0.1,0c2.9-0.1,4.5-0.2,6.6-0.2h4.7c5.6,0,10.2,0.1,12.7,0.2l0.2,0
			l0.1-0.2c0.7-1.3,2.2-6.6,2.2-7.3C550,87.1,549.3,86.8,548.8,86.8z"/>
		<path fill="#FFFFFF" d="M576.1,59.8c-10.5,0-18.5,7.9-18.5,18.4c0,8.8,6.4,17.6,18.5,17.6c10.3,0,18-7.8,18-18.1
			C594.2,69,588.5,59.8,576.1,59.8z M576.8,93.5c-10.6,0-13.4-10.7-13.4-17c0-10.7,6.4-14.4,11.8-14.4c9.7,0,13.1,9.2,13.1,17.1
			C588.4,89.7,582.1,93.5,576.8,93.5z"/>
		<path fill="#FFFFFF" d="M639,80.6L639,80.6l-0.2,0c-1.7,0.1-3.4,0.2-5.4,0.2c-3.2,0-5.9-0.1-7.3-0.2l-0.1,0l-0.1,0
			c-0.4,0.2-0.5,0.6-0.5,0.9c0,0.5,0.2,0.8,0.5,1l2.4,0.3c2.9,0.3,3,0.5,3,4.6v2c0,2-0.4,2.6-0.5,2.7c-0.4,0.7-2,1.4-5.3,1.4
			c-9.2,0-14.9-6.6-14.9-17.1c0-6.9,3.6-14.3,13.9-14.3c5.7,0,8.9,2.2,10.1,7l0,0.1l0.1,0.1c0.2,0.2,0.5,0.3,0.9,0.3
			c0.4,0,0.9-0.2,1.1-0.6l0-0.1l0-0.1c-0.5-3.4-0.8-5.8-0.8-7.3v-0.4l-0.4,0.1c-0.5,0.1-1.9-0.2-2.8-0.4l-0.2-0.1
			c-0.8-0.2-3.5-0.8-6.6-0.8c-7.1,0-12.5,2-16.4,6.1c-3,3.2-4.7,7.6-4.7,12.3c0,4.6,1.7,8.7,4.8,11.8c3.7,3.8,9.2,5.8,15.8,5.8
			c3.1,0,6.9-0.7,9.2-1.3c0.7-0.2,1.8-0.4,2.4-0.4h0.1l0.1-0.1c0.2-0.1,0.3-0.3,0.3-0.6c0-0.2-0.1-0.4-0.2-0.6l-0.1-0.1
			c-0.7-0.3-1-1.3-1-3.3v-2.9c0-2.6,0.1-3.7,1.9-3.9l0.9-0.1l0.1-0.1c0.3-0.2,0.4-0.6,0.4-1C639.4,81,639.2,80.7,639,80.6z"/>
		<path fill="#FFFFFF" d="M661.4,62.5l1.4-0.1l0.1-0.1c0.2-0.2,0.4-0.5,0.3-0.9c0-0.4-0.2-0.8-0.5-1l-0.1,0l-0.1,0
			c-2.5,0.1-4.2,0.2-6.3,0.2c-2.2,0-3.9-0.1-6.4-0.2l-0.1,0l-0.1,0c-0.3,0.2-0.5,0.6-0.5,1c0,0.4,0.1,0.8,0.3,0.9l0.1,0.1l1.4,0.1
			c2.6,0.2,2.8,0.6,2.8,6.2v18.2c0,5.5-0.2,5.8-2.8,6.1l-1.4,0.2l-0.1,0.1c-0.3,0.3-0.3,0.7-0.3,1.1c0.1,0.4,0.2,0.6,0.5,0.8l0.1,0
			l0.1,0c2.5-0.1,4.2-0.2,6.4-0.2c2.1,0,3.8,0.1,6.3,0.2l0.1,0l0.1,0c0.3-0.2,0.5-0.6,0.5-1c0-0.4-0.1-0.8-0.3-0.9l-1.4-0.2
			c-2.6-0.3-2.8-0.7-2.8-6.1V68.7C658.6,63.1,658.8,62.7,661.4,62.5z"/>
		<path fill="#FFFFFF" d="M705.1,86c-0.3,0-0.5,0.1-0.7,0.2l-0.1,0.1l0,0.1c-1,2.6-3.7,7.1-10.3,7.1c-8.8,0-14.8-6.5-14.8-16.3
			c0-11.2,7.3-15.2,14.1-15.2c5.7,0,9.1,2.4,10.1,7.2l0,0.1l0.1,0.1c0.5,0.4,1.5,0.3,1.9-0.2l0.1-0.1l0-0.1c-0.4-3-0.7-6.2-0.7-7.5
			l0-0.4l-0.4,0c-0.4,0-0.7,0-1.2-0.2l-0.1,0c-2.5-0.7-6.5-1.2-9.1-1.2c-5.5,0-10.3,1.5-14,4.4c-4.2,3.2-6.6,8.3-6.6,13.8
			c0,6,2.6,11,7.4,14.3c3.5,2.3,7.7,3.5,12.9,3.5c3.3,0,7-0.8,8.2-1.2c0.5-0.2,1.1-0.4,1.7-0.5l0.1,0l0.1-0.1
			c0.9-1.1,2.2-4.5,2.5-7.2l0-0.1l-0.1-0.1C706,86.2,705.4,86,705.1,86z"/>
		<path fill="#FFFFFF" d="M746.2,93.1l-1.5-0.2c-1.9-0.2-2.5-0.7-4-5.2l-7.3-21.3c-0.7-2-1.4-4-2-6c-0.1-0.4-0.5-0.7-1.1-0.7h-0.2
			l-0.1,0.1c-0.6,0.7-1.4,1.5-2.5,1.8l-0.3,0.1l0.1,0.3c0.1,0.7-0.2,1.6-0.8,3.4l-5.2,13.8c-1.5,3.9-2.6,6.8-3.5,8.9
			c-0.4,1-0.7,1.8-1,2.5c-0.7,1.9-1.9,2.2-2.8,2.3l-1.8,0.2l-0.1,0.1c-0.2,0.2-0.3,0.5-0.3,0.9c0,0.3,0.1,0.7,0.4,0.9l0.1,0.1l1.2,0
			c1.2-0.1,2.5-0.1,3.8-0.1l1.7,0c1.5,0,2.6,0,3.6,0.1l0.1,0l0.1,0c0.3-0.1,0.5-0.5,0.6-0.8c0-0.4-0.1-0.8-0.4-1l-0.1-0.1l-1.8-0.2
			c-1.2-0.1-1.2-0.3-1.2-0.7c0-0.4,0.2-1.4,1.1-4.1l1.8-5.4c0.3-0.9,0.4-1,1.6-1h7.7c1.4,0,1.5,0.1,1.8,1l2.2,6.9
			c0.3,1,0.6,2,0.6,2.6c0,0.2-0.5,0.5-1.5,0.6l-1.6,0.2l-0.1,0.1c-0.3,0.2-0.4,0.6-0.4,1c0,0.4,0.2,0.7,0.5,0.9l0.1,0l1.1,0
			c1.3-0.1,2.9-0.1,4.8-0.1c2.2,0,3.9,0,6.2,0.2l0.1,0l0.1-0.1c0.3-0.2,0.4-0.7,0.4-1C746.6,93.7,746.5,93.4,746.2,93.1L746.2,93.1z
			 M732.5,79c0,0-0.2,0.1-1,0.1h-6.3c-0.3,0-0.9,0-0.9,0c0-0.1,0.1-0.5,0.2-0.7l3.2-8.9c0.4-1,0.7-1.9,0.9-2.4
			c0.3,0.7,0.6,1.7,0.9,2.6l2.8,8.3C732.5,78.6,732.6,78.9,732.5,79z"/>
		<path fill="#FFFFFF" d="M779.3,86.8c-0.2,0-0.5,0-0.7,0.2l-0.1,0.1c-1.1,2.8-2.4,4.4-3.2,4.9c-0.8,0.4-1.8,0.6-6,0.6
			c-3.7,0-4.8-0.5-5.3-1.1c-0.8-0.9-1-2.1-1-5.3V68.6c0-5.5,0.2-5.9,2.8-6.1l1.3-0.1l0.1-0.1c0.2-0.2,0.4-0.5,0.3-0.9
			c0-0.4-0.2-0.8-0.5-1l-0.1,0l-0.1,0c-2.4,0.1-4.2,0.2-6.3,0.2c-2,0-3.7,0-6.6-0.2l-0.1,0l-0.1,0c-0.3,0.2-0.5,0.6-0.5,1
			c0,0.4,0.1,0.8,0.3,0.9l0.1,0.1l1.4,0.1c2.9,0.2,3,0.7,3,6.1v18.4c0,5.4-0.2,5.8-2.7,6l-1.7,0.2l-0.1,0.1
			c-0.3,0.3-0.3,0.7-0.3,1.1c0.1,0.4,0.2,0.6,0.5,0.8l0.1,0l0.1,0c2.9-0.1,4.5-0.2,6.6-0.2h4.7c5.6,0,10.2,0.1,12.7,0.2l0.2,0
			l0.1-0.2c0.7-1.3,2.2-6.6,2.2-7.3C780.5,87.1,779.8,86.8,779.3,86.8z"/>
		<path fill="#FFFFFF" d="M820.2,75.9l-4.1-2.5c-2.8-1.8-4.2-3.8-4.2-6c0-2,0.7-5.3,5.7-5.3c4.5,0,5.9,2.9,6.6,5.5l0.1,0.1
			c0.2,0.2,0.4,0.3,0.7,0.3c0.4,0,0.9-0.1,1.1-0.5l0.1-0.1v-0.1c0-2-0.4-5-0.9-6.3l-0.1-0.2H825c-0.4,0-1.1-0.2-1.7-0.3
			c-1.4-0.4-3.2-0.7-4.8-0.7c-6.4,0-10.8,3.7-10.8,9.1c0,4.4,3.1,7.4,5.7,9.1l4.8,3.2c3.5,2.3,4,4.6,4,6.8c0,2.7-1.9,5.5-6,5.5
			c-5.2,0-7.5-4-8.4-7.3l0-0.1c-0.1-0.2-0.4-0.3-0.7-0.3c-0.4,0-0.8,0.1-1.1,0.5l-0.1,0.1l0,0.1c0.1,2.3,0.8,6.1,1.4,7.3l0,0.1
			l0.1,0c1,0.6,3.8,1.9,8.1,1.9c6.7,0,11.2-3.9,11.2-9.8C826.8,81.9,824.6,78.6,820.2,75.9z"/>
		<path fill="#FFFFFF" d="M869.4,86c-0.3,0-0.5,0.1-0.7,0.2l-0.1,0.1l0,0.1c-1,2.6-3.7,7.1-10.3,7.1c-8.8,0-14.8-6.5-14.8-16.3
			c0-11.2,7.3-15.2,14.1-15.2c5.7,0,9.1,2.4,10.1,7.2l0,0.1l0.1,0.1c0.5,0.4,1.5,0.3,1.9-0.2l0.1-0.1l0-0.1c-0.4-3-0.7-6.2-0.7-7.5
			l0-0.4l-0.4,0c-0.4,0-0.7,0-1.2-0.2l-0.1,0c-2.5-0.7-6.5-1.2-9.1-1.2c-5.5,0-10.3,1.5-14,4.4c-4.2,3.2-6.6,8.3-6.6,13.8
			c0,6,2.6,11,7.4,14.3c3.5,2.3,7.7,3.5,12.9,3.5c3.3,0,7-0.8,8.2-1.2c0.5-0.2,1.1-0.4,1.7-0.5l0.1,0l0.1-0.1
			c0.9-1.1,2.2-4.5,2.5-7.2l0-0.1l-0.1-0.1C870.3,86.2,869.8,86,869.4,86z"/>
		<path fill="#FFFFFF" d="M891.7,62.5l1.4-0.1l0.1-0.1c0.2-0.2,0.4-0.5,0.3-0.9c0-0.4-0.2-0.8-0.5-1l-0.1,0l-0.1,0
			c-2.5,0.1-4.2,0.2-6.3,0.2c-2.2,0-3.9-0.1-6.4-0.2l-0.1,0l-0.1,0c-0.3,0.2-0.5,0.6-0.5,1c0,0.4,0.1,0.8,0.3,0.9l0.1,0.1l1.4,0.1
			c2.6,0.2,2.8,0.6,2.8,6.2v18.2c0,5.5-0.2,5.8-2.8,6.1l-1.4,0.2l-0.1,0.1c-0.3,0.3-0.3,0.7-0.3,1.1c0.1,0.4,0.2,0.6,0.5,0.8l0.1,0
			l0.1,0c2.5-0.1,4.2-0.2,6.4-0.2c2.1,0,3.8,0.1,6.3,0.2l0.1,0l0.1,0c0.3-0.2,0.5-0.6,0.5-1c0-0.4-0.1-0.8-0.3-0.9l-1.4-0.2
			c-2.6-0.3-2.8-0.7-2.8-6.1V68.7C888.9,63.1,889.1,62.7,891.7,62.5z"/>
		<path fill="#FFFFFF" d="M930.1,86.8c-0.2,0-0.5,0.1-0.6,0.2l-0.1,0.1c-1.5,2.9-2.8,4.4-3.5,4.8c-1.1,0.6-2.7,0.7-6.4,0.7
			c-4.3,0-5.4-0.5-5.9-1.1c-0.7-0.8-0.9-2.4-0.9-5.1v-7.2c0-1,0-1,1.3-1h3c1.8,0,3.1,0,3.8,0.2c0.8,0.2,1.1,0.8,1.3,1.7l0.5,2
			l0.1,0.1c0.2,0.2,0.5,0.3,0.9,0.3c0.5,0,0.8-0.2,1-0.5l0-0.1v-0.1c0-0.5,0-1.2-0.1-1.9c-0.1-0.9-0.1-2-0.1-3
			c0-1.1,0.1-2.2,0.1-3.1c0-0.8,0.1-1.5,0.1-2V72l0-0.1c-0.2-0.3-0.5-0.5-1-0.5c-0.4,0-0.7,0.1-0.9,0.3l-0.5,2.2
			c-0.2,1.2-0.5,1.4-1,1.5c-0.5,0.2-2.1,0.3-4.2,0.3h-3c-1.3,0-1.3,0-1.3-1.1V64.6c0-1.7,0-1.7,1.2-1.7h3.7c2.2,0,3.8,0,4.9,0.3
			c2.4,0.6,2.8,2.1,3.5,4.3l0.1,0.3l0.1,0.1c0.2,0.2,0.5,0.3,0.8,0.3c0.3,0,0.8-0.1,1-0.4l0.1-0.1l-0.1-0.8
			c-0.3-2.9-0.5-5.4-0.8-6.2l-0.1-0.3l-0.3,0.1c-0.6,0.1-3.7,0.1-6.8,0.1h-9.6c-2,0-3.6,0-6-0.2l-0.1,0l-0.1,0
			c-0.3,0.2-0.5,0.6-0.5,1c0,0.4,0.1,0.8,0.3,0.9l1,0.2c2.6,0.3,2.8,0.7,2.8,6.1v18.4c0,5.5-0.3,5.8-2.8,6l-1.8,0.2l-0.1,0.1
			c-0.3,0.3-0.3,0.7-0.3,1.1c0.1,0.4,0.2,0.6,0.5,0.8l0.1,0l0.1,0c2.8-0.1,4.7-0.2,6.9-0.2h4.6c4.5,0,9.1,0.1,13.7,0.2l0.2,0
			l0.1-0.2c0.7-1.4,2-5.4,2.3-7.2l0-0.1l0-0.1C931.1,87,930.6,86.8,930.1,86.8z"/>
		<path fill="#FFFFFF" d="M976.5,60.5L976.5,60.5l-0.2-0.1c-1.7,0.1-3,0.2-5.2,0.2c-1.8,0-3.5,0-6-0.2l-0.1,0l-0.1,0
			c-0.3,0.1-0.5,0.4-0.5,0.7c-0.1,0.4,0.1,0.9,0.3,1.1l0.1,0.1l1,0.1c1.8,0.2,2.7,0.5,2.9,0.9c0.4,0.6,1,2.7,1,10.4v10.9
			c0,0.5,0,1.2,0,1.6c-2.2-2.3-4.7-5-8.1-8.9l-4.9-5.6l-0.7-0.8c-2.1-2.4-7-8-7.9-10.3l-0.1-0.3l-0.3,0c-0.6,0.1-1.4,0.1-2.3,0.1
			c-0.9,0-3.6,0-5.7-0.2l-0.1,0l-0.1,0c-0.3,0.1-0.4,0.4-0.5,0.7c-0.1,0.4,0.1,0.8,0.3,1.1l0.1,0.1l1,0.1c1.4,0.2,2.4,0.6,2.9,1.1
			c1,1.1,1,2,1,3.4v15.2c0,2.5,0,8.2-0.6,9.9c-0.2,0.4-0.9,0.7-2,0.8l-1.5,0.2l-0.1,0.1c-0.2,0.2-0.3,0.6-0.3,0.9
			c0,0.4,0.2,0.7,0.4,0.9l0.1,0.1l0.1,0c1.7-0.1,3.1-0.2,5.3-0.2c1.8,0,3.5,0,6,0.2l0.1,0l0.1-0.1c0.2-0.2,0.4-0.4,0.4-0.7
			c0.1-0.4,0-0.7-0.3-1l-0.1-0.1l-1.7-0.2c-1.2-0.1-2.1-0.4-2.3-0.8c-0.6-1.2-0.9-6.4-0.9-10.4V70.7c0-1,0-2,0.1-2.7
			c0.8,0.9,2.2,2.5,3.4,4c0.8,1,1.6,1.9,2.1,2.5l11.8,13.5c3.9,4.5,5.8,6.7,6.5,7.7l0.1,0.1h0.2c0.6,0,1.1-0.3,1.3-0.8l0-0.1l0-0.1
			c-0.1-0.6-0.2-2.6-0.2-8.9l0-12.9c0-2.6,0-8.1,0.7-9.7c0.1-0.1,0.7-0.6,2.6-0.9l0.8-0.1l0.1-0.1c0.2-0.2,0.4-0.6,0.3-1
			C976.9,61,976.8,60.7,976.5,60.5z"/>
		<path fill="#FFFFFF" d="M1015.4,86c-0.3,0-0.5,0.1-0.7,0.2l-0.1,0.1l0,0.1c-1,2.6-3.7,7.1-10.3,7.1c-8.8,0-14.8-6.5-14.8-16.3
			c0-11.2,7.3-15.2,14.1-15.2c5.7,0,9.1,2.4,10.1,7.2l0,0.1l0.1,0.1c0.5,0.4,1.5,0.3,1.9-0.2l0.1-0.1l0-0.1c-0.4-3-0.7-6.2-0.7-7.5
			l0-0.4l-0.4,0c-0.4,0-0.7,0-1.2-0.2l-0.1,0c-2.5-0.7-6.5-1.2-9.1-1.2c-5.5,0-10.3,1.5-14,4.4c-4.2,3.2-6.6,8.3-6.6,13.8
			c0,6,2.6,11,7.4,14.3c3.5,2.3,7.7,3.5,12.9,3.5c3.3,0,7-0.8,8.2-1.2c0.5-0.2,1.1-0.4,1.7-0.5l0.1,0l0.1-0.1
			c0.9-1.1,2.2-4.5,2.5-7.2l0-0.1l-0.1-0.1C1016.2,86.2,1015.7,86,1015.4,86z"/>
		<path fill="#FFFFFF" d="M1052.2,86.8c-0.2,0-0.5,0.1-0.6,0.2l-0.1,0.1c-1.5,2.9-2.8,4.4-3.5,4.8c-1.1,0.6-2.6,0.7-6.4,0.7
			c-4.3,0-5.4-0.5-5.9-1.1c-0.7-0.8-0.9-2.4-0.9-5.1v-7.2c0-1,0-1,1.3-1h3c1.8,0,3.1,0,3.8,0.2c0.8,0.2,1.1,0.8,1.3,1.7l0.5,2
			l0.1,0.1c0.2,0.2,0.5,0.3,0.9,0.3c0.5,0,0.8-0.2,1-0.5l0-0.1v-0.1c0-0.5,0-1.2-0.1-1.9c-0.1-0.9-0.1-2-0.1-3
			c0-1.1,0.1-2.2,0.1-3.1c0-0.8,0.1-1.5,0.1-2V72l0-0.1c-0.2-0.3-0.5-0.5-1-0.5c-0.4,0-0.7,0.1-0.9,0.3l-0.5,2.2
			c-0.2,1.2-0.5,1.4-1,1.5c-0.5,0.2-2.1,0.3-4.2,0.3h-3c-1.3,0-1.3,0-1.3-1.1V64.6c0-1.7,0-1.7,1.2-1.7h3.7c2.2,0,3.8,0,4.9,0.3
			c2.4,0.6,2.8,2.1,3.5,4.3l0.1,0.3l0.1,0.1c0.2,0.2,0.5,0.3,0.8,0.3c0.3,0,0.8-0.1,1-0.4l0.1-0.1l-0.1-0.8
			c-0.3-2.9-0.5-5.4-0.8-6.2l-0.1-0.3l-0.3,0.1c-0.6,0.1-3.7,0.1-6.8,0.1h-9.6c-2,0-3.6,0-6-0.2l-0.1,0l-0.1,0
			c-0.3,0.2-0.5,0.6-0.5,1c0,0.4,0.1,0.8,0.3,0.9l1,0.2c2.6,0.3,2.8,0.7,2.8,6.1v18.4c0,5.5-0.3,5.8-2.8,6l-1.8,0.2l-0.1,0.1
			c-0.3,0.3-0.3,0.7-0.3,1.1c0.1,0.4,0.2,0.6,0.5,0.8l0.1,0l0.1,0c2.8-0.1,4.7-0.2,6.9-0.2h4.6c4.5,0,9.1,0.1,13.7,0.2l0.2,0
			l0.1-0.2c0.7-1.4,2-5.4,2.3-7.2l0-0.1l0-0.1C1053.2,87,1052.7,86.8,1052.2,86.8z"/>
		<path fill="#FFFFFF" d="M1076.3,75.9l-4.1-2.5c-2.8-1.8-4.2-3.8-4.2-6c0-2,0.7-5.3,5.7-5.3c4.5,0,5.9,2.9,6.6,5.5l0.1,0.1
			c0.2,0.2,0.4,0.3,0.7,0.3c0.4,0,0.9-0.1,1.1-0.5l0.1-0.1v-0.1c0-2-0.4-5-0.9-6.3l-0.1-0.2h-0.2c-0.4,0-1.1-0.2-1.7-0.3
			c-1.4-0.4-3.2-0.7-4.8-0.7c-6.4,0-10.8,3.7-10.8,9.1c0,4.4,3.1,7.4,5.7,9.1l4.8,3.2c3.5,2.3,4,4.6,4,6.8c0,2.7-1.9,5.5-6,5.5
			c-5.2,0-7.5-4-8.4-7.3l0-0.1c-0.1-0.2-0.4-0.3-0.7-0.3c-0.4,0-0.8,0.1-1.1,0.5l-0.1,0.1l0,0.1c0.1,2.3,0.8,6.1,1.4,7.3l0,0.1
			l0.1,0c1,0.6,3.8,1.9,8.1,1.9c6.7,0,11.2-3.9,11.2-9.8C1082.9,81.9,1080.7,78.6,1076.3,75.9z"/>
	</g>
</g>
</svg>
