<?xml version="1.0" encoding="utf-8"?>
<!-- Generator: Adobe Illustrator 16.0.3, SVG Export Plug-In . SVG Version: 6.00 Build 0)  -->
<!DOCTYPE svg PUBLIC "-//W3C//DTD SVG 1.1//EN" "http://www.w3.org/Graphics/SVG/1.1/DTD/svg11.dtd">
<svg version="1.1" id="Layer_1" xmlns="http://www.w3.org/2000/svg" xmlns:xlink="http://www.w3.org/1999/xlink" x="0px" y="0px"
	 width="400px" height="126.006px" viewBox="0 0 400 126.006" enable-background="new 0 0 400 126.006" xml:space="preserve">
<g>
	<path fill="#FFFFFF" d="M12.041,58.486c-0.622-0.265-1.301-0.438-1.878-0.828c0.406,1.366,0.705,2.562,1.464,4.003
		C12.059,62.483,12.811,60.502,12.041,58.486 M10.152,35.54l0.047,0.047c-0.009,1.853-5.215,4.511-7.447,5.706
		c3.449,1.19,6.713-2.011,6.321-1.233c-0.468,0.908-4.677,4.54-6.514,6.48c1.429,0.397,2.742-0.755,3.777-1.639
		c1.132-0.964,3.023-3.383,2.736-2.181c-3.06,3.776-5.469,11.621-3.986,12.121c0.85-1.776,4.37-10.841,4.592-10.799
		c0.232,0.044-0.277,2.394-0.354,3.948c-0.174,3.416-0.196,5.033,0.542,8.395c0.379-0.52,0.746-0.509,1.348-0.467
		c0.074-0.325,0.053-0.242-0.326-0.741c-0.978-1.295,0.146-3.061-0.323-4.14c-0.393-0.899-0.615-0.179-0.793-1.116
		c0.276-0.249,1.003-0.325,1.302-0.373c0.32-3.508,1.494-5.292,1.057-3.079c-0.226,1.12-0.565,2.979-0.403,3.033
		c0.163,0.056,0.177,0.054,0.316,0.126c0.064,0.035,5.895-9.555,2.663-2.911c-0.424,0.875-2.147,3.222-2.147,3.222
		c0.455,0.464,0.883,1.008,0.937,1.337c0.015,0.09,7.813-10.264,2.502-1.92c-0.326,0.509-1.919,2.219-2.327,2.716
		c-0.054,0.065,0.148,1.938,0.148,1.938c0.81-0.56,1.97-1.693,2.509-2.414c-0.071-1.058,0.177-0.919,0.235-1.955
		c0.247-0.159,0.57,0.281,0.961,0.632c0.184,0.166,5.352-8.833,2.111-2.082c-0.521,1.084-1.671,2.367-1.725,2.471
		c0.218,0.234,0.542,0.975,0.914,1.836c0.014,0.033,6.912-9.95,2.721-2.406c-0.332,0.595-2.409,3.093-2.381,3.161
		c0.509,1.247,0.957,2.461,0.955,2.46c-0.125-0.973-0.325-2.89,1.695-4.472c0.262,1.732,0.727,1.802,1.329,2.333
		c0.263,0.234,0.757,1.222,0.816,0.379c0.17-2.459-0.628-2.399-1.223-3.446c-0.144-0.25-0.117-0.812-0.006-0.778
		c4.968,0.149,4.803,4.801,5.631,4.797c-0.377-1.186-0.479-2.352-0.031-3.305c-1.331-0.944-0.999-2.558-0.745-3.257
		c-1.496-1.547-0.636-4.836,0.077-5.53c-0.961-1.398,0.225-2.356-0.03-3.214c-0.405-3.039-3.113-2.134-3.721-5.025
		c-0.424,0.516-1.206,2.266-0.84,2.848c0.421,0.668,1.326,0.726,1.379,1.213c0.023,0.207,0.091,0.79-0.06,0.912
		c-0.512,0.093-0.861-0.377-1.388-0.587c-1.051-0.416-3.598,1.329-3.751-0.21c-0.097-0.97,0.333-0.272,0.285-1.169
		c-0.043-0.926-0.509-0.273-0.516-1.466c-0.004-0.873,1.051-1.148,1.126-1.5c0.188-0.867,1.764,1.278,2.687-0.998
		c-0.537,0.077-1.626-0.3-1.523-0.829c0.275-1.423,0.299-4.863-2.921-4.123c-1.154,0.266-4.373,1.96-4.818,0.12
		c-1.16,2.053,1.135,1.694,1.827,1.651c-0.273,0.19-0.62,0.499-1.474,0.315c-1.812,1.192-8.435,5.4-10.348,6.459
		C6.145,38.033,10.095,35.54,10.152,35.54 M16.368,52.545c-0.898,0.896-1.211,0.919-1.161,1.308
		c0.203,0.548,0.598,0.933,1.019,1.402c0.531,0.435,0.726,0.823,0.337-0.439C16.322,53.98,16.381,53.367,16.368,52.545
		 M30.818,32.932c-0.159-0.357-0.432-0.698-0.818-0.877c-1.608-0.766-4.691,0.89-4.659-1.522c0,0-1.103,0.819-0.599,1.678
		C25.888,34.167,29.088,31.736,30.818,32.932 M6.604,8.813c-2.694,0-2.751,4.127,0,4.127C9.313,12.94,9.313,8.813,6.604,8.813
		 M6.604,17.058c-2.813,0-2.813,4.124,0,4.124C9.329,21.182,9.313,17.058,6.604,17.058 M9.429,12.28h2.398v-2.36H9.429V12.28z
		 M9.429,20.5h2.398v-2.359H9.429V20.5z M15.971,17.923c-1.079,0.659-0.887,1.389-0.531,1.835c0.195-0.138,0.89-0.607,1.174-0.893
		C16.449,18.769,16.085,18.214,15.971,17.923 M18.463,14.272c-0.005-0.227-0.014-0.443-0.034-0.561
		c0.027-0.212-0.373-0.699-0.485-0.706c-0.128-0.002-0.399,0.242-0.554,0.484c-0.079,0.139-0.094,0.512,0.077,0.709
		C17.809,14.584,17.967,14.594,18.463,14.272 M18.471,15.436c-0.001-0.088-0.005-0.17-0.001-0.267c0-0.104,0.003-0.382,0-0.674
		c-0.336,0.208-0.47,0.367-0.816,0.163c-0.566,0.456,0.296,0.738,0.479,0.894C18.267,15.482,18.375,15.459,18.471,15.436
		 M22.854,8.82c0.188-0.138,0.642-0.654,0.934-0.937c-0.166-0.1-0.463-0.307-0.579-0.594C22.692,7.703,22.594,7.987,22.854,8.82
		 M26.684,9.318c-0.316,0.25-0.6,0.474-0.75,0.603c0.114,0.218,0.847,0.748,1.257,0.559c0.402-0.187,0.595-0.589,0.22-0.799
		C27.153,9.526,26.917,9.422,26.684,9.318 M26.995,8.677c0.191-0.153,0.366-0.294,0.427-0.345c-0.283-0.264-0.758-0.52-0.974-0.549
		c-0.213-0.022-0.644,0.163-0.476,0.383c0.161,0.213,0.33,0.477,0.682,0.527C26.771,8.708,26.884,8.696,26.995,8.677 M28.117,19.34
		c0.019-0.284,0.031-0.571,0.005-0.724C28.157,18.402,27.492,18,27.385,18c-0.138-0.003-0.138,0.075-0.296,0.328
		c-0.078,0.133-0.014,0.542,0.054,0.601C27.503,19.244,27.788,19.347,28.117,19.34 M27.244,19.4
		c-0.572,0.477,0.073,0.917,0.248,1.073c0.195-0.099,0.445-0.14,0.644-0.211c-0.026-0.077-0.064-0.149-0.064-0.242
		c0-0.083,0.015-0.272,0.031-0.481C27.72,19.576,27.548,19.603,27.244,19.4 M25.978,20.146l-0.353,0.392l-0.337,0.343
		c-0.26-0.27-0.449-0.318-0.494-0.528l-0.013-1.713l-0.535-0.278c-0.249,0.208-0.438,0.118-0.223-0.069l0.808-0.756l0.197-0.026
		l0.517,0.759l0.011,1.615C25.766,20.077,25.58,20.074,25.978,20.146 M25.801,14.913c-0.273-0.756,0.22-1.462,0.462-1.665
		c0.194-0.162,0.643-0.541,0.933-0.726c0.281,0.169,0.497,0.292,0.64,0.358c-0.051,0.139-0.113,0.414-0.411,0.428
		c-0.452,0.013-0.802-0.107-1.045,0.157c-0.242,0.258-0.052,0.999,0.25,1.28c0.225,0.218,0.847,0.495,0.963,0.241
		c0.151-0.33,0.371-0.157,0.155,0.129c-0.146,0.188-0.411,0.591-0.553,0.856C26.717,15.933,26.074,15.688,25.801,14.913
		 M26.461,20.239c-0.004-0.418,0.213-0.753,0.507-1.054c-0.021-0.02-0.033-0.025-0.056-0.043c-0.084-0.071-0.222-0.809-0.115-0.963
		c0.141-0.203,0.794-0.829,1.231-0.875c0.3-0.03,0.747,0.62,1.006,0.909c-0.073,0.083,0.091,1.878,0.091,2.048
		c0.09,0.148,0.403,0.253,0.499,0.108c0.123-0.159,0.239,0.01,0.123,0.129c-0.123,0.113-0.568,0.474-0.708,0.643
		c-0.203-0.159-0.538-0.333-0.756-0.597c-0.445,0.083-0.909,0.406-1.268,0.67C26.608,21.036,26.476,20.64,26.461,20.239
		 M30.096,15.681l-0.362,0.389l-0.457,0.392c-0.259-0.267-0.444-0.339-0.486-0.55l-0.016-1.763l-0.42-0.256
		c-0.243,0.217-0.44,0.124-0.221-0.072l0.813-0.75l0.189-0.025l0.353,0.52l-0.015,1.873C29.69,15.631,29.69,15.605,30.096,15.681
		 M29.656,9.919c-0.979-0.101-0.725-0.407-0.558-0.397C30.01,9.578,29.807,9.936,29.656,9.919 M29.67,9.337
		c-0.976,0.038-0.722-0.408-0.561-0.4C29.936,8.984,29.823,9.332,29.67,9.337 M28.879,11.443l0.418,0.434v0.447l-0.313,0.284h-0.261
		l-0.257-0.264l-0.009-0.521L28.879,11.443z M28.446,7.874c-0.1,0.121-0.484,0.434-0.924,0.783c0.067,0.014,0.132,0.025,0.201,0.065
		c0.708,0.415,0.951,1.001,0.253,1.551c-0.382,0.308-1.002,0.652-1.671,0.667c-0.444,0.011-1.234-0.363-1.378-0.52
		c0.36-0.336,0.751-0.709,1.031-0.948c-0.438-0.336-0.85-0.791-0.514-1.311c0.253-0.391,1.031-1.015,1.721-0.987
		C27.851,7.205,28.161,7.679,28.446,7.874 M24.748,10.146c-0.192,0.095-0.579,0.497-0.89,0.497
		c-0.929-0.039-2.104-0.715-1.932-1.964c0.181-1.302,1.206-1.8,1.646-1.814c0.505,0.039,0.622,0.471,0.905,0.734
		c-0.429,0.353-1.134,1.045-1.548,1.471c0.102,0.218,0.583,1.041,1.608,0.783C25.007,9.745,25.159,9.943,24.748,10.146
		 M21.667,8.079c-0.166,0.168-0.556,0.416-0.708,0.528c-0.198-0.118-0.443-0.474-0.567-0.57c-0.055,0.053-0.171,0.114-0.284,0.176
		c0,0.235,0.011,2.354-0.013,2.595c-0.297,0.016-0.555,0.036-0.764-0.01c-0.024-0.309,0.02-1.999,0.005-2.274
		c-0.025-0.335-0.322-0.359-0.714-0.474c0.223-0.268,0.637-0.571,0.824-0.716c0.338,0.266,0.545,0.266,0.713,0.458
		c0.217-0.12,0.603-0.352,0.771-0.491c0.159,0.186,0.455,0.491,0.571,0.629C21.656,7.783,21.844,7.908,21.667,8.079 M18.429,12.455
		c0.296-0.033,0.548,0.573,0.813,0.859c-0.076,0.082-0.076,1.874-0.076,2.043c0.063,0.102,0.272,0.22,0.357,0.141
		c0.145-0.141,0.237,0,0.114,0.117c-0.114,0.115-0.701,0.62-0.847,0.783c-0.203-0.157-0.276-0.384-0.305-0.695
		c-0.358,0.085-0.691,0.285-0.906,0.612c-0.4-0.182-0.709-0.53-0.722-0.919c-0.007-0.405,0.267-0.635,0.56-0.908
		c-0.051-0.041-0.097-0.074-0.155-0.125c-0.083-0.071-0.192-0.719-0.114-0.896C17.341,13.015,17.983,12.494,18.429,12.455
		 M17.838,11.508c-0.129-0.193-0.164-0.364-0.435-0.289c-0.686,0.197-1.434,0.405-1.976,0.085c-0.58-0.356-1.077-0.467-1.092-1.788
		c-0.013-0.802,0.696-1.44,1.16-1.714c0.525-0.302,1.431-0.107,1.839,0.014c0.197,0.064,0.349,0.042,0.36-0.215
		c0.005-0.141,0.224-0.106,0.218,0c0,0.114-0.007,1.739-0.007,1.871c-0.004,0.128-0.269,0.14-0.262,0.018
		c0-0.185-0.065-0.537-0.125-0.823c-0.09-0.429-1.21-1.216-2.018-0.158c-0.018,0.051-0.346,0.606-0.303,1.038
		c0.029,0.323,0.079,0.774,0.295,1.073c0.635,0.898,1.537,0.596,2.011-0.138c0.171-0.264,0.143-0.592,0.154-0.784
		c0-0.114,0.255-0.126,0.255,0c0,0.135-0.012,1.216-0.012,1.317c0.004,0.157,0.12,0.281,0.181,0.359
		C18.24,11.617,18.061,11.806,17.838,11.508 M14.421,13.242c0.316-0.468,1.057-0.921,1.561-1.102
		c0.159,0.186,0.352,0.475,0.585,0.787c-0.236,0.186-0.479,0.425-0.621,0.594c-0.106-0.123-0.711-1.026-1.137-0.395
		c-0.232,0.338-0.477,1.322,0.312,1.934c0.383,0.289,0.787,0.384,1.312,0.3c-0.268,0.348-0.335,0.448-0.487,0.749
		c-0.759,0.136-1.069-0.107-1.441-0.419C13.713,15.043,13.964,13.941,14.421,13.242 M14.747,19.286
		c0.191-1.308,1.457-1.839,1.84-2.098c0.068,0.379,0.505,1.042,0.79,1.305c-0.43,0.352-1.417,1.178-1.795,1.462
		c0.208,0.379,0.991,0.651,1.252,0.364c0.195-0.194,0.435-0.128,0.218,0.125c-0.286,0.33-0.577,0.798-0.72,1.087
		C15.763,21.292,14.577,20.542,14.747,19.286 M17.765,18.193c0.358-0.282,0.552-0.495,0.798-0.727
		c0.213,0.339,0.309,0.659,0.503,0.802c0.255-0.218,0.685-0.488,0.875-0.701c0.188,0.092,0.516,0.291,0.539,0.959
		c0.015,0.667,0.106,1.714,0.106,1.946c0,0.123,0.034,0.085,0.229,0.043c0.182-0.05,0.254,0.042,0.115,0.163
		c-0.143,0.115-0.801,0.575-0.976,0.771c-0.232-0.434-0.275-0.743-0.18-1.172c0.075-0.352,0.011-1.305,0.011-1.522
		c0-0.216-0.327-0.288-0.467-0.409c-0.195,0.143-0.218,0.169-0.389,0.331c0,0.287-0.037,2.295,0.007,2.558
		c-0.451,0.018-0.405-0.01-0.668-0.01c-0.02-0.388-0.008-1.935-0.028-2.269C18.214,18.628,17.931,18.386,17.765,18.193
		 M21.258,15.847c-0.194,0.169-0.621-0.1-0.776-0.36c-0.245-0.412-0.166-1.382-0.135-2.167c0.033,0.001-0.138-0.195-0.303-0.228
		c-0.208-0.052-0.244-0.126,0.078-0.259c0.395-0.156,1.005-1.104,1.092-1.316c0.076-0.208,0.194-0.011,0.08,0.193
		c-0.246,0.47-0.144,1.015-0.103,1.177c0.026,0.072,0.769-0.03,0.929-0.03c0.104,0.007,0.091,0.317-0.006,0.31
		c-0.128-0.001-1.103,0.118-1.103,0.118c-0.068,0.035,0.079,1.567,0.178,1.684c0.013,0.018,0.32,0.285,0.438,0.169
		c0.146-0.136,0.291,0.01,0.117,0.152C21.649,15.363,21.482,15.667,21.258,15.847 M21.663,18.143c0.302-0.22,0.812-1.164,0.88-1.379
		c0.064-0.218,0.19-0.145,0.168,0.09c-0.027,0.333-0.181,1.077-0.122,1.23c0.027,0.075,0.502,0.071,0.663,0.071
		c0.104,0,0.112,0.306,0.012,0.306c-0.126,0-0.659,0.077-0.659,0.077c-0.076,0.033-0.036,1.135,0.067,1.252
		c0.213,0.204,0.376,0.345,0.667,0.039c0.139-0.145,0.287-0.011,0.121,0.136c-0.091,0.083-0.491,0.573-0.581,0.813
		c-0.091,0.237-0.621,0.055-0.79-0.193c-0.27-0.4-0.154-1.211-0.173-1.999C21.965,18.601,21.407,18.333,21.663,18.143
		 M25.271,16.675c-0.245,0.232-0.441,0.45-0.653,0.688c-0.186-0.122-0.467-0.364-0.683-0.552c0.356-0.163,0.549-0.378,0.67-0.616
		C24.748,16.506,25.03,16.626,25.271,16.675 M23.651,12.78c0.566,0.179,1.407,0.047,1.672,0.802c0.284,0.792-0.232,1.813-0.891,1.86
		c-0.553,0.046-1.052-0.139-1.361-0.114c-0.146,0.011-0.248,0.057-0.273,0.211c-0.02,0.167-0.241,0.241-0.285,0.02
		c-0.047-0.211-0.11-1.115-0.11-1.376c0-0.265,0.243-0.289,0.289,0c0.047,0.282,0.131,0.482,0.35,0.726
		c0.167,0.191,1.254,0.458,1.653,0.142c0.321-0.259,0.246-0.822-0.09-1.041c-0.334-0.221-1.676-0.533-1.906-0.917
		c-0.391-0.656,0.308-1.204,0.614-1.382c0.481-0.267,1.038-0.182,1.228-0.178c0.188,0,0.438,0.063,0.452-0.142
		c0.014-0.202,0.167-0.184,0.188,0.026c0.063,0.587,0.12,0.234,0.102,0.859c0,0.283-0.102,0.289-0.225,0.069
		c-0.08-0.146-0.907-0.837-1.573-0.406C22.917,12.311,23.132,12.639,23.651,12.78 M25.752,23.008
		c2.948,0.196,5.459,1.557,5.459,1.557V5.558c0,0-4.334-3.035-11.375-0.318c-2.07,0.798-7.112,0.129-7.112,0.129v19.426
		C17.146,25.096,22.903,22.818,25.752,23.008 M32.69,29.258c0.001,0.253-0.326,0.606-0.326,0.606l1.176-0.593
		c-0.236-0.154-0.896-0.527-1.175-0.606C32.366,28.665,32.689,28.913,32.69,29.258 M34.437,29.24
		c-1.08,0.208-1.891,1.392-3.12,0.887c-0.16-0.106-0.494-0.196-0.448-0.439c0.22,0.126,0.565,0.208,0.806,0.243
		c0,0-0.659-0.546-0.079-1.218c-0.742,0.466-1.002,0.338-1.002,0.092c0-0.112,0.973-0.819,1.889-0.473
		c0.662,0.252,1.23,0.756,1.955,0.86V29.24z M31.408,27.009c-0.608,0.068-1.347,0.427-1.532,1.07
		c-0.37,0.364-0.353-0.616-1.105-0.186c-0.321,0.435,0.515,1.394,0.317,1.454c-0.82,0.25-0.718-1.229-1.184-1.268
		c-0.674,0.239-2.372,1.789-0.704,3.018c-0.051-0.83,1.519-1.732,2.039,0.1c1.576-0.121,2.105,0.835,2.3,1.375
		c2.32,0.414,1.653,1.952,1.586,1.952c-0.219-0.331-1.217-1.87-2.851-0.808c-0.378,0.246-1.035,0.485-1.358,0.163
		c0.031,0.516,0.683,0.98,1.127,0.858c1.453-0.396,1.82,0.955,0.708,1.325c0.239,0.37,0.696,0.349,1.116,0.091
		c0.626-0.379,0.699-0.72,0.925-0.949c0.396,1.895-2.001,2.077-2.767,2.191c0.117,0.403,0.376,0.491,0.858,0.632
		c-2.529,0.085-3.024,2.459-2.876,3.827c0.571,0.044,1.449-1.195,1.374-0.485c-1.792,1.901-2.396,4.445-1.454,6.066
		c0.449-0.184,0.588-0.678,0.748-1.082c0.068-0.047,0.987,0.362-0.483,2.124c-0.103,0.46-0.62,1.843,0.516,2.176
		c0.431-0.51,0.368-0.955,0.462-1.478c0.329-0.132,0.547,0.936,0.418,1.26c-1.477,0.61-1.293,5.142,0.419,7.577
		c-0.793-1.77-0.688-4.04,0-5.855c0.528-1.403,1.69-4.552,1.72-4.515c0.659,0.809,1.492,4.283,1.492,5.72
		c0.923-0.803,1.104-1.683,1.86-2.277c0.359,1.261,0.504,2.095,0.79,3.208c0.368-1.087,1.338-2.314-0.048-5.841
		c0.284-0.258,0.81,1.222,0.977,1.151c0.125-0.05,0.314-0.79-0.157-2.168c-0.974-0.909-1.191-2.245-1.039-2.345
		c0.125-0.082,0.563,1.384,1.081,1.459c0.105-1.14,0.383-2.303,0.298-3.186c-0.021-0.231-0.402-1.405-1.478-2.377
		c-0.624-0.563-0.864-1.738-0.809-1.974c0.604,0.556,0.471,0.963,0.983,1.186c0.213-0.477,0.067-2.248-0.554-3.025
		c-0.354-0.585-0.188-0.504,0.238-0.15c0.557,0.662,0.289,0.609,0.769,0.885c1.05-2.48,0.095-2.961,0.169-3.137
		c0.065-0.157,0.813,1.156,1.448,0.652c-1.035-0.546-1.006-1.376-1.123-2.273c-0.09-0.71-0.547-0.976-0.372-1.148
		c1.032,0.777,1.316-0.083,1.349-0.256c-0.198,0.113-1.116,0.233-1.229-1.194c-0.045-0.564-0.908-0.812-0.908-0.811
		c0.53-0.102,2.233-0.196,1.826-1.886c-0.207,0.399-0.712,1.027-1.768,0.78c-0.003,0,0.677-0.184,0.555-0.916
		C34.439,28.635,33.113,26.767,31.408,27.009 M45.855,9.491c0.271,0.224,1.021,0.577,1.402,0.713
		c0.001-0.321-0.003-0.642-0.03-0.794c0.025-0.214-0.737-0.623-0.855-0.623c-0.138-0.01-0.334,0.214-0.508,0.471
		C45.775,9.401,45.783,9.435,45.855,9.491 M46.638,11.533c0.253-0.121,0.426-0.173,0.623-0.185c-0.009-0.097-0.019-0.197-0.018-0.32
		c0-0.096,0.009-0.357,0.011-0.646c-0.337-0.108-0.764-0.289-1.131-0.495c0.054,0.035,0.111,0.063,0.166,0.096
		C45.891,10.712,46.43,11.364,46.638,11.533 M46.658,15.535c0.167,0.428,0.891,0.987,1.09,1.084c0.303-0.364,0.466-1.03,0.396-1.593
		c-0.049-0.434-0.609-0.906-1.088-1.083C46.44,14.318,46.44,14.957,46.658,15.535 M36.99,19.605
		c-0.358,0.683-0.063,0.823,0.139,0.99c0.254-0.125,0.477-0.238,0.656-0.366c0.001-0.124,0.007-0.356,0.01-0.613
		C37.386,19.661,37.254,19.753,36.99,19.605 M37.796,19.418c0.001-0.306-0.004-0.606-0.027-0.751
		c0.025-0.219-0.453-0.549-0.576-0.556c-0.137,0-0.245,0.051-0.417,0.313c-0.084,0.138-0.063,0.681,0.01,0.74
		C37.187,19.501,37.438,19.461,37.796,19.418 M38.39,21.169c-0.262-0.2-0.484-0.249-0.566-0.562c-0.671,0.259-0.925,0.648-1.33,0.93
		c-0.236-0.221-0.433-0.614-0.439-1.021c-0.009-0.4,0.386-0.941,0.607-1.15c-0.027-0.025-0.042-0.028-0.074-0.057
		c-0.088-0.074-0.212-0.662-0.094-0.816c0.148-0.212,0.748-1.034,1.218-1.073c0.325-0.029,0.577,0.373,0.852,0.667
		c-0.07,0.08-0.04,1.513-0.05,1.688c0.301,0.324,0.425,0.397,0.604,0.277c0.181-0.124,0.253,0,0.126,0.121
		C39.117,20.295,38.546,20.997,38.39,21.169 M40.02,18.315c0.048,0.014-0.663-0.268-0.359-0.42c0.537-0.264,1.063-0.818,1.146-1.046
		c0.082-0.216,0.286-0.118,0.18,0.1c-0.104,0.218-0.18,0.755-0.118,0.92c0.022,0.072,0.428,0.108,0.61,0.113
		c0.104,0,0.098,0.318-0.008,0.318c-0.133-0.004-0.636,0.007-0.636,0.007c-0.075,0.035-0.021,1.796,0.022,1.946
		c0.057,0.146,0.473,0.247,0.627,0.104c0.155-0.145,0.314,0.004,0.128,0.143c-0.095,0.082-0.414,0.583-0.665,0.683
		c-0.26,0.102-0.652-0.067-0.821-0.324C39.847,20.441,40.01,19.123,40.02,18.315 M41.212,15.907
		c-0.307-0.174-0.726-0.577-0.951-0.912c-0.408,0.524-0.507,0.97-1.252,1.164c0.432-0.361,0.829-1.164,0.797-1.925
		c-0.033-0.689-0.408-1.026-0.738-1.154c-0.284,0.135-0.531,0.323-0.68,0.388c-0.156,0.062-0.199-0.182-0.087-0.236
		c0.365-0.176,1.162-0.787,1.271-0.905c0.339,0.063,0.756,0.354,0.816,0.627c0.256-0.157,0.71-0.65,0.847-0.765
		c0.155,0.271,0.612,0.602,1.122,0.787c-0.465,0.795-1.5,0.319-1.647,0.125c-0.167,0.276-0.207,0.443-0.039,0.795
		c0.212,0.476,1.062,0.924,1.502,1.042C42.038,15.078,41.427,15.763,41.212,15.907 M41.926,18.726
		c0.309-0.342,0.639-0.563,0.828-0.755c0.328,0.243,0.433,0.392,0.61,0.665c-0.006,0.438-0.098,1.365-0.07,1.688
		c0.016,0.314,1.269,0.527,1.325,0.061c0.056-0.46,0.015-1.055,0-1.328c-0.022-0.211-0.516-0.311-0.769-0.278
		c0.338-0.354,0.625-0.614,0.839-0.808c0.3,0.224,0.596,0.552,0.776,0.824c-0.009,0.469-0.091,1.567-0.024,1.857
		c0.085,0.3,0.056,0.321,0.282,0.473c-0.232,0.215-0.405,0.31-0.563,0.482c-0.235-0.069-0.635-0.424-0.608-0.738
		c-0.287,0.196-1.134,0.55-1.439,0.627c-0.305-0.318-0.539-0.4-0.558-0.784c-0.017-0.396,0.09-1.423-0.038-1.667
		C42.394,18.801,42.182,18.745,41.926,18.726 M45.905,15.439c0.029-1.002,0.693-1.85,1.766-2.232c0.849,0.282,1.203,1.14,1.23,1.717
		c0.021,0.47-0.291,1.087-0.501,1.468c-0.333,0.221-0.669,0.543-0.986,0.85C46.384,17.234,45.885,16.026,45.905,15.439 M46.036,19.3
		c0.256-0.146,0.864-0.701,1.075-0.844c0.35,0.271,0.58,0.541,0.752,0.735c0.232-0.121,0.596-0.385,0.773-0.531
		c0.309,0.218,0.652,0.503,0.78,0.652c0.161-0.148,0.363-0.03,0.176,0.156c-0.176,0.166-0.579,0.517-0.732,0.635
		c-0.224-0.12-0.611-0.566-0.739-0.66c-0.065,0.056-0.194,0.118-0.304,0.181c-0.006,0.243,0,2.246-0.016,2.494
		c-0.33,0.018-0.598,0.041-0.823-0.008c-0.021-0.317,0.011-2.055,0-2.334C46.957,19.43,46.407,19.31,46.036,19.3 M50.064,15.735
		c-0.259-0.018-0.511-0.057-0.649-0.099c-0.221-0.066-0.132-0.307,0.054-0.307c0.174,0.003,0.452,0.057,0.579,0.103
		C50.174,15.484,50.227,15.755,50.064,15.735 M50.081,15.136c-0.251-0.012-0.513-0.058-0.652-0.097
		c-0.221-0.058-0.127-0.31,0.051-0.31c0.178,0,0.457,0.052,0.59,0.103C50.196,14.885,50.252,15.152,50.081,15.136 M48.495,11.307
		l-0.773,0.847c-0.227-0.163-0.361-0.335-0.427-0.62c-0.591,0.116-0.994,0.467-1.267,0.679c-0.245-0.221-0.612-0.812-0.617-1.218
		c-0.01-0.404,0.311-1.001,0.531-1.207c0.021,0.008,0.042,0.021,0.064,0.033c-0.128-0.076-0.25-0.153-0.343-0.23
		c-0.083-0.074-0.113-0.274,0-0.434c0.152-0.201,0.633-0.806,1.103-0.875c0.25-0.032,0.675,0.032,1.255,0.55
		c-0.074,0.09-0.074,1.782-0.074,1.958C48.151,11.039,48.495,11.307,48.495,11.307 M43.38,14.356
		c-0.125,0.625,0.416,1.137,0.83,1.355c0.332,0.171,0.9,0.077,1.043,0.053c0.139-0.02,0.098-0.061,0.202-0.156
		c0.104-0.1,0.226-0.01,0.142,0.086c-0.094,0.102-0.931,0.896-1.162,1.055c-0.212,0.055-0.68,0.039-0.959-0.314
		c-0.497-0.623-0.855-0.846-0.699-1.979c0.108-0.769,1.388-1.433,1.683-1.594c0.117,0.113,0.699,0.727,0.955,0.931
		c-0.1,0.129-0.423,0.272-0.731,0.271c-0.317,0-0.529-0.265-0.739-0.499C43.796,13.705,43.472,13.894,43.38,14.356 M45.043,8.193
		c-0.144,0-1.587,0.173-1.587,0.173c-0.075,0.035,0.074,1.824,0.128,1.968c0.044,0.149,0.184,0.372,0.347,0.229
		c0.147-0.148,0.319,0.096,0.143,0.241c-0.099,0.079-0.418,0.713-0.566,0.805c-0.228,0.145-0.558-0.328-0.665-0.62
		c-0.174-0.488-0.29-1.708-0.287-2.521c0.049,0.014-0.675-0.286-0.349-0.416c0.636-0.271,1.247-1.115,1.324-1.333
		c0.078-0.221,0.282-0.128,0.177,0.09c-0.209,0.443-0.187,0.76-0.099,1.023c0.031,0.07,1.253,0.043,1.435,0.043
		C45.146,7.876,45.141,8.193,45.043,8.193 M41.675,10.399l-0.596,0.776h-0.557c-0.275-0.277-0.459-0.491-0.512-0.713l-0.03-1.861
		l-0.693-0.397C39.158,8.376,38.901,8.376,39,8.23l0.955-0.839l0.208-0.022l0.61,0.609l-0.012,1.924
		C41.063,10.245,41.24,10.326,41.675,10.399 M40.896,6.614l-0.334,0.291h-0.278l-0.277-0.277L39.995,6.09l0.45-0.382l0.451,0.439
		V6.614z M38.975,6.572c-0.332,0.097-0.57,0.43-0.652,0.768c-0.064,0.347-1.194,3.621-1.327,3.836
		c-0.271-1.023-1.402-3.456-1.762-3.974c-0.313-0.459-0.611-0.373-0.896-0.379c-0.276,0-0.172-0.266,0.055-0.245
		C34.707,6.615,36.494,6.774,37,6.845c0.183,0.038,0.187,0.2-0.052,0.275c-0.125,0.032-0.41,0.172-0.41,0.31
		c0,0.193,0.649,1.619,0.827,1.888c0.153-0.367,0.764-1.927,0.641-2.271c-0.133-0.341-0.182-0.394-0.435-0.42
		c-0.255-0.03-0.255-0.181,0.051-0.225c0.305-0.049,1.153-0.12,1.408-0.09C39.287,6.333,39.316,6.48,38.975,6.572 M34.928,12.46
		c0.563-0.309,1.822-0.503,2.255-0.367c0.217,0.058,0.439,0,0.439-0.1c0-0.147,0.202-0.108,0.202,0c0,0.11-0.004,1.487-0.017,1.617
		c0,0.133-0.199,0.119-0.199,0c0-0.198,0-0.26-0.174-0.524c-0.504-0.76-1.896-0.823-2.586,0.09c-0.236,0.305-0.324,0.84-0.058,0.927
		c0.261,0.089,1.25,0.01,1.571-0.048c0.319-0.057,1.118-0.192,1.21-0.256c0.091-0.056,0.213-0.131,0.213,0.026
		c0,0.163,0,0.687-0.007,0.847c0,0.164-0.127,0.084-0.21,0.022c-0.095-0.053-0.842-0.129-1.167-0.15
		c-0.541-0.046-1.359-0.217-1.627-0.134c-0.271,0.08-0.058,0.498,0.175,0.811c0.68,0.92,1.952,0.949,2.461,0.199
		c0.187-0.272,0.187-0.329,0.187-0.52c0-0.122,0.207-0.143,0.207,0c0,0.126-0.011,1.268-0.011,1.379c0,0.112-0.21,0.146-0.21-0.006
		c0.008-0.242-0.143-0.225-0.422-0.143c-0.739,0.194-1.725,0.261-2.312-0.071c-0.619-0.356-1.16-0.47-1.176-1.832
		C33.663,13.402,34.43,12.746,34.928,12.46 M33.914,16.643c0.185,0.018,0.738,0.029,0.934,0.029c-0.023,0.413-0.023,3.279,0,3.574
		c0.026,0.296,0.283,0.388,0.538,0.27c0.128-0.05,0.243,0.037,0.077,0.176c-0.284,0.208-0.625,0.706-0.783,0.896
		c-0.323-0.221-0.678-0.5-0.65-0.764C34.071,20.362,33.929,17.031,33.914,16.643 M38.08,23.008c1.953,0,9.638,2.107,13.342,1.855
		V5.534c0,0-5.454,0.771-10.172-0.971c-3.853-1.422-9.15,1.063-9.15,1.063c0.004,0.659,0,18.955,0,18.955
		S34.048,23.008,38.08,23.008 M52.11,17.165v3.679c0,0,2.055-0.015,4.335-1.484c0.685-0.44,1.695-0.26,2.198,0.139h0.004
		c0,0-0.307-2.408-2.349-2.11C52.544,17.936,52.11,17.165,52.11,17.165 M58.643,11.838c0.033,0.236,0.056,0.403,0.072,0.513
		c-0.015-0.109-0.038-0.276-0.067-0.513c0,0-0.117-2.167-2.441-2.167c-0.757,0-1.676,0.92-4.03-0.1v3.679
		c0.954,0.282,3.569-1.21,4.613-1.667C57.536,11.257,58.592,11.47,58.643,11.838 M56.084,50.487
		c-0.153-5.82-3.725-12.278-2.753-11.079c2.433,3.006,3.213,9.521,4.88,15.129c0-0.001,1.072,0.546,0.844-6.57
		c-0.048-1.444-0.635-3.36-1.348-4.697c-1.415-2.641-4.276-7.096-4.194-7.131c0.691-0.56,2.37,3.282,3.832,4.794
		c0.948,0.977,3.579,1.935,3.761,1.808c-2.111-4.091-7.223-7.944-6.688-8.421c3.764,3.528,4.952,3.696,5.108,3.51l-3.389-3.293
		c-0.958-1.283-2.225-2.271-2.047-2.231c1.512,0.335-0.79-1.256-2.568-1.742c-0.32-0.086-0.833-0.115-0.849-0.275
		c-0.029-0.274,0.417-0.157,0.791-0.274c0.244-0.071,0.49-0.26,0.496-0.609c-0.679,0.148-1.373-0.008-1.954-0.271
		c-1.201-0.556-3.345-1.204-4.336-0.814c-0.578,0.228-0.687,0.193-1.309,0.675c-0.274-0.114-1.031-0.599-2.1,0.692
		c-0.331,0.399-0.729,0.865-0.749,1.208c-0.046,0.863,0.018,0.043,0.23,0.863c0.087,0.344-0.303,0.975-1.88,1.501
		c-0.609,0.206-0.457,0.808-0.457,0.808c0.303-0.145,0.781-0.486,1.519-0.139c1.44,0.674,1.723-0.393,2.619-1.152
		c0,0-0.248,0.958-0.003,1.008c1.121,0.232,0.746,1.072,0.604,1.2c-1.411,1.258-0.819,1.735-1.325,2.51
		c-0.474,0.734-1.206,1.012-2.299,0.978c-1.506-0.047,1.973-2.324-1.355-3.27c0.523,0.872,0.733,1.572-0.43,2.247
		c-0.733,0.425-0.36,2.591-2.242,1.587c0,0.002-0.154,1.604-0.369,1.672c2.554,2.238,1.126,3.458,1.255,6.654
		c0.798,2.035-0.078,3.004-0.279,3.117c0.126,1.377,0.256,2.133,1.116,3.254c0.625,0.813-0.057,2.063,0.581,2.935
		c0.586-2.077,1.214-1.211,1.384-4.097c0.233-0.485,1.204-1.34,1.756-1.394c-0.009,1.742,0.634,3.325,0.497,4.058
		c0,0,1.467-0.267,1.92-0.106c0.362,0.124,0.641,0.596,0.65,0.886c-0.499,0.313-0.5,0.192-1.254,0.744
		c-1.318,0.959-1.924,2.916-1.924,2.917c-0.004,0.001,3.098-2.47,3.319-2.917c0.177-0.353,0.345-0.896,0.509-1.458
		c0.018-0.061-1.597-1.003-2.041-1.865c-1.386-2.697,2.145,1.593,2.229,1.22c0.208-0.93,0.855-1.807,0.855-1.807
		c-0.225-0.266-0.779-0.431-1.623-1.918c-1.932-3.401,2.238,1.453,2.238,1.453c1.107-0.634,1.112,0.211,1.253,1.108
		c0.012,0.083,1.876,1.457,1.965,1.545c0.525-0.49,0.906-1.155,1.122-1.614c0.028-0.061-3.367-3.07-3.946-4.064
		c-4.679-8.022,3.784,3.562,4.185,3.242c0.223-0.628,0.302-1.492,0.275-2.659c-0.001-0.029-1.593-1.127-2.611-2.811
		c-3.932-6.49,2.58,1.938,2.578,1.876c-0.079-1.39-1.216-7.418-0.43-5.607c0.403,0.931,1.671,4.783,1.438,8.705
		C53.583,51.392,55.396,50.667,56.084,50.487 M48.712,56.887c0,0-0.625-0.473-0.659-0.381c-0.102,0.272-0.238,0.581-0.421,0.946
		C47.468,57.782,47.959,57.547,48.712,56.887 M48.462,54.465c-0.077,0.528-0.077,0.94-0.243,1.539
		c-0.016,0.057,0.593,0.303,0.868,0.541c0.39-0.363,0.739-0.546,1.147-1.058c-0.091-0.057-1.718-1.475-1.721-1.413
		C48.501,54.266,48.496,54.238,48.462,54.465 M53.5,57.813c0.725-0.61,1.139-1.647,2.071-1.957
		c-0.705-0.644-1.392,0.641-1.752,0.196c0.644-1.022,1.056-1.802,1.126-3.076c0.038-0.691,0.835-1.331,1.023-1.71
		c-0.769,0.112-2.82,1.32-3.234,2.019c-1.381,1.822-1.308,3.533-7.078,6.08c-0.287,0,1.066-0.987,1.452-2.125
		c0.181-0.534,0.941-3.007,0.417-4.2c-1.193,1.209-0.948,1.606-1.284,2.502c-0.861,2.36-1.331,2.583-3.484,4.038
		c-0.286,0.194-1.936,2.745-4.077,2.866c0.215-0.06,0.093-0.591,0.816-1.063c2.396-1.571,1.484-4.962,4.614-5.527
		c-1.56-0.553-2.627,0.965-2.915,0.812c1.263-1.748,0.152-3.225,0.335-4.653c-0.419,0.224-0.841,0.735-0.88,1.157
		c-0.235,2.542-1.422,2.986-1.542,4.08c0.251,1.814-1.205,3.224-2.272,4.497c-0.207-1.055,0.069-1.995,1.399-2.868
		c0.734-0.482-0.068-1.927-0.068-1.927c-0.299,1.583-1.188,2.067-1.744,2.145c-0.481,0.068,1.698-2.213,1.445-4.301
		c-0.111-0.929-0.377-0.516-0.527-1.56c-1.881,2.088-0.505,3.383-2.431,5.791c-0.913,1.142-1.256,3.148-1.376,3.202
		c0.02-2.989,0.117-2.116,1.444-4.545c1.093-1.995-0.06-3.859-0.208-5.063c-2.392,1.646-2.195,4.824-2.256,4.136
		c-0.06-0.676-0.357-1.868-0.036-2.946c0.533-1.79-0.596-4.519-0.596-4.519c-3.349,5.252-0.541,11.39-0.75,11.314
		c-1.453-2.276-2.513-2.366-2.83-4.111c-0.172-0.949-1.899-6.149-5.067-6.243c1.599,1.376,1.211,1.565,1.317,3.82
		c-1.018,5.645,6.879,6.229,6.35,9.156c-1.083-1.733-2.734-2.467-5.223-3.821c-1.103-0.873-2.346-1.26-2.413-2.626
		c0.131-0.994,0.188-0.787,0.019-2.08c-0.124-0.923-1.031-0.364-1.696-2.29c-1.425,1.29-0.903,2.751-0.788,3.583
		c0.034,0.235,0.197,1.114-0.022,1.624c-0.509-0.351-0.861-1.07-1.427-1.791c-1.021-1.31-1.01-2.898-1.522-4.002
		c-0.238-0.512-0.576-1.208-0.777-1.216l-0.037,0.02c-0.25,2.053-0.129,3.845,0.803,5.382c0,0-0.256,0.442-0.464,0.555
		c-0.884-0.232-2.141-0.978-2.65-2.419c-1.101,0.924-0.321,2.117-0.374,2.098c-2.471-1.265,0.029-6.173-3.492-6.03
		c0.869,0.945,0.319,2.16,0.243,3.293c-0.02,1.84,2.319,3.271,2.319,3.271c-2.608-0.881-3.144,0.342-3.113,0.342
		c0,0,3.841,1.667,9.907,2.298c0.78,0.082,1.892,0.997,1.708,0.997c-0.778-0.061-2.32-1.064-4.543,0.911
		c1.307,0.035,2.206,2.165,4.334,0.942c5.487-1.554,7.521,1.17,8.415,1.871c-0.191,0.344-4.217-2.528-7.413-0.624
		c-1.701,1.013-4.428,0.094-6.566-1.505c0.863,2.204,4.54,4.687,5.751,4.688c1.491,0.003,3.393-1.943,5.555-1.838
		c3.462,0.171,3.943,3.263,3.56,3.024c0,0-2.723-4.504-6.224,0.306c1.636-0.749,3.824-0.557,5.74,0.351
		c0.257,0.124-0.47,0.929-0.983,1.516c-0.338,0.379-1.797,2.544-3.376,0.412c-0.236-0.316-0.988-2.293-5.927-1.873
		c1.865,0.839,3.923,3.048,4.94,4.055c2.587,2.561,6.499-3.109,6.648-2.476c0,1.273,0.653,1.893,0.997,2.58
		c0.867,1.734-1.102,1.445-2.167,0.998c0,0,2.042,3.182,3.751,1.41c1.893-1.96-2.477-3.44-1.089-5
		c0.781-0.878,3.527,1.965,4.77,1.973c3.358,0.374,3.183-2.812,4.954-2.72c-1.666-1.689-3.438-0.771-3.81-0.338
		c-1.117,1.304-2.415,0.429-3.311-0.272c-0.494-0.646-1.315-0.748-2.047-0.551c-0.349,0.029,0.704-1.233,2.073-0.968
		c3.087,0.601,6.182-0.507,6.942-0.933c1.243-0.699,1.94-1.882,3.328-3.207c-0.433,0.083-3,1.512-3.826,1.929
		c-2.476,1.244-4.021-0.37-4.3-0.362c-0.476,0.014-0.352-0.36,0.394-0.601c2.537-0.566,4.291-2.804,6.71-3.685
		C47.854,59.236,51.242,60.046,53.5,57.813 M52.53,62.162c1.012-1.447,1.593-3.005,1.934-4.686c-0.587,0.769-1.453,1.44-2.32,1.785
		C51.535,61.193,51.822,63.189,52.53,62.162 M61.725,46.203C59.204,73.32,36.505,77.934,31.67,78.816
		c-0.258,0.047-27.331-3.387-30.061-32.606c0-0.011,0-43.116,0-43.116s25.856-3.339,60.115,0L61.725,46.203z M63.302,46.45
		L63.299,1.546C27.228-1.932,0,1.546,0,1.546s-0.001,44.901,0,44.911C2.875,76.895,31.382,80.47,31.654,80.422
		C36.746,79.503,60.647,74.697,63.302,46.45 M80.066,57.326c0,8.315,3.997,14.183,9.153,17.729
		c4.706,3.158,10.25,4.319,16.052,4.319c4.126,0,8.767-0.967,10.186-1.483c0.709-0.256,1.483-0.516,2.256-0.646
		c0.967-1.225,2.643-5.478,3.095-8.832c-0.259-0.449-1.226-0.578-1.677-0.256c-1.483,3.803-5.157,9.218-13.473,9.218
		c-10.573,0-19.146-7.479-19.146-21.015c0-13.345,8.381-19.597,18.244-19.597c9.346,0,12.249,5.026,13.215,9.412
		c0.451,0.386,1.419,0.322,1.741-0.129c-0.516-3.931-0.839-7.994-0.902-9.476c-0.581,0.064-1.032-0.065-1.805-0.258
		c-3.03-0.838-7.93-1.547-11.411-1.547c-6.703,0-12.699,1.806-17.405,5.479C83.288,44.045,80.066,50.171,80.066,57.326
		 M98.362,1.495l0.021-0.077l-0.037-0.072c-0.103-0.203-0.401-0.218-0.491-0.218c-0.069,0-0.167,0.007-0.254,0.042l-0.065,0.026
		l-0.035,0.063c-0.348,0.599-0.49,0.647-1.918,0.647H84.48c-1.203,0-1.741-0.063-1.855-0.664l-0.011-0.063l-0.046-0.045
		c-0.075-0.074-0.197-0.111-0.371-0.111c-0.064,0-0.282,0.007-0.4,0.086l-0.072,0.049l-0.016,0.087
		c-0.188,1.069-0.585,2.767-1.012,3.97l-0.03,0.082l0.04,0.078c0.161,0.324,0.713,0.481,1.006,0.261l0.044-0.033l0.021-0.05
		c0.274-0.62,0.531-1.206,1.159-1.785c0.591-0.543,1.933-0.616,3.165-0.616h1.478c0.599,0,0.599,0,0.599,0.652v12.009
		c0,2.909-0.167,3.036-1.476,3.151l-0.966,0.081l-0.093,0.029c-0.16,0.099-0.25,0.299-0.238,0.536
		c0.007,0.181,0.078,0.406,0.254,0.495l0.046,0.023l0.053-0.001c1.644-0.05,2.637-0.081,3.726-0.081c1.05,0,1.917,0.025,3.514,0.081
		l0.053,0.001l0.046-0.023c0.175-0.089,0.251-0.328,0.264-0.522c0.013-0.232-0.056-0.416-0.189-0.505l-0.956-0.114
		c-1.343-0.116-1.423-0.293-1.423-3.151V3.774c0-0.274,0-0.534,0.044-0.577c0.046-0.046,0.336-0.046,0.53-0.046h1.906
		c1.439,0,2.419,0.206,2.994,0.63c0.255,0.189,0.475,0.867,0.589,1.819l0.007,0.062l0.038,0.045c0.1,0.121,0.281,0.192,0.487,0.192
		c0.256,0,0.468-0.11,0.555-0.286l0.025-0.053l-0.006-0.059C97.888,4.728,98.073,2.565,98.362,1.495 M120.447,15.812V6.143
		c0-2.862,0.08-3.04,1.425-3.18l0.563-0.053l0.096-0.035c0.134-0.088,0.203-0.272,0.188-0.507c-0.006-0.095-0.042-0.41-0.264-0.52
		l-0.046-0.025l-0.054,0.002c-1.298,0.057-2.185,0.081-3.162,0.081c-1.164,0-2.103-0.032-3.24-0.081L115.9,1.823l-0.046,0.025
		c-0.223,0.108-0.259,0.422-0.265,0.517c-0.016,0.233,0.052,0.421,0.187,0.51l0.603,0.087c1.373,0.14,1.454,0.318,1.454,3.18V9.23
		c0,0.653,0,0.653-1.136,0.653h-7.682c-1.138,0-1.138,0-1.138-0.653V6.143c0-2.862,0.08-3.04,1.428-3.18l0.509-0.053l0.093-0.035
		c0.135-0.089,0.204-0.274,0.188-0.509c-0.005-0.096-0.044-0.41-0.265-0.519l-0.047-0.025l-0.054,0.002
		c-1.223,0.057-2.123,0.081-3.106,0.081c-0.701,0-1.313-0.021-1.981-0.042c-0.43-0.014-0.882-0.028-1.398-0.039l-0.049-0.001
		l-0.046,0.022c-0.22,0.11-0.259,0.422-0.265,0.516c-0.015,0.235,0.051,0.423,0.187,0.513l0.044,0.03l0.752,0.059
		c1.185,0.09,1.395,0.333,1.395,3.179v9.669c0,2.797-0.052,2.914-1.387,3.154l-0.52,0.092l-0.046,0.046
		c-0.155,0.152-0.178,0.405-0.147,0.588c0.032,0.198,0.124,0.349,0.253,0.413l0.046,0.022h0.05c0.371-0.01,0.724-0.022,1.075-0.035
		c0.635-0.022,1.292-0.046,2.037-0.046c1.009,0,1.866,0.025,3.405,0.081l0.053,0.001l0.046-0.023
		c0.176-0.089,0.252-0.328,0.263-0.522c0.015-0.232-0.056-0.416-0.189-0.505l-0.871-0.114c-1.289-0.138-1.454-0.267-1.454-3.151
		v-3.789c0-0.652,0-0.652,1.138-0.652h7.682c1.136,0,1.136,0,1.136,0.652v3.789c0,2.856-0.027,2.917-1.463,3.153l-0.578,0.091
		l-0.046,0.047c-0.154,0.153-0.177,0.406-0.146,0.589c0.031,0.198,0.125,0.348,0.253,0.412l0.049,0.023l0.053-0.002
		c1.285-0.056,2.225-0.08,3.24-0.08c1.059,0,1.991,0.029,3.242,0.08l0.053,0.002l0.047-0.022c0.222-0.11,0.259-0.427,0.265-0.519
		c0.016-0.235-0.053-0.42-0.188-0.51l-0.733-0.112C120.515,18.801,120.447,18.652,120.447,15.812 M142.898,16.228l0.013-0.065
		l-0.027-0.06c-0.116-0.259-0.401-0.374-0.632-0.374c-0.133,0-0.254,0.035-0.348,0.103l-0.064,0.075
		c-0.771,1.539-1.465,2.318-1.815,2.513c-0.58,0.288-1.392,0.382-3.348,0.382c-2.237,0-2.813-0.27-3.099-0.553
		c-0.38-0.404-0.454-1.279-0.454-2.652V11.81c0-0.52,0-0.52,0.681-0.52h1.558c0.937,0,1.639,0.021,2.017,0.128
		c0.375,0.093,0.565,0.336,0.682,0.868l0.243,1.045l0.041,0.086c0.1,0.121,0.289,0.193,0.504,0.193c0.245,0,0.444-0.092,0.534-0.248
		l0.027-0.047V13.26c0-0.261-0.021-0.609-0.044-0.998c-0.03-0.489-0.064-1.044-0.064-1.581c0-0.563,0.034-1.137,0.063-1.644
		c0.024-0.412,0.046-0.78,0.046-1.069V7.914l-0.027-0.048c-0.088-0.156-0.289-0.249-0.535-0.249c-0.213,0-0.403,0.072-0.502,0.193
		l-0.258,1.192c-0.122,0.615-0.273,0.707-0.508,0.784c-0.286,0.096-1.095,0.151-2.217,0.151h-1.558c-0.681,0-0.681,0-0.681-0.547
		V4.019c0-0.868,0-0.868,0.599-0.868h1.935c1.141,0,2.013,0.026,2.556,0.154c1.225,0.309,1.471,1.083,1.844,2.255l0.051,0.161
		l0.038,0.067c0.091,0.112,0.246,0.172,0.437,0.172c0.186,0,0.444-0.063,0.563-0.241l0.042-0.061l-0.036-0.396
		c-0.141-1.563-0.268-2.891-0.411-3.3l-0.063-0.175l-0.182,0.044c-0.298,0.074-1.965,0.074-3.576,0.074h-5.05
		c-1.035,0-1.92-0.023-3.159-0.081l-0.054-0.002l-0.046,0.025c-0.221,0.108-0.258,0.422-0.265,0.517
		c-0.016,0.233,0.053,0.421,0.186,0.51l0.521,0.087c1.375,0.161,1.456,0.34,1.456,3.18v9.669c0,2.909-0.167,3.036-1.478,3.151
		l-0.96,0.087l-0.053,0.053c-0.154,0.152-0.176,0.403-0.146,0.588c0.031,0.198,0.124,0.349,0.253,0.413l0.047,0.023l0.051-0.001
		c1.553-0.052,2.487-0.081,3.647-0.081h2.418c2.341,0,4.695,0.026,7.194,0.081l0.132,0.002l0.058-0.121
		C142.034,19.258,142.708,17.174,142.898,16.228 M145.498,37.214c0.386-0.26,0.257-1.419-0.129-1.612
		c-2.773,0.129-4.964,0.193-7.477,0.193c-2.773,0-4.965-0.128-8.124-0.193c-0.387,0.193-0.517,1.353-0.13,1.612l1.677,0.128
		c3.352,0.257,3.803,1.354,3.803,8.122v23.208c0,6.769-0.129,7.413-3.739,8.057l-1.096,0.195c-0.386,0.385-0.258,1.419,0.127,1.612
		c2.516-0.065,4.708-0.193,7.481-0.193c2.513,0,4.704,0.063,8.186,0.193c0.387-0.193,0.515-1.355,0.129-1.612l-1.869-0.195
		c-3.611-0.386-3.933-1.288-3.933-8.057v-9.09c0-1.933,0.128-2.063,3.223-2.063h18.438c3.094,0,3.224,0.13,3.224,2.063v9.09
		c0,6.769,0,7.413-3.934,8.057l-1.224,0.195c-0.386,0.385-0.258,1.419,0.128,1.612c2.837-0.13,5.158-0.193,7.8-0.193
		c2.515,0,4.707,0.063,7.802,0.193c0.385-0.193,0.515-1.355,0.127-1.612l-1.547-0.195c-3.739-0.45-3.867-1.288-3.867-8.057V45.464
		c0-6.768,0.128-7.735,3.867-8.122l1.354-0.128c0.387-0.26,0.258-1.419-0.128-1.612c-2.901,0.129-5.093,0.193-7.608,0.193
		c-2.642,0-4.835-0.064-7.8-0.193c-0.386,0.193-0.514,1.353-0.128,1.612l1.224,0.128c3.804,0.387,3.934,1.354,3.934,8.122v7.413
		c0,1.999-0.13,2.063-3.224,2.063h-18.438c-3.094,0-3.223-0.064-3.223-2.063v-7.413c0-6.768,0.128-7.735,3.868-8.122L145.498,37.214
		z M176.376,2.81c0.12-0.145,0.175-0.366,0.143-0.564c-0.027-0.168-0.115-0.307-0.246-0.388l-0.056-0.036l-0.065,0.004
		c-0.934,0.052-1.657,0.081-2.809,0.081c-1.03,0-2.028-0.028-3.05-0.081l-0.069-0.004l-0.057,0.039
		c-0.124,0.083-0.209,0.236-0.235,0.418c-0.028,0.202,0.023,0.396,0.138,0.533l0.056,0.065l0.757,0.059
		c0.617,0.05,1.036,0.215,1.18,0.461c0.313,0.552,0.485,2.49,0.485,5.458v3.09c0,3.165-0.897,6.938-5.167,6.938
		c-3.58,0-5.247-2.213-5.247-6.964V6.115c0-2.857,0.092-3.065,1.422-3.181l0.698-0.056l0.045-0.03
		c0.134-0.089,0.202-0.271,0.186-0.498c-0.012-0.186-0.088-0.417-0.263-0.503l-0.049-0.025l-0.051,0.002
		c-1.274,0.052-2.176,0.081-3.295,0.081c-1.104,0-2.054-0.03-3.322-0.081l-0.053-0.002l-0.047,0.023
		c-0.175,0.086-0.252,0.317-0.265,0.503c-0.016,0.227,0.053,0.408,0.186,0.499l0.044,0.03l0.726,0.056
		c1.33,0.115,1.422,0.324,1.422,3.181v6.338c0,3.247,0.669,5.251,2.167,6.496c1.183,1.012,2.917,1.526,5.158,1.526
		c2.115,0,4.141-0.777,5.281-2.027c1.303-1.396,1.935-3.54,1.935-6.56V8.854c0-1.361,0-4.551,0.358-5.394
		c0.126-0.272,0.585-0.478,1.172-0.525l0.732-0.059L176.376,2.81z M200.456,2.85c0.13-0.129,0.195-0.34,0.171-0.55
		c-0.023-0.192-0.118-0.353-0.261-0.442l-0.055-0.036l-0.066,0.004c-0.882,0.052-1.583,0.081-2.755,0.081
		c-0.948,0-1.833-0.023-3.16-0.081l-0.043-0.001l-0.039,0.016c-0.155,0.057-0.266,0.203-0.302,0.402
		c-0.043,0.242,0.029,0.483,0.185,0.618l0.049,0.042l0.516,0.061c0.924,0.115,1.392,0.251,1.516,0.442
		c0.322,0.509,0.505,2.494,0.505,5.449v5.749c0,0.259,0,0.561-0.016,0.768c-0.931-0.963-1.906-2.055-3.117-3.41l-3.736-4.192
		c-2.658-2.981-4.179-4.936-4.522-5.81l-0.061-0.154l-0.162,0.023c-0.322,0.05-0.762,0.079-1.206,0.079c-0.47,0-1.898,0-3.019-0.081
		l-0.057-0.004l-0.051,0.026c-0.141,0.072-0.24,0.22-0.272,0.406c-0.035,0.223,0.029,0.458,0.164,0.595l0.052,0.053l0.526,0.061
		c0.718,0.087,1.252,0.292,1.539,0.578c0.501,0.549,0.538,1.044,0.538,1.794v8.007c0.002,1.3,0.005,4.34-0.332,5.205
		c-0.063,0.139-0.29,0.322-1.016,0.418l-0.797,0.087l-0.052,0.051c-0.119,0.12-0.181,0.31-0.163,0.512
		c0.018,0.203,0.105,0.375,0.243,0.473l0.059,0.042l0.073-0.004c0.934-0.052,1.653-0.08,2.782-0.08c0.908,0,1.817,0.024,3.133,0.08
		l0.071,0.004l0.058-0.043c0.126-0.089,0.211-0.232,0.236-0.4c0.032-0.199-0.018-0.402-0.136-0.56l-0.056-0.072l-0.928-0.09
		c-0.644-0.052-1.094-0.203-1.206-0.406c-0.291-0.511-0.456-2.5-0.456-5.458V7.242c0-0.481,0.007-0.992,0.055-1.358
		c0.427,0.478,1.139,1.318,1.778,2.075c0.44,0.519,0.844,0.998,1.108,1.301l6.231,7.089c2.071,2.356,3.063,3.526,3.424,4.038
		l0.063,0.087h0.107c0.353,0,0.616-0.164,0.706-0.437l0.014-0.043l-0.005-0.046c-0.036-0.313-0.078-1.377-0.078-4.676l-0.001-6.783
		c-0.006-1.376-0.015-4.24,0.381-5.078c0.035-0.066,0.355-0.296,1.35-0.452l0.444-0.063L200.456,2.85z M197.132,68.543v-22.95
		c0-6.833,0.13-7.929,3.932-8.251l1.611-0.128c0.387-0.26,0.259-1.419-0.129-1.612c-3.223,0.129-5.415,0.193-7.994,0.193
		c-2.708,0-4.899-0.064-8.122-0.193c-0.388,0.193-0.516,1.353-0.13,1.612l1.613,0.128c3.803,0.323,3.931,1.418,3.931,8.251v22.95
		c0,6.833-0.127,7.735-3.931,8.186l-1.613,0.195c-0.386,0.385-0.258,1.419,0.13,1.612c3.222-0.13,5.414-0.193,8.122-0.193
		c2.579,0,4.771,0.063,7.994,0.193c0.388-0.193,0.516-1.355,0.129-1.612l-1.611-0.195C197.262,76.279,197.132,75.376,197.132,68.543
		 M210.615,15.758V6.196c0-2.907,0.096-3.118,1.449-3.232l0.726-0.059l0.044-0.03c0.134-0.089,0.203-0.277,0.187-0.51
		c-0.005-0.095-0.042-0.409-0.265-0.519l-0.047-0.023l-0.051,0.002c-1.271,0.05-2.221,0.081-3.324,0.081
		c-1.152,0-2.076-0.029-3.375-0.081l-0.053-0.002l-0.045,0.025c-0.223,0.108-0.261,0.424-0.267,0.519
		c-0.015,0.235,0.054,0.419,0.188,0.509l0.044,0.03l0.724,0.057C207.905,3.078,208,3.289,208,6.196v9.562
		c0,2.891-0.068,3.043-1.455,3.207l-0.744,0.089l-0.049,0.05c-0.154,0.153-0.178,0.405-0.147,0.588
		c0.032,0.198,0.124,0.349,0.255,0.413l0.047,0.023l0.053-0.002c1.365-0.053,2.26-0.08,3.375-0.08c1.063,0,1.988,0.028,3.324,0.08
		l0.051,0.002l0.047-0.022c0.223-0.11,0.261-0.427,0.265-0.52c0.017-0.233-0.054-0.418-0.188-0.509l-0.761-0.112
		C210.684,18.801,210.615,18.649,210.615,15.758 M218.858,40.242c-4.901,3.803-8.124,9.929-8.124,17.083
		c0,8.315,3.997,14.183,9.153,17.729c4.706,3.158,10.251,4.319,16.054,4.319c4.124,0,8.768-0.967,10.184-1.483
		c0.71-0.256,1.484-0.516,2.257-0.646c0.968-1.225,2.644-5.478,3.095-8.832c-0.258-0.449-1.225-0.578-1.677-0.256
		c-1.481,3.803-5.157,9.218-13.473,9.218c-10.571,0-19.147-7.479-19.147-21.015c0-13.345,8.381-19.597,18.246-19.597
		c9.348,0,12.247,5.026,13.215,9.412c0.449,0.386,1.418,0.322,1.74-0.129c-0.518-3.931-0.837-7.994-0.903-9.476
		c-0.581,0.064-1.031-0.065-1.805-0.258c-3.03-0.838-7.929-1.547-11.411-1.547C229.558,34.764,223.564,36.569,218.858,40.242
		 M236.396,2.85c0.146-0.147,0.17-0.403,0.146-0.577c-0.026-0.195-0.113-0.345-0.245-0.42l-0.053-0.032l-0.062,0.004
		c-0.9,0.054-1.727,0.081-2.594,0.081c-1.055,0-2.069-0.03-2.778-0.081l-0.064-0.004l-0.054,0.032
		c-0.147,0.085-0.249,0.263-0.27,0.476c-0.021,0.215,0.047,0.413,0.184,0.531l0.05,0.043l0.545,0.06
		c0.939,0.105,1.025,0.304,1.027,0.304c0,0.175-0.026,0.445-0.229,0.972c-0.463,1.17-1.744,4.247-2.495,6.011
		c-0.197,0.458-0.447,1.054-0.727,1.711c-0.509,1.208-1.13,2.676-1.655,3.831c-1.271-2.919-2.443-5.849-3.631-8.842
		c-0.785-1.93-1.236-3.332-1.32-3.681c0.041-0.084,0.273-0.202,1.076-0.306l0.464-0.061l0.047-0.042
		c0.137-0.117,0.206-0.315,0.186-0.529c-0.021-0.213-0.122-0.392-0.27-0.477l-0.053-0.03l-0.061,0.002
		c-1.196,0.057-2.136,0.081-3.24,0.081c-1.121,0-1.979-0.025-2.78-0.081l-0.066-0.004l-0.057,0.036
		c-0.156,0.097-0.258,0.278-0.275,0.483c-0.016,0.206,0.057,0.399,0.193,0.519l0.05,0.043l0.549,0.06
		c1.044,0.121,1.4,0.601,2.007,2.077l4.729,11.654c0.563,1.397,0.974,2.59,1.226,3.547l0.025,0.102l0.095,0.038
		c0.157,0.064,0.32,0.096,0.481,0.096c0.155,0,0.3-0.042,0.411-0.115l0.062-0.041l0.022-0.068c0.461-1.441,1.748-4.609,2.785-6.991
		l1.448-3.303c1.246-2.825,2.283-4.954,2.997-6.154c0.342-0.553,0.701-0.798,1.234-0.841l0.885-0.06L236.396,2.85z M254.823,16.228
		l0.012-0.065l-0.025-0.06c-0.117-0.259-0.401-0.374-0.634-0.374c-0.132,0-0.252,0.035-0.347,0.103l-0.064,0.075
		c-0.771,1.539-1.463,2.317-1.815,2.513c-0.576,0.288-1.391,0.382-3.347,0.382c-2.239,0-2.812-0.268-3.098-0.554
		c-0.381-0.403-0.456-1.278-0.456-2.651V11.81c0-0.52,0-0.52,0.681-0.52h1.559c0.938,0,1.639,0.021,2.019,0.128
		c0.372,0.093,0.563,0.336,0.683,0.868l0.238,1.045l0.044,0.086c0.1,0.121,0.289,0.193,0.501,0.193c0.248,0,0.446-0.092,0.537-0.248
		l0.024-0.047V13.26c0-0.261-0.019-0.609-0.041-0.998c-0.031-0.489-0.064-1.044-0.064-1.581c0-0.563,0.033-1.137,0.062-1.644
		c0.025-0.412,0.044-0.78,0.044-1.069V7.914l-0.024-0.048c-0.091-0.154-0.289-0.249-0.537-0.249c-0.214,0-0.401,0.072-0.501,0.193
		l-0.259,1.192c-0.121,0.616-0.272,0.707-0.508,0.784c-0.286,0.096-1.095,0.151-2.217,0.151h-1.559c-0.681,0-0.681,0-0.681-0.547
		V4.019c0-0.868,0-0.868,0.601-0.868h1.934c1.141,0,2.013,0.026,2.556,0.154c1.227,0.309,1.473,1.083,1.844,2.253l0.051,0.163
		l0.038,0.067c0.092,0.112,0.247,0.172,0.437,0.172c0.187,0,0.444-0.063,0.564-0.241l0.04-0.061l-0.035-0.395
		c-0.139-1.565-0.267-2.893-0.411-3.301l-0.063-0.175l-0.181,0.044c-0.298,0.074-1.966,0.074-3.575,0.074h-5.051
		c-1.035,0-1.922-0.023-3.159-0.081l-0.053-0.002l-0.048,0.025c-0.222,0.108-0.258,0.422-0.264,0.517
		c-0.017,0.233,0.05,0.421,0.187,0.51l0.52,0.087c1.373,0.161,1.455,0.34,1.455,3.18v9.669c0,2.911-0.166,3.036-1.479,3.151
		l-0.958,0.087l-0.053,0.053c-0.153,0.152-0.177,0.403-0.147,0.585c0.032,0.199,0.125,0.352,0.255,0.416l0.046,0.023l0.053-0.001
		c1.551-0.052,2.488-0.081,3.646-0.081h2.418c2.343,0,4.696,0.026,7.194,0.081l0.134,0.002l0.059-0.121
		C253.962,19.254,254.636,17.17,254.823,16.228 M268.704,10.168c-0.767,0.581-1.815,0.656-2.641,0.656
		c-1.212,0-1.588-0.046-1.697-0.08c-0.032-0.111-0.032-0.428-0.032-0.736V3.723c0-0.603,0-0.653,1.54-0.653
		c3.021,0,4.093,2.119,4.093,3.933C269.967,8.491,269.563,9.497,268.704,10.168 M276.8,20.164c0.125-0.099,0.187-0.258,0.163-0.414
		c-0.022-0.147-0.112-0.266-0.242-0.317l-0.06-0.014c-0.64-0.046-1.29-0.309-1.736-0.705c-1.85-1.55-3.32-3.815-5.355-7.095
		c-0.142-0.227-0.16-0.331-0.157-0.375c0.893-0.373,3.412-1.688,3.412-4.647c0-2.249-1.272-3.386-2.339-3.942
		c-1.349-0.731-3.073-0.83-4.583-0.83c-2.461,0-4.369,0.07-6.008,0.216l-0.075,0.021c-0.155,0.078-0.259,0.252-0.275,0.461
		c-0.02,0.232,0.066,0.453,0.219,0.564l0.044,0.031l0.913,0.112c0.875,0.107,1.001,0.296,1.001,2.938v9.644
		c0,2.84-0.066,2.989-1.43,3.153l-0.753,0.089l-0.053,0.061c-0.151,0.177-0.166,0.432-0.13,0.614
		c0.037,0.181,0.127,0.314,0.25,0.377l0.047,0.022l0.053-0.002c1.195-0.049,2.172-0.08,3.348-0.08c1.112,0,2.045,0.031,3.188,0.08
		l0.056,0.002l0.046-0.023c0.199-0.099,0.249-0.356,0.26-0.461c0.026-0.238-0.036-0.445-0.167-0.552l-0.044-0.038l-0.623-0.089
		c-1.38-0.192-1.435-0.31-1.435-3.153v-3.386c0-0.382,0-0.382,1.057-0.382c1.031,0,1.382,0.248,1.737,0.769
		c0.409,0.593,0.885,1.344,1.345,2.072c0.479,0.759,0.933,1.478,1.291,1.985c1.845,2.627,3.236,3.473,5.729,3.473
		c0.516,0,0.971-0.053,1.243-0.145L276.8,20.164z M283.566,5.497c0-1.036,0.389-2.775,2.992-2.775c2.368,0,3.088,1.542,3.454,2.883
		l0.039,0.076c0.085,0.104,0.23,0.163,0.407,0.163c0.203,0,0.476-0.081,0.594-0.261l0.034-0.051V5.47
		c0-1.098-0.225-2.631-0.495-3.352l-0.05-0.133h-0.143c-0.19,0-0.55-0.047-0.89-0.152c-0.642-0.172-1.647-0.357-2.549-0.357
		c-3.402,0-5.687,1.938-5.687,4.825c0,2.454,1.875,4.056,2.993,4.794l2.552,1.667c1.854,1.193,2.111,2.43,2.111,3.586
		c0,1.436-0.974,2.881-3.153,2.881c-2.718,0-3.905-2.095-4.421-3.853l-0.027-0.057c-0.081-0.121-0.226-0.186-0.409-0.186
		c-0.179,0-0.437,0.068-0.574,0.261l-0.04,0.058l0.003,0.071c0.05,1.215,0.395,3.203,0.748,3.85l0.027,0.05l0.051,0.03
		c0.525,0.306,1.998,1.021,4.293,1.021c3.548,0,5.929-2.08,5.929-5.175c0-2.149-1.13-3.892-3.455-5.331l-2.149-1.346
		C284.938,8.12,283.566,7.038,283.566,5.497 M280.935,59.195h-7.927c-1.807,0-1.871-0.064-1.356-1.546l4.063-11.216
		c0.709-1.935,1.353-3.482,1.545-3.808h0.13c0.388,0.774,0.965,2.518,1.481,4.063l3.48,10.507
		C282.935,58.938,282.805,59.195,280.935,59.195 M297.567,76.729c-2.771-0.322-3.608-1.288-5.48-6.833l-8.831-25.915
		c-0.967-2.836-1.996-5.802-2.839-8.638c-0.128-0.451-0.578-0.58-0.965-0.58c-0.71,0.838-1.804,1.999-3.353,2.451
		c0.194,1.032-0.191,2.255-1.096,4.575l-6.574,17.406c-2.708,7.22-4.514,11.411-5.675,14.375c-0.9,2.32-2.318,3.03-3.867,3.158
		l-2.127,0.195c-0.388,0.32-0.258,1.352,0.131,1.612c1.739-0.065,4.06-0.193,6.186-0.193c3.03,0.063,5.031,0.063,6.706,0.193
		c0.58-0.261,0.58-1.292,0.128-1.612l-2.127-0.195c-1.549-0.128-1.871-0.514-1.871-1.288c0-0.709,0.453-2.449,1.419-5.352
		l2.258-6.768c0.452-1.354,0.837-1.547,2.448-1.547h9.735c1.934,0,2.191,0.193,2.643,1.611l2.834,8.767
		c0.518,1.549,0.84,2.708,0.84,3.417c0,0.646-0.903,1.032-2.253,1.16l-1.872,0.195c-0.451,0.32-0.387,1.352,0.13,1.612
		c1.868-0.065,4.317-0.193,7.412-0.193c2.899,0,5.157,0.063,7.801,0.193c0.322-0.261,0.45-1.292,0-1.612L297.567,76.729z
		 M301.992,15.758V6.196c0-2.936,0.082-3.117,1.447-3.232l0.728-0.059l0.045-0.03c0.134-0.089,0.2-0.274,0.187-0.509
		c-0.006-0.095-0.043-0.41-0.265-0.519l-0.047-0.025l-0.053,0.002c-1.27,0.05-2.22,0.081-3.322,0.081
		c-1.154,0-2.077-0.029-3.378-0.081l-0.052-0.002l-0.049,0.025c-0.219,0.11-0.255,0.425-0.261,0.521
		c-0.017,0.234,0.053,0.417,0.187,0.506l0.044,0.03l0.723,0.057c1.371,0.117,1.451,0.297,1.451,3.233v9.562
		c0,2.891-0.067,3.043-1.456,3.207l-0.743,0.089l-0.051,0.05c-0.151,0.152-0.176,0.403-0.145,0.587
		c0.032,0.199,0.123,0.35,0.251,0.414l0.048,0.023l0.053-0.002c1.369-0.053,2.266-0.08,3.378-0.08c1.067,0,1.957,0.026,3.322,0.08
		l0.053,0.002l0.047-0.023c0.223-0.11,0.259-0.427,0.265-0.52c0.014-0.233-0.053-0.417-0.187-0.507l-0.765-0.112
		C302.061,18.801,301.992,18.649,301.992,15.758 M326.481,1.495l0.02-0.075l-0.033-0.071c-0.099-0.2-0.375-0.221-0.492-0.221
		c-0.067,0-0.167,0.007-0.254,0.042l-0.067,0.026l-0.034,0.063c-0.345,0.599-0.489,0.647-1.918,0.647H312.6
		c-1.202,0-1.74-0.063-1.854-0.664l-0.012-0.063l-0.046-0.045c-0.074-0.074-0.195-0.111-0.37-0.111
		c-0.065,0-0.282,0.007-0.401,0.084l-0.072,0.05l-0.017,0.087c-0.188,1.073-0.584,2.773-1.013,3.97l-0.027,0.082l0.039,0.078
		c0.161,0.325,0.711,0.482,1.006,0.261l0.045-0.033l0.022-0.05c0.271-0.622,0.53-1.209,1.157-1.785
		c0.593-0.543,1.933-0.616,3.164-0.616h1.479c0.599,0,0.599,0,0.599,0.652v12.009c0,2.911-0.167,3.037-1.476,3.151l-0.967,0.081
		l-0.091,0.029c-0.161,0.1-0.252,0.3-0.24,0.539c0.008,0.181,0.08,0.405,0.256,0.492l0.047,0.022h0.052
		c1.645-0.05,2.636-0.081,3.726-0.081c1.051,0,1.918,0.025,3.512,0.081l0.054,0.001l0.044-0.022c0.223-0.11,0.26-0.427,0.266-0.52
		c0.016-0.233-0.055-0.418-0.187-0.509l-0.955-0.114c-1.345-0.116-1.423-0.292-1.423-3.151V3.77c0-0.272,0-0.531,0.041-0.573
		c0.046-0.046,0.338-0.046,0.53-0.046h1.907c1.439,0,2.418,0.206,2.992,0.63c0.255,0.188,0.475,0.867,0.59,1.821l0.007,0.059
		l0.037,0.047c0.099,0.12,0.281,0.192,0.489,0.192c0.255,0,0.469-0.11,0.555-0.286l0.028-0.053l-0.009-0.059
		C326.007,4.73,326.192,2.567,326.481,1.495 M337.47,35.731c-1.095-0.259-4.512-0.968-8.187-0.968
		c-9.735,0-16.116,3.029-20.435,7.542c-3.997,4.255-5.803,9.799-5.803,15.28c0,5.671,2.063,10.762,5.931,14.631
		c4.964,5.027,11.991,7.156,19.661,7.156c3.482,0,8.122-0.773,11.542-1.676c1.223-0.323,2.384-0.581,3.155-0.581
		c0.261-0.192,0.261-0.581,0.066-0.773c-1.159-0.452-1.547-1.998-1.547-4.576v-3.61c0-3.289,0.063-5.093,2.771-5.416l1.031-0.129
		c0.45-0.387,0.387-1.353-0.063-1.611c-2.127,0.128-4.32,0.192-6.834,0.192c-3.805,0-7.349-0.064-9.217-0.192
		c-0.453,0.192-0.518,1.354,0,1.611l2.837,0.322c3.995,0.45,4.188,0.84,4.188,6.252v2.58c0,2.062-0.323,3.224-0.644,3.674
		c-0.712,1.095-3.095,1.934-7.094,1.934c-12.957,0-19.34-9.734-19.34-22.112c0-9.669,5.482-18.565,17.987-18.565
		c6.575,0,11.409,2.191,13.217,9.154c0.385,0.386,1.547,0.324,1.738-0.192c-0.579-3.87-0.967-7.221-0.967-9.348
		C340.695,36.44,338.696,35.989,337.47,35.731 M346.885,2.859c0.137-0.119,0.21-0.313,0.193-0.519
		c-0.016-0.206-0.118-0.386-0.272-0.483l-0.056-0.036l-0.065,0.004c-1.91,0.111-3.036,0.111-5.054,0l-0.056-0.002l-0.05,0.025
		c-0.149,0.075-0.252,0.227-0.282,0.416c-0.036,0.215,0.031,0.441,0.175,0.586l0.052,0.052l0.553,0.061
		c0.522,0.065,0.847,0.192,0.941,0.263c-0.084,0.385-1.023,2.127-1.593,3.185l-0.124,0.229c-0.646,1.25-1.393,2.597-2.338,4.217
		c-0.706-1.279-1.397-2.686-2.067-4.049c-0.263-0.535-0.525-1.067-0.785-1.59c-0.196-0.389-0.803-1.762-0.812-1.977
		c0-0.054,0.122-0.16,0.952-0.279l0.417-0.063l0.05-0.05c0.143-0.146,0.205-0.41,0.15-0.643c-0.045-0.184-0.16-0.319-0.317-0.37
		l-0.04-0.014l-0.039,0.002c-0.659,0.053-1.622,0.081-2.859,0.081c-1.243,0-2.229-0.026-3.1-0.081l-0.063-0.004l-0.055,0.032
		c-0.131,0.075-0.22,0.217-0.251,0.397c-0.038,0.214,0.018,0.439,0.146,0.588l0.047,0.054l0.826,0.147
		c0.712,0.12,1.067,0.181,1.971,1.931l3.17,6.181c0.76,1.461,0.838,1.763,0.838,3.236v1.369c0,2.917-0.066,3.065-1.425,3.206
		l-0.907,0.089l-0.054,0.053c-0.151,0.153-0.173,0.405-0.145,0.588c0.034,0.198,0.126,0.348,0.255,0.412l0.046,0.023l0.053-0.002
		c1.448-0.053,2.39-0.08,3.511-0.08c1.09,0,2.054,0.031,3.646,0.081l0.053,0.001l0.046-0.023c0.131-0.064,0.223-0.215,0.255-0.414
		c0.029-0.184,0.005-0.435-0.149-0.587l-0.054-0.053l-1.094-0.087c-1.243-0.093-1.421-0.299-1.421-3.206v-1.398
		c0-2.011,0.057-2.211,1.232-4.247l1.693-2.927c0.154-0.266,0.301-0.521,0.442-0.768c1.057-1.846,1.819-3.18,2.961-3.378
		l0.809-0.145L346.885,2.859z M361.127,55.458c0-14.117,8.703-18.695,15.408-18.695c12.313,0,17.02,11.474,17.02,22.112
		c0,12.697-7.351,18.5-15.086,18.5C365.771,77.375,361.127,64.998,361.127,55.458 M354.682,57.519
		c0,11.603,8.638,21.854,22.95,21.854c12.44,0,22.368-9.478,22.368-22.498c0-11.346-7.479-22.112-22.368-22.112
		C364.351,34.764,354.682,44.626,354.682,57.519 M376.652,11.728c0,5.538-3.274,7.502-6.078,7.502c-5.542,0-7.021-5.611-7.021-8.925
		c0-5.598,3.349-7.583,6.215-7.583C374.852,2.722,376.652,7.573,376.652,11.728 M379.751,10.894c0-4.536-2.979-9.417-9.527-9.417
		c-5.568,0-9.769,4.165-9.769,9.688c0,4.626,3.356,9.311,9.769,9.311C375.656,20.476,379.751,16.355,379.751,10.894 M397.78,5.67
		l0.024-0.05l-0.001-0.056c-0.054-0.972-0.083-2.226-0.083-3.532V1.774l-0.253,0.057c-0.324,0.075-1.979,0.075-3.578,0.075h-4.944
		c-1.011,0-1.91-0.023-3.104-0.081l-0.053-0.002l-0.049,0.023c-0.221,0.11-0.258,0.424-0.264,0.52
		c-0.014,0.235,0.053,0.419,0.188,0.509l0.518,0.087c1.363,0.163,1.431,0.313,1.431,3.18v9.669c0,2.84-0.067,2.989-1.431,3.153
		l-0.742,0.089l-0.052,0.05c-0.151,0.15-0.177,0.402-0.146,0.584c0.03,0.2,0.123,0.352,0.251,0.417l0.049,0.023l0.055-0.002
		c1.257-0.052,2.163-0.08,3.349-0.08c1.085,0,2.014,0.029,3.565,0.081l0.053,0.001l0.047-0.023c0.177-0.089,0.252-0.328,0.265-0.522
		c0.014-0.232-0.056-0.416-0.19-0.505l-1.008-0.114c-1.369-0.116-1.45-0.293-1.45-3.151v-3.735c0-0.519,0-0.519,0.68-0.519h1.826
		c0.943,0,1.646,0.021,2.006,0.125c0.377,0.12,0.582,0.367,0.724,0.873l0.283,1.113l0.05,0.043c0.265,0.228,0.836,0.214,1.007-0.043
		l0.033-0.053v-0.063c0-0.278-0.021-0.638-0.045-1.036c-0.028-0.487-0.061-1.04-0.061-1.571c0-0.543,0.032-1.119,0.061-1.626
		c0.022-0.417,0.045-0.795,0.045-1.084V8.174l-0.033-0.05c-0.128-0.194-0.4-0.214-0.513-0.214c-0.223,0-0.417,0.072-0.519,0.194
		l-0.282,1.161c-0.151,0.652-0.332,0.716-0.537,0.79c-0.285,0.095-1.113,0.152-2.219,0.152h-1.826c-0.68,0-0.68,0-0.68-0.519V4.019
		c0-0.868,0-0.868,0.601-0.868h1.638c1.11,0,1.986,0,2.554,0.154c1.15,0.3,1.497,1.07,1.729,2.39l0.013,0.072l0.056,0.047
		c0.103,0.089,0.247,0.137,0.406,0.137C397.429,5.952,397.683,5.866,397.78,5.67"/>
	<g>
		<path fill="#FFFFFF" d="M84.321,107.553h-5.458v-3.639h14.865v3.639h-5.459v14.301h-3.947V107.553z"/>
		<path fill="#FFFFFF" d="M96.08,103.146h3.896v6.919c0.897-1.153,2.05-2.204,4.024-2.204c2.947,0,4.664,1.947,4.664,5.1v8.894
			h-3.896v-7.663c0-1.845-0.872-2.794-2.357-2.794c-1.487,0-2.435,0.949-2.435,2.794v7.663H96.08V103.146z"/>
		<path fill="#FFFFFF" d="M111.376,115.062v-0.051c0-3.922,2.793-7.15,6.792-7.15c4.587,0,6.689,3.563,6.689,7.457
			c0,0.309-0.026,0.667-0.052,1.026h-9.559c0.384,1.768,1.614,2.69,3.357,2.69c1.307,0,2.256-0.409,3.332-1.409l2.229,1.973
			c-1.281,1.59-3.126,2.563-5.612,2.563C114.426,122.162,111.376,119.266,111.376,115.062z M121.063,113.909
			c-0.23-1.742-1.255-2.921-2.896-2.921c-1.615,0-2.666,1.152-2.974,2.921H121.063z"/>
		<path fill="#FFFFFF" d="M134.844,112.936v-0.052c0-5.1,3.845-9.277,9.355-9.277c3.383,0,5.407,1.128,7.073,2.768l-2.511,2.896
			c-1.384-1.255-2.794-2.023-4.588-2.023c-3.024,0-5.203,2.51-5.203,5.586v0.052c0,3.074,2.127,5.638,5.203,5.638
			c2.05,0,3.307-0.82,4.716-2.102l2.512,2.538c-1.845,1.973-3.896,3.203-7.356,3.203
			C138.766,122.162,134.844,118.087,134.844,112.936z"/>
		<path fill="#FFFFFF" d="M153.01,115.062v-0.051c0-3.946,3.177-7.15,7.458-7.15c4.255,0,7.407,3.152,7.407,7.099v0.052
			c0,3.947-3.178,7.15-7.458,7.15C156.162,122.162,153.01,119.008,153.01,115.062z M164.03,115.062v-0.051
			c0-2.024-1.461-3.794-3.613-3.794c-2.229,0-3.563,1.719-3.563,3.742v0.052c0,2.025,1.461,3.793,3.613,3.793
			C162.698,118.804,164.03,117.087,164.03,115.062z"/>
		<path fill="#FFFFFF" d="M170.765,103.146h3.896v18.708h-3.896V103.146z"/>
		<path fill="#FFFFFF" d="M178.324,103.146h3.896v18.708h-3.896V103.146z"/>
		<path fill="#FFFFFF" d="M185.112,115.062v-0.051c0-3.922,2.793-7.15,6.792-7.15c4.587,0,6.689,3.563,6.689,7.457
			c0,0.309-0.026,0.667-0.051,1.026h-9.56c0.384,1.768,1.615,2.69,3.357,2.69c1.307,0,2.256-0.409,3.332-1.409l2.229,1.973
			c-1.281,1.59-3.126,2.563-5.612,2.563C188.162,122.162,185.112,119.266,185.112,115.062z M194.8,113.909
			c-0.23-1.742-1.255-2.921-2.896-2.921c-1.615,0-2.666,1.152-2.973,2.921H194.8z"/>
		<path fill="#FFFFFF" d="M201.407,124.57l1.333-2.92c1.41,0.794,2.819,1.255,4.639,1.255c2.666,0,3.922-1.281,3.922-3.742v-0.665
			c-1.153,1.383-2.409,2.229-4.485,2.229c-3.204,0-6.1-2.333-6.1-6.408v-0.05c0-4.101,2.946-6.408,6.1-6.408
			c2.127,0,3.383,0.896,4.434,2.05v-1.794h3.896v10.636c0,2.461-0.59,4.256-1.742,5.408c-1.281,1.281-3.255,1.846-5.921,1.846
			C205.252,126.006,203.15,125.494,201.407,124.57z M211.301,114.319v-0.05c0-1.871-1.461-3.18-3.357-3.18s-3.332,1.309-3.332,3.18
			v0.05c0,1.897,1.436,3.179,3.332,3.179S211.301,116.19,211.301,114.319z"/>
		<path fill="#FFFFFF" d="M217.959,115.062v-0.051c0-3.922,2.793-7.15,6.791-7.15c4.588,0,6.69,3.563,6.69,7.457
			c0,0.309-0.026,0.667-0.053,1.026h-9.56c0.385,1.768,1.615,2.69,3.358,2.69c1.307,0,2.254-0.409,3.332-1.409l2.229,1.973
			c-1.282,1.59-3.128,2.563-5.613,2.563C221.009,122.162,217.959,119.266,217.959,115.062z M227.646,113.909
			c-0.23-1.742-1.255-2.921-2.896-2.921c-1.614,0-2.665,1.152-2.973,2.921H227.646z"/>
	</g>
</g>
<g>
</g>
<g>
</g>
<g>
</g>
<g>
</g>
<g>
</g>
<g>
</g>
</svg>
