<?xml version="1.0" encoding="utf-8"?>
<!-- Generator: Adobe Illustrator 16.0.0, SVG Export Plug-In . SVG Version: 6.00 Build 0)  -->
<!DOCTYPE svg PUBLIC "-//W3C//DTD SVG 1.1//EN" "http://www.w3.org/Graphics/SVG/1.1/DTD/svg11.dtd">
<svg version="1.1" id="Layer_1" xmlns="http://www.w3.org/2000/svg" xmlns:xlink="http://www.w3.org/1999/xlink" x="0px" y="0px"
	 width="719.98px" height="204.81px" viewBox="0 0 719.98 204.81" enable-background="new 0 0 719.98 204.81" xml:space="preserve">
<path fill="#767676" d="M37.526,56.377h17.97V43.692h-17.97V7.752h-3.171C29.069,24.665,18.499,49.154,0,54.263v2.114h11.099v43.692
	c0,5.462-0.529,7.4-5.286,7.4c-1.057,0-2.29-0.176-3.7-0.529v2.644c9.866,2.114,19.908,10.747,25.37,19.027l29.246-25.898
	l-1.409-1.762c-2.466,1.586-6.519,4.933-11.275,4.933c-5.814,0-6.519-8.104-6.519-15.68V56.377L37.526,56.377z M68.883,99.893
	c0,7.046-1.233,10.395-8.985,10.218v2.114c9.338,2.818,16.561,8.81,22.375,16.385c6.871-6.871,14.623-13.037,22.903-17.971
	l-0.705-2.29c-1.057,1.058-3.171,1.938-4.756,1.938c-3.348,0-4.405-2.819-4.405-7.576V56.553l5.814-4.228
	c0.881-0.705,2.114-1.41,3.876-1.41c4.404,0,5.109,5.638,5.109,11.275v51.973c0,31.712-8.104,42.459-25.898,50.387l1.233,2.466
	c8.809-4.757,17.97-9.16,26.075-14.975c20.436-14.623,25.017-31.888,25.017-56.553V61.31c0-11.98-2.114-16.913-12.333-29.246
	L95.311,53.206v-27.66c0-12.685,2.29-22.375,16.032-22.375h3.876V0h-1.057C91.083,0,71.526,5.99,69.061,23.432h-0.353
	c-1.762-6.342-5.638-12.685-8.809-15.856l-1.938,1.938c4.757,3.7,10.922,17.794,10.922,29.246V99.893L68.883,99.893z M191.68,32.064
	l-27.66,11.804c-16.385,7.047-18.323,13.214-18.323,42.107c0,24.665,11.804,34.531,33.65,42.635
	c10.571-10.042,22.727-17.794,34.003-26.427l-1.234-1.938c-4.404,2.644-10.042,7.224-15.856,7.224
	c-12.156,0-21.493-9.161-24.136-19.732l38.935-24.665L191.68,32.064L191.68,32.064z M171.595,84.566
	c-0.352-1.938-0.528-3.876-0.528-8.457c0-9.161,0.352-20.789,0.528-32.417h0.353l16.561,29.951L171.595,84.566L171.595,84.566z
	 M314.319,59.02l-13.037-26.955l-36.645,12.685c-9.866,3.348-11.804,8.809-11.804,35.588c0,24.489,0,29.598,13.741,38.76
	c3.348,2.29,6.695,4.053,10.043,6.166c1.585,0.881,3.347,2.114,4.756,3.348c10.219-9.866,23.256-17.441,35.765-25.546l-1.234-2.291
	c-4.58,2.996-9.337,5.638-15.503,5.638c-10.042,0-22.199-7.047-22.199-24.137V42.283l1.233-0.352l13.038,28.717L314.319,59.02
	L314.319,59.02z M326.475,98.484c0,2.114-0.353,6.694-6.519,7.223v2.113c13.566,3.7,25.546,11.629,35.588,20.79
	c4.933-9.514,11.452-13.037,21.142-15.327c14.622-3.524,17.44-7.225,17.44-38.231c0-24.312-1.938-31.359-18.498-42.987
	c-11.628,11.98-32.064,15.504-49.154,14.975V98.484L326.475,98.484z M352.902,47.392c12.332,2.643,14.798,8.28,14.798,16.384v45.102
	c-4.228-3.876-9.161-8.104-14.798-10.923V47.392L352.902,47.392z M407.338,104.826c0,1.938-1.761,2.994-3.347,2.994
	c-1.409,0-2.819-0.704-3.876-1.057l-0.881,2.29c8.985,4.757,16.913,11.452,23.256,19.557c8.985-7.399,17.794-14.8,27.484-21.142
	l-0.881-2.291c-2.819,1.41-6.52,3.524-8.985,3.524c-5.638,0-6.343-5.109-6.343-11.452V23.432c0-12.509,4.404-20.26,15.151-20.26
	h0.88V0h-1.585c-16.561,0-38.23,5.99-40.696,23.432h-0.354c-1.762-6.342-5.637-12.685-8.809-15.856l-1.938,1.938
	c4.757,3.7,10.923,17.794,10.923,29.246V104.826L407.338,104.826z M458.605,104.826c0,1.938-1.762,2.994-3.349,2.994
	c-1.408,0-2.818-0.704-3.875-1.057l-0.882,2.29c8.985,4.757,16.913,11.452,23.256,19.557c8.985-7.399,17.794-14.8,27.484-21.142
	l-0.881-2.291c-2.819,1.41-6.519,3.524-8.985,3.524c-5.638,0-6.343-5.109-6.343-11.452V23.432c0-12.509,4.405-20.26,15.152-20.26
	h0.881V0h-1.586c-16.562,0-38.231,5.99-40.697,23.432h-0.353c-1.762-6.342-5.638-12.685-8.81-15.856l-1.937,1.938
	c4.756,3.7,10.923,17.794,10.923,29.246V104.826L458.605,104.826z M545.459,32.064L517.8,43.868
	c-16.386,7.047-18.323,13.214-18.323,42.107c0,24.665,11.804,34.531,33.649,42.635c10.571-10.042,22.728-17.794,34.004-26.427
	l-1.234-1.938c-4.404,2.644-10.042,7.224-15.856,7.224c-12.155,0-21.493-9.161-24.136-19.732l38.936-24.665L545.459,32.064
	L545.459,32.064z M525.374,84.566c-0.352-1.938-0.527-3.876-0.527-8.457c0-9.161,0.352-20.789,0.527-32.417h0.354l16.561,29.951
	L525.374,84.566L525.374,84.566z M569.242,104.298c0,10.57,1.762,15.679,16.385,24.312c7.929-7.224,16.385-13.918,25.193-20.084
	c0,21.493,13.566,24.136,13.566,37.35c0,13.213-13.215,17.97-24.489,17.97c-2.29,0-10.747-0.352-10.747-3.171
	c0-3.172,10.923-0.176,10.923-12.333c0.176-8.104-8.456-11.274-15.327-11.274s-13.214,4.228-13.214,11.628
	c0,16.56,22.023,18.321,34.003,18.321c18.498,0,41.049-11.099,41.049-32.24c0-6.519-2.466-10.57-4.757-13.741
	c-2.466-3.172-4.933-5.462-4.933-8.105V62.367c0-6.343,3.172-8.809,9.866-8.809v-2.114c-13.39-2.819-26.25-9.514-35.589-19.38
	c-17.794,17.794-41.93,16.737-41.93,29.598V104.298L569.242,104.298z M610.469,105.355l-6.695,4.933
	c-1.41,1.057-2.819,1.232-3.7,1.232c-3.347,0-4.404-4.757-4.404-10.042V50.387c4.58,3.7,9.514,6.871,14.8,9.162V105.355
	L610.469,105.355z M695.387,32.064l-27.66,11.804c-16.386,7.047-18.323,13.214-18.323,42.107c0,24.665,11.804,34.531,33.65,42.635
	c10.57-10.042,22.727-17.794,34.003-26.427l-1.234-1.938c-4.404,2.644-10.042,7.224-15.856,7.224
	c-12.155,0-21.492-9.161-24.136-19.732l38.936-24.665L695.387,32.064L695.387,32.064z M675.302,84.566
	c-0.353-1.938-0.528-3.876-0.528-8.457c0-9.161,0.352-20.789,0.528-32.417h0.353l16.56,29.951L675.302,84.566L675.302,84.566z"/>
<path fill="#767676" d="M9.347,204.316h5.103V180.2h9.136v-4.692H0.21v4.692h9.136V204.316L9.347,204.316z M31.685,204.316h5.062
	v-12.142h13.745v12.142h5.062v-28.809h-5.062v11.977H36.747v-11.977h-5.062V204.316L31.685,204.316z M66.415,204.316h21.565v-4.527
	H71.477v-7.737h14.445v-4.526H71.477v-7.49h16.297v-4.527H66.415V204.316L66.415,204.316z M124.318,204.769
	c7.531,0,12.387-4.321,12.387-12.923v-16.338h-5.062v16.585c0,5.31-2.757,8.025-7.243,8.025c-4.527,0-7.284-2.881-7.284-8.231
	v-16.379h-5.062v16.585C112.054,200.447,116.828,204.769,124.318,204.769L124.318,204.769z M147.244,204.316h4.98v-20.495
	l15.885,20.495h4.239v-28.809h-4.979v19.919l-15.433-19.919h-4.692V204.316L147.244,204.316z M183.34,204.316h5.062v-28.809h-5.062
	V204.316L183.34,204.316z M208.354,204.522h4.445l11.976-29.015H219.3l-8.642,22.142l-8.684-22.142h-5.597L208.354,204.522
	L208.354,204.522z M232.688,204.316h21.564v-4.527H237.75v-7.737h14.446v-4.526H237.75v-7.49h16.298v-4.527h-21.359V204.316
	L232.688,204.316z M263.677,204.316h5.061v-10.042h6.338l7.079,10.042h5.967l-7.778-10.906c4.033-1.152,6.873-3.992,6.873-8.726
	v-0.082c0-2.51-0.865-4.649-2.387-6.214c-1.852-1.811-4.692-2.881-8.313-2.881h-12.84V204.316L263.677,204.316z M268.738,189.788
	v-9.671h7.367c3.745,0,5.967,1.688,5.967,4.773v0.082c0,2.922-2.304,4.815-5.926,4.815H268.738L268.738,189.788z M306.46,204.727
	c6.05,0,10.289-3.21,10.289-8.601v-0.082c0-4.774-3.169-6.955-9.26-8.437c-5.515-1.317-6.832-2.305-6.832-4.527v-0.082
	c0-1.893,1.729-3.416,4.692-3.416c2.634,0,5.226,1.029,7.819,2.963l2.716-3.827c-2.922-2.346-6.255-3.622-10.453-3.622
	c-5.72,0-9.836,3.416-9.836,8.355v0.082c0,5.309,3.457,7.12,9.589,8.601c5.35,1.235,6.503,2.346,6.503,4.404v0.082
	c0,2.181-1.976,3.622-5.103,3.622c-3.581,0-6.338-1.358-9.096-3.745l-3.045,3.621C297.9,203.205,302.057,204.727,306.46,204.727
	L306.46,204.727z M326.189,204.316h5.062v-28.809h-5.062V204.316L326.189,204.316z M348.568,204.316h5.104V180.2h9.136v-4.692
	h-23.376v4.692h9.136V204.316L348.568,204.316z M380.878,204.316h5.104v-11.482l11.44-17.326h-5.802l-8.148,12.758l-8.066-12.758
	h-5.968l11.44,17.449V204.316L380.878,204.316z M434.132,204.81c8.848,0,15.103-6.791,15.103-14.897v-0.082
	c0-8.108-6.173-14.816-15.021-14.816c-8.848,0-15.104,6.791-15.104,14.898v0.082C419.109,198.102,425.283,204.81,434.132,204.81
	L434.132,204.81z M434.213,200.159c-5.72,0-9.795-4.65-9.795-10.247v-0.082c0-5.597,3.992-10.165,9.714-10.165
	c5.72,0,9.794,4.65,9.794,10.247v0.082C443.926,195.591,439.934,200.159,434.213,200.159L434.213,200.159z M458.654,204.316h5.062
	v-11.729h14.528v-4.609h-14.528v-7.86h16.38v-4.609h-21.441V204.316L458.654,204.316z M517.545,204.81
	c5.392,0,8.684-1.976,11.688-5.103l-3.252-3.293c-2.469,2.305-4.732,3.745-8.272,3.745c-5.514,0-9.506-4.609-9.506-10.247v-0.082
	c0-5.638,3.992-10.165,9.506-10.165c3.293,0,5.763,1.44,8.067,3.58l3.251-3.745c-2.757-2.634-5.967-4.486-11.276-4.486
	c-8.725,0-14.856,6.708-14.856,14.898v0.082C502.895,198.266,509.149,204.81,517.545,204.81L517.545,204.81z M537.541,204.316h5.062
	v-12.142h13.746v12.142h5.062v-28.809h-5.062v11.977h-13.746v-11.977h-5.062V204.316L537.541,204.316z M572.403,204.316h5.062
	v-28.809h-5.062V204.316L572.403,204.316z M601.659,204.81c5.391,0,8.684-1.976,11.688-5.103l-3.251-3.293
	c-2.47,2.305-4.733,3.745-8.272,3.745c-5.514,0-9.506-4.609-9.506-10.247v-0.082c0-5.638,3.992-10.165,9.506-10.165
	c3.293,0,5.762,1.44,8.066,3.58l3.252-3.745c-2.758-2.634-5.969-4.486-11.277-4.486c-8.724,0-14.855,6.708-14.855,14.898v0.082
	C587.009,198.266,593.264,204.81,601.659,204.81L601.659,204.81z M619.351,204.316h5.186l2.963-6.955h13.622l2.922,6.955h5.351
	l-12.676-29.015h-4.691L619.351,204.316L619.351,204.316z M629.352,192.875l4.938-11.523l4.98,11.523H629.352L629.352,192.875z
	 M669.398,204.81c5.103,0,9.177-2.058,12.017-4.485v-12.1h-12.264v4.403h7.367v5.391c-1.771,1.317-4.239,2.182-6.956,2.182
	c-5.885,0-9.794-4.362-9.794-10.288v-0.082c0-5.515,4.033-10.165,9.342-10.165c3.662,0,5.844,1.193,8.066,3.086l3.21-3.827
	c-2.964-2.511-6.051-3.91-11.071-3.91c-8.684,0-14.856,6.832-14.856,14.898v0.082C654.459,198.39,660.386,204.81,669.398,204.81
	L669.398,204.81z M704.877,204.81c8.849,0,15.104-6.791,15.104-14.897v-0.082c0-8.108-6.173-14.816-15.021-14.816
	c-8.848,0-15.104,6.791-15.104,14.898v0.082C689.855,198.102,696.028,204.81,704.877,204.81L704.877,204.81z M704.959,200.159
	c-5.72,0-9.795-4.65-9.795-10.247v-0.082c0-5.597,3.992-10.165,9.713-10.165s9.794,4.65,9.794,10.247v0.082
	C714.671,195.591,710.68,200.159,704.959,200.159L704.959,200.159z"/>
</svg>
